<svg xmlns="http://www.w3.org/2000/svg" viewBox="-121.2,-80 1182.8,1100"><rect fill="white" x="-121.2" y="-80" width="1182.8" height="1100"/><rect fill="honeydew" x="0" y="0" width="1000" height="1000"/><line stroke="lightgray" stroke-width="1" opacity="0.35" x1="90.9091" y1="0" x2="90.9091" y2="1000"/><line stroke="lightgray" stroke-width="1" opacity="0.35" x1="272.727" y1="0" x2="272.727" y2="1000"/><line stroke="lightgray" stroke-width="1" opacity="0.35" x1="454.546" y1="0" x2="454.546" y2="1000"/><line stroke="lightgray" stroke-width="1" opacity="0.35" x1="636.364" y1="0" x2="636.364" y2="1000"/><line stroke="lightgray" stroke-width="1" opacity="0.35" x1="818.182" y1="0" x2="818.182" y2="1000"/><line stroke="lightgray" stroke-width="1" opacity="0.35" x1="0" y1="800" x2="1000" y2="800"/><line stroke="lightgray" stroke-width="1" opacity="0.35" x1="0" y1="600" x2="1000" y2="600"/><line stroke="lightgray" stroke-width="1" opacity="0.35" x1="0" y1="400" x2="1000" y2="400"/><line stroke="lightgray" stroke-width="1" opacity="0.35" x1="0" y1="200" x2="1000" y2="200"/><polyline stroke="seagreen" stroke-width="1" opacity="0.55" fill-opacity="0" stroke-dasharray="12,6" points="0,800 1000,200"/><polyline stroke="tomato" stroke-width="4" opacity="1" fill-opacity="0" points="0,820 90.9091,760 181.818,710 272.727,610 363.636,570 454.546,480 545.455,390 636.364,320 727.273,260 818.182,180 909.091,130 1000,60"/><circle fill="steelblue" fill-opacity="1" r="7" cx="0" cy="820"/><circle fill="steelblue" fill-opacity="1" r="7" cx="90.9091" cy="760"/><circle fill="steelblue" fill-opacity="1" r="7" cx="181.818" cy="710"/><circle fill="steelblue" fill-opacity="1" r="7" cx="272.727" cy="610"/><circle fill="steelblue" fill-opacity="1" r="7" cx="363.636" cy="570"/><circle fill="steelblue" fill-opacity="1" r="7" cx="454.546" cy="480"/><circle fill="steelblue" fill-opacity="1" r="7" cx="545.455" cy="390"/><circle fill="steelblue" fill-opacity="1" r="7" cx="636.364" cy="320"/><circle fill="steelblue" fill-opacity="1" r="7" cx="727.273" cy="260"/><circle fill="steelblue" fill-opacity="1" r="7" cx="818.182" cy="180"/><circle fill="steelblue" fill-opacity="1" r="7" cx="909.091" cy="130"/><circle fill="steelblue" fill-opacity="1" r="7" cx="1000" cy="60"/><rect fill="seagreen" fill-opacity="1" x="-113.2" y="476" width="20" height="8"/><text fill="dimgray" fill-opacity="1" x="-87.2" y="480" font-size="12" dominant-baseline="central">Target Band</text><rect fill="tomato" fill-opacity="1" x="-113.2" y="496" width="20" height="8"/><text fill="dimgray" fill-opacity="1" x="-87.2" y="500" font-size="12" dominant-baseline="central">Adoption</text><rect fill="steelblue" fill-opacity="1" x="-113.2" y="516" width="20" height="8"/><text fill="dimgray" fill-opacity="1" x="-87.2" y="520" font-size="12" dominant-baseline="central">Checkpoints</text><line stroke="dimgray" stroke-width="1" opacity="1" x1="0" y1="0" x2="1000" y2="0"/><line stroke="dimgray" stroke-width="1" opacity="1" x1="90.9091" y1="0" x2="90.9091" y2="-10"/><text fill="dimgray" fill-opacity="1" x="90.9091" y="-13" font-size="14" text-anchor="middle" dominant-baseline="alphabetic">Feb</text><line stroke="dimgray" stroke-width="1" opacity="1" x1="272.727" y1="0" x2="272.727" y2="-10"/><text fill="dimgray" fill-opacity="1" x="272.727" y="-13" font-size="14" text-anchor="middle" dominant-baseline="alphabetic">Apr</text><line stroke="dimgray" stroke-width="1" opacity="1" x1="454.546" y1="0" x2="454.546" y2="-10"/><text fill="dimgray" fill-opacity="1" x="454.546" y="-13" font-size="14" text-anchor="middle" dominant-baseline="alphabetic">Jun</text><line stroke="dimgray" stroke-width="1" opacity="1" x1="636.364" y1="0" x2="636.364" y2="-10"/><text fill="dimgray" fill-opacity="1" x="636.364" y="-13" font-size="14" text-anchor="middle" dominant-baseline="alphabetic">Aug</text><line stroke="dimgray" stroke-width="1" opacity="1" x1="818.182" y1="0" x2="818.182" y2="-10"/><text fill="dimgray" fill-opacity="1" x="818.182" y="-13" font-size="14" text-anchor="middle" dominant-baseline="alphabetic">Oct</text><text fill="dimgray" fill-opacity="1" x="500" y="-28" font-size="14" text-anchor="middle" dominant-baseline="alphabetic">Campaign Timeline</text><text fill="dimgray" fill-opacity="1" x="1010" y="1000" font-size="14" text-anchor="start" dominant-baseline="central">0%</text><line stroke="dimgray" stroke-width="1" opacity="1" x1="1000" y1="800" x2="1006" y2="800"/><text fill="dimgray" fill-opacity="1" x="1010" y="800" font-size="14" text-anchor="start" dominant-baseline="central">20%</text><line stroke="dimgray" stroke-width="1" opacity="1" x1="1000" y1="600" x2="1006" y2="600"/><text fill="dimgray" fill-opacity="1" x="1010" y="600" font-size="14" text-anchor="start" dominant-baseline="central">40%</text><line stroke="dimgray" stroke-width="1" opacity="1" x1="1000" y1="400" x2="1006" y2="400"/><text fill="dimgray" fill-opacity="1" x="1010" y="400" font-size="14" text-anchor="start" dominant-baseline="central">60%</text><line stroke="dimgray" stroke-width="1" opacity="1" x1="1000" y1="200" x2="1006" y2="200"/><text fill="dimgray" fill-opacity="1" x="1010" y="200" font-size="14" text-anchor="start" dominant-baseline="central">80%</text><text fill="dimgray" fill-opacity="1" x="1010" y="0" font-size="14" text-anchor="start" dominant-baseline="central">100%</text><text fill="dimgray" fill-opacity="1" transform="rotate(90,1054.6,500)" x="1054.6" y="500" font-size="14" text-anchor="start" dominant-baseline="central">Coverage</text><text fill="black" fill-opacity="1" x="500" y="-74" font-size="22" text-anchor="middle" dominant-baseline="hanging">Axis Styling</text></svg>