<svg xmlns="http://www.w3.org/2000/svg" viewBox="-54.8,-62 1074.8,1082"><rect fill="white" x="-54.8" y="-62" width="1074.8" height="1082"/><line stroke="lightgray" stroke-width="1" opacity="1" x1="333.333" y1="0" x2="333.333" y2="1000"/><line stroke="lightgray" stroke-width="1" opacity="1" x1="666.667" y1="0" x2="666.667" y2="1000"/><line stroke="lightgray" stroke-width="1" opacity="1" x1="0" y1="1000" x2="1000" y2="1000"/><line stroke="lightgray" stroke-width="1" opacity="1" x1="0" y1="750" x2="1000" y2="750"/><line stroke="lightgray" stroke-width="1" opacity="1" x1="0" y1="500" x2="1000" y2="500"/><line stroke="lightgray" stroke-width="1" opacity="1" x1="0" y1="250" x2="1000" y2="250"/><line stroke="lightgray" stroke-width="1" opacity="1" x1="0" y1="0" x2="1000" y2="0"/><rect stroke="steelblue" stroke-width="1" fill="steelblue" opacity="1" fill-opacity="1" x="25" y="533.333" width="66.6667" height="466.667"/><rect stroke="steelblue" stroke-width="1" fill="steelblue" opacity="1" fill-opacity="1" x="275" y="388.889" width="66.6667" height="611.111"/><rect stroke="steelblue" stroke-width="1" fill="steelblue" opacity="1" fill-opacity="1" x="525" y="322.222" width="66.6667" height="677.778"/><rect stroke="steelblue" stroke-width="1" fill="steelblue" opacity="1" fill-opacity="1" x="775" y="188.889" width="66.6667" height="811.111"/><rect stroke="coral" stroke-width="1" fill="coral" opacity="1" fill-opacity="1" x="91.6667" y="688.889" width="66.6667" height="311.111"/><rect stroke="coral" stroke-width="1" fill="coral" opacity="1" fill-opacity="1" x="341.667" y="655.556" width="66.6667" height="344.444"/><rect stroke="coral" stroke-width="1" fill="coral" opacity="1" fill-opacity="1" x="591.667" y="500" width="66.6667" height="500"/><rect stroke="coral" stroke-width="1" fill="coral" opacity="1" fill-opacity="1" x="841.667" y="422.222" width="66.6667" height="577.778"/><rect stroke="mediumseagreen" stroke-width="1" fill="mediumseagreen" opacity="1" fill-opacity="1" x="158.333" y="833.333" width="66.6667" height="166.667"/><rect stroke="mediumseagreen" stroke-width="1" fill="mediumseagreen" opacity="1" fill-opacity="1" x="408.333" y="755.556" width="66.6667" height="244.444"/><rect stroke="mediumseagreen" stroke-width="1" fill="mediumseagreen" opacity="1" fill-opacity="1" x="658.333" y="577.778" width="66.6667" height="422.222"/><rect stroke="mediumseagreen" stroke-width="1" fill="mediumseagreen" opacity="1" fill-opacity="1" x="908.333" y="544.444" width="66.6667" height="455.556"/><rect fill="steelblue" fill-opacity="1" x="347.8" y="-54" width="20" height="8"/><text fill="dimgray" fill-opacity="1" x="373.8" y="-50" font-size="12" dominant-baseline="central">Product A</text><rect fill="coral" fill-opacity="1" x="454.6" y="-54" width="20" height="8"/><text fill="dimgray" fill-opacity="1" x="480.6" y="-50" font-size="12" dominant-baseline="central">Product B</text><rect fill="mediumseagreen" fill-opacity="1" x="561.4" y="-54" width="20" height="8"/><text fill="dimgray" fill-opacity="1" x="587.4" y="-50" font-size="12" dominant-baseline="central">Product C</text><line stroke="dimgray" stroke-width="1" opacity="1" x1="0" y1="1000" x2="1000" y2="1000"/><line stroke="dimgray" stroke-width="1" opacity="1" x1="333.333" y1="1000" x2="333.333" y2="1006"/><text fill="dimgray" fill-opacity="1" x="333.333" y="1008" font-size="12" text-anchor="middle" dominant-baseline="hanging"></text><line stroke="dimgray" stroke-width="1" opacity="1" x1="666.667" y1="1000" x2="666.667" y2="1006"/><text fill="dimgray" fill-opacity="1" x="666.667" y="1008" font-size="12" text-anchor="middle" dominant-baseline="hanging"></text><line stroke="dimgray" stroke-width="1" opacity="1" x1="0" y1="1000" x2="0" y2="0"/><line stroke="dimgray" stroke-width="1" opacity="1" x1="0" y1="1000" x2="-6" y2="1000"/><text fill="dimgray" fill-opacity="1" x="-10" y="1000" font-size="12" text-anchor="end" dominant-baseline="central">0</text><line stroke="dimgray" stroke-width="1" opacity="1" x1="0" y1="750" x2="-6" y2="750"/><text fill="dimgray" fill-opacity="1" x="-10" y="750" font-size="12" text-anchor="end" dominant-baseline="central">22.5</text><line stroke="dimgray" stroke-width="1" opacity="1" x1="0" y1="500" x2="-6" y2="500"/><text fill="dimgray" fill-opacity="1" x="-10" y="500" font-size="12" text-anchor="end" dominant-baseline="central">45</text><line stroke="dimgray" stroke-width="1" opacity="1" x1="0" y1="250" x2="-6" y2="250"/><text fill="dimgray" fill-opacity="1" x="-10" y="250" font-size="12" text-anchor="end" dominant-baseline="central">67.5</text><line stroke="dimgray" stroke-width="1" opacity="1" x1="0" y1="0" x2="-6" y2="0"/><text fill="dimgray" fill-opacity="1" x="-10" y="0" font-size="12" text-anchor="end" dominant-baseline="central">90</text><text fill="dimgray" fill-opacity="1" transform="rotate(-90,-48.8,500)" x="-48.8" y="500" font-size="12" text-anchor="middle" dominant-baseline="central">$M</text><text fill="black" fill-opacity="1" x="500" y="-56" font-size="22" text-anchor="middle" dominant-baseline="hanging">Quarterly Revenue by Product</text></svg>