<svg xmlns="http://www.w3.org/2000/svg" viewBox="-31.6,-38 1124,1058"><rect fill="white" x="-31.6" y="-38" width="1124" height="1058"/><line stroke="lightgray" stroke-width="1" opacity="1" x1="500" y1="0" x2="500" y2="1000"/><line stroke="lightgray" stroke-width="1" opacity="1" x1="0" y1="1000" x2="1000" y2="1000"/><line stroke="lightgray" stroke-width="1" opacity="1" x1="0" y1="800" x2="1000" y2="800"/><line stroke="lightgray" stroke-width="1" opacity="1" x1="0" y1="600" x2="1000" y2="600"/><line stroke="lightgray" stroke-width="1" opacity="1" x1="0" y1="400" x2="1000" y2="400"/><line stroke="lightgray" stroke-width="1" opacity="1" x1="0" y1="200" x2="1000" y2="200"/><line stroke="lightgray" stroke-width="1" opacity="1" x1="0" y1="0" x2="1000" y2="0"/><rect stroke="steelblue" stroke-width="1" fill="steelblue" opacity="1" fill-opacity="0.2" x="210" y="503.073" width="80" height="148.201"/><line stroke="steelblue" stroke-width="1" opacity="1" x1="210" y1="573.423" x2="290" y2="573.423"/><line stroke="steelblue" stroke-width="1" opacity="1" x1="250" y1="651.274" x2="250" y2="832.107"/><line stroke="steelblue" stroke-width="1" opacity="1" x1="250" y1="503.073" x2="250" y2="330.503"/><line stroke="steelblue" stroke-width="1" opacity="1" x1="230" y1="832.107" x2="270" y2="832.107"/><line stroke="steelblue" stroke-width="1" opacity="1" x1="230" y1="330.503" x2="270" y2="330.503"/><rect stroke="tomato" stroke-width="1" fill="tomato" opacity="1" fill-opacity="0.2" x="460" y="395.708" width="80" height="113.954"/><line stroke="tomato" stroke-width="1" opacity="1" x1="460" y1="447.608" x2="540" y2="447.608"/><line stroke="tomato" stroke-width="1" opacity="1" x1="500" y1="509.661" x2="500" y2="654.198"/><line stroke="tomato" stroke-width="1" opacity="1" x1="500" y1="395.708" x2="500" y2="297.871"/><line stroke="tomato" stroke-width="1" opacity="1" x1="480" y1="654.198" x2="520" y2="654.198"/><line stroke="tomato" stroke-width="1" opacity="1" x1="480" y1="297.871" x2="520" y2="297.871"/><rect stroke="seagreen" stroke-width="1" fill="seagreen" opacity="1" fill-opacity="0.2" x="710" y="493.121" width="80" height="183.016"/><line stroke="seagreen" stroke-width="1" opacity="1" x1="710" y1="577.003" x2="790" y2="577.003"/><line stroke="seagreen" stroke-width="1" opacity="1" x1="750" y1="676.136" x2="750" y2="982.471"/><line stroke="seagreen" stroke-width="1" opacity="1" x1="750" y1="493.121" x2="750" y2="213.321"/><line stroke="seagreen" stroke-width="1" opacity="1" x1="730" y1="982.471" x2="770" y2="982.471"/><line stroke="seagreen" stroke-width="1" opacity="1" x1="730" y1="213.321" x2="770" y2="213.321"/><rect fill="steelblue" fill-opacity="1" x="1008" y="476" width="20" height="8"/><text fill="dimgray" fill-opacity="1" x="1034" y="480" font-size="12" dominant-baseline="central">Group A</text><rect fill="tomato" fill-opacity="1" x="1008" y="496" width="20" height="8"/><text fill="dimgray" fill-opacity="1" x="1034" y="500" font-size="12" dominant-baseline="central">Group B</text><rect fill="seagreen" fill-opacity="1" x="1008" y="516" width="20" height="8"/><text fill="dimgray" fill-opacity="1" x="1034" y="520" font-size="12" dominant-baseline="central">Group C</text><line stroke="dimgray" stroke-width="1" opacity="1" x1="0" y1="1000" x2="1000" y2="1000"/><line stroke="dimgray" stroke-width="1" opacity="1" x1="500" y1="1000" x2="500" y2="1006"/><text fill="dimgray" fill-opacity="1" x="500" y="1008" font-size="12" text-anchor="middle" dominant-baseline="hanging">B</text><line stroke="dimgray" stroke-width="1" opacity="1" x1="0" y1="1000" x2="0" y2="0"/><line stroke="dimgray" stroke-width="1" opacity="1" x1="0" y1="1000" x2="-6" y2="1000"/><text fill="dimgray" fill-opacity="1" x="-10" y="1000" font-size="12" text-anchor="end" dominant-baseline="central">0</text><line stroke="dimgray" stroke-width="1" opacity="1" x1="0" y1="800" x2="-6" y2="800"/><text fill="dimgray" fill-opacity="1" x="-10" y="800" font-size="12" text-anchor="end" dominant-baseline="central">2.4</text><line stroke="dimgray" stroke-width="1" opacity="1" x1="0" y1="600" x2="-6" y2="600"/><text fill="dimgray" fill-opacity="1" x="-10" y="600" font-size="12" text-anchor="end" dominant-baseline="central">4.8</text><line stroke="dimgray" stroke-width="1" opacity="1" x1="0" y1="400" x2="-6" y2="400"/><text fill="dimgray" fill-opacity="1" x="-10" y="400" font-size="12" text-anchor="end" dominant-baseline="central">7.2</text><line stroke="dimgray" stroke-width="1" opacity="1" x1="0" y1="200" x2="-6" y2="200"/><text fill="dimgray" fill-opacity="1" x="-10" y="200" font-size="12" text-anchor="end" dominant-baseline="central">9.6</text><line stroke="dimgray" stroke-width="1" opacity="1" x1="0" y1="0" x2="-6" y2="0"/><text fill="dimgray" fill-opacity="1" x="-10" y="0" font-size="12" text-anchor="end" dominant-baseline="central">12</text><text fill="black" fill-opacity="1" x="500" y="-32" font-size="22" text-anchor="middle" dominant-baseline="hanging">Box Plot</text></svg>