<svg xmlns="http://www.w3.org/2000/svg" viewBox="-20,-38 1119.6,1058"><rect fill="white" x="-20" y="-38" width="1119.6" height="1058"/><line stroke="lightgray" stroke-width="1" opacity="1" x1="250" y1="0" x2="250" y2="1000"/><line stroke="lightgray" stroke-width="1" opacity="1" x1="500" y1="0" x2="500" y2="1000"/><line stroke="lightgray" stroke-width="1" opacity="1" x1="750" y1="0" x2="750" y2="1000"/><line stroke="lightgray" stroke-width="1" opacity="1" x1="1000" y1="0" x2="1000" y2="1000"/><line stroke="lightgray" stroke-width="1" opacity="1" x1="0" y1="1000" x2="1000" y2="1000"/><line stroke="lightgray" stroke-width="1" opacity="1" x1="0" y1="750" x2="1000" y2="750"/><line stroke="lightgray" stroke-width="1" opacity="1" x1="0" y1="500" x2="1000" y2="500"/><line stroke="lightgray" stroke-width="1" opacity="1" x1="0" y1="250" x2="1000" y2="250"/><line stroke="lightgray" stroke-width="1" opacity="1" x1="0" y1="0" x2="1000" y2="0"/><circle fill="steelblue" fill-opacity="0.5" r="40" cx="897.647" cy="287.5"/><circle fill="steelblue" fill-opacity="0.5" r="13.3725" cx="611.765" cy="180"/><circle fill="steelblue" fill-opacity="0.5" r="24.5429" cx="125.882" cy="375"/><circle fill="steelblue" fill-opacity="0.5" r="31.8082" cx="108.235" cy="372.5"/><circle fill="coral" fill-opacity="0.5" r="40" cx="610.588" cy="222.5"/><circle fill="coral" fill-opacity="0.5" r="35.9894" cx="540" cy="217.5"/><circle fill="coral" fill-opacity="0.5" r="35.9894" cx="505.882" cy="190"/><circle fill="coral" fill-opacity="0.5" r="33.8062" cx="390.588" cy="165"/><circle fill="seagreen" fill-opacity="0.5" r="11.7851" cx="400" cy="142.5"/><circle fill="seagreen" fill-opacity="0.5" r="7.6012" cx="387.059" cy="162.5"/><circle fill="seagreen" fill-opacity="0.5" r="39.5952" cx="142.353" cy="302.5"/><circle fill="seagreen" fill-opacity="0.5" r="40" cx="29.4118" cy="502.5"/><circle fill="tomato" fill-opacity="0.5" r="20.8893" cx="83.5294" cy="632.5"/><circle fill="tomato" fill-opacity="0.5" r="18.2906" cx="45.8824" cy="520"/><circle fill="tomato" fill-opacity="0.5" r="40" cx="25.8824" cy="882.5"/><circle fill="tomato" fill-opacity="0.5" r="28.92" cx="23.5294" cy="587.5"/><circle fill="steelblue" fill-opacity="0.5" r="4" cx="1018" cy="470"/><text fill="dimgray" fill-opacity="1" x="1034" y="470" font-size="12" dominant-baseline="central">Americas</text><circle fill="coral" fill-opacity="0.5" r="4" cx="1018" cy="490"/><text fill="dimgray" fill-opacity="1" x="1034" y="490" font-size="12" dominant-baseline="central">Europe</text><circle fill="seagreen" fill-opacity="0.5" r="4" cx="1018" cy="510"/><text fill="dimgray" fill-opacity="1" x="1034" y="510" font-size="12" dominant-baseline="central">Asia</text><circle fill="tomato" fill-opacity="0.5" r="4" cx="1018" cy="530"/><text fill="dimgray" fill-opacity="1" x="1034" y="530" font-size="12" dominant-baseline="central">Africa</text><line stroke="dimgray" stroke-width="1" opacity="1" x1="0" y1="1000" x2="1000" y2="1000"/><line stroke="dimgray" stroke-width="1" opacity="1" x1="250" y1="1000" x2="250" y2="1006"/><text fill="dimgray" fill-opacity="1" x="250" y="1008" font-size="12" text-anchor="middle" dominant-baseline="hanging">21.25</text><line stroke="dimgray" stroke-width="1" opacity="1" x1="500" y1="1000" x2="500" y2="1006"/><text fill="dimgray" fill-opacity="1" x="500" y="1008" font-size="12" text-anchor="middle" dominant-baseline="hanging">42.5</text><line stroke="dimgray" stroke-width="1" opacity="1" x1="750" y1="1000" x2="750" y2="1006"/><text fill="dimgray" fill-opacity="1" x="750" y="1008" font-size="12" text-anchor="middle" dominant-baseline="hanging">63.75</text><line stroke="dimgray" stroke-width="1" opacity="1" x1="1000" y1="1000" x2="1000" y2="1006"/><text fill="dimgray" fill-opacity="1" x="1000" y="1008" font-size="12" text-anchor="middle" dominant-baseline="hanging">85</text><line stroke="dimgray" stroke-width="1" opacity="1" x1="0" y1="1000" x2="0" y2="0"/><line stroke="dimgray" stroke-width="1" opacity="1" x1="0" y1="1000" x2="6" y2="1000"/><text fill="dimgray" fill-opacity="1" x="10" y="1000" font-size="12" text-anchor="start" dominant-baseline="central">50</text><line stroke="dimgray" stroke-width="1" opacity="1" x1="0" y1="750" x2="6" y2="750"/><text fill="dimgray" fill-opacity="1" x="10" y="750" font-size="12" text-anchor="start" dominant-baseline="central">60</text><line stroke="dimgray" stroke-width="1" opacity="1" x1="0" y1="500" x2="6" y2="500"/><text fill="dimgray" fill-opacity="1" x="10" y="500" font-size="12" text-anchor="start" dominant-baseline="central">70</text><line stroke="dimgray" stroke-width="1" opacity="1" x1="0" y1="250" x2="6" y2="250"/><text fill="dimgray" fill-opacity="1" x="10" y="250" font-size="12" text-anchor="start" dominant-baseline="central">80</text><line stroke="dimgray" stroke-width="1" opacity="1" x1="0" y1="0" x2="6" y2="0"/><text fill="dimgray" fill-opacity="1" x="10" y="0" font-size="12" text-anchor="start" dominant-baseline="central">90</text><text fill="black" fill-opacity="1" x="500" y="-32" font-size="22" text-anchor="middle" dominant-baseline="hanging">GDP per Capita vs Life Expectancy</text></svg>