<svg xmlns="http://www.w3.org/2000/svg" viewBox="-20,-32 1040,1052"><rect fill="darkslategray" x="-20" y="-32" width="1040" height="1052"/><text fill="lightgray" x="220" y="125" font-size="55" text-anchor="end" dominant-baseline="central">Yield Rate %</text><rect fill="cornflowerblue" fill-opacity="0.38333333333333336" x="240" y="90" width="635.354" height="70"/><rect fill="cornflowerblue" fill-opacity="0.5666666666666667" x="875.354" y="90" width="59.798" height="70"/><rect fill="cornflowerblue" fill-opacity="0.75" x="935.152" y="90" width="44.8485" height="70"/><rect fill="cornflowerblue" fill-opacity="1" x="240" y="105" width="719.071" height="40"/><rect fill="cornflowerblue" fill-opacity="1" x="961.051" y="70" width="8" height="110"/><text fill="lightgray" x="220" y="375" font-size="55" text-anchor="end" dominant-baseline="central">Defects / 1000</text><rect fill="cornflowerblue" fill-opacity="0.38333333333333336" x="240" y="340" width="14.9495" height="70"/><rect fill="cornflowerblue" fill-opacity="0.5666666666666667" x="254.95" y="340" width="22.4242" height="70"/><rect fill="cornflowerblue" fill-opacity="0.75" x="277.374" y="340" width="22.4242" height="70"/><rect fill="cornflowerblue" fill-opacity="1" x="240" y="355" width="28.404" height="40"/><rect fill="cornflowerblue" fill-opacity="1" x="258.424" y="320" width="8" height="110"/><text fill="lightgray" x="220" y="625" font-size="55" text-anchor="end" dominant-baseline="central">Uptime %</text><rect fill="cornflowerblue" fill-opacity="0.38333333333333336" x="240" y="590" width="597.98" height="70"/><rect fill="cornflowerblue" fill-opacity="0.5666666666666667" x="837.98" y="590" width="74.7475" height="70"/><rect fill="cornflowerblue" fill-opacity="0.75" x="912.727" y="590" width="59.798" height="70"/><rect fill="cornflowerblue" fill-opacity="1" x="240" y="605" width="683.939" height="40"/><rect fill="cornflowerblue" fill-opacity="1" x="931.152" y="570" width="8" height="110"/><text fill="lightgray" x="220" y="875" font-size="55" text-anchor="end" dominant-baseline="central">OEE %</text><rect fill="cornflowerblue" fill-opacity="0.38333333333333336" x="240" y="840" width="448.485" height="70"/><rect fill="cornflowerblue" fill-opacity="0.5666666666666667" x="688.485" y="840" width="112.121" height="70"/><rect fill="cornflowerblue" fill-opacity="0.75" x="800.606" y="840" width="112.121" height="70"/><rect fill="cornflowerblue" fill-opacity="1" x="240" y="855" width="585.273" height="40"/><rect fill="cornflowerblue" fill-opacity="1" x="833.98" y="820" width="8" height="110"/><text fill="black" fill-opacity="1" x="500" y="-26" font-size="16" text-anchor="middle" dominant-baseline="hanging">Manufacturing Quality Metrics</text></svg>