<svg xmlns="http://www.w3.org/2000/svg" viewBox="-20,-32 1040,1052"><rect fill="white" x="-20" y="-32" width="1040" height="1052"/><text fill="dimgray" x="220" y="166.667" font-size="73.33333333333333" text-anchor="end" dominant-baseline="central">Revenue ($M)</text><rect fill="steelblue" fill-opacity="0.38333333333333336" x="240" y="120" width="493.333" height="93.3333"/><rect fill="steelblue" fill-opacity="0.5666666666666667" x="733.333" y="120" width="123.333" height="93.3333"/><rect fill="steelblue" fill-opacity="0.75" x="856.667" y="120" width="123.333" height="93.3333"/><rect fill="steelblue" fill-opacity="1" x="240" y="140" width="678.333" height="53.3333"/><rect fill="steelblue" fill-opacity="1" x="877.333" y="93.3333" width="8" height="146.667"/><text fill="dimgray" x="220" y="500" font-size="73.33333333333333" text-anchor="end" dominant-baseline="central">Customer NPS</text><rect fill="steelblue" fill-opacity="0.38333333333333336" x="240" y="453.333" width="49.3333" height="93.3333"/><rect fill="steelblue" fill-opacity="0.5666666666666667" x="289.333" y="453.333" width="49.3333" height="93.3333"/><rect fill="steelblue" fill-opacity="0.75" x="338.667" y="453.333" width="74" height="93.3333"/><rect fill="steelblue" fill-opacity="1" x="240" y="473.333" width="103.6" height="53.3333"/><rect fill="steelblue" fill-opacity="1" x="359.333" y="426.667" width="8" height="146.667"/><text fill="dimgray" x="220" y="833.333" font-size="73.33333333333333" text-anchor="end" dominant-baseline="central">Retention %</text><rect fill="steelblue" fill-opacity="0.38333333333333336" x="240" y="786.667" width="172.667" height="93.3333"/><rect fill="steelblue" fill-opacity="0.5666666666666667" x="412.667" y="786.667" width="29.6" height="93.3333"/><rect fill="steelblue" fill-opacity="0.75" x="442.267" y="786.667" width="32.0667" height="93.3333"/><rect fill="steelblue" fill-opacity="1" x="240" y="806.667" width="217.067" height="53.3333"/><rect fill="steelblue" fill-opacity="1" x="445.667" y="760" width="8" height="146.667"/><text fill="black" fill-opacity="1" x="500" y="-26" font-size="16" text-anchor="middle" dominant-baseline="hanging">Q3 KPI Dashboard</text></svg>