<svg xmlns="http://www.w3.org/2000/svg" viewBox="-20,-38 1040,1058"><rect fill="white" x="-20" y="-38" width="1040" height="1058"/><line stroke="lightgray" stroke-width="1" opacity="1" x1="83.3333" y1="0" x2="83.3333" y2="1000"/><line stroke="lightgray" stroke-width="1" opacity="1" x1="291.667" y1="0" x2="291.667" y2="1000"/><line stroke="lightgray" stroke-width="1" opacity="1" x1="708.333" y1="0" x2="708.333" y2="1000"/><line stroke="lightgray" stroke-width="1" opacity="1" x1="916.667" y1="0" x2="916.667" y2="1000"/><line stroke="lightgray" stroke-width="1" opacity="1" x1="0" y1="916.667" x2="1000" y2="916.667"/><line stroke="lightgray" stroke-width="1" opacity="1" x1="0" y1="708.333" x2="1000" y2="708.333"/><line stroke="lightgray" stroke-width="1" opacity="1" x1="0" y1="291.667" x2="1000" y2="291.667"/><line stroke="lightgray" stroke-width="1" opacity="1" x1="0" y1="83.3333" x2="1000" y2="83.3333"/><polyline stroke="steelblue" stroke-width="1" opacity="1" fill-opacity="0" points="916.667,500 915.845,473.837 913.381,447.778 909.286,421.925 903.576,396.379 896.274,371.243 887.407,346.615 877.011,322.592 865.128,299.269 851.803,276.739 837.09,255.089 821.047,234.407 803.737,214.772 785.228,196.263 765.593,178.953 744.91,162.91 723.261,148.197 700.731,134.872 677.408,122.989 653.385,112.593 628.757,103.727 603.621,96.4237 578.076,90.7136 552.222,86.6189 526.163,84.1555 500,83.3333 473.837,84.1555 447.778,86.6189 421.925,90.7136 396.379,96.4237 371.243,103.727 346.615,112.593 322.592,122.989 299.269,134.872 276.739,148.197 255.089,162.91 234.407,178.953 214.772,196.263 196.263,214.772 178.953,234.407 162.91,255.089 148.197,276.739 134.872,299.269 122.989,322.592 112.593,346.615 103.727,371.243 96.4237,396.379 90.7136,421.925 86.6189,447.778 84.1555,473.837 83.3333,500 84.1555,526.163 86.6189,552.222 90.7136,578.076 96.4237,603.621 103.727,628.757 112.593,653.385 122.989,677.408 134.872,700.731 148.197,723.261 162.91,744.91 178.953,765.593 196.263,785.228 214.772,803.737 234.407,821.047 255.089,837.09 276.739,851.803 299.269,865.128 322.592,877.011 346.615,887.407 371.243,896.274 396.379,903.576 421.925,909.286 447.778,913.381 473.837,915.845 500,916.667 526.163,915.845 552.222,913.381 578.076,909.286 603.621,903.576 628.757,896.274 653.385,887.407 677.408,877.011 700.731,865.128 723.261,851.803 744.91,837.09 765.593,821.047 785.228,803.737 803.737,785.228 821.047,765.593 837.09,744.91 851.803,723.261 865.128,700.731 877.011,677.408 887.407,653.385 896.274,628.757 903.576,603.621 909.286,578.076 913.381,552.222 915.845,526.163 916.667,500"/><polyline stroke="coral" stroke-width="1" opacity="1" fill-opacity="0" stroke-dasharray="12,6" points="500,312.5 527.727,299.83 555.208,288.032 582.198,277.152 608.46,267.235 633.758,258.318 657.87,250.437 680.58,243.624 701.687,237.904 721.004,233.301 738.359,229.833 753.599,227.513 766.587,226.351 777.21,226.351 785.372,227.513 791,229.833 794.046,233.301 794.482,237.904 792.305,243.624 787.532,250.437 780.208,258.318 770.396,267.235 758.184,277.152 743.681,288.032 727.015,299.83 708.333,312.5 687.803,325.993 665.605,340.254 641.938,355.228 617.011,370.856 591.045,387.075 564.271,403.822 536.927,421.032 509.255,438.635 481.5,456.562 453.91,474.743 426.729,493.106 400.198,511.579 374.554,530.088 350.022,548.56 326.822,566.923 305.159,585.104 285.226,603.032 267.198,620.635 251.238,637.844 237.485,654.592 226.062,670.811 217.071,686.439 210.591,701.413 206.68,715.674 205.372,729.167 206.68,741.837 210.591,753.635 217.071,764.514 226.062,774.432 237.485,783.349 251.238,791.229 267.198,798.043 285.226,803.763 305.159,808.366 326.822,811.834 350.022,814.154 374.554,815.316 400.198,815.316 426.729,814.154 453.91,811.834 481.5,808.366 509.255,803.763 536.927,798.043 564.271,791.229 591.045,783.349 617.011,774.432 641.938,764.514 665.605,753.635 687.803,741.837 708.333,729.167 727.015,715.674 743.681,701.413 758.184,686.439 770.396,670.811 780.208,654.592 787.532,637.844 792.305,620.635 794.482,603.032 794.046,585.104 791,566.923 785.372,548.56 777.21,530.088 766.587,511.579 753.599,493.106 738.359,474.743 721.004,456.562 701.687,438.635 680.58,421.032 657.87,403.822 633.758,387.075 608.46,370.856 582.198,355.228 555.208,340.254 527.727,325.993 500,312.5 472.273,299.83 444.792,288.032 417.801,277.152 391.54,267.235 366.242,258.318 342.13,250.437 319.421,243.624 298.313,237.904 278.996,233.301 261.641,229.833 246.401,227.513 233.413,226.351 222.79,226.351 214.628,227.513 209,229.833 205.954,233.301 205.518,237.904 207.695,243.624 212.468,250.437 219.792,258.318 229.604,267.235 241.816,277.152 256.319,288.032 272.985,299.83 291.667,312.5 312.197,325.993 334.395,340.254 358.062,355.228 382.989,370.856 408.955,387.075 435.729,403.822 463.073,421.032 490.745,438.635 518.5,456.562 546.09,474.743 573.271,493.106 599.802,511.579 625.446,530.088 649.978,548.56 673.178,566.923 694.841,585.104 714.774,603.032 732.802,620.635 748.763,637.844 762.515,654.592 773.938,670.811 782.929,686.439 789.409,701.413 793.32,715.674 794.628,729.167 793.32,741.837 789.409,753.635 782.929,764.514 773.938,774.432 762.515,783.349 748.763,791.229 732.802,798.043 714.774,803.763 694.841,808.366 673.178,811.834 649.978,814.154 625.446,815.316 599.802,815.316 573.271,814.154 546.09,811.834 518.5,808.366 490.745,803.763 463.073,798.043 435.729,791.229 408.955,783.349 382.989,774.432 358.062,764.514 334.395,753.635 312.197,741.837 291.667,729.167 272.985,715.674 256.319,701.413 241.816,686.439 229.604,670.811 219.792,654.592 212.468,637.844 207.695,620.635 205.518,603.032 205.954,585.104 209,566.923 214.628,548.56 222.79,530.088 233.413,511.579 246.401,493.106 261.641,474.743 278.996,456.562 298.313,438.635 319.421,421.032 342.13,403.822 366.242,387.075 391.54,370.856 417.801,355.228 444.792,340.254 472.273,325.993 500,312.5"/><line stroke="dimgray" stroke-width="1" opacity="1" x1="0" y1="500" x2="1000" y2="500"/><line stroke="dimgray" stroke-width="1" opacity="1" x1="83.3333" y1="500" x2="83.3333" y2="506"/><text fill="dimgray" fill-opacity="1" x="83.3333" y="508" font-size="12" text-anchor="middle" dominant-baseline="hanging">-1</text><line stroke="dimgray" stroke-width="1" opacity="1" x1="291.667" y1="500" x2="291.667" y2="506"/><text fill="dimgray" fill-opacity="1" x="291.667" y="508" font-size="12" text-anchor="middle" dominant-baseline="hanging">-0.5</text><line stroke="dimgray" stroke-width="1" opacity="1" x1="708.333" y1="500" x2="708.333" y2="506"/><text fill="dimgray" fill-opacity="1" x="708.333" y="508" font-size="12" text-anchor="middle" dominant-baseline="hanging">0.5</text><line stroke="dimgray" stroke-width="1" opacity="1" x1="916.667" y1="500" x2="916.667" y2="506"/><text fill="dimgray" fill-opacity="1" x="916.667" y="508" font-size="12" text-anchor="middle" dominant-baseline="hanging">1</text><line stroke="dimgray" stroke-width="1" opacity="1" x1="500" y1="1000" x2="500" y2="0"/><line stroke="dimgray" stroke-width="1" opacity="1" x1="500" y1="916.667" x2="506" y2="916.667"/><text fill="dimgray" fill-opacity="1" x="510" y="916.667" font-size="12" text-anchor="start" dominant-baseline="central">-1</text><line stroke="dimgray" stroke-width="1" opacity="1" x1="500" y1="708.333" x2="506" y2="708.333"/><text fill="dimgray" fill-opacity="1" x="510" y="708.333" font-size="12" text-anchor="start" dominant-baseline="central">-0.5</text><line stroke="dimgray" stroke-width="1" opacity="1" x1="500" y1="291.667" x2="506" y2="291.667"/><text fill="dimgray" fill-opacity="1" x="510" y="291.667" font-size="12" text-anchor="start" dominant-baseline="central">0.5</text><line stroke="dimgray" stroke-width="1" opacity="1" x1="500" y1="83.3333" x2="506" y2="83.3333"/><text fill="dimgray" fill-opacity="1" x="510" y="83.3333" font-size="12" text-anchor="start" dominant-baseline="central">1</text><text fill="black" fill-opacity="1" x="500" y="-32" font-size="22" text-anchor="middle" dominant-baseline="hanging">Centered Axes</text></svg>