<svg xmlns="http://www.w3.org/2000/svg" viewBox="-54.8,-38 1125.6,1058"><rect fill="white" x="-54.8" y="-38" width="1125.6" height="1058"/><line stroke="lightgray" stroke-width="1" opacity="1" x1="90.9091" y1="0" x2="90.9091" y2="1000"/><line stroke="lightgray" stroke-width="1" opacity="1" x1="181.818" y1="0" x2="181.818" y2="1000"/><line stroke="lightgray" stroke-width="1" opacity="1" x1="272.727" y1="0" x2="272.727" y2="1000"/><line stroke="lightgray" stroke-width="1" opacity="1" x1="363.636" y1="0" x2="363.636" y2="1000"/><line stroke="lightgray" stroke-width="1" opacity="1" x1="454.546" y1="0" x2="454.546" y2="1000"/><line stroke="lightgray" stroke-width="1" opacity="1" x1="545.455" y1="0" x2="545.455" y2="1000"/><line stroke="lightgray" stroke-width="1" opacity="1" x1="636.364" y1="0" x2="636.364" y2="1000"/><line stroke="lightgray" stroke-width="1" opacity="1" x1="727.273" y1="0" x2="727.273" y2="1000"/><line stroke="lightgray" stroke-width="1" opacity="1" x1="818.182" y1="0" x2="818.182" y2="1000"/><line stroke="lightgray" stroke-width="1" opacity="1" x1="909.091" y1="0" x2="909.091" y2="1000"/><line stroke="lightgray" stroke-width="1" opacity="1" x1="0" y1="1000" x2="1000" y2="1000"/><line stroke="lightgray" stroke-width="1" opacity="1" x1="0" y1="833.333" x2="1000" y2="833.333"/><line stroke="lightgray" stroke-width="1" opacity="1" x1="0" y1="666.667" x2="1000" y2="666.667"/><line stroke="lightgray" stroke-width="1" opacity="1" x1="0" y1="500" x2="1000" y2="500"/><line stroke="lightgray" stroke-width="1" opacity="1" x1="0" y1="333.333" x2="1000" y2="333.333"/><line stroke="lightgray" stroke-width="1" opacity="1" x1="0" y1="166.667" x2="1000" y2="166.667"/><line stroke="lightgray" stroke-width="1" opacity="1" x1="0" y1="0" x2="1000" y2="0"/><polygon fill="steelblue" fill-opacity="0.3" points="0,665.714 90.9091,648.571 181.818,548.571 272.727,420 363.636,291.429 454.546,194.286 545.455,131.429 636.364,142.857 727.273,254.286 818.182,402.857 909.091,551.429 1000,634.286 1000,851.429 909.091,751.429 818.182,574.286 727.273,397.143 636.364,268.571 545.455,245.714 454.546,320 363.636,434.286 272.727,580 181.818,720 90.9091,831.429 0,865.714"/><polyline stroke="steelblue" stroke-width="3.5" opacity="1" fill-opacity="0" points="0,765.714 90.9091,740 181.818,634.286 272.727,500 363.636,362.857 454.546,257.143 545.455,188.571 636.364,205.714 727.273,325.714 818.182,488.571 909.091,651.429 1000,742.857"/><rect fill="steelblue" fill-opacity="1" x="1008" y="486" width="20" height="8"/><text fill="dimgray" fill-opacity="1" x="1034" y="490" font-size="12" dominant-baseline="central">±1σ</text><rect fill="steelblue" fill-opacity="1" x="1008" y="506" width="20" height="8"/><text fill="dimgray" fill-opacity="1" x="1034" y="510" font-size="12" dominant-baseline="central">Mean</text><line stroke="dimgray" stroke-width="1" opacity="1" x1="0" y1="1000" x2="1000" y2="1000"/><line stroke="dimgray" stroke-width="1" opacity="1" x1="90.9091" y1="1000" x2="90.9091" y2="1006"/><text fill="dimgray" fill-opacity="1" x="90.9091" y="1008" font-size="12" text-anchor="middle" dominant-baseline="hanging">Feb</text><line stroke="dimgray" stroke-width="1" opacity="1" x1="181.818" y1="1000" x2="181.818" y2="1006"/><text fill="dimgray" fill-opacity="1" x="181.818" y="1008" font-size="12" text-anchor="middle" dominant-baseline="hanging">Mar</text><line stroke="dimgray" stroke-width="1" opacity="1" x1="272.727" y1="1000" x2="272.727" y2="1006"/><text fill="dimgray" fill-opacity="1" x="272.727" y="1008" font-size="12" text-anchor="middle" dominant-baseline="hanging">Apr</text><line stroke="dimgray" stroke-width="1" opacity="1" x1="363.636" y1="1000" x2="363.636" y2="1006"/><text fill="dimgray" fill-opacity="1" x="363.636" y="1008" font-size="12" text-anchor="middle" dominant-baseline="hanging">May</text><line stroke="dimgray" stroke-width="1" opacity="1" x1="454.546" y1="1000" x2="454.546" y2="1006"/><text fill="dimgray" fill-opacity="1" x="454.546" y="1008" font-size="12" text-anchor="middle" dominant-baseline="hanging">Jun</text><line stroke="dimgray" stroke-width="1" opacity="1" x1="545.455" y1="1000" x2="545.455" y2="1006"/><text fill="dimgray" fill-opacity="1" x="545.455" y="1008" font-size="12" text-anchor="middle" dominant-baseline="hanging">Jul</text><line stroke="dimgray" stroke-width="1" opacity="1" x1="636.364" y1="1000" x2="636.364" y2="1006"/><text fill="dimgray" fill-opacity="1" x="636.364" y="1008" font-size="12" text-anchor="middle" dominant-baseline="hanging">Aug</text><line stroke="dimgray" stroke-width="1" opacity="1" x1="727.273" y1="1000" x2="727.273" y2="1006"/><text fill="dimgray" fill-opacity="1" x="727.273" y="1008" font-size="12" text-anchor="middle" dominant-baseline="hanging">Sep</text><line stroke="dimgray" stroke-width="1" opacity="1" x1="818.182" y1="1000" x2="818.182" y2="1006"/><text fill="dimgray" fill-opacity="1" x="818.182" y="1008" font-size="12" text-anchor="middle" dominant-baseline="hanging">Oct</text><line stroke="dimgray" stroke-width="1" opacity="1" x1="909.091" y1="1000" x2="909.091" y2="1006"/><text fill="dimgray" fill-opacity="1" x="909.091" y="1008" font-size="12" text-anchor="middle" dominant-baseline="hanging">Nov</text><line stroke="dimgray" stroke-width="1" opacity="1" x1="0" y1="1000" x2="0" y2="0"/><line stroke="dimgray" stroke-width="1" opacity="1" x1="0" y1="1000" x2="-6" y2="1000"/><text fill="dimgray" fill-opacity="1" x="-10" y="1000" font-size="12" text-anchor="end" dominant-baseline="central">-5°C</text><line stroke="dimgray" stroke-width="1" opacity="1" x1="0" y1="833.333" x2="-6" y2="833.333"/><text fill="dimgray" fill-opacity="1" x="-10" y="833.333" font-size="12" text-anchor="end" dominant-baseline="central">1°C</text><line stroke="dimgray" stroke-width="1" opacity="1" x1="0" y1="666.667" x2="-6" y2="666.667"/><text fill="dimgray" fill-opacity="1" x="-10" y="666.667" font-size="12" text-anchor="end" dominant-baseline="central">7°C</text><line stroke="dimgray" stroke-width="1" opacity="1" x1="0" y1="500" x2="-6" y2="500"/><text fill="dimgray" fill-opacity="1" x="-10" y="500" font-size="12" text-anchor="end" dominant-baseline="central">12°C</text><line stroke="dimgray" stroke-width="1" opacity="1" x1="0" y1="333.333" x2="-6" y2="333.333"/><text fill="dimgray" fill-opacity="1" x="-10" y="333.333" font-size="12" text-anchor="end" dominant-baseline="central">18°C</text><line stroke="dimgray" stroke-width="1" opacity="1" x1="0" y1="166.667" x2="-6" y2="166.667"/><text fill="dimgray" fill-opacity="1" x="-10" y="166.667" font-size="12" text-anchor="end" dominant-baseline="central">24°C</text><line stroke="dimgray" stroke-width="1" opacity="1" x1="0" y1="0" x2="-6" y2="0"/><text fill="dimgray" fill-opacity="1" x="-10" y="0" font-size="12" text-anchor="end" dominant-baseline="central">30°C</text><text fill="dimgray" fill-opacity="1" transform="rotate(-90,-48.8,500)" x="-48.8" y="500" font-size="12" text-anchor="middle" dominant-baseline="central">Temperature</text><text fill="black" fill-opacity="1" x="500" y="-32" font-size="22" text-anchor="middle" dominant-baseline="hanging">Confidence Band</text></svg>