<svg xmlns="http://www.w3.org/2000/svg" viewBox="0,0 1000,1000"><rect fill="white" x="0" y="0" width="1000" height="1000"/><path fill="steelblue" d="M360,220 A280,280 0 0,1 639.447,482.419 L513.696,490.33 A154,154 0 0,0 360,346 Z"/><path fill="coral" d="M639.447,482.419 A280,280 0 0,1 524.58,726.525 L450.519,624.589 A154,154 0 0,0 513.696,490.33 Z"/><path fill="seagreen" d="M524.58,726.525 A280,280 0 0,1 195.42,726.525 L269.481,624.589 A154,154 0 0,0 450.519,624.589 Z"/><path fill="tomato" d="M195.42,726.525 A280,280 0 0,1 183.465,282.663 L262.906,380.465 A154,154 0 0,0 269.481,624.589 Z"/><path fill="mediumpurple" d="M183.465,282.663 A280,280 0 0,1 360,220 L360,346 A154,154 0 0,0 262.906,380.465 Z"/><text fill="white" x="508.547" y="341.814" font-size="12" text-anchor="middle" dominant-baseline="central">24%</text><text fill="white" x="556.347" y="592.394" font-size="12" text-anchor="middle" dominant-baseline="central">16%</text><text fill="white" x="360" y="717" font-size="12" text-anchor="middle" dominant-baseline="central">20%</text><text fill="white" x="143.079" y="505.843" font-size="12" text-anchor="middle" dominant-baseline="central">29%</text><text fill="white" x="287.411" y="295.501" font-size="12" text-anchor="middle" dominant-baseline="central">11%</text><text fill="dimgray" fill-opacity="1" x="360" y="500" font-size="69.3" text-anchor="middle" dominant-baseline="central">17.5</text><rect fill="steelblue" x="700" y="452.5" width="12" height="12"/><text fill="dimgray" fill-opacity="1" x="720" y="458.5" font-size="12" dominant-baseline="central">North  24%</text><rect fill="coral" x="700" y="471.5" width="12" height="12"/><text fill="dimgray" fill-opacity="1" x="720" y="477.5" font-size="12" dominant-baseline="central">South  16%</text><rect fill="seagreen" x="700" y="490.5" width="12" height="12"/><text fill="dimgray" fill-opacity="1" x="720" y="496.5" font-size="12" dominant-baseline="central">East  20%</text><rect fill="tomato" x="700" y="509.5" width="12" height="12"/><text fill="dimgray" fill-opacity="1" x="720" y="515.5" font-size="12" dominant-baseline="central">West  29%</text><rect fill="mediumpurple" x="700" y="528.5" width="12" height="12"/><text fill="dimgray" fill-opacity="1" x="720" y="534.5" font-size="12" dominant-baseline="central">Central  11%</text><text fill="dimgray" fill-opacity="1" x="500" y="25" font-size="22" text-anchor="middle" dominant-baseline="hanging">Q1 Regional Sales — Donut (Fictional)</text></svg>