<svg xmlns="http://www.w3.org/2000/svg" viewBox="-62,-56 1124,1092"><rect fill="white" x="-62" y="-56" width="1124" height="1092"/><line stroke="lightgray" stroke-width="1" opacity="1" x1="0" y1="0" x2="0" y2="1000"/><line stroke="lightgray" stroke-width="1" opacity="1" x1="250" y1="0" x2="250" y2="1000"/><line stroke="lightgray" stroke-width="1" opacity="1" x1="500" y1="0" x2="500" y2="1000"/><line stroke="lightgray" stroke-width="1" opacity="1" x1="750" y1="0" x2="750" y2="1000"/><line stroke="lightgray" stroke-width="1" opacity="1" x1="1000" y1="0" x2="1000" y2="1000"/><line stroke="lightgray" stroke-width="1" opacity="1" x1="0" y1="1000" x2="1000" y2="1000"/><line stroke="lightgray" stroke-width="1" opacity="1" x1="0" y1="750" x2="1000" y2="750"/><line stroke="lightgray" stroke-width="1" opacity="1" x1="0" y1="500" x2="1000" y2="500"/><line stroke="lightgray" stroke-width="1" opacity="1" x1="0" y1="250" x2="1000" y2="250"/><line stroke="lightgray" stroke-width="1" opacity="1" x1="0" y1="0" x2="1000" y2="0"/><line stroke="lightgray" stroke-width="1" opacity="1" x1="0" y1="1000" x2="1000" y2="1000"/><line stroke="lightgray" stroke-width="1" opacity="1" x1="0" y1="750" x2="1000" y2="750"/><line stroke="lightgray" stroke-width="1" opacity="1" x1="0" y1="500" x2="1000" y2="500"/><line stroke="lightgray" stroke-width="1" opacity="1" x1="0" y1="250" x2="1000" y2="250"/><line stroke="lightgray" stroke-width="1" opacity="1" x1="0" y1="0" x2="1000" y2="0"/><polyline stroke="steelblue" stroke-width="2" opacity="1" fill-opacity="0" points="0,989.474 6.2112,978.947 12.4224,968.421 18.6335,957.895 24.8447,957.895 31.0559,947.368 37.2671,936.842 43.4783,926.316 49.6894,926.316 55.9006,915.789 62.1118,905.263 68.323,905.263 74.5342,894.737 80.7453,884.211 86.9565,873.684 93.1677,863.158 99.3789,852.632 105.59,842.105 111.801,831.579 118.012,821.053 124.224,821.053 130.435,810.526 136.646,800 142.857,800 149.068,800 155.28,789.474 161.491,778.947 167.702,778.947 173.913,768.421 180.124,757.895 186.335,747.368 192.547,747.368 198.758,736.842 204.969,726.316 211.18,715.789 217.391,705.263 223.602,694.737 229.814,684.211 236.025,673.684 242.236,663.158 248.447,652.632 254.658,642.105 260.87,631.579 267.081,631.579 273.292,621.053 279.503,610.526 285.714,610.526 291.925,610.526 298.137,600 304.348,589.474 310.559,589.474 316.77,578.947 322.981,568.421 329.192,557.895 335.404,547.368 341.615,536.842 347.826,526.316 354.037,515.789 360.248,505.263 366.46,494.737 372.671,484.211 378.882,473.684 385.093,463.158 391.304,463.158 397.515,452.632 403.727,442.105 409.938,442.105 416.149,431.579 422.36,421.053 428.571,410.526 434.783,410.526 440.994,400 447.205,389.474 453.416,389.474 459.627,378.947 465.839,368.421 472.05,357.895 478.261,347.368 484.472,336.842 490.683,326.316 496.894,315.789 503.106,305.263 509.317,305.263 515.528,294.737 521.739,284.211 527.95,284.211 534.162,284.211 540.373,273.684 546.584,263.158 552.795,263.158 559.006,252.632 565.217,242.105 571.429,231.579 577.64,231.579 583.851,221.053 590.062,210.526 596.273,200 602.485,189.474 608.696,178.947 614.907,168.421 621.118,157.895 627.329,147.368 633.54,147.368 639.752,136.842 645.963,126.316 652.174,126.316 658.385,126.316 664.596,115.79 670.808,115.79 677.019,115.79 683.23,105.263 689.441,94.7368 695.652,94.7368 701.863,84.2105 708.074,73.6842 714.286,63.1579 720.497,52.6316 726.708,42.1053 732.919,31.5789 739.13,21.0526 745.342,10.5263 751.553,0 757.764,-10.5263 763.975,-21.0526 770.186,-31.5789 776.398,-31.5789 782.609,-42.1053 788.82,-52.6316 795.031,-52.6316 801.242,-63.1579 807.453,-73.6842 813.665,-84.2105 819.876,-84.2105 826.087,-94.7368 832.298,-105.263 838.509,-115.79 844.721,-126.316 850.932,-136.842 857.143,-147.368 863.354,-157.895 869.565,-168.421 875.776,-168.421 881.988,-178.947 888.199,-189.474 894.41,-189.474 900.621,-200 906.832,-210.526 913.043,-210.526 919.255,-210.526 925.466,-221.053 931.677,-231.579 937.888,-231.579 944.099,-242.105 950.311,-252.632 956.522,-263.158 962.733,-263.158 968.944,-273.684 975.155,-284.211 981.366,-294.737 987.578,-305.263 993.789,-315.789 1000,-326.316"/><polyline stroke="coral" stroke-width="1.5" opacity="1" fill-opacity="0" stroke-dasharray="12,6" points="0,548.861 6.2112,541.844 12.4224,534.844 18.6335,527.869 24.8447,520.927 31.0559,514.026 37.2671,507.175 43.4783,500.382 49.6894,493.654 55.9006,487 62.1118,480.427 68.323,473.943 74.5342,467.555 80.7453,461.272 86.9565,455.099 93.1677,449.044 99.3789,443.114 105.59,437.316 111.801,431.656 118.012,426.14 124.224,420.775 130.435,415.566 136.646,410.519 142.857,405.639 149.068,400.932 155.28,396.402 161.491,392.053 167.702,387.891 173.913,383.919 180.124,380.141 186.335,376.56 192.547,373.179 198.758,370.002 204.969,367.03 211.18,364.267 217.391,361.713 223.602,359.371 229.814,357.243 236.025,355.327 242.236,353.627 248.447,352.141 254.658,350.87 260.87,349.814 267.081,348.971 273.292,348.342 279.503,347.924 285.714,347.716 291.925,347.716 298.137,347.922 304.348,348.331 310.559,348.941 316.77,349.748 322.981,350.748 329.192,351.939 335.404,353.316 341.615,354.875 347.826,356.611 354.037,358.519 360.248,360.595 366.46,362.832 372.671,365.226 378.882,367.77 385.093,370.459 391.304,373.286 397.515,376.244 403.727,379.327 409.938,382.529 416.149,385.841 422.36,389.257 428.571,392.77 434.783,396.371 440.994,400.054 447.205,403.811 453.416,407.632 459.627,411.512 465.839,415.441 472.05,533.697 478.261,537.701 484.472,541.73 490.683,760.061 496.894,764.114 503.106,768.168 509.317,772.213 515.528,776.242 521.739,780.245 527.95,784.216 534.162,788.145 540.373,792.025 546.584,795.847 552.795,799.603 559.006,803.286 565.217,806.887 571.429,810.4 577.64,813.816 583.851,817.129 590.062,820.33 596.273,823.413 602.485,826.371 608.696,829.198 614.907,831.887 621.118,620.145 627.329,622.539 633.54,624.777 639.752,626.852 645.963,628.76 652.174,630.496 658.385,632.055 664.596,633.432 670.808,634.623 677.019,635.624 683.23,636.431 689.441,637.04 695.652,637.45 701.863,637.656 708.074,637.656 714.286,637.448 720.497,637.03 726.708,636.4 732.919,635.558 739.13,634.501 745.342,633.23 751.553,631.745 757.764,630.044 763.975,628.129 770.186,626 776.398,623.658 782.609,621.105 788.82,618.341 795.031,615.37 801.242,612.193 807.453,608.812 813.665,605.231 819.876,601.452 826.087,597.48 832.298,593.318 838.509,588.97 844.721,584.439 850.932,579.732 857.143,574.852 863.354,569.805 869.565,564.596 875.776,559.231 881.988,553.715 888.199,548.055 894.41,542.257 900.621,536.327 906.832,530.273 913.043,524.1 919.255,517.816 925.466,511.428 931.677,504.944 937.888,498.371 944.099,606.003 950.311,599.275 956.522,592.482 962.733,585.631 968.944,578.73 975.155,571.788 981.366,564.813 987.578,557.813 993.789,550.797 1000,543.771"/><rect fill="steelblue" fill-opacity="1" x="412" y="-48" width="20" height="8"/><text fill="dimgray" fill-opacity="1" x="438" y="-44" font-size="12" dominant-baseline="central">Wins</text><rect fill="coral" fill-opacity="1" x="482.8" y="-48" width="20" height="8"/><text fill="dimgray" fill-opacity="1" x="508.8" y="-44" font-size="12" dominant-baseline="central">Batting Avg</text><line stroke="dimgray" stroke-width="1" opacity="1" x1="0" y1="1000" x2="1000" y2="1000"/><line stroke="dimgray" stroke-width="1" opacity="1" x1="0" y1="1000" x2="0" y2="1006"/><text fill="dimgray" fill-opacity="1" x="0" y="1008" font-size="12" text-anchor="middle" dominant-baseline="hanging">1</text><line stroke="dimgray" stroke-width="1" opacity="1" x1="250" y1="1000" x2="250" y2="1006"/><text fill="dimgray" fill-opacity="1" x="250" y="1008" font-size="12" text-anchor="middle" dominant-baseline="hanging">41.25</text><line stroke="dimgray" stroke-width="1" opacity="1" x1="500" y1="1000" x2="500" y2="1006"/><text fill="dimgray" fill-opacity="1" x="500" y="1008" font-size="12" text-anchor="middle" dominant-baseline="hanging">81.5</text><line stroke="dimgray" stroke-width="1" opacity="1" x1="750" y1="1000" x2="750" y2="1006"/><text fill="dimgray" fill-opacity="1" x="750" y="1008" font-size="12" text-anchor="middle" dominant-baseline="hanging">121.8</text><line stroke="dimgray" stroke-width="1" opacity="1" x1="1000" y1="1000" x2="1000" y2="1006"/><text fill="dimgray" fill-opacity="1" x="1000" y="1008" font-size="12" text-anchor="middle" dominant-baseline="hanging">162</text><text fill="dimgray" fill-opacity="1" x="500" y="1024" font-size="12" text-anchor="middle" dominant-baseline="hanging">Game</text><line stroke="dimgray" stroke-width="1" opacity="1" x1="0" y1="1000" x2="0" y2="0"/><line stroke="dimgray" stroke-width="1" opacity="1" x1="0" y1="1000" x2="-6" y2="1000"/><text fill="dimgray" fill-opacity="1" x="-10" y="1000" font-size="12" text-anchor="end" dominant-baseline="central">0</text><line stroke="dimgray" stroke-width="1" opacity="1" x1="0" y1="750" x2="-6" y2="750"/><text fill="dimgray" fill-opacity="1" x="-10" y="750" font-size="12" text-anchor="end" dominant-baseline="central">23.75</text><line stroke="dimgray" stroke-width="1" opacity="1" x1="0" y1="500" x2="-6" y2="500"/><text fill="dimgray" fill-opacity="1" x="-10" y="500" font-size="12" text-anchor="end" dominant-baseline="central">47.5</text><line stroke="dimgray" stroke-width="1" opacity="1" x1="0" y1="250" x2="-6" y2="250"/><text fill="dimgray" fill-opacity="1" x="-10" y="250" font-size="12" text-anchor="end" dominant-baseline="central">71.25</text><line stroke="dimgray" stroke-width="1" opacity="1" x1="0" y1="0" x2="-6" y2="0"/><text fill="dimgray" fill-opacity="1" x="-10" y="0" font-size="12" text-anchor="end" dominant-baseline="central">95</text><text fill="dimgray" fill-opacity="1" transform="rotate(-90,-56,500)" x="-56" y="500" font-size="12" text-anchor="middle" dominant-baseline="central">Wins</text><line stroke="dimgray" stroke-width="1" opacity="1" x1="1000" y1="1000" x2="1000" y2="0"/><line stroke="dimgray" stroke-width="1" opacity="1" x1="1000" y1="1000" x2="1006" y2="1000"/><text fill="dimgray" fill-opacity="1" x="1010" y="1000" font-size="12" text-anchor="start" dominant-baseline="central">0.230</text><line stroke="dimgray" stroke-width="1" opacity="1" x1="1000" y1="750" x2="1006" y2="750"/><text fill="dimgray" fill-opacity="1" x="1010" y="750" font-size="12" text-anchor="start" dominant-baseline="central">0.247</text><line stroke="dimgray" stroke-width="1" opacity="1" x1="1000" y1="500" x2="1006" y2="500"/><text fill="dimgray" fill-opacity="1" x="1010" y="500" font-size="12" text-anchor="start" dominant-baseline="central">0.265</text><line stroke="dimgray" stroke-width="1" opacity="1" x1="1000" y1="250" x2="1006" y2="250"/><text fill="dimgray" fill-opacity="1" x="1010" y="250" font-size="12" text-anchor="start" dominant-baseline="central">0.282</text><line stroke="dimgray" stroke-width="1" opacity="1" x1="1000" y1="0" x2="1006" y2="0"/><text fill="dimgray" fill-opacity="1" x="1010" y="0" font-size="12" text-anchor="start" dominant-baseline="central">0.300</text><text fill="dimgray" fill-opacity="1" transform="rotate(90,1056,500)" x="1056" y="500" font-size="12" text-anchor="start" dominant-baseline="central">Batting Average</text><text fill="black" fill-opacity="1" x="500" y="-50" font-size="16" text-anchor="middle" dominant-baseline="hanging">Season Performance: Wins vs. Batting Average</text></svg>