<svg xmlns="http://www.w3.org/2000/svg" viewBox="-20,-32 1040,1052"><rect fill="white" x="-20" y="-32" width="1040" height="1052"/><polygon fill="steelblue" fill-opacity="1" points="90,40 910,40 753.809,217.6 246.19,217.6"/><text fill="white" x="500" y="119.8" font-size="28" text-anchor="middle" dominant-baseline="central">Site Visits</text><text fill="white" x="500" y="149.8" font-size="18" text-anchor="middle" dominant-baseline="central">8400</text><polygon fill="coral" fill-opacity="1" points="246.19,225.6 753.809,225.6 602.5,403.2 397.5,403.2"/><text fill="white" x="500" y="305.4" font-size="28" text-anchor="middle" dominant-baseline="central">Product Views</text><text fill="white" x="500" y="335.4" font-size="18" text-anchor="middle" dominant-baseline="central">5200</text><polygon fill="seagreen" fill-opacity="1" points="397.5,411.2 602.5,411.2 547.833,588.8 452.167,588.8"/><text fill="white" x="500" y="491" font-size="28" text-anchor="middle" dominant-baseline="central">Add to Cart</text><text fill="white" x="500" y="521" font-size="18" text-anchor="middle" dominant-baseline="central">2100</text><polygon fill="tomato" fill-opacity="1" points="452.167,596.8 547.833,596.8 515.131,774.4 484.869,774.4"/><text fill="white" x="500" y="676.6" font-size="28" text-anchor="middle" dominant-baseline="central">Checkout</text><text fill="white" x="500" y="706.6" font-size="18" text-anchor="middle" dominant-baseline="central">980</text><polygon fill="mediumpurple" fill-opacity="1" points="484.869,782.4 515.131,782.4 515.131,960 484.869,960"/><text fill="white" x="500" y="862.2" font-size="28" text-anchor="middle" dominant-baseline="central">Purchase</text><text fill="white" x="500" y="892.2" font-size="18" text-anchor="middle" dominant-baseline="central">310</text><text fill="black" fill-opacity="1" x="500" y="-26" font-size="16" text-anchor="middle" dominant-baseline="hanging">E-Commerce Conversion Funnel</text></svg>