<svg xmlns="http://www.w3.org/2000/svg" viewBox="-20,-32 1040,1052"><rect fill="darkslategray" x="-20" y="-32" width="1040" height="1052"/><polygon fill="cornflowerblue" fill-opacity="1" points="90,40 910,40 742.095,186.667 257.905,186.667"/><text fill="white" x="500" y="104.333" font-size="28" text-anchor="middle" dominant-baseline="central">Leads</text><text fill="white" x="500" y="134.333" font-size="18" text-anchor="middle" dominant-baseline="central">1050</text><polygon fill="coral" fill-opacity="1" points="257.905,194.667 742.095,194.667 652.286,341.333 347.714,341.333"/><text fill="white" x="500" y="259" font-size="28" text-anchor="middle" dominant-baseline="central">Qualified</text><text fill="white" x="500" y="289" font-size="18" text-anchor="middle" dominant-baseline="central">620</text><polygon fill="limegreen" fill-opacity="1" points="347.714,349.333 652.286,349.333 582,496 418,496"/><text fill="white" x="500" y="413.667" font-size="28" text-anchor="middle" dominant-baseline="central">Demo Scheduled</text><text fill="white" x="500" y="443.667" font-size="18" text-anchor="middle" dominant-baseline="central">390</text><polygon fill="tomato" fill-opacity="1" points="418,504 582,504 544.905,650.667 455.095,650.667"/><text fill="white" x="500" y="568.333" font-size="28" text-anchor="middle" dominant-baseline="central">Proposal Sent</text><text fill="white" x="500" y="598.333" font-size="18" text-anchor="middle" dominant-baseline="central">210</text><polygon fill="violet" fill-opacity="1" points="455.095,658.667 544.905,658.667 526.552,805.333 473.448,805.333"/><text fill="white" x="500" y="723" font-size="28" text-anchor="middle" dominant-baseline="central">Contract Review</text><text fill="white" x="500" y="753" font-size="18" text-anchor="middle" dominant-baseline="central">115</text><polygon fill="gold" fill-opacity="1" points="473.448,813.333 526.552,813.333 526.552,960 473.448,960"/><text fill="white" x="500" y="877.667" font-size="28" text-anchor="middle" dominant-baseline="central">Closed Won</text><text fill="white" x="500" y="907.667" font-size="18" text-anchor="middle" dominant-baseline="central">68</text><text fill="black" fill-opacity="1" x="500" y="-26" font-size="16" text-anchor="middle" dominant-baseline="hanging">Sales Pipeline — Q2</text></svg>