<svg xmlns="http://www.w3.org/2000/svg" viewBox="-31.6,-38 1112,1058"><rect fill="white" x="-31.6" y="-38" width="1112" height="1058"/><line stroke="lightgray" stroke-width="1" opacity="1" x1="43.4783" y1="0" x2="43.4783" y2="1000"/><line stroke="lightgray" stroke-width="1" opacity="1" x1="86.9565" y1="0" x2="86.9565" y2="1000"/><line stroke="lightgray" stroke-width="1" opacity="1" x1="130.435" y1="0" x2="130.435" y2="1000"/><line stroke="lightgray" stroke-width="1" opacity="1" x1="173.913" y1="0" x2="173.913" y2="1000"/><line stroke="lightgray" stroke-width="1" opacity="1" x1="217.391" y1="0" x2="217.391" y2="1000"/><line stroke="lightgray" stroke-width="1" opacity="1" x1="260.87" y1="0" x2="260.87" y2="1000"/><line stroke="lightgray" stroke-width="1" opacity="1" x1="304.348" y1="0" x2="304.348" y2="1000"/><line stroke="lightgray" stroke-width="1" opacity="1" x1="347.826" y1="0" x2="347.826" y2="1000"/><line stroke="lightgray" stroke-width="1" opacity="1" x1="391.304" y1="0" x2="391.304" y2="1000"/><line stroke="lightgray" stroke-width="1" opacity="1" x1="434.783" y1="0" x2="434.783" y2="1000"/><line stroke="lightgray" stroke-width="1" opacity="1" x1="478.261" y1="0" x2="478.261" y2="1000"/><line stroke="lightgray" stroke-width="1" opacity="1" x1="521.739" y1="0" x2="521.739" y2="1000"/><line stroke="lightgray" stroke-width="1" opacity="1" x1="565.217" y1="0" x2="565.217" y2="1000"/><line stroke="lightgray" stroke-width="1" opacity="1" x1="608.696" y1="0" x2="608.696" y2="1000"/><line stroke="lightgray" stroke-width="1" opacity="1" x1="652.174" y1="0" x2="652.174" y2="1000"/><line stroke="lightgray" stroke-width="1" opacity="1" x1="695.652" y1="0" x2="695.652" y2="1000"/><line stroke="lightgray" stroke-width="1" opacity="1" x1="739.13" y1="0" x2="739.13" y2="1000"/><line stroke="lightgray" stroke-width="1" opacity="1" x1="782.609" y1="0" x2="782.609" y2="1000"/><line stroke="lightgray" stroke-width="1" opacity="1" x1="826.087" y1="0" x2="826.087" y2="1000"/><line stroke="lightgray" stroke-width="1" opacity="1" x1="869.565" y1="0" x2="869.565" y2="1000"/><line stroke="lightgray" stroke-width="1" opacity="1" x1="913.043" y1="0" x2="913.043" y2="1000"/><line stroke="lightgray" stroke-width="1" opacity="1" x1="956.522" y1="0" x2="956.522" y2="1000"/><line stroke="lightgray" stroke-width="1" opacity="1" x1="0" y1="833.333" x2="1000" y2="833.333"/><line stroke="lightgray" stroke-width="1" opacity="1" x1="0" y1="666.667" x2="1000" y2="666.667"/><line stroke="lightgray" stroke-width="1" opacity="1" x1="0" y1="500" x2="1000" y2="500"/><line stroke="lightgray" stroke-width="1" opacity="1" x1="0" y1="333.333" x2="1000" y2="333.333"/><line stroke="lightgray" stroke-width="1" opacity="1" x1="0" y1="166.667" x2="1000" y2="166.667"/><rect fill="rgb(251,252,254)" fill-opacity="1" x="0" y="857.143" width="42.6667" height="143.857"/><rect fill="rgb(254,254,255)" fill-opacity="1" x="41.6667" y="857.143" width="42.6667" height="143.857"/><rect fill="rgb(253,254,254)" fill-opacity="1" x="83.3333" y="857.143" width="42.6667" height="143.857"/><rect fill="rgb(246,249,252)" fill-opacity="1" x="125" y="857.143" width="42.6667" height="143.857"/><rect fill="rgb(241,246,250)" fill-opacity="1" x="166.667" y="857.143" width="42.6667" height="143.857"/><rect fill="rgb(219,231,241)" fill-opacity="1" x="208.333" y="857.143" width="42.6667" height="143.857"/><rect fill="rgb(155,188,215)" fill-opacity="1" x="250" y="857.143" width="42.6667" height="143.857"/><rect fill="rgb(134,173,206)" fill-opacity="1" x="291.667" y="857.143" width="42.6667" height="143.857"/><rect fill="rgb(158,190,216)" fill-opacity="1" x="333.333" y="857.143" width="42.6667" height="143.857"/><rect fill="rgb(108,156,196)" fill-opacity="1" x="375" y="857.143" width="42.6667" height="143.857"/><rect fill="rgb(191,212,229)" fill-opacity="1" x="416.667" y="857.143" width="42.6667" height="143.857"/><rect fill="rgb(219,231,241)" fill-opacity="1" x="458.333" y="857.143" width="42.6667" height="143.857"/><rect fill="rgb(233,240,246)" fill-opacity="1" x="500" y="857.143" width="42.6667" height="143.857"/><rect fill="rgb(244,248,251)" fill-opacity="1" x="541.667" y="857.143" width="42.6667" height="143.857"/><rect fill="rgb(238,244,249)" fill-opacity="1" x="583.333" y="857.143" width="42.6667" height="143.857"/><rect fill="rgb(226,235,243)" fill-opacity="1" x="625" y="857.143" width="42.6667" height="143.857"/><rect fill="rgb(187,209,228)" fill-opacity="1" x="666.667" y="857.143" width="42.6667" height="143.857"/><rect fill="rgb(198,217,232)" fill-opacity="1" x="708.333" y="857.143" width="42.6667" height="143.857"/><rect fill="rgb(116,161,199)" fill-opacity="1" x="750" y="857.143" width="42.6667" height="143.857"/><rect fill="rgb(152,185,213)" fill-opacity="1" x="791.667" y="857.143" width="42.6667" height="143.857"/><rect fill="rgb(194,214,231)" fill-opacity="1" x="833.333" y="857.143" width="42.6667" height="143.857"/><rect fill="rgb(230,238,245)" fill-opacity="1" x="875" y="857.143" width="42.6667" height="143.857"/><rect fill="rgb(245,248,251)" fill-opacity="1" x="916.667" y="857.143" width="42.6667" height="143.857"/><rect fill="rgb(245,249,251)" fill-opacity="1" x="958.333" y="857.143" width="42.6667" height="143.857"/><rect fill="rgb(250,252,253)" fill-opacity="1" x="0" y="714.286" width="42.6667" height="143.857"/><rect fill="rgb(251,253,254)" fill-opacity="1" x="41.6667" y="714.286" width="42.6667" height="143.857"/><rect fill="rgb(253,254,255)" fill-opacity="1" x="83.3333" y="714.286" width="42.6667" height="143.857"/><rect fill="rgb(244,248,251)" fill-opacity="1" x="125" y="714.286" width="42.6667" height="143.857"/><rect fill="rgb(241,246,250)" fill-opacity="1" x="166.667" y="714.286" width="42.6667" height="143.857"/><rect fill="rgb(192,212,230)" fill-opacity="1" x="208.333" y="714.286" width="42.6667" height="143.857"/><rect fill="rgb(157,189,216)" fill-opacity="1" x="250" y="714.286" width="42.6667" height="143.857"/><rect fill="rgb(133,173,206)" fill-opacity="1" x="291.667" y="714.286" width="42.6667" height="143.857"/><rect fill="rgb(157,189,216)" fill-opacity="1" x="333.333" y="714.286" width="42.6667" height="143.857"/><rect fill="rgb(184,207,226)" fill-opacity="1" x="375" y="714.286" width="42.6667" height="143.857"/><rect fill="rgb(186,208,227)" fill-opacity="1" x="416.667" y="714.286" width="42.6667" height="143.857"/><rect fill="rgb(205,221,235)" fill-opacity="1" x="458.333" y="714.286" width="42.6667" height="143.857"/><rect fill="rgb(226,235,243)" fill-opacity="1" x="500" y="714.286" width="42.6667" height="143.857"/><rect fill="rgb(249,251,253)" fill-opacity="1" x="541.667" y="714.286" width="42.6667" height="143.857"/><rect fill="rgb(235,242,247)" fill-opacity="1" x="583.333" y="714.286" width="42.6667" height="143.857"/><rect fill="rgb(206,222,236)" fill-opacity="1" x="625" y="714.286" width="42.6667" height="143.857"/><rect fill="rgb(173,199,222)" fill-opacity="1" x="666.667" y="714.286" width="42.6667" height="143.857"/><rect fill="rgb(168,197,220)" fill-opacity="1" x="708.333" y="714.286" width="42.6667" height="143.857"/><rect fill="rgb(180,204,225)" fill-opacity="1" x="750" y="714.286" width="42.6667" height="143.857"/><rect fill="rgb(199,217,233)" fill-opacity="1" x="791.667" y="714.286" width="42.6667" height="143.857"/><rect fill="rgb(215,228,239)" fill-opacity="1" x="833.333" y="714.286" width="42.6667" height="143.857"/><rect fill="rgb(208,223,236)" fill-opacity="1" x="875" y="714.286" width="42.6667" height="143.857"/><rect fill="rgb(235,242,247)" fill-opacity="1" x="916.667" y="714.286" width="42.6667" height="143.857"/><rect fill="rgb(251,252,254)" fill-opacity="1" x="958.333" y="714.286" width="42.6667" height="143.857"/><rect fill="rgb(253,254,255)" fill-opacity="1" x="0" y="571.429" width="42.6667" height="143.857"/><rect fill="rgb(250,252,253)" fill-opacity="1" x="41.6667" y="571.429" width="42.6667" height="143.857"/><rect fill="rgb(252,253,254)" fill-opacity="1" x="83.3333" y="571.429" width="42.6667" height="143.857"/><rect fill="rgb(244,248,251)" fill-opacity="1" x="125" y="571.429" width="42.6667" height="143.857"/><rect fill="rgb(241,246,250)" fill-opacity="1" x="166.667" y="571.429" width="42.6667" height="143.857"/><rect fill="rgb(228,237,244)" fill-opacity="1" x="208.333" y="571.429" width="42.6667" height="143.857"/><rect fill="rgb(164,194,218)" fill-opacity="1" x="250" y="571.429" width="42.6667" height="143.857"/><rect fill="rgb(134,173,206)" fill-opacity="1" x="291.667" y="571.429" width="42.6667" height="143.857"/><rect fill="rgb(173,200,222)" fill-opacity="1" x="333.333" y="571.429" width="42.6667" height="143.857"/><rect fill="rgb(144,180,210)" fill-opacity="1" x="375" y="571.429" width="42.6667" height="143.857"/><rect fill="rgb(156,188,215)" fill-opacity="1" x="416.667" y="571.429" width="42.6667" height="143.857"/><rect fill="rgb(203,220,234)" fill-opacity="1" x="458.333" y="571.429" width="42.6667" height="143.857"/><rect fill="rgb(239,244,249)" fill-opacity="1" x="500" y="571.429" width="42.6667" height="143.857"/><rect fill="rgb(248,251,253)" fill-opacity="1" x="541.667" y="571.429" width="42.6667" height="143.857"/><rect fill="rgb(239,244,249)" fill-opacity="1" x="583.333" y="571.429" width="42.6667" height="143.857"/><rect fill="rgb(225,235,243)" fill-opacity="1" x="625" y="571.429" width="42.6667" height="143.857"/><rect fill="rgb(214,227,239)" fill-opacity="1" x="666.667" y="571.429" width="42.6667" height="143.857"/><rect fill="rgb(140,177,209)" fill-opacity="1" x="708.333" y="571.429" width="42.6667" height="143.857"/><rect fill="rgb(187,209,228)" fill-opacity="1" x="750" y="571.429" width="42.6667" height="143.857"/><rect fill="rgb(162,192,217)" fill-opacity="1" x="791.667" y="571.429" width="42.6667" height="143.857"/><rect fill="rgb(217,230,240)" fill-opacity="1" x="833.333" y="571.429" width="42.6667" height="143.857"/><rect fill="rgb(207,223,236)" fill-opacity="1" x="875" y="571.429" width="42.6667" height="143.857"/><rect fill="rgb(239,244,249)" fill-opacity="1" x="916.667" y="571.429" width="42.6667" height="143.857"/><rect fill="rgb(247,250,252)" fill-opacity="1" x="958.333" y="571.429" width="42.6667" height="143.857"/><rect fill="rgb(252,253,254)" fill-opacity="1" x="0" y="428.571" width="42.6667" height="143.857"/><rect fill="rgb(254,255,255)" fill-opacity="1" x="41.6667" y="428.571" width="42.6667" height="143.857"/><rect fill="rgb(248,250,252)" fill-opacity="1" x="83.3333" y="428.571" width="42.6667" height="143.857"/><rect fill="rgb(251,253,254)" fill-opacity="1" x="125" y="428.571" width="42.6667" height="143.857"/><rect fill="rgb(244,248,251)" fill-opacity="1" x="166.667" y="428.571" width="42.6667" height="143.857"/><rect fill="rgb(227,237,244)" fill-opacity="1" x="208.333" y="428.571" width="42.6667" height="143.857"/><rect fill="rgb(160,191,217)" fill-opacity="1" x="250" y="428.571" width="42.6667" height="143.857"/><rect fill="rgb(184,207,227)" fill-opacity="1" x="291.667" y="428.571" width="42.6667" height="143.857"/><rect fill="rgb(70,130,180)" fill-opacity="1" x="333.333" y="428.571" width="42.6667" height="143.857"/><rect fill="rgb(90,144,188)" fill-opacity="1" x="375" y="428.571" width="42.6667" height="143.857"/><rect fill="rgb(174,201,223)" fill-opacity="1" x="416.667" y="428.571" width="42.6667" height="143.857"/><rect fill="rgb(214,227,239)" fill-opacity="1" x="458.333" y="428.571" width="42.6667" height="143.857"/><rect fill="rgb(230,238,245)" fill-opacity="1" x="500" y="428.571" width="42.6667" height="143.857"/><rect fill="rgb(248,250,252)" fill-opacity="1" x="541.667" y="428.571" width="42.6667" height="143.857"/><rect fill="rgb(238,244,249)" fill-opacity="1" x="583.333" y="428.571" width="42.6667" height="143.857"/><rect fill="rgb(230,238,245)" fill-opacity="1" x="625" y="428.571" width="42.6667" height="143.857"/><rect fill="rgb(191,212,230)" fill-opacity="1" x="666.667" y="428.571" width="42.6667" height="143.857"/><rect fill="rgb(133,173,206)" fill-opacity="1" x="708.333" y="428.571" width="42.6667" height="143.857"/><rect fill="rgb(143,179,210)" fill-opacity="1" x="750" y="428.571" width="42.6667" height="143.857"/><rect fill="rgb(167,196,220)" fill-opacity="1" x="791.667" y="428.571" width="42.6667" height="143.857"/><rect fill="rgb(200,218,233)" fill-opacity="1" x="833.333" y="428.571" width="42.6667" height="143.857"/><rect fill="rgb(203,220,234)" fill-opacity="1" x="875" y="428.571" width="42.6667" height="143.857"/><rect fill="rgb(236,242,248)" fill-opacity="1" x="916.667" y="428.571" width="42.6667" height="143.857"/><rect fill="rgb(245,248,251)" fill-opacity="1" x="958.333" y="428.571" width="42.6667" height="143.857"/><rect fill="rgb(254,255,255)" fill-opacity="1" x="0" y="285.714" width="42.6667" height="143.857"/><rect fill="rgb(249,251,253)" fill-opacity="1" x="41.6667" y="285.714" width="42.6667" height="143.857"/><rect fill="rgb(247,250,252)" fill-opacity="1" x="83.3333" y="285.714" width="42.6667" height="143.857"/><rect fill="rgb(248,250,252)" fill-opacity="1" x="125" y="285.714" width="42.6667" height="143.857"/><rect fill="rgb(229,238,245)" fill-opacity="1" x="166.667" y="285.714" width="42.6667" height="143.857"/><rect fill="rgb(223,234,242)" fill-opacity="1" x="208.333" y="285.714" width="42.6667" height="143.857"/><rect fill="rgb(201,219,233)" fill-opacity="1" x="250" y="285.714" width="42.6667" height="143.857"/><rect fill="rgb(140,178,209)" fill-opacity="1" x="291.667" y="285.714" width="42.6667" height="143.857"/><rect fill="rgb(139,177,208)" fill-opacity="1" x="333.333" y="285.714" width="42.6667" height="143.857"/><rect fill="rgb(106,155,195)" fill-opacity="1" x="375" y="285.714" width="42.6667" height="143.857"/><rect fill="rgb(198,216,232)" fill-opacity="1" x="416.667" y="285.714" width="42.6667" height="143.857"/><rect fill="rgb(224,234,243)" fill-opacity="1" x="458.333" y="285.714" width="42.6667" height="143.857"/><rect fill="rgb(239,244,249)" fill-opacity="1" x="500" y="285.714" width="42.6667" height="143.857"/><rect fill="rgb(240,245,249)" fill-opacity="1" x="541.667" y="285.714" width="42.6667" height="143.857"/><rect fill="rgb(236,242,247)" fill-opacity="1" x="583.333" y="285.714" width="42.6667" height="143.857"/><rect fill="rgb(200,218,233)" fill-opacity="1" x="625" y="285.714" width="42.6667" height="143.857"/><rect fill="rgb(171,199,221)" fill-opacity="1" x="666.667" y="285.714" width="42.6667" height="143.857"/><rect fill="rgb(144,180,210)" fill-opacity="1" x="708.333" y="285.714" width="42.6667" height="143.857"/><rect fill="rgb(125,168,203)" fill-opacity="1" x="750" y="285.714" width="42.6667" height="143.857"/><rect fill="rgb(177,202,223)" fill-opacity="1" x="791.667" y="285.714" width="42.6667" height="143.857"/><rect fill="rgb(185,208,227)" fill-opacity="1" x="833.333" y="285.714" width="42.6667" height="143.857"/><rect fill="rgb(200,218,233)" fill-opacity="1" x="875" y="285.714" width="42.6667" height="143.857"/><rect fill="rgb(235,241,247)" fill-opacity="1" x="916.667" y="285.714" width="42.6667" height="143.857"/><rect fill="rgb(252,253,254)" fill-opacity="1" x="958.333" y="285.714" width="42.6667" height="143.857"/><rect fill="rgb(255,255,255)" fill-opacity="1" x="0" y="142.857" width="42.6667" height="143.857"/><rect fill="rgb(253,254,254)" fill-opacity="1" x="41.6667" y="142.857" width="42.6667" height="143.857"/><rect fill="rgb(255,255,255)" fill-opacity="1" x="83.3333" y="142.857" width="42.6667" height="143.857"/><rect fill="rgb(253,254,254)" fill-opacity="1" x="125" y="142.857" width="42.6667" height="143.857"/><rect fill="rgb(247,250,252)" fill-opacity="1" x="166.667" y="142.857" width="42.6667" height="143.857"/><rect fill="rgb(240,245,249)" fill-opacity="1" x="208.333" y="142.857" width="42.6667" height="143.857"/><rect fill="rgb(219,231,241)" fill-opacity="1" x="250" y="142.857" width="42.6667" height="143.857"/><rect fill="rgb(179,204,224)" fill-opacity="1" x="291.667" y="142.857" width="42.6667" height="143.857"/><rect fill="rgb(181,205,225)" fill-opacity="1" x="333.333" y="142.857" width="42.6667" height="143.857"/><rect fill="rgb(210,225,237)" fill-opacity="1" x="375" y="142.857" width="42.6667" height="143.857"/><rect fill="rgb(184,207,227)" fill-opacity="1" x="416.667" y="142.857" width="42.6667" height="143.857"/><rect fill="rgb(238,244,248)" fill-opacity="1" x="458.333" y="142.857" width="42.6667" height="143.857"/><rect fill="rgb(248,251,253)" fill-opacity="1" x="500" y="142.857" width="42.6667" height="143.857"/><rect fill="rgb(250,252,253)" fill-opacity="1" x="541.667" y="142.857" width="42.6667" height="143.857"/><rect fill="rgb(247,250,252)" fill-opacity="1" x="583.333" y="142.857" width="42.6667" height="143.857"/><rect fill="rgb(228,237,244)" fill-opacity="1" x="625" y="142.857" width="42.6667" height="143.857"/><rect fill="rgb(204,221,235)" fill-opacity="1" x="666.667" y="142.857" width="42.6667" height="143.857"/><rect fill="rgb(224,234,243)" fill-opacity="1" x="708.333" y="142.857" width="42.6667" height="143.857"/><rect fill="rgb(217,230,240)" fill-opacity="1" x="750" y="142.857" width="42.6667" height="143.857"/><rect fill="rgb(181,205,225)" fill-opacity="1" x="791.667" y="142.857" width="42.6667" height="143.857"/><rect fill="rgb(202,219,234)" fill-opacity="1" x="833.333" y="142.857" width="42.6667" height="143.857"/><rect fill="rgb(239,245,249)" fill-opacity="1" x="875" y="142.857" width="42.6667" height="143.857"/><rect fill="rgb(241,246,250)" fill-opacity="1" x="916.667" y="142.857" width="42.6667" height="143.857"/><rect fill="rgb(250,252,253)" fill-opacity="1" x="958.333" y="142.857" width="42.6667" height="143.857"/><rect fill="rgb(255,255,255)" fill-opacity="1" x="0" y="0" width="42.6667" height="143.857"/><rect fill="rgb(254,255,255)" fill-opacity="1" x="41.6667" y="0" width="42.6667" height="143.857"/><rect fill="rgb(253,254,254)" fill-opacity="1" x="83.3333" y="0" width="42.6667" height="143.857"/><rect fill="rgb(250,252,253)" fill-opacity="1" x="125" y="0" width="42.6667" height="143.857"/><rect fill="rgb(248,250,252)" fill-opacity="1" x="166.667" y="0" width="42.6667" height="143.857"/><rect fill="rgb(234,241,247)" fill-opacity="1" x="208.333" y="0" width="42.6667" height="143.857"/><rect fill="rgb(220,232,241)" fill-opacity="1" x="250" y="0" width="42.6667" height="143.857"/><rect fill="rgb(214,228,239)" fill-opacity="1" x="291.667" y="0" width="42.6667" height="143.857"/><rect fill="rgb(194,214,231)" fill-opacity="1" x="333.333" y="0" width="42.6667" height="143.857"/><rect fill="rgb(157,189,216)" fill-opacity="1" x="375" y="0" width="42.6667" height="143.857"/><rect fill="rgb(185,208,227)" fill-opacity="1" x="416.667" y="0" width="42.6667" height="143.857"/><rect fill="rgb(221,232,242)" fill-opacity="1" x="458.333" y="0" width="42.6667" height="143.857"/><rect fill="rgb(248,250,252)" fill-opacity="1" x="500" y="0" width="42.6667" height="143.857"/><rect fill="rgb(245,248,251)" fill-opacity="1" x="541.667" y="0" width="42.6667" height="143.857"/><rect fill="rgb(249,251,253)" fill-opacity="1" x="583.333" y="0" width="42.6667" height="143.857"/><rect fill="rgb(238,244,248)" fill-opacity="1" x="625" y="0" width="42.6667" height="143.857"/><rect fill="rgb(214,227,239)" fill-opacity="1" x="666.667" y="0" width="42.6667" height="143.857"/><rect fill="rgb(196,215,231)" fill-opacity="1" x="708.333" y="0" width="42.6667" height="143.857"/><rect fill="rgb(179,204,224)" fill-opacity="1" x="750" y="0" width="42.6667" height="143.857"/><rect fill="rgb(218,230,240)" fill-opacity="1" x="791.667" y="0" width="42.6667" height="143.857"/><rect fill="rgb(212,226,238)" fill-opacity="1" x="833.333" y="0" width="42.6667" height="143.857"/><rect fill="rgb(236,242,248)" fill-opacity="1" x="875" y="0" width="42.6667" height="143.857"/><rect fill="rgb(242,246,250)" fill-opacity="1" x="916.667" y="0" width="42.6667" height="143.857"/><rect fill="rgb(252,253,254)" fill-opacity="1" x="958.333" y="0" width="42.6667" height="143.857"/><rect fill="rgb(70,130,180)" x="1016" y="0" width="16" height="51"/><rect fill="rgb(80,137,184)" x="1016" y="50" width="16" height="51"/><rect fill="rgb(90,144,188)" x="1016" y="100" width="16" height="51"/><rect fill="rgb(100,150,192)" x="1016" y="150" width="16" height="51"/><rect fill="rgb(109,157,196)" x="1016" y="200" width="16" height="51"/><rect fill="rgb(119,163,200)" x="1016" y="250" width="16" height="51"/><rect fill="rgb(129,170,204)" x="1016" y="300" width="16" height="51"/><rect fill="rgb(139,177,208)" x="1016" y="350" width="16" height="51"/><rect fill="rgb(148,183,212)" x="1016" y="400" width="16" height="51"/><rect fill="rgb(158,190,216)" x="1016" y="450" width="16" height="51"/><rect fill="rgb(168,196,220)" x="1016" y="500" width="16" height="51"/><rect fill="rgb(178,203,224)" x="1016" y="550" width="16" height="51"/><rect fill="rgb(187,209,228)" x="1016" y="600" width="16" height="51"/><rect fill="rgb(197,216,232)" x="1016" y="650" width="16" height="51"/><rect fill="rgb(207,223,236)" x="1016" y="700" width="16" height="51"/><rect fill="rgb(217,229,240)" x="1016" y="750" width="16" height="51"/><rect fill="rgb(226,236,244)" x="1016" y="800" width="16" height="51"/><rect fill="rgb(236,242,248)" x="1016" y="850" width="16" height="51"/><rect fill="rgb(246,249,252)" x="1016" y="900" width="16" height="51"/><rect fill="rgb(255,255,255)" x="1016" y="950" width="16" height="51"/><text fill="dimgray" fill-opacity="1" x="1038" y="25" font-size="11" dominant-baseline="central">498</text><text fill="dimgray" fill-opacity="1" x="1038" y="975" font-size="11" dominant-baseline="central">7.63</text><line stroke="dimgray" stroke-width="1" opacity="1" x1="0" y1="1000" x2="1000" y2="1000"/><text fill="dimgray" fill-opacity="1" x="0" y="1008" font-size="12" text-anchor="middle" dominant-baseline="hanging">-0.5a</text><line stroke="dimgray" stroke-width="1" opacity="1" x1="43.4783" y1="1000" x2="43.4783" y2="1006"/><text fill="dimgray" fill-opacity="1" x="43.4783" y="1008" font-size="12" text-anchor="middle" dominant-baseline="hanging">0.543478a</text><line stroke="dimgray" stroke-width="1" opacity="1" x1="86.9565" y1="1000" x2="86.9565" y2="1006"/><text fill="dimgray" fill-opacity="1" x="86.9565" y="1008" font-size="12" text-anchor="middle" dominant-baseline="hanging">1.58696a</text><line stroke="dimgray" stroke-width="1" opacity="1" x1="130.435" y1="1000" x2="130.435" y2="1006"/><text fill="dimgray" fill-opacity="1" x="130.435" y="1008" font-size="12" text-anchor="middle" dominant-baseline="hanging">2.63043a</text><line stroke="dimgray" stroke-width="1" opacity="1" x1="173.913" y1="1000" x2="173.913" y2="1006"/><text fill="dimgray" fill-opacity="1" x="173.913" y="1008" font-size="12" text-anchor="middle" dominant-baseline="hanging">3.67391a</text><line stroke="dimgray" stroke-width="1" opacity="1" x1="217.391" y1="1000" x2="217.391" y2="1006"/><text fill="dimgray" fill-opacity="1" x="217.391" y="1008" font-size="12" text-anchor="middle" dominant-baseline="hanging">4.71739a</text><line stroke="dimgray" stroke-width="1" opacity="1" x1="260.87" y1="1000" x2="260.87" y2="1006"/><text fill="dimgray" fill-opacity="1" x="260.87" y="1008" font-size="12" text-anchor="middle" dominant-baseline="hanging">5.76087a</text><line stroke="dimgray" stroke-width="1" opacity="1" x1="304.348" y1="1000" x2="304.348" y2="1006"/><text fill="dimgray" fill-opacity="1" x="304.348" y="1008" font-size="12" text-anchor="middle" dominant-baseline="hanging">6.80435a</text><line stroke="dimgray" stroke-width="1" opacity="1" x1="347.826" y1="1000" x2="347.826" y2="1006"/><text fill="dimgray" fill-opacity="1" x="347.826" y="1008" font-size="12" text-anchor="middle" dominant-baseline="hanging">7.84783a</text><line stroke="dimgray" stroke-width="1" opacity="1" x1="391.304" y1="1000" x2="391.304" y2="1006"/><text fill="dimgray" fill-opacity="1" x="391.304" y="1008" font-size="12" text-anchor="middle" dominant-baseline="hanging">8.8913a</text><line stroke="dimgray" stroke-width="1" opacity="1" x1="434.783" y1="1000" x2="434.783" y2="1006"/><text fill="dimgray" fill-opacity="1" x="434.783" y="1008" font-size="12" text-anchor="middle" dominant-baseline="hanging">9.93478a</text><line stroke="dimgray" stroke-width="1" opacity="1" x1="478.261" y1="1000" x2="478.261" y2="1006"/><text fill="dimgray" fill-opacity="1" x="478.261" y="1008" font-size="12" text-anchor="middle" dominant-baseline="hanging">10.9783a</text><line stroke="dimgray" stroke-width="1" opacity="1" x1="521.739" y1="1000" x2="521.739" y2="1006"/><text fill="dimgray" fill-opacity="1" x="521.739" y="1008" font-size="12" text-anchor="middle" dominant-baseline="hanging">0.0217391p</text><line stroke="dimgray" stroke-width="1" opacity="1" x1="565.217" y1="1000" x2="565.217" y2="1006"/><text fill="dimgray" fill-opacity="1" x="565.217" y="1008" font-size="12" text-anchor="middle" dominant-baseline="hanging">1.06522p</text><line stroke="dimgray" stroke-width="1" opacity="1" x1="608.696" y1="1000" x2="608.696" y2="1006"/><text fill="dimgray" fill-opacity="1" x="608.696" y="1008" font-size="12" text-anchor="middle" dominant-baseline="hanging">2.1087p</text><line stroke="dimgray" stroke-width="1" opacity="1" x1="652.174" y1="1000" x2="652.174" y2="1006"/><text fill="dimgray" fill-opacity="1" x="652.174" y="1008" font-size="12" text-anchor="middle" dominant-baseline="hanging">3.15217p</text><line stroke="dimgray" stroke-width="1" opacity="1" x1="695.652" y1="1000" x2="695.652" y2="1006"/><text fill="dimgray" fill-opacity="1" x="695.652" y="1008" font-size="12" text-anchor="middle" dominant-baseline="hanging">4.19565p</text><line stroke="dimgray" stroke-width="1" opacity="1" x1="739.13" y1="1000" x2="739.13" y2="1006"/><text fill="dimgray" fill-opacity="1" x="739.13" y="1008" font-size="12" text-anchor="middle" dominant-baseline="hanging">5.23913p</text><line stroke="dimgray" stroke-width="1" opacity="1" x1="782.609" y1="1000" x2="782.609" y2="1006"/><text fill="dimgray" fill-opacity="1" x="782.609" y="1008" font-size="12" text-anchor="middle" dominant-baseline="hanging">6.28261p</text><line stroke="dimgray" stroke-width="1" opacity="1" x1="826.087" y1="1000" x2="826.087" y2="1006"/><text fill="dimgray" fill-opacity="1" x="826.087" y="1008" font-size="12" text-anchor="middle" dominant-baseline="hanging">7.32609p</text><line stroke="dimgray" stroke-width="1" opacity="1" x1="869.565" y1="1000" x2="869.565" y2="1006"/><text fill="dimgray" fill-opacity="1" x="869.565" y="1008" font-size="12" text-anchor="middle" dominant-baseline="hanging">8.36957p</text><line stroke="dimgray" stroke-width="1" opacity="1" x1="913.043" y1="1000" x2="913.043" y2="1006"/><text fill="dimgray" fill-opacity="1" x="913.043" y="1008" font-size="12" text-anchor="middle" dominant-baseline="hanging">9.41304p</text><line stroke="dimgray" stroke-width="1" opacity="1" x1="956.522" y1="1000" x2="956.522" y2="1006"/><text fill="dimgray" fill-opacity="1" x="956.522" y="1008" font-size="12" text-anchor="middle" dominant-baseline="hanging">10.4565p</text><text fill="dimgray" fill-opacity="1" x="1000" y="1008" font-size="12" text-anchor="middle" dominant-baseline="hanging">11.5p</text><line stroke="dimgray" stroke-width="1" opacity="1" x1="0" y1="1000" x2="0" y2="0"/><text fill="dimgray" fill-opacity="1" x="-10" y="1000" font-size="12" text-anchor="end" dominant-baseline="central">Mon</text><line stroke="dimgray" stroke-width="1" opacity="1" x1="0" y1="833.333" x2="-6" y2="833.333"/><text fill="dimgray" fill-opacity="1" x="-10" y="833.333" font-size="12" text-anchor="end" dominant-baseline="central">Mon</text><line stroke="dimgray" stroke-width="1" opacity="1" x1="0" y1="666.667" x2="-6" y2="666.667"/><text fill="dimgray" fill-opacity="1" x="-10" y="666.667" font-size="12" text-anchor="end" dominant-baseline="central">Tue</text><line stroke="dimgray" stroke-width="1" opacity="1" x1="0" y1="500" x2="-6" y2="500"/><text fill="dimgray" fill-opacity="1" x="-10" y="500" font-size="12" text-anchor="end" dominant-baseline="central">Thu</text><line stroke="dimgray" stroke-width="1" opacity="1" x1="0" y1="333.333" x2="-6" y2="333.333"/><text fill="dimgray" fill-opacity="1" x="-10" y="333.333" font-size="12" text-anchor="end" dominant-baseline="central">Fri</text><line stroke="dimgray" stroke-width="1" opacity="1" x1="0" y1="166.667" x2="-6" y2="166.667"/><text fill="dimgray" fill-opacity="1" x="-10" y="166.667" font-size="12" text-anchor="end" dominant-baseline="central">Sat</text><text fill="dimgray" fill-opacity="1" x="-10" y="0" font-size="12" text-anchor="end" dominant-baseline="central">Sun</text><text fill="black" fill-opacity="1" x="500" y="-32" font-size="22" text-anchor="middle" dominant-baseline="hanging">Weekly Step Counts by Hour</text></svg>