<svg xmlns="http://www.w3.org/2000/svg" viewBox="-20,-32 1087.2,1052"><rect fill="white" x="-20" y="-32" width="1087.2" height="1052"/><line stroke="lightgray" stroke-width="1" opacity="1" x1="0" y1="0" x2="0" y2="1000"/><line stroke="lightgray" stroke-width="1" opacity="1" x1="250" y1="0" x2="250" y2="1000"/><line stroke="lightgray" stroke-width="1" opacity="1" x1="500" y1="0" x2="500" y2="1000"/><line stroke="lightgray" stroke-width="1" opacity="1" x1="750" y1="0" x2="750" y2="1000"/><line stroke="lightgray" stroke-width="1" opacity="1" x1="1000" y1="0" x2="1000" y2="1000"/><line stroke="lightgray" stroke-width="1" opacity="1" x1="0" y1="1000" x2="1000" y2="1000"/><line stroke="lightgray" stroke-width="1" opacity="1" x1="0" y1="750" x2="1000" y2="750"/><line stroke="lightgray" stroke-width="1" opacity="1" x1="0" y1="500" x2="1000" y2="500"/><line stroke="lightgray" stroke-width="1" opacity="1" x1="0" y1="250" x2="1000" y2="250"/><line stroke="lightgray" stroke-width="1" opacity="1" x1="0" y1="0" x2="1000" y2="0"/><polygon fill="rgb(221,232,242)" fill-opacity="1" points="790.125,397.567 769.912,432.577 729.486,432.577 709.273,397.567 729.486,362.557 769.912,362.557"/><polygon fill="rgb(173,200,222)" fill-opacity="1" points="305.013,397.567 284.8,432.577 244.374,432.577 224.161,397.567 244.374,362.557 284.8,362.557"/><polygon fill="rgb(236,242,248)" fill-opacity="1" points="244.374,443.329 224.161,478.339 183.735,478.339 163.522,443.329 183.735,408.319 224.161,408.319"/><polygon fill="rgb(158,190,216)" fill-opacity="1" points="486.93,443.329 466.717,478.339 426.291,478.339 406.078,443.329 426.291,408.319 466.717,408.319"/><polygon fill="rgb(182,206,226)" fill-opacity="1" points="790.125,580.615 769.912,615.625 729.486,615.625 709.273,580.615 729.486,545.605 769.912,545.605"/><polygon fill="rgb(168,196,220)" fill-opacity="1" points="668.847,489.091 648.634,524.101 608.208,524.101 587.995,489.091 608.208,454.081 648.634,454.081"/><polygon fill="rgb(153,186,214)" fill-opacity="1" points="608.208,626.377 587.995,661.387 547.569,661.387 527.356,626.377 547.569,591.367 587.995,591.367"/><polygon fill="rgb(100,150,192)" fill-opacity="1" points="729.486,626.377 709.273,661.387 668.847,661.387 648.634,626.377 668.847,591.367 709.273,591.367"/><polygon fill="rgb(251,252,254)" fill-opacity="1" points="729.486,77.2318 709.273,112.242 668.847,112.242 648.634,77.2318 668.847,42.2219 709.273,42.2219"/><polygon fill="rgb(236,242,248)" fill-opacity="1" points="426.291,580.615 406.078,615.625 365.652,615.625 345.439,580.615 365.652,545.605 406.078,545.605"/><polygon fill="rgb(231,239,246)" fill-opacity="1" points="547.569,672.139 527.356,707.149 486.93,707.149 466.717,672.139 486.93,637.13 527.356,637.13"/><polygon fill="rgb(236,242,248)" fill-opacity="1" points="244.374,260.28 224.161,295.29 183.735,295.29 163.522,260.28 183.735,225.27 224.161,225.27"/><polygon fill="rgb(246,249,252)" fill-opacity="1" points="183.735,306.043 163.522,341.052 123.096,341.052 102.883,306.043 123.096,271.033 163.522,271.033"/><polygon fill="rgb(226,236,244)" fill-opacity="1" points="608.208,534.853 587.995,569.863 547.569,569.863 527.356,534.853 547.569,499.843 587.995,499.843"/><polygon fill="rgb(231,239,246)" fill-opacity="1" points="608.208,351.805 587.995,386.815 547.569,386.815 527.356,351.805 547.569,316.795 587.995,316.795"/><polygon fill="rgb(241,246,250)" fill-opacity="1" points="486.93,626.377 466.717,661.387 426.291,661.387 406.078,626.377 426.291,591.367 466.717,591.367"/><polygon fill="rgb(70,130,180)" fill-opacity="1" points="426.291,397.567 406.078,432.577 365.652,432.577 345.439,397.567 365.652,362.557 406.078,362.557"/><polygon fill="rgb(124,167,202)" fill-opacity="1" points="668.847,672.139 648.634,707.149 608.208,707.149 587.995,672.139 608.208,637.13 648.634,637.13"/><polygon fill="rgb(251,252,254)" fill-opacity="1" points="911.403,489.091 891.189,524.101 850.764,524.101 830.551,489.091 850.764,454.081 891.189,454.081"/><polygon fill="rgb(241,246,250)" fill-opacity="1" points="790.125,763.664 769.912,798.674 729.486,798.674 709.273,763.664 729.486,728.654 769.912,728.654"/><polygon fill="rgb(168,196,220)" fill-opacity="1" points="486.93,351.805 466.717,386.815 426.291,386.815 406.078,351.805 426.291,316.795 466.717,316.795"/><polygon fill="rgb(236,242,248)" fill-opacity="1" points="244.374,351.805 224.161,386.815 183.735,386.815 163.522,351.805 183.735,316.795 224.161,316.795"/><polygon fill="rgb(246,249,252)" fill-opacity="1" points="668.847,306.043 648.634,341.052 608.208,341.052 587.995,306.043 608.208,271.033 648.634,271.033"/><polygon fill="rgb(226,236,244)" fill-opacity="1" points="790.125,489.091 769.912,524.101 729.486,524.101 709.273,489.091 729.486,454.081 769.912,454.081"/><polygon fill="rgb(202,219,234)" fill-opacity="1" points="668.847,763.664 648.634,798.674 608.208,798.674 587.995,763.664 608.208,728.654 648.634,728.654"/><polygon fill="rgb(231,239,246)" fill-opacity="1" points="608.208,443.329 587.995,478.339 547.569,478.339 527.356,443.329 547.569,408.319 587.995,408.319"/><polygon fill="rgb(187,209,228)" fill-opacity="1" points="608.208,717.902 587.995,752.912 547.569,752.912 527.356,717.902 547.569,682.892 587.995,682.892"/><polygon fill="rgb(182,206,226)" fill-opacity="1" points="729.486,534.853 709.273,569.863 668.847,569.863 648.634,534.853 668.847,499.843 709.273,499.843"/><polygon fill="rgb(105,154,194)" fill-opacity="1" points="668.847,580.615 648.634,615.625 608.208,615.625 587.995,580.615 608.208,545.605 648.634,545.605"/><polygon fill="rgb(187,209,228)" fill-opacity="1" points="547.569,580.615 527.356,615.625 486.93,615.625 466.717,580.615 486.93,545.605 527.356,545.605"/><polygon fill="rgb(246,249,252)" fill-opacity="1" points="305.013,672.139 284.8,707.149 244.374,707.149 224.161,672.139 244.374,637.13 284.8,637.13"/><polygon fill="rgb(202,219,234)" fill-opacity="1" points="426.291,489.091 406.078,524.101 365.652,524.101 345.439,489.091 365.652,454.081 406.078,454.081"/><polygon fill="rgb(100,150,192)" fill-opacity="1" points="365.652,443.329 345.439,478.339 305.013,478.339 284.8,443.329 305.013,408.319 345.439,408.319"/><polygon fill="rgb(246,249,252)" fill-opacity="1" points="183.735,489.091 163.522,524.101 123.096,524.101 102.883,489.091 123.096,454.081 163.522,454.081"/><polygon fill="rgb(241,246,250)" fill-opacity="1" points="850.764,717.902 830.551,752.912 790.125,752.912 769.912,717.902 790.125,682.892 830.551,682.892"/><polygon fill="rgb(217,229,240)" fill-opacity="1" points="305.013,489.091 284.8,524.101 244.374,524.101 224.161,489.091 244.374,454.081 284.8,454.081"/><polygon fill="rgb(139,177,208)" fill-opacity="1" points="365.652,351.805 345.439,386.815 305.013,386.815 284.8,351.805 305.013,316.795 345.439,316.795"/><polygon fill="rgb(202,219,234)" fill-opacity="1" points="729.486,717.902 709.273,752.912 668.847,752.912 648.634,717.902 668.847,682.892 709.273,682.892"/><polygon fill="rgb(187,209,228)" fill-opacity="1" points="365.652,534.853 345.439,569.863 305.013,569.863 284.8,534.853 305.013,499.843 345.439,499.843"/><polygon fill="rgb(212,226,238)" fill-opacity="1" points="729.486,443.329 709.273,478.339 668.847,478.339 648.634,443.329 668.847,408.319 709.273,408.319"/><polygon fill="rgb(236,242,248)" fill-opacity="1" points="486.93,534.853 466.717,569.863 426.291,569.863 406.078,534.853 426.291,499.843 466.717,499.843"/><polygon fill="rgb(246,249,252)" fill-opacity="1" points="850.764,534.853 830.551,569.863 790.125,569.863 769.912,534.853 790.125,499.843 830.551,499.843"/><polygon fill="rgb(236,242,248)" fill-opacity="1" points="668.847,397.567 648.634,432.577 608.208,432.577 587.995,397.567 608.208,362.557 648.634,362.557"/><polygon fill="rgb(246,249,252)" fill-opacity="1" points="790.125,855.188 769.912,890.198 729.486,890.198 709.273,855.188 729.486,820.178 769.912,820.178"/><polygon fill="rgb(217,229,240)" fill-opacity="1" points="547.569,397.567 527.356,432.577 486.93,432.577 466.717,397.567 486.93,362.557 527.356,362.557"/><polygon fill="rgb(207,223,236)" fill-opacity="1" points="426.291,306.043 406.078,341.052 365.652,341.052 345.439,306.043 365.652,271.033 406.078,271.033"/><polygon fill="rgb(236,242,248)" fill-opacity="1" points="426.291,672.139 406.078,707.149 365.652,707.149 345.439,672.139 365.652,637.13 406.078,637.13"/><polygon fill="rgb(241,246,250)" fill-opacity="1" points="668.847,214.518 648.634,249.528 608.208,249.528 587.995,214.518 608.208,179.508 648.634,179.508"/><polygon fill="rgb(202,219,234)" fill-opacity="1" points="547.569,489.091 527.356,524.101 486.93,524.101 466.717,489.091 486.93,454.081 527.356,454.081"/><polygon fill="rgb(251,252,254)" fill-opacity="1" points="911.403,672.139 891.189,707.149 850.764,707.149 830.551,672.139 850.764,637.13 891.189,637.13"/><polygon fill="rgb(221,232,242)" fill-opacity="1" points="305.013,306.043 284.8,341.052 244.374,341.052 224.161,306.043 244.374,271.033 284.8,271.033"/><polygon fill="rgb(241,246,250)" fill-opacity="1" points="790.125,306.043 769.912,341.052 729.486,341.052 709.273,306.043 729.486,271.033 769.912,271.033"/><polygon fill="rgb(251,252,254)" fill-opacity="1" points="365.652,809.426 345.439,844.436 305.013,844.436 284.8,809.426 305.013,774.416 345.439,774.416"/><polygon fill="rgb(221,232,242)" fill-opacity="1" points="486.93,260.28 466.717,295.29 426.291,295.29 406.078,260.28 426.291,225.27 466.717,225.27"/><polygon fill="rgb(246,249,252)" fill-opacity="1" points="729.486,809.426 709.273,844.436 668.847,844.436 648.634,809.426 668.847,774.416 709.273,774.416"/><polygon fill="rgb(246,249,252)" fill-opacity="1" points="183.735,397.567 163.522,432.577 123.096,432.577 102.883,397.567 123.096,362.557 163.522,362.557"/><polygon fill="rgb(246,249,252)" fill-opacity="1" points="305.013,214.518 284.8,249.528 244.374,249.528 224.161,214.518 244.374,179.508 284.8,179.508"/><polygon fill="rgb(246,249,252)" fill-opacity="1" points="911.403,306.043 891.189,341.052 850.764,341.052 830.551,306.043 850.764,271.033 891.189,271.033"/><polygon fill="rgb(251,252,254)" fill-opacity="1" points="486.93,717.902 466.717,752.912 426.291,752.912 406.078,717.902 426.291,682.892 466.717,682.892"/><polygon fill="rgb(251,252,254)" fill-opacity="1" points="608.208,900.95 587.995,935.96 547.569,935.96 527.356,900.95 547.569,865.94 587.995,865.94"/><polygon fill="rgb(226,236,244)" fill-opacity="1" points="547.569,306.043 527.356,341.052 486.93,341.052 466.717,306.043 486.93,271.033 527.356,271.033"/><polygon fill="rgb(246,249,252)" fill-opacity="1" points="426.291,214.518 406.078,249.528 365.652,249.528 345.439,214.518 365.652,179.508 406.078,179.508"/><polygon fill="rgb(246,249,252)" fill-opacity="1" points="547.569,763.664 527.356,798.674 486.93,798.674 466.717,763.664 486.93,728.654 527.356,728.654"/><polygon fill="rgb(251,252,254)" fill-opacity="1" points="850.764,260.28 830.551,295.29 790.125,295.29 769.912,260.28 790.125,225.27 830.551,225.27"/><polygon fill="rgb(251,252,254)" fill-opacity="1" points="123.096,260.28 102.883,295.29 62.4567,295.29 42.2437,260.28 62.4567,225.27 102.883,225.27"/><polygon fill="rgb(246,249,252)" fill-opacity="1" points="668.847,855.188 648.634,890.198 608.208,890.198 587.995,855.188 608.208,820.178 648.634,820.178"/><polygon fill="rgb(246,249,252)" fill-opacity="1" points="608.208,260.28 587.995,295.29 547.569,295.29 527.356,260.28 547.569,225.27 587.995,225.27"/><polygon fill="rgb(251,252,254)" fill-opacity="1" points="850.764,443.329 830.551,478.339 790.125,478.339 769.912,443.329 790.125,408.319 830.551,408.319"/><polygon fill="rgb(251,252,254)" fill-opacity="1" points="365.652,260.28 345.439,295.29 305.013,295.29 284.8,260.28 305.013,225.27 345.439,225.27"/><polygon fill="rgb(207,223,236)" fill-opacity="1" points="790.125,672.139 769.912,707.149 729.486,707.149 709.273,672.139 729.486,637.13 769.912,637.13"/><polygon fill="rgb(251,252,254)" fill-opacity="1" points="972.042,351.805 951.828,386.815 911.403,386.815 891.189,351.805 911.403,316.795 951.828,316.795"/><polygon fill="rgb(231,239,246)" fill-opacity="1" points="608.208,809.426 587.995,844.436 547.569,844.436 527.356,809.426 547.569,774.416 587.995,774.416"/><polygon fill="rgb(251,252,254)" fill-opacity="1" points="183.735,214.518 163.522,249.528 123.096,249.528 102.883,214.518 123.096,179.508 163.522,179.508"/><polygon fill="rgb(251,252,254)" fill-opacity="1" points="729.486,351.805 709.273,386.815 668.847,386.815 648.634,351.805 668.847,316.795 709.273,316.795"/><polygon fill="rgb(241,246,250)" fill-opacity="1" points="244.374,534.853 224.161,569.863 183.735,569.863 163.522,534.853 183.735,499.843 224.161,499.843"/><polygon fill="rgb(251,252,254)" fill-opacity="1" points="426.291,122.994 406.078,158.004 365.652,158.004 345.439,122.994 365.652,87.984 406.078,87.984"/><polygon fill="rgb(246,249,252)" fill-opacity="1" points="850.764,626.377 830.551,661.387 790.125,661.387 769.912,626.377 790.125,591.367 830.551,591.367"/><polygon fill="rgb(251,252,254)" fill-opacity="1" points="850.764,351.805 830.551,386.815 790.125,386.815 769.912,351.805 790.125,316.795 830.551,316.795"/><polygon fill="rgb(251,252,254)" fill-opacity="1" points="365.652,168.756 345.439,203.766 305.013,203.766 284.8,168.756 305.013,133.746 345.439,133.746"/><polygon fill="rgb(251,252,254)" fill-opacity="1" points="790.125,122.994 769.912,158.004 729.486,158.004 709.273,122.994 729.486,87.984 769.912,87.984"/><polygon fill="rgb(236,242,248)" fill-opacity="1" points="305.013,580.615 284.8,615.625 244.374,615.625 224.161,580.615 244.374,545.605 284.8,545.605"/><polygon fill="rgb(251,252,254)" fill-opacity="1" points="305.013,122.994 284.8,158.004 244.374,158.004 224.161,122.994 244.374,87.984 284.8,87.984"/><polygon fill="rgb(251,252,254)" fill-opacity="1" points="729.486,260.28 709.273,295.29 668.847,295.29 648.634,260.28 668.847,225.27 709.273,225.27"/><polygon fill="rgb(251,252,254)" fill-opacity="1" points="850.764,809.426 830.551,844.436 790.125,844.436 769.912,809.426 790.125,774.416 830.551,774.416"/><polygon fill="rgb(251,252,254)" fill-opacity="1" points="486.93,168.756 466.717,203.766 426.291,203.766 406.078,168.756 426.291,133.746 466.717,133.746"/><polygon fill="rgb(251,252,254)" fill-opacity="1" points="486.93,809.426 466.717,844.436 426.291,844.436 406.078,809.426 426.291,774.416 466.717,774.416"/><rect fill="rgb(70,130,180)" x="1016" y="0" width="16" height="51"/><rect fill="rgb(80,137,184)" x="1016" y="50" width="16" height="51"/><rect fill="rgb(90,144,188)" x="1016" y="100" width="16" height="51"/><rect fill="rgb(100,150,192)" x="1016" y="150" width="16" height="51"/><rect fill="rgb(109,157,196)" x="1016" y="200" width="16" height="51"/><rect fill="rgb(119,163,200)" x="1016" y="250" width="16" height="51"/><rect fill="rgb(129,170,204)" x="1016" y="300" width="16" height="51"/><rect fill="rgb(139,177,208)" x="1016" y="350" width="16" height="51"/><rect fill="rgb(148,183,212)" x="1016" y="400" width="16" height="51"/><rect fill="rgb(158,190,216)" x="1016" y="450" width="16" height="51"/><rect fill="rgb(168,196,220)" x="1016" y="500" width="16" height="51"/><rect fill="rgb(178,203,224)" x="1016" y="550" width="16" height="51"/><rect fill="rgb(187,209,228)" x="1016" y="600" width="16" height="51"/><rect fill="rgb(197,216,232)" x="1016" y="650" width="16" height="51"/><rect fill="rgb(207,223,236)" x="1016" y="700" width="16" height="51"/><rect fill="rgb(217,229,240)" x="1016" y="750" width="16" height="51"/><rect fill="rgb(226,236,244)" x="1016" y="800" width="16" height="51"/><rect fill="rgb(236,242,248)" x="1016" y="850" width="16" height="51"/><rect fill="rgb(246,249,252)" x="1016" y="900" width="16" height="51"/><rect fill="rgb(255,255,255)" x="1016" y="950" width="16" height="51"/><text fill="dimgray" fill-opacity="1" x="1038" y="25" font-size="11" dominant-baseline="central">38</text><text fill="dimgray" fill-opacity="1" x="1038" y="975" font-size="11" dominant-baseline="central">0</text><line stroke="dimgray" stroke-width="1" opacity="1" x1="0" y1="489.091" x2="1000" y2="489.091"/><line stroke="dimgray" stroke-width="1" opacity="1" x1="0" y1="489.091" x2="0" y2="495.091"/><text fill="dimgray" fill-opacity="1" x="0" y="497.091" font-size="12" text-anchor="middle" dominant-baseline="hanging">-3.763</text><line stroke="dimgray" stroke-width="1" opacity="1" x1="250" y1="489.091" x2="250" y2="495.091"/><text fill="dimgray" fill-opacity="1" x="250" y="497.091" font-size="12" text-anchor="middle" dominant-baseline="hanging">-1.908</text><line stroke="dimgray" stroke-width="1" opacity="1" x1="500" y1="489.091" x2="500" y2="495.091"/><text fill="dimgray" fill-opacity="1" x="500" y="497.091" font-size="12" text-anchor="middle" dominant-baseline="hanging">-0.05301</text><line stroke="dimgray" stroke-width="1" opacity="1" x1="750" y1="489.091" x2="750" y2="495.091"/><text fill="dimgray" fill-opacity="1" x="750" y="497.091" font-size="12" text-anchor="middle" dominant-baseline="hanging">1.802</text><line stroke="dimgray" stroke-width="1" opacity="1" x1="1000" y1="489.091" x2="1000" y2="495.091"/><text fill="dimgray" fill-opacity="1" x="1000" y="497.091" font-size="12" text-anchor="middle" dominant-baseline="hanging">3.657</text><line stroke="dimgray" stroke-width="1" opacity="1" x1="507.143" y1="1000" x2="507.143" y2="0"/><line stroke="dimgray" stroke-width="1" opacity="1" x1="507.143" y1="1000" x2="501.143" y2="1000"/><text fill="dimgray" fill-opacity="1" x="497.143" y="1000" font-size="12" text-anchor="end" dominant-baseline="central">-2.901</text><line stroke="dimgray" stroke-width="1" opacity="1" x1="507.143" y1="750" x2="501.143" y2="750"/><text fill="dimgray" fill-opacity="1" x="497.143" y="750" font-size="12" text-anchor="end" dominant-baseline="central">-1.481</text><line stroke="dimgray" stroke-width="1" opacity="1" x1="507.143" y1="500" x2="501.143" y2="500"/><text fill="dimgray" fill-opacity="1" x="497.143" y="500" font-size="12" text-anchor="end" dominant-baseline="central">-0.06193</text><line stroke="dimgray" stroke-width="1" opacity="1" x1="507.143" y1="250" x2="501.143" y2="250"/><text fill="dimgray" fill-opacity="1" x="497.143" y="250" font-size="12" text-anchor="end" dominant-baseline="central">1.357</text><line stroke="dimgray" stroke-width="1" opacity="1" x1="507.143" y1="0" x2="501.143" y2="0"/><text fill="dimgray" fill-opacity="1" x="497.143" y="0" font-size="12" text-anchor="end" dominant-baseline="central">2.777</text><text fill="black" fill-opacity="1" x="500" y="-26" font-size="16" text-anchor="middle" dominant-baseline="hanging">Fictional Seismic Event Density</text></svg>