<svg xmlns="http://www.w3.org/2000/svg" viewBox="-20,-32 1087.2,1052"><rect fill="darkslategray" x="-20" y="-32" width="1087.2" height="1052"/><line stroke="dimgray" stroke-width="1" opacity="0.5" x1="0" y1="0" x2="0" y2="1000"/><line stroke="dimgray" stroke-width="1" opacity="0.5" x1="250" y1="0" x2="250" y2="1000"/><line stroke="dimgray" stroke-width="1" opacity="0.5" x1="500" y1="0" x2="500" y2="1000"/><line stroke="dimgray" stroke-width="1" opacity="0.5" x1="750" y1="0" x2="750" y2="1000"/><line stroke="dimgray" stroke-width="1" opacity="0.5" x1="1000" y1="0" x2="1000" y2="1000"/><line stroke="dimgray" stroke-width="1" opacity="0.5" x1="0" y1="1000" x2="1000" y2="1000"/><line stroke="dimgray" stroke-width="1" opacity="0.5" x1="0" y1="750" x2="1000" y2="750"/><line stroke="dimgray" stroke-width="1" opacity="0.5" x1="0" y1="500" x2="1000" y2="500"/><line stroke="dimgray" stroke-width="1" opacity="0.5" x1="0" y1="250" x2="1000" y2="250"/><line stroke="dimgray" stroke-width="1" opacity="0.5" x1="0" y1="0" x2="1000" y2="0"/><polygon fill="rgb(247,250,252)" fill-opacity="1" points="511.56,639.609 499.882,659.836 476.525,659.836 464.847,639.609 476.525,619.381 499.882,619.381"/><polygon fill="rgb(213,227,238)" fill-opacity="1" points="756.805,362.203 745.127,382.43 721.77,382.43 710.092,362.203 721.77,341.976 745.127,341.976"/><polygon fill="rgb(230,238,245)" fill-opacity="1" points="511.56,232.747 499.882,252.975 476.525,252.975 464.847,232.747 476.525,212.52 499.882,212.52"/><polygon fill="rgb(171,199,221)" fill-opacity="1" points="511.56,380.697 499.882,400.924 476.525,400.924 464.847,380.697 476.525,360.469 499.882,360.469"/><polygon fill="rgb(146,182,211)" fill-opacity="1" points="651.7,454.672 640.022,474.899 616.665,474.899 604.987,454.672 616.665,434.444 640.022,434.444"/><polygon fill="rgb(155,187,215)" fill-opacity="1" points="581.63,454.672 569.952,474.899 546.595,474.899 534.917,454.672 546.595,434.444 569.952,434.444"/><polygon fill="rgb(205,221,235)" fill-opacity="1" points="686.735,288.228 675.057,308.456 651.7,308.456 640.022,288.228 651.7,268.001 675.057,268.001"/><polygon fill="rgb(146,182,211)" fill-opacity="1" points="581.63,306.722 569.952,326.95 546.595,326.95 534.917,306.722 546.595,286.495 569.952,286.495"/><polygon fill="rgb(222,233,242)" fill-opacity="1" points="651.7,528.646 640.022,548.874 616.665,548.874 604.987,528.646 616.665,508.419 640.022,508.419"/><polygon fill="rgb(87,142,187)" fill-opacity="1" points="546.595,362.203 534.917,382.43 511.56,382.43 499.882,362.203 511.56,341.976 534.917,341.976"/><polygon fill="rgb(188,210,228)" fill-opacity="1" points="511.56,491.659 499.882,511.886 476.525,511.886 464.847,491.659 476.525,471.432 499.882,471.432"/><polygon fill="rgb(104,153,194)" fill-opacity="1" points="616.665,436.178 604.987,456.405 581.63,456.405 569.952,436.178 581.63,415.95 604.987,415.95"/><polygon fill="rgb(239,244,249)" fill-opacity="1" points="371.421,269.735 359.742,289.962 336.386,289.962 324.707,269.735 336.386,249.507 359.742,249.507"/><polygon fill="rgb(213,227,238)" fill-opacity="1" points="546.595,288.228 534.917,308.456 511.56,308.456 499.882,288.228 511.56,268.001 534.917,268.001"/><polygon fill="rgb(70,130,180)" fill-opacity="1" points="616.665,362.203 604.987,382.43 581.63,382.43 569.952,362.203 581.63,341.976 604.987,341.976"/><polygon fill="rgb(239,244,249)" fill-opacity="1" points="686.735,510.153 675.057,530.38 651.7,530.38 640.022,510.153 651.7,489.925 675.057,489.925"/><polygon fill="rgb(247,250,252)" fill-opacity="1" points="616.665,621.115 604.987,641.342 581.63,641.342 569.952,621.115 581.63,600.887 604.987,600.887"/><polygon fill="rgb(79,136,184)" fill-opacity="1" points="616.665,399.19 604.987,419.418 581.63,419.418 569.952,399.19 581.63,378.963 604.987,378.963"/><polygon fill="rgb(230,238,245)" fill-opacity="1" points="406.455,362.203 394.777,382.43 371.421,382.43 359.742,362.203 371.421,341.976 394.777,341.976"/><polygon fill="rgb(171,199,221)" fill-opacity="1" points="721.77,417.684 710.092,437.912 686.735,437.912 675.057,417.684 686.735,397.457 710.092,397.457"/><polygon fill="rgb(247,250,252)" fill-opacity="1" points="371.421,750.571 359.742,770.798 336.386,770.798 324.707,750.571 336.386,730.343 359.742,730.343"/><polygon fill="rgb(197,216,232)" fill-opacity="1" points="476.525,399.19 464.847,419.418 441.49,419.418 429.812,399.19 441.49,378.963 464.847,378.963"/><polygon fill="rgb(155,187,215)" fill-opacity="1" points="651.7,417.684 640.022,437.912 616.665,437.912 604.987,417.684 616.665,397.457 640.022,397.457"/><polygon fill="rgb(239,244,249)" fill-opacity="1" points="546.595,251.241 534.917,271.468 511.56,271.468 499.882,251.241 511.56,231.013 534.917,231.013"/><polygon fill="rgb(247,250,252)" fill-opacity="1" points="301.351,380.697 289.672,400.924 266.316,400.924 254.637,380.697 266.316,360.469 289.672,360.469"/><polygon fill="rgb(213,227,238)" fill-opacity="1" points="721.77,565.634 710.092,585.861 686.735,585.861 675.057,565.634 686.735,545.406 710.092,545.406"/><polygon fill="rgb(138,176,208)" fill-opacity="1" points="651.7,380.697 640.022,400.924 616.665,400.924 604.987,380.697 616.665,360.469 640.022,360.469"/><polygon fill="rgb(180,204,225)" fill-opacity="1" points="441.49,491.659 429.812,511.886 406.455,511.886 394.777,491.659 406.455,471.432 429.812,471.432"/><polygon fill="rgb(180,204,225)" fill-opacity="1" points="511.56,417.684 499.882,437.912 476.525,437.912 464.847,417.684 476.525,397.457 499.882,397.457"/><polygon fill="rgb(113,159,198)" fill-opacity="1" points="581.63,380.697 569.952,400.924 546.595,400.924 534.917,380.697 546.595,360.469 569.952,360.469"/><polygon fill="rgb(247,250,252)" fill-opacity="1" points="301.351,713.583 289.672,733.811 266.316,733.811 254.637,713.583 266.316,693.356 289.672,693.356"/><polygon fill="rgb(213,227,238)" fill-opacity="1" points="651.7,269.735 640.022,289.962 616.665,289.962 604.987,269.735 616.665,249.507 640.022,249.507"/><polygon fill="rgb(247,250,252)" fill-opacity="1" points="511.56,676.596 499.882,696.823 476.525,696.823 464.847,676.596 476.525,656.369 499.882,656.369"/><polygon fill="rgb(197,216,232)" fill-opacity="1" points="476.525,325.216 464.847,345.443 441.49,345.443 429.812,325.216 441.49,304.988 464.847,304.988"/><polygon fill="rgb(239,244,249)" fill-opacity="1" points="826.875,399.19 815.197,419.418 791.84,419.418 780.162,399.19 791.84,378.963 815.197,378.963"/><polygon fill="rgb(239,244,249)" fill-opacity="1" points="511.56,269.735 499.882,289.962 476.525,289.962 464.847,269.735 476.525,249.507 499.882,249.507"/><polygon fill="rgb(247,250,252)" fill-opacity="1" points="511.56,195.76 499.882,215.987 476.525,215.987 464.847,195.76 476.525,175.532 499.882,175.532"/><polygon fill="rgb(197,216,232)" fill-opacity="1" points="441.49,343.709 429.812,363.937 406.455,363.937 394.777,343.709 406.455,323.482 429.812,323.482"/><polygon fill="rgb(222,233,242)" fill-opacity="1" points="686.735,584.128 675.057,604.355 651.7,604.355 640.022,584.128 651.7,563.9 675.057,563.9"/><polygon fill="rgb(239,244,249)" fill-opacity="1" points="476.525,140.279 464.847,160.506 441.49,160.506 429.812,140.279 441.49,120.051 464.847,120.051"/><polygon fill="rgb(171,199,221)" fill-opacity="1" points="511.56,343.709 499.882,363.937 476.525,363.937 464.847,343.709 476.525,323.482 499.882,323.482"/><polygon fill="rgb(247,250,252)" fill-opacity="1" points="756.805,66.304 745.127,86.5314 721.77,86.5314 710.092,66.304 721.77,46.0765 745.127,46.0765"/><polygon fill="rgb(213,227,238)" fill-opacity="1" points="371.421,343.709 359.742,363.937 336.386,363.937 324.707,343.709 336.386,323.482 359.742,323.482"/><polygon fill="rgb(188,210,228)" fill-opacity="1" points="616.665,288.228 604.987,308.456 581.63,308.456 569.952,288.228 581.63,268.001 604.987,268.001"/><polygon fill="rgb(146,182,211)" fill-opacity="1" points="581.63,491.659 569.952,511.886 546.595,511.886 534.917,491.659 546.595,471.432 569.952,471.432"/><polygon fill="rgb(213,227,238)" fill-opacity="1" points="371.421,380.697 359.742,400.924 336.386,400.924 324.707,380.697 336.386,360.469 359.742,360.469"/><polygon fill="rgb(188,210,228)" fill-opacity="1" points="546.595,473.165 534.917,493.393 511.56,493.393 499.882,473.165 511.56,452.938 534.917,452.938"/><polygon fill="rgb(230,238,245)" fill-opacity="1" points="721.77,343.709 710.092,363.937 686.735,363.937 675.057,343.709 686.735,323.482 710.092,323.482"/><polygon fill="rgb(230,238,245)" fill-opacity="1" points="406.455,399.19 394.777,419.418 371.421,419.418 359.742,399.19 371.421,378.963 394.777,378.963"/><polygon fill="rgb(146,182,211)" fill-opacity="1" points="581.63,417.684 569.952,437.912 546.595,437.912 534.917,417.684 546.595,397.457 569.952,397.457"/><polygon fill="rgb(121,165,201)" fill-opacity="1" points="546.595,436.178 534.917,456.405 511.56,456.405 499.882,436.178 511.56,415.95 534.917,415.95"/><polygon fill="rgb(146,182,211)" fill-opacity="1" points="651.7,343.709 640.022,363.937 616.665,363.937 604.987,343.709 616.665,323.482 640.022,323.482"/><polygon fill="rgb(205,221,235)" fill-opacity="1" points="441.49,306.722 429.812,326.95 406.455,326.95 394.777,306.722 406.455,286.495 429.812,286.495"/><polygon fill="rgb(222,233,242)" fill-opacity="1" points="441.49,380.697 429.812,400.924 406.455,400.924 394.777,380.697 406.455,360.469 429.812,360.469"/><polygon fill="rgb(163,193,218)" fill-opacity="1" points="616.665,510.153 604.987,530.38 581.63,530.38 569.952,510.153 581.63,489.925 604.987,489.925"/><polygon fill="rgb(247,250,252)" fill-opacity="1" points="721.77,158.772 710.092,179 686.735,179 675.057,158.772 686.735,138.545 710.092,138.545"/><polygon fill="rgb(230,238,245)" fill-opacity="1" points="616.665,251.241 604.987,271.468 581.63,271.468 569.952,251.241 581.63,231.013 604.987,231.013"/><polygon fill="rgb(247,250,252)" fill-opacity="1" points="791.84,528.646 780.162,548.874 756.805,548.874 745.127,528.646 756.805,508.419 780.162,508.419"/><polygon fill="rgb(230,238,245)" fill-opacity="1" points="476.525,510.153 464.847,530.38 441.49,530.38 429.812,510.153 441.49,489.925 464.847,489.925"/><polygon fill="rgb(213,227,238)" fill-opacity="1" points="721.77,306.722 710.092,326.95 686.735,326.95 675.057,306.722 686.735,286.495 710.092,286.495"/><polygon fill="rgb(247,250,252)" fill-opacity="1" points="406.455,584.128 394.777,604.355 371.421,604.355 359.742,584.128 371.421,563.9 394.777,563.9"/><polygon fill="rgb(230,238,245)" fill-opacity="1" points="721.77,269.735 710.092,289.962 686.735,289.962 675.057,269.735 686.735,249.507 710.092,249.507"/><polygon fill="rgb(155,187,215)" fill-opacity="1" points="616.665,473.165 604.987,493.393 581.63,493.393 569.952,473.165 581.63,452.938 604.987,452.938"/><polygon fill="rgb(197,216,232)" fill-opacity="1" points="651.7,491.659 640.022,511.886 616.665,511.886 604.987,491.659 616.665,471.432 640.022,471.432"/><polygon fill="rgb(113,159,198)" fill-opacity="1" points="546.595,399.19 534.917,419.418 511.56,419.418 499.882,399.19 511.56,378.963 534.917,378.963"/><polygon fill="rgb(171,199,221)" fill-opacity="1" points="581.63,343.709 569.952,363.937 546.595,363.937 534.917,343.709 546.595,323.482 569.952,323.482"/><polygon fill="rgb(213,227,238)" fill-opacity="1" points="616.665,547.14 604.987,567.367 581.63,567.367 569.952,547.14 581.63,526.913 604.987,526.913"/><polygon fill="rgb(222,233,242)" fill-opacity="1" points="581.63,565.634 569.952,585.861 546.595,585.861 534.917,565.634 546.595,545.406 569.952,545.406"/><polygon fill="rgb(247,250,252)" fill-opacity="1" points="371.421,491.659 359.742,511.886 336.386,511.886 324.707,491.659 336.386,471.432 359.742,471.432"/><polygon fill="rgb(222,233,242)" fill-opacity="1" points="441.49,417.684 429.812,437.912 406.455,437.912 394.777,417.684 406.455,397.457 429.812,397.457"/><polygon fill="rgb(197,216,232)" fill-opacity="1" points="546.595,510.153 534.917,530.38 511.56,530.38 499.882,510.153 511.56,489.925 534.917,489.925"/><polygon fill="rgb(247,250,252)" fill-opacity="1" points="756.805,658.102 745.127,678.33 721.77,678.33 710.092,658.102 721.77,637.875 745.127,637.875"/><polygon fill="rgb(222,233,242)" fill-opacity="1" points="546.595,547.14 534.917,567.367 511.56,567.367 499.882,547.14 511.56,526.913 534.917,526.913"/><polygon fill="rgb(247,250,252)" fill-opacity="1" points="546.595,214.254 534.917,234.481 511.56,234.481 499.882,214.254 511.56,194.026 534.917,194.026"/><polygon fill="rgb(247,250,252)" fill-opacity="1" points="441.49,195.76 429.812,215.987 406.455,215.987 394.777,195.76 406.455,175.532 429.812,175.532"/><polygon fill="rgb(188,210,228)" fill-opacity="1" points="546.595,325.216 534.917,345.443 511.56,345.443 499.882,325.216 511.56,304.988 534.917,304.988"/><polygon fill="rgb(247,250,252)" fill-opacity="1" points="791.84,343.709 780.162,363.937 756.805,363.937 745.127,343.709 756.805,323.482 780.162,323.482"/><polygon fill="rgb(247,250,252)" fill-opacity="1" points="371.421,787.558 359.742,807.786 336.386,807.786 324.707,787.558 336.386,767.331 359.742,767.331"/><polygon fill="rgb(197,216,232)" fill-opacity="1" points="441.49,454.672 429.812,474.899 406.455,474.899 394.777,454.672 406.455,434.444 429.812,434.444"/><polygon fill="rgb(197,216,232)" fill-opacity="1" points="686.735,436.178 675.057,456.405 651.7,456.405 640.022,436.178 651.7,415.95 675.057,415.95"/><polygon fill="rgb(239,244,249)" fill-opacity="1" points="616.665,584.128 604.987,604.355 581.63,604.355 569.952,584.128 581.63,563.9 604.987,563.9"/><polygon fill="rgb(213,227,238)" fill-opacity="1" points="371.421,454.672 359.742,474.899 336.386,474.899 324.707,454.672 336.386,434.444 359.742,434.444"/><polygon fill="rgb(239,244,249)" fill-opacity="1" points="721.77,528.646 710.092,548.874 686.735,548.874 675.057,528.646 686.735,508.419 710.092,508.419"/><polygon fill="rgb(230,238,245)" fill-opacity="1" points="476.525,473.165 464.847,493.393 441.49,493.393 429.812,473.165 441.49,452.938 464.847,452.938"/><polygon fill="rgb(239,244,249)" fill-opacity="1" points="336.386,214.254 324.707,234.481 301.351,234.481 289.672,214.254 301.351,194.026 324.707,194.026"/><polygon fill="rgb(163,193,218)" fill-opacity="1" points="511.56,454.672 499.882,474.899 476.525,474.899 464.847,454.672 476.525,434.444 499.882,434.444"/><polygon fill="rgb(247,250,252)" fill-opacity="1" points="336.386,325.216 324.707,345.443 301.351,345.443 289.672,325.216 301.351,304.988 324.707,304.988"/><polygon fill="rgb(197,216,232)" fill-opacity="1" points="756.805,399.19 745.127,419.418 721.77,419.418 710.092,399.19 721.77,378.963 745.127,378.963"/><polygon fill="rgb(197,216,232)" fill-opacity="1" points="651.7,306.722 640.022,326.95 616.665,326.95 604.987,306.722 616.665,286.495 640.022,286.495"/><polygon fill="rgb(222,233,242)" fill-opacity="1" points="476.525,436.178 464.847,456.405 441.49,456.405 429.812,436.178 441.49,415.95 464.847,415.95"/><polygon fill="rgb(247,250,252)" fill-opacity="1" points="406.455,547.14 394.777,567.367 371.421,567.367 359.742,547.14 371.421,526.913 394.777,526.913"/><polygon fill="rgb(180,204,225)" fill-opacity="1" points="721.77,380.697 710.092,400.924 686.735,400.924 675.057,380.697 686.735,360.469 710.092,360.469"/><polygon fill="rgb(230,238,245)" fill-opacity="1" points="581.63,269.735 569.952,289.962 546.595,289.962 534.917,269.735 546.595,249.507 569.952,249.507"/><polygon fill="rgb(197,216,232)" fill-opacity="1" points="581.63,528.646 569.952,548.874 546.595,548.874 534.917,528.646 546.595,508.419 569.952,508.419"/><polygon fill="rgb(213,227,238)" fill-opacity="1" points="686.735,473.165 675.057,493.393 651.7,493.393 640.022,473.165 651.7,452.938 675.057,452.938"/><polygon fill="rgb(230,238,245)" fill-opacity="1" points="721.77,454.672 710.092,474.899 686.735,474.899 675.057,454.672 686.735,434.444 710.092,434.444"/><polygon fill="rgb(247,250,252)" fill-opacity="1" points="196.246,658.102 184.567,678.33 161.211,678.33 149.532,658.102 161.211,637.875 184.567,637.875"/><polygon fill="rgb(213,227,238)" fill-opacity="1" points="406.455,473.165 394.777,493.393 371.421,493.393 359.742,473.165 371.421,452.938 394.777,452.938"/><polygon fill="rgb(247,250,252)" fill-opacity="1" points="826.875,362.203 815.197,382.43 791.84,382.43 780.162,362.203 791.84,341.976 815.197,341.976"/><polygon fill="rgb(239,244,249)" fill-opacity="1" points="616.665,214.254 604.987,234.481 581.63,234.481 569.952,214.254 581.63,194.026 604.987,194.026"/><polygon fill="rgb(213,227,238)" fill-opacity="1" points="581.63,232.747 569.952,252.975 546.595,252.975 534.917,232.747 546.595,212.52 569.952,212.52"/><polygon fill="rgb(230,238,245)" fill-opacity="1" points="406.455,436.178 394.777,456.405 371.421,456.405 359.742,436.178 371.421,415.95 394.777,415.95"/><polygon fill="rgb(205,221,235)" fill-opacity="1" points="511.56,306.722 499.882,326.95 476.525,326.95 464.847,306.722 476.525,286.495 499.882,286.495"/><polygon fill="rgb(197,216,232)" fill-opacity="1" points="686.735,325.216 675.057,345.443 651.7,345.443 640.022,325.216 651.7,304.988 675.057,304.988"/><polygon fill="rgb(239,244,249)" fill-opacity="1" points="476.525,621.115 464.847,641.342 441.49,641.342 429.812,621.115 441.49,600.887 464.847,600.887"/><polygon fill="rgb(239,244,249)" fill-opacity="1" points="476.525,288.228 464.847,308.456 441.49,308.456 429.812,288.228 441.49,268.001 464.847,268.001"/><polygon fill="rgb(239,244,249)" fill-opacity="1" points="756.805,547.14 745.127,567.367 721.77,567.367 710.092,547.14 721.77,526.913 745.127,526.913"/><polygon fill="rgb(247,250,252)" fill-opacity="1" points="651.7,713.583 640.022,733.811 616.665,733.811 604.987,713.583 616.665,693.356 640.022,693.356"/><polygon fill="rgb(239,244,249)" fill-opacity="1" points="266.316,325.216 254.637,345.443 231.281,345.443 219.602,325.216 231.281,304.988 254.637,304.988"/><polygon fill="rgb(247,250,252)" fill-opacity="1" points="371.421,676.596 359.742,696.823 336.386,696.823 324.707,676.596 336.386,656.369 359.742,656.369"/><polygon fill="rgb(247,250,252)" fill-opacity="1" points="371.421,639.609 359.742,659.836 336.386,659.836 324.707,639.609 336.386,619.381 359.742,619.381"/><polygon fill="rgb(230,238,245)" fill-opacity="1" points="581.63,602.621 569.952,622.849 546.595,622.849 534.917,602.621 546.595,582.394 569.952,582.394"/><polygon fill="rgb(146,182,211)" fill-opacity="1" points="616.665,325.216 604.987,345.443 581.63,345.443 569.952,325.216 581.63,304.988 604.987,304.988"/><polygon fill="rgb(230,238,245)" fill-opacity="1" points="476.525,251.241 464.847,271.468 441.49,271.468 429.812,251.241 441.49,231.013 464.847,231.013"/><polygon fill="rgb(230,238,245)" fill-opacity="1" points="336.386,510.153 324.707,530.38 301.351,530.38 289.672,510.153 301.351,489.925 324.707,489.925"/><polygon fill="rgb(230,238,245)" fill-opacity="1" points="756.805,325.216 745.127,345.443 721.77,345.443 710.092,325.216 721.77,304.988 745.127,304.988"/><polygon fill="rgb(230,238,245)" fill-opacity="1" points="756.805,473.165 745.127,493.393 721.77,493.393 710.092,473.165 721.77,452.938 745.127,452.938"/><polygon fill="rgb(230,238,245)" fill-opacity="1" points="546.595,584.128 534.917,604.355 511.56,604.355 499.882,584.128 511.56,563.9 534.917,563.9"/><polygon fill="rgb(239,244,249)" fill-opacity="1" points="511.56,528.646 499.882,548.874 476.525,548.874 464.847,528.646 476.525,508.419 499.882,508.419"/><polygon fill="rgb(247,250,252)" fill-opacity="1" points="301.351,565.634 289.672,585.861 266.316,585.861 254.637,565.634 266.316,545.406 289.672,545.406"/><polygon fill="rgb(247,250,252)" fill-opacity="1" points="301.351,269.735 289.672,289.962 266.316,289.962 254.637,269.735 266.316,249.507 289.672,249.507"/><polygon fill="rgb(239,244,249)" fill-opacity="1" points="581.63,195.76 569.952,215.987 546.595,215.987 534.917,195.76 546.595,175.532 569.952,175.532"/><polygon fill="rgb(205,221,235)" fill-opacity="1" points="686.735,362.203 675.057,382.43 651.7,382.43 640.022,362.203 651.7,341.976 675.057,341.976"/><polygon fill="rgb(247,250,252)" fill-opacity="1" points="126.176,621.115 114.498,641.342 91.1409,641.342 79.4626,621.115 91.1409,600.887 114.498,600.887"/><polygon fill="rgb(222,233,242)" fill-opacity="1" points="441.49,528.646 429.812,548.874 406.455,548.874 394.777,528.646 406.455,508.419 429.812,508.419"/><polygon fill="rgb(247,250,252)" fill-opacity="1" points="511.56,121.785 499.882,142.012 476.525,142.012 464.847,121.785 476.525,101.558 499.882,101.558"/><polygon fill="rgb(180,204,225)" fill-opacity="1" points="686.735,399.19 675.057,419.418 651.7,419.418 640.022,399.19 651.7,378.963 675.057,378.963"/><polygon fill="rgb(247,250,252)" fill-opacity="1" points="651.7,787.558 640.022,807.786 616.665,807.786 604.987,787.558 616.665,767.331 640.022,767.331"/><polygon fill="rgb(247,250,252)" fill-opacity="1" points="686.735,621.115 675.057,641.342 651.7,641.342 640.022,621.115 651.7,600.887 675.057,600.887"/><polygon fill="rgb(247,250,252)" fill-opacity="1" points="406.455,288.228 394.777,308.456 371.421,308.456 359.742,288.228 371.421,268.001 394.777,268.001"/><polygon fill="rgb(213,227,238)" fill-opacity="1" points="756.805,436.178 745.127,456.405 721.77,456.405 710.092,436.178 721.77,415.95 745.127,415.95"/><polygon fill="rgb(247,250,252)" fill-opacity="1" points="266.316,177.266 254.637,197.494 231.281,197.494 219.602,177.266 231.281,157.039 254.637,157.039"/><polygon fill="rgb(247,250,252)" fill-opacity="1" points="476.525,584.128 464.847,604.355 441.49,604.355 429.812,584.128 441.49,563.9 464.847,563.9"/><polygon fill="rgb(247,250,252)" fill-opacity="1" points="721.77,121.785 710.092,142.012 686.735,142.012 675.057,121.785 686.735,101.558 710.092,101.558"/><polygon fill="rgb(239,244,249)" fill-opacity="1" points="476.525,547.14 464.847,567.367 441.49,567.367 429.812,547.14 441.49,526.913 464.847,526.913"/><polygon fill="rgb(247,250,252)" fill-opacity="1" points="931.98,602.621 920.302,622.849 896.945,622.849 885.267,602.621 896.945,582.394 920.302,582.394"/><polygon fill="rgb(247,250,252)" fill-opacity="1" points="371.421,565.634 359.742,585.861 336.386,585.861 324.707,565.634 336.386,545.406 359.742,545.406"/><polygon fill="rgb(247,250,252)" fill-opacity="1" points="616.665,177.266 604.987,197.494 581.63,197.494 569.952,177.266 581.63,157.039 604.987,157.039"/><polygon fill="rgb(247,250,252)" fill-opacity="1" points="581.63,639.609 569.952,659.836 546.595,659.836 534.917,639.609 546.595,619.381 569.952,619.381"/><polygon fill="rgb(239,244,249)" fill-opacity="1" points="371.421,528.646 359.742,548.874 336.386,548.874 324.707,528.646 336.386,508.419 359.742,508.419"/><polygon fill="rgb(239,244,249)" fill-opacity="1" points="721.77,676.596 710.092,696.823 686.735,696.823 675.057,676.596 686.735,656.369 710.092,656.369"/><polygon fill="rgb(239,244,249)" fill-opacity="1" points="371.421,417.684 359.742,437.912 336.386,437.912 324.707,417.684 336.386,397.457 359.742,397.457"/><polygon fill="rgb(247,250,252)" fill-opacity="1" points="126.176,325.216 114.498,345.443 91.1409,345.443 79.4626,325.216 91.1409,304.988 114.498,304.988"/><polygon fill="rgb(230,238,245)" fill-opacity="1" points="686.735,251.241 675.057,271.468 651.7,271.468 640.022,251.241 651.7,231.013 675.057,231.013"/><polygon fill="rgb(230,238,245)" fill-opacity="1" points="756.805,510.153 745.127,530.38 721.77,530.38 710.092,510.153 721.77,489.925 745.127,489.925"/><polygon fill="rgb(239,244,249)" fill-opacity="1" points="791.84,491.659 780.162,511.886 756.805,511.886 745.127,491.659 756.805,471.432 780.162,471.432"/><polygon fill="rgb(205,221,235)" fill-opacity="1" points="686.735,547.14 675.057,567.367 651.7,567.367 640.022,547.14 651.7,526.913 675.057,526.913"/><polygon fill="rgb(247,250,252)" fill-opacity="1" points="441.49,713.583 429.812,733.811 406.455,733.811 394.777,713.583 406.455,693.356 429.812,693.356"/><polygon fill="rgb(247,250,252)" fill-opacity="1" points="651.7,861.533 640.022,881.76 616.665,881.76 604.987,861.533 616.665,841.306 640.022,841.306"/><polygon fill="rgb(222,233,242)" fill-opacity="1" points="476.525,362.203 464.847,382.43 441.49,382.43 429.812,362.203 441.49,341.976 464.847,341.976"/><polygon fill="rgb(239,244,249)" fill-opacity="1" points="721.77,602.621 710.092,622.849 686.735,622.849 675.057,602.621 686.735,582.394 710.092,582.394"/><polygon fill="rgb(239,244,249)" fill-opacity="1" points="301.351,417.684 289.672,437.912 266.316,437.912 254.637,417.684 266.316,397.457 289.672,397.457"/><polygon fill="rgb(247,250,252)" fill-opacity="1" points="651.7,232.747 640.022,252.975 616.665,252.975 604.987,232.747 616.665,212.52 640.022,212.52"/><polygon fill="rgb(239,244,249)" fill-opacity="1" points="406.455,325.216 394.777,345.443 371.421,345.443 359.742,325.216 371.421,304.988 394.777,304.988"/><polygon fill="rgb(230,238,245)" fill-opacity="1" points="511.56,565.634 499.882,585.861 476.525,585.861 464.847,565.634 476.525,545.406 499.882,545.406"/><polygon fill="rgb(247,250,252)" fill-opacity="1" points="476.525,214.254 464.847,234.481 441.49,234.481 429.812,214.254 441.49,194.026 464.847,194.026"/><polygon fill="rgb(239,244,249)" fill-opacity="1" points="791.84,565.634 780.162,585.861 756.805,585.861 745.127,565.634 756.805,545.406 780.162,545.406"/><polygon fill="rgb(230,238,245)" fill-opacity="1" points="336.386,399.19 324.707,419.418 301.351,419.418 289.672,399.19 301.351,378.963 324.707,378.963"/><polygon fill="rgb(247,250,252)" fill-opacity="1" points="406.455,251.241 394.777,271.468 371.421,271.468 359.742,251.241 371.421,231.013 394.777,231.013"/><polygon fill="rgb(247,250,252)" fill-opacity="1" points="791.84,232.747 780.162,252.975 756.805,252.975 745.127,232.747 756.805,212.52 780.162,212.52"/><polygon fill="rgb(247,250,252)" fill-opacity="1" points="756.805,177.266 745.127,197.494 721.77,197.494 710.092,177.266 721.77,157.039 745.127,157.039"/><polygon fill="rgb(247,250,252)" fill-opacity="1" points="441.49,639.609 429.812,659.836 406.455,659.836 394.777,639.609 406.455,619.381 429.812,619.381"/><polygon fill="rgb(230,238,245)" fill-opacity="1" points="476.525,658.102 464.847,678.33 441.49,678.33 429.812,658.102 441.49,637.875 464.847,637.875"/><polygon fill="rgb(239,244,249)" fill-opacity="1" points="826.875,436.178 815.197,456.405 791.84,456.405 780.162,436.178 791.84,415.95 815.197,415.95"/><polygon fill="rgb(239,244,249)" fill-opacity="1" points="406.455,510.153 394.777,530.38 371.421,530.38 359.742,510.153 371.421,489.925 394.777,489.925"/><polygon fill="rgb(247,250,252)" fill-opacity="1" points="931.98,491.659 920.302,511.886 896.945,511.886 885.267,491.659 896.945,471.432 920.302,471.432"/><polygon fill="rgb(247,250,252)" fill-opacity="1" points="301.351,454.672 289.672,474.899 266.316,474.899 254.637,454.672 266.316,434.444 289.672,434.444"/><polygon fill="rgb(239,244,249)" fill-opacity="1" points="301.351,343.709 289.672,363.937 266.316,363.937 254.637,343.709 266.316,323.482 289.672,323.482"/><polygon fill="rgb(247,250,252)" fill-opacity="1" points="511.56,898.52 499.882,918.748 476.525,918.748 464.847,898.52 476.525,878.293 499.882,878.293"/><polygon fill="rgb(247,250,252)" fill-opacity="1" points="266.316,547.14 254.637,567.367 231.281,567.367 219.602,547.14 231.281,526.913 254.637,526.913"/><polygon fill="rgb(247,250,252)" fill-opacity="1" points="266.316,399.19 254.637,419.418 231.281,419.418 219.602,399.19 231.281,378.963 254.637,378.963"/><polygon fill="rgb(247,250,252)" fill-opacity="1" points="616.665,140.279 604.987,160.506 581.63,160.506 569.952,140.279 581.63,120.051 604.987,120.051"/><polygon fill="rgb(239,244,249)" fill-opacity="1" points="371.421,232.747 359.742,252.975 336.386,252.975 324.707,232.747 336.386,212.52 359.742,212.52"/><polygon fill="rgb(247,250,252)" fill-opacity="1" points="546.595,695.09 534.917,715.317 511.56,715.317 499.882,695.09 511.56,674.862 534.917,674.862"/><polygon fill="rgb(239,244,249)" fill-opacity="1" points="336.386,251.241 324.707,271.468 301.351,271.468 289.672,251.241 301.351,231.013 324.707,231.013"/><polygon fill="rgb(247,250,252)" fill-opacity="1" points="546.595,621.115 534.917,641.342 511.56,641.342 499.882,621.115 511.56,600.887 534.917,600.887"/><polygon fill="rgb(247,250,252)" fill-opacity="1" points="336.386,177.266 324.707,197.494 301.351,197.494 289.672,177.266 301.351,157.039 324.707,157.039"/><polygon fill="rgb(247,250,252)" fill-opacity="1" points="721.77,639.609 710.092,659.836 686.735,659.836 675.057,639.609 686.735,619.381 710.092,619.381"/><polygon fill="rgb(247,250,252)" fill-opacity="1" points="791.84,417.684 780.162,437.912 756.805,437.912 745.127,417.684 756.805,397.457 780.162,397.457"/><polygon fill="rgb(247,250,252)" fill-opacity="1" points="371.421,195.76 359.742,215.987 336.386,215.987 324.707,195.76 336.386,175.532 359.742,175.532"/><polygon fill="rgb(247,250,252)" fill-opacity="1" points="371.421,602.621 359.742,622.849 336.386,622.849 324.707,602.621 336.386,582.394 359.742,582.394"/><polygon fill="rgb(247,250,252)" fill-opacity="1" points="791.84,454.672 780.162,474.899 756.805,474.899 745.127,454.672 756.805,434.444 780.162,434.444"/><polygon fill="rgb(247,250,252)" fill-opacity="1" points="651.7,676.596 640.022,696.823 616.665,696.823 604.987,676.596 616.665,656.369 640.022,656.369"/><polygon fill="rgb(247,250,252)" fill-opacity="1" points="406.455,177.266 394.777,197.494 371.421,197.494 359.742,177.266 371.421,157.039 394.777,157.039"/><polygon fill="rgb(247,250,252)" fill-opacity="1" points="721.77,713.583 710.092,733.811 686.735,733.811 675.057,713.583 686.735,693.356 710.092,693.356"/><polygon fill="rgb(247,250,252)" fill-opacity="1" points="651.7,602.621 640.022,622.849 616.665,622.849 604.987,602.621 616.665,582.394 640.022,582.394"/><polygon fill="rgb(247,250,252)" fill-opacity="1" points="721.77,195.76 710.092,215.987 686.735,215.987 675.057,195.76 686.735,175.532 710.092,175.532"/><polygon fill="rgb(247,250,252)" fill-opacity="1" points="616.665,695.09 604.987,715.317 581.63,715.317 569.952,695.09 581.63,674.862 604.987,674.862"/><polygon fill="rgb(247,250,252)" fill-opacity="1" points="686.735,214.254 675.057,234.481 651.7,234.481 640.022,214.254 651.7,194.026 675.057,194.026"/><polygon fill="rgb(247,250,252)" fill-opacity="1" points="301.351,306.722 289.672,326.95 266.316,326.95 254.637,306.722 266.316,286.495 289.672,286.495"/><polygon fill="rgb(247,250,252)" fill-opacity="1" points="266.316,473.165 254.637,493.393 231.281,493.393 219.602,473.165 231.281,452.938 254.637,452.938"/><polygon fill="rgb(247,250,252)" fill-opacity="1" points="686.735,140.279 675.057,160.506 651.7,160.506 640.022,140.279 651.7,120.051 675.057,120.051"/><polygon fill="rgb(247,250,252)" fill-opacity="1" points="336.386,547.14 324.707,567.367 301.351,567.367 289.672,547.14 301.351,526.913 324.707,526.913"/><polygon fill="rgb(239,244,249)" fill-opacity="1" points="336.386,473.165 324.707,493.393 301.351,493.393 289.672,473.165 301.351,452.938 324.707,452.938"/><polygon fill="rgb(247,250,252)" fill-opacity="1" points="616.665,658.102 604.987,678.33 581.63,678.33 569.952,658.102 581.63,637.875 604.987,637.875"/><polygon fill="rgb(247,250,252)" fill-opacity="1" points="861.91,491.659 850.232,511.886 826.875,511.886 815.197,491.659 826.875,471.432 850.232,471.432"/><polygon fill="rgb(247,250,252)" fill-opacity="1" points="931.98,565.634 920.302,585.861 896.945,585.861 885.267,565.634 896.945,545.406 920.302,545.406"/><rect fill="rgb(70,130,180)" x="1016" y="0" width="16" height="51"/><rect fill="rgb(80,137,184)" x="1016" y="50" width="16" height="51"/><rect fill="rgb(90,144,188)" x="1016" y="100" width="16" height="51"/><rect fill="rgb(100,150,192)" x="1016" y="150" width="16" height="51"/><rect fill="rgb(109,157,196)" x="1016" y="200" width="16" height="51"/><rect fill="rgb(119,163,200)" x="1016" y="250" width="16" height="51"/><rect fill="rgb(129,170,204)" x="1016" y="300" width="16" height="51"/><rect fill="rgb(139,177,208)" x="1016" y="350" width="16" height="51"/><rect fill="rgb(148,183,212)" x="1016" y="400" width="16" height="51"/><rect fill="rgb(158,190,216)" x="1016" y="450" width="16" height="51"/><rect fill="rgb(168,196,220)" x="1016" y="500" width="16" height="51"/><rect fill="rgb(178,203,224)" x="1016" y="550" width="16" height="51"/><rect fill="rgb(187,209,228)" x="1016" y="600" width="16" height="51"/><rect fill="rgb(197,216,232)" x="1016" y="650" width="16" height="51"/><rect fill="rgb(207,223,236)" x="1016" y="700" width="16" height="51"/><rect fill="rgb(217,229,240)" x="1016" y="750" width="16" height="51"/><rect fill="rgb(226,236,244)" x="1016" y="800" width="16" height="51"/><rect fill="rgb(236,242,248)" x="1016" y="850" width="16" height="51"/><rect fill="rgb(246,249,252)" x="1016" y="900" width="16" height="51"/><rect fill="rgb(255,255,255)" x="1016" y="950" width="16" height="51"/><text fill="lightgray" fill-opacity="1" x="1038" y="25" font-size="11" dominant-baseline="central">22</text><text fill="lightgray" fill-opacity="1" x="1038" y="975" font-size="11" dominant-baseline="central">0</text><line stroke="lightgray" stroke-width="1" opacity="1" x1="0" y1="436.178" x2="1000" y2="436.178"/><line stroke="lightgray" stroke-width="1" opacity="1" x1="0" y1="436.178" x2="0" y2="442.178"/><text fill="lightgray" fill-opacity="1" x="0" y="444.178" font-size="12" text-anchor="middle" dominant-baseline="hanging">-5.601</text><line stroke="lightgray" stroke-width="1" opacity="1" x1="250" y1="436.178" x2="250" y2="442.178"/><text fill="lightgray" fill-opacity="1" x="250" y="444.178" font-size="12" text-anchor="middle" dominant-baseline="hanging">-2.925</text><line stroke="lightgray" stroke-width="1" opacity="1" x1="500" y1="436.178" x2="500" y2="442.178"/><text fill="lightgray" fill-opacity="1" x="500" y="444.178" font-size="12" text-anchor="middle" dominant-baseline="hanging">-0.2487</text><line stroke="lightgray" stroke-width="1" opacity="1" x1="750" y1="436.178" x2="750" y2="442.178"/><text fill="lightgray" fill-opacity="1" x="750" y="444.178" font-size="12" text-anchor="middle" dominant-baseline="hanging">2.427</text><line stroke="lightgray" stroke-width="1" opacity="1" x1="1000" y1="436.178" x2="1000" y2="442.178"/><text fill="lightgray" fill-opacity="1" x="1000" y="444.178" font-size="12" text-anchor="middle" dominant-baseline="hanging">5.103</text><line stroke="lightgray" stroke-width="1" opacity="1" x1="523.239" y1="1000" x2="523.239" y2="0"/><line stroke="lightgray" stroke-width="1" opacity="1" x1="523.239" y1="1000" x2="517.239" y2="1000"/><text fill="lightgray" fill-opacity="1" x="513.239" y="1000" font-size="12" text-anchor="end" dominant-baseline="central">-6.601</text><line stroke="lightgray" stroke-width="1" opacity="1" x1="523.239" y1="750" x2="517.239" y2="750"/><text fill="lightgray" fill-opacity="1" x="513.239" y="750" font-size="12" text-anchor="end" dominant-baseline="central">-3.674</text><line stroke="lightgray" stroke-width="1" opacity="1" x1="523.239" y1="500" x2="517.239" y2="500"/><text fill="lightgray" fill-opacity="1" x="513.239" y="500" font-size="12" text-anchor="end" dominant-baseline="central">-0.7472</text><line stroke="lightgray" stroke-width="1" opacity="1" x1="523.239" y1="250" x2="517.239" y2="250"/><text fill="lightgray" fill-opacity="1" x="513.239" y="250" font-size="12" text-anchor="end" dominant-baseline="central">2.18</text><line stroke="lightgray" stroke-width="1" opacity="1" x1="523.239" y1="0" x2="517.239" y2="0"/><text fill="lightgray" fill-opacity="1" x="513.239" y="0" font-size="12" text-anchor="end" dominant-baseline="central">5.106</text><text fill="black" fill-opacity="1" x="500" y="-26" font-size="16" text-anchor="middle" dominant-baseline="hanging">Fictional Particle Collision Density</text></svg>