<svg xmlns="http://www.w3.org/2000/svg" viewBox="-20,-38 1040,1058"><rect fill="white" x="-20" y="-38" width="1040" height="1058"/><rect fill="aliceblue" x="0" y="0" width="1000" height="1000"/><line stroke="lightgray" stroke-width="1" opacity="1" x1="0" y1="0" x2="0" y2="1000"/><line stroke="lightgray" stroke-width="1" opacity="1" x1="250" y1="0" x2="250" y2="1000"/><line stroke="lightgray" stroke-width="1" opacity="1" x1="500" y1="0" x2="500" y2="1000"/><line stroke="lightgray" stroke-width="1" opacity="1" x1="750" y1="0" x2="750" y2="1000"/><line stroke="lightgray" stroke-width="1" opacity="1" x1="1000" y1="0" x2="1000" y2="1000"/><line stroke="lightgray" stroke-width="1" opacity="1" x1="0" y1="750" x2="1000" y2="750"/><line stroke="lightgray" stroke-width="1" opacity="1" x1="0" y1="500" x2="1000" y2="500"/><line stroke="lightgray" stroke-width="1" opacity="1" x1="0" y1="250" x2="1000" y2="250"/><line stroke="lightgray" stroke-width="1" opacity="1" x1="0" y1="0" x2="1000" y2="0"/><rect stroke="steelblue" stroke-width="1" fill="steelblue" opacity="1" fill-opacity="1" x="83.3333" y="988.345" width="83.3333" height="11.655"/><rect stroke="steelblue" stroke-width="1" fill="steelblue" opacity="1" fill-opacity="1" x="166.667" y="941.725" width="83.3333" height="58.2751"/><rect stroke="steelblue" stroke-width="1" fill="steelblue" opacity="1" fill-opacity="1" x="250" y="708.625" width="83.3333" height="291.375"/><rect stroke="steelblue" stroke-width="1" fill="steelblue" opacity="1" fill-opacity="1" x="333.333" y="557.11" width="83.3333" height="442.89"/><rect stroke="steelblue" stroke-width="1" fill="steelblue" opacity="1" fill-opacity="1" x="416.667" y="90.9091" width="83.3333" height="909.091"/><rect stroke="steelblue" stroke-width="1" fill="steelblue" opacity="1" fill-opacity="1" x="500" y="242.424" width="83.3333" height="757.576"/><rect stroke="steelblue" stroke-width="1" fill="steelblue" opacity="1" fill-opacity="1" x="583.333" y="335.664" width="83.3333" height="664.336"/><rect stroke="steelblue" stroke-width="1" fill="steelblue" opacity="1" fill-opacity="1" x="666.667" y="778.555" width="83.3333" height="221.445"/><rect stroke="steelblue" stroke-width="1" fill="steelblue" opacity="1" fill-opacity="1" x="750" y="883.45" width="83.3333" height="116.55"/><rect stroke="steelblue" stroke-width="1" fill="steelblue" opacity="1" fill-opacity="1" x="833.333" y="976.69" width="83.3333" height="23.31"/><line stroke="dimgray" stroke-width="1" opacity="1" x1="0" y1="1000" x2="1000" y2="1000"/><line stroke="dimgray" stroke-width="1" opacity="1" x1="0" y1="1000" x2="0" y2="1006"/><text fill="dimgray" fill-opacity="1" x="0" y="1008" font-size="12" text-anchor="middle" dominant-baseline="hanging">-1.3</text><line stroke="dimgray" stroke-width="1" opacity="1" x1="250" y1="1000" x2="250" y2="1006"/><text fill="dimgray" fill-opacity="1" x="250" y="1008" font-size="12" text-anchor="middle" dominant-baseline="hanging">1.782</text><line stroke="dimgray" stroke-width="1" opacity="1" x1="500" y1="1000" x2="500" y2="1006"/><text fill="dimgray" fill-opacity="1" x="500" y="1008" font-size="12" text-anchor="middle" dominant-baseline="hanging">4.864</text><line stroke="dimgray" stroke-width="1" opacity="1" x1="750" y1="1000" x2="750" y2="1006"/><text fill="dimgray" fill-opacity="1" x="750" y="1008" font-size="12" text-anchor="middle" dominant-baseline="hanging">7.945</text><line stroke="dimgray" stroke-width="1" opacity="1" x1="1000" y1="1000" x2="1000" y2="1006"/><text fill="dimgray" fill-opacity="1" x="1000" y="1008" font-size="12" text-anchor="middle" dominant-baseline="hanging">11.03</text><line stroke="dimgray" stroke-width="1" opacity="1" x1="105.477" y1="1000" x2="105.477" y2="0"/><line stroke="dimgray" stroke-width="1" opacity="1" x1="105.477" y1="750" x2="111.477" y2="750"/><text fill="dimgray" fill-opacity="1" x="115.477" y="750" font-size="12" text-anchor="start" dominant-baseline="central">21.45</text><line stroke="dimgray" stroke-width="1" opacity="1" x1="105.477" y1="500" x2="111.477" y2="500"/><text fill="dimgray" fill-opacity="1" x="115.477" y="500" font-size="12" text-anchor="start" dominant-baseline="central">42.9</text><line stroke="dimgray" stroke-width="1" opacity="1" x1="105.477" y1="250" x2="111.477" y2="250"/><text fill="dimgray" fill-opacity="1" x="115.477" y="250" font-size="12" text-anchor="start" dominant-baseline="central">64.35</text><line stroke="dimgray" stroke-width="1" opacity="1" x1="105.477" y1="0" x2="111.477" y2="0"/><text fill="dimgray" fill-opacity="1" x="115.477" y="0" font-size="12" text-anchor="start" dominant-baseline="central">85.8</text><text fill="black" fill-opacity="1" x="500" y="-32" font-size="22" text-anchor="middle" dominant-baseline="hanging">Histogram</text></svg>