<svg xmlns="http://www.w3.org/2000/svg" viewBox="-67.6,-38 1087.6,1074"><rect fill="white" x="-67.6" y="-38" width="1087.6" height="1074"/><line stroke="lightgray" stroke-width="1" opacity="1" x1="0" y1="0" x2="0" y2="1000"/><line stroke="lightgray" stroke-width="1" opacity="1" x1="250" y1="0" x2="250" y2="1000"/><line stroke="lightgray" stroke-width="1" opacity="1" x1="500" y1="0" x2="500" y2="1000"/><line stroke="lightgray" stroke-width="1" opacity="1" x1="750" y1="0" x2="750" y2="1000"/><line stroke="lightgray" stroke-width="1" opacity="1" x1="1000" y1="0" x2="1000" y2="1000"/><line stroke="lightgray" stroke-width="1" opacity="1" x1="0" y1="833.333" x2="1000" y2="833.333"/><line stroke="lightgray" stroke-width="1" opacity="1" x1="0" y1="666.667" x2="1000" y2="666.667"/><line stroke="lightgray" stroke-width="1" opacity="1" x1="0" y1="500" x2="1000" y2="500"/><line stroke="lightgray" stroke-width="1" opacity="1" x1="0" y1="333.333" x2="1000" y2="333.333"/><line stroke="lightgray" stroke-width="1" opacity="1" x1="0" y1="166.667" x2="1000" y2="166.667"/><rect stroke="cornflowerblue" stroke-width="1" fill="cornflowerblue" opacity="1" fill-opacity="1" x="0" y="14.2857" width="818.182" height="114.286"/><rect stroke="cornflowerblue" stroke-width="1" fill="cornflowerblue" opacity="1" fill-opacity="1" x="0" y="157.143" width="681.818" height="114.286"/><rect stroke="cornflowerblue" stroke-width="1" fill="cornflowerblue" opacity="1" fill-opacity="1" x="0" y="300" width="409.091" height="114.286"/><rect stroke="cornflowerblue" stroke-width="1" fill="cornflowerblue" opacity="1" fill-opacity="1" x="0" y="442.857" width="318.182" height="114.286"/><rect stroke="cornflowerblue" stroke-width="1" fill="cornflowerblue" opacity="1" fill-opacity="1" x="0" y="585.714" width="227.273" height="114.286"/><rect stroke="cornflowerblue" stroke-width="1" fill="cornflowerblue" opacity="1" fill-opacity="1" x="0" y="728.571" width="181.818" height="114.286"/><rect stroke="cornflowerblue" stroke-width="1" fill="cornflowerblue" opacity="1" fill-opacity="1" x="0" y="871.429" width="136.364" height="114.286"/><line stroke="dimgray" stroke-width="1" opacity="1" x1="0" y1="1000" x2="1000" y2="1000"/><line stroke="dimgray" stroke-width="1" opacity="1" x1="0" y1="1000" x2="0" y2="1006"/><text fill="dimgray" fill-opacity="1" x="0" y="1008" font-size="12" text-anchor="middle" dominant-baseline="hanging">0.0h</text><line stroke="dimgray" stroke-width="1" opacity="1" x1="250" y1="1000" x2="250" y2="1006"/><text fill="dimgray" fill-opacity="1" x="250" y="1008" font-size="12" text-anchor="middle" dominant-baseline="hanging">0.6h</text><line stroke="dimgray" stroke-width="1" opacity="1" x1="500" y1="1000" x2="500" y2="1006"/><text fill="dimgray" fill-opacity="1" x="500" y="1008" font-size="12" text-anchor="middle" dominant-baseline="hanging">1.1h</text><line stroke="dimgray" stroke-width="1" opacity="1" x1="750" y1="1000" x2="750" y2="1006"/><text fill="dimgray" fill-opacity="1" x="750" y="1008" font-size="12" text-anchor="middle" dominant-baseline="hanging">1.7h</text><line stroke="dimgray" stroke-width="1" opacity="1" x1="1000" y1="1000" x2="1000" y2="1006"/><text fill="dimgray" fill-opacity="1" x="1000" y="1008" font-size="12" text-anchor="middle" dominant-baseline="hanging">2.2h</text><text fill="dimgray" fill-opacity="1" x="500" y="1024" font-size="12" text-anchor="middle" dominant-baseline="hanging">Hours per day</text><line stroke="dimgray" stroke-width="1" opacity="1" x1="0" y1="1000" x2="0" y2="0"/><line stroke="dimgray" stroke-width="1" opacity="1" x1="0" y1="833.333" x2="-6" y2="833.333"/><text fill="dimgray" fill-opacity="1" x="-10" y="833.333" font-size="12" text-anchor="end" dominant-baseline="central">News</text><line stroke="dimgray" stroke-width="1" opacity="1" x1="0" y1="666.667" x2="-6" y2="666.667"/><text fill="dimgray" fill-opacity="1" x="-10" y="666.667" font-size="12" text-anchor="end" dominant-baseline="central">Shopping</text><line stroke="dimgray" stroke-width="1" opacity="1" x1="0" y1="500" x2="-6" y2="500"/><text fill="dimgray" fill-opacity="1" x="-10" y="500" font-size="12" text-anchor="end" dominant-baseline="central">Browser</text><line stroke="dimgray" stroke-width="1" opacity="1" x1="0" y1="333.333" x2="-6" y2="333.333"/><text fill="dimgray" fill-opacity="1" x="-10" y="333.333" font-size="12" text-anchor="end" dominant-baseline="central">Games</text><line stroke="dimgray" stroke-width="1" opacity="1" x1="0" y1="166.667" x2="-6" y2="166.667"/><text fill="dimgray" fill-opacity="1" x="-10" y="166.667" font-size="12" text-anchor="end" dominant-baseline="central">Video</text><text fill="black" fill-opacity="1" x="500" y="-32" font-size="22" text-anchor="middle" dominant-baseline="hanging">Daily Screen Time by Category</text></svg>