<svg xmlns="http://www.w3.org/2000/svg" viewBox="-54.8,-38 1154.4,1074"><rect fill="white" x="-54.8" y="-38" width="1154.4" height="1074"/><polyline stroke="steelblue" stroke-width="3.5" opacity="1" fill-opacity="0" points="0,857.143 100.343,800 232.99,714.286 333.333,628.571 433.677,542.857 566.323,428.571 666.667,328.571 767.01,257.143 899.657,142.857 1000,57.1429"/><circle fill="orange" fill-opacity="1" r="6" cx="0" cy="857.143"/><circle fill="orange" fill-opacity="1" r="6" cx="100.343" cy="800"/><circle fill="orange" fill-opacity="1" r="6" cx="232.99" cy="714.286"/><circle fill="orange" fill-opacity="1" r="6" cx="333.333" cy="628.571"/><circle fill="orange" fill-opacity="1" r="6" cx="433.677" cy="542.857"/><circle fill="orange" fill-opacity="1" r="6" cx="566.323" cy="428.571"/><circle fill="orange" fill-opacity="1" r="6" cx="666.667" cy="328.571"/><circle fill="orange" fill-opacity="1" r="6" cx="767.01" cy="257.143"/><circle fill="orange" fill-opacity="1" r="6" cx="899.657" cy="142.857"/><circle fill="orange" fill-opacity="1" r="6" cx="1000" cy="57.1429"/><rect fill="steelblue" fill-opacity="1" x="1008" y="486" width="20" height="8"/><text fill="gray" fill-opacity="1" x="1034" y="490" font-size="12" dominant-baseline="central">Response</text><rect fill="orange" fill-opacity="1" x="1008" y="506" width="20" height="8"/><text fill="gray" fill-opacity="1" x="1034" y="510" font-size="12" dominant-baseline="central">Samples</text><line stroke="gray" stroke-width="1" opacity="1" x1="0" y1="1000" x2="1000" y2="1000"/><line stroke="gray" stroke-width="1" opacity="1" x1="0" y1="1000" x2="0" y2="1006"/><text fill="gray" fill-opacity="1" x="0" y="1008" font-size="12" text-anchor="middle" dominant-baseline="hanging">10^0</text><line stroke="gray" stroke-width="1" opacity="1" x1="333.333" y1="1000" x2="333.333" y2="1006"/><text fill="gray" fill-opacity="1" x="333.333" y="1008" font-size="12" text-anchor="middle" dominant-baseline="hanging">10^1</text><line stroke="gray" stroke-width="1" opacity="1" x1="666.667" y1="1000" x2="666.667" y2="1006"/><text fill="gray" fill-opacity="1" x="666.667" y="1008" font-size="12" text-anchor="middle" dominant-baseline="hanging">10^2</text><line stroke="gray" stroke-width="1" opacity="1" x1="1000" y1="1000" x2="1000" y2="1006"/><text fill="gray" fill-opacity="1" x="1000" y="1008" font-size="12" text-anchor="middle" dominant-baseline="hanging">10^3</text><text fill="gray" fill-opacity="1" x="500" y="1024" font-size="12" text-anchor="middle" dominant-baseline="hanging">Input Scale</text><line stroke="gray" stroke-width="1" opacity="1" x1="0" y1="1000" x2="0" y2="0"/><line stroke="gray" stroke-width="1" opacity="1" x1="0" y1="1000" x2="-6" y2="1000"/><text fill="gray" fill-opacity="1" x="-10" y="1000" font-size="12" text-anchor="end" dominant-baseline="central">0</text><line stroke="gray" stroke-width="1" opacity="1" x1="0" y1="750" x2="-6" y2="750"/><text fill="gray" fill-opacity="1" x="-10" y="750" font-size="12" text-anchor="end" dominant-baseline="central">1.75</text><line stroke="gray" stroke-width="1" opacity="1" x1="0" y1="500" x2="-6" y2="500"/><text fill="gray" fill-opacity="1" x="-10" y="500" font-size="12" text-anchor="end" dominant-baseline="central">3.5</text><line stroke="gray" stroke-width="1" opacity="1" x1="0" y1="250" x2="-6" y2="250"/><text fill="gray" fill-opacity="1" x="-10" y="250" font-size="12" text-anchor="end" dominant-baseline="central">5.25</text><line stroke="gray" stroke-width="1" opacity="1" x1="0" y1="0" x2="-6" y2="0"/><text fill="gray" fill-opacity="1" x="-10" y="0" font-size="12" text-anchor="end" dominant-baseline="central">7</text><text fill="gray" fill-opacity="1" transform="rotate(-90,-48.8,500)" x="-48.8" y="500" font-size="12" text-anchor="middle" dominant-baseline="central">Response</text><text fill="black" fill-opacity="1" x="500" y="-32" font-size="22" text-anchor="middle" dominant-baseline="hanging">Log Scale</text></svg>