<svg xmlns="http://www.w3.org/2000/svg" viewBox="-20,-32 1040,1052"><rect fill="white" x="-20" y="-32" width="1040" height="1052"/><line stroke="lightgray" stroke-width="1" opacity="1" x1="250" y1="0" x2="250" y2="1000"/><line stroke="lightgray" stroke-width="1" opacity="1" x1="500" y1="0" x2="500" y2="1000"/><line stroke="lightgray" stroke-width="1" opacity="1" x1="750" y1="0" x2="750" y2="1000"/><line stroke="lightgray" stroke-width="1" opacity="1" x1="1000" y1="0" x2="1000" y2="1000"/><line stroke="lightgray" stroke-width="1" opacity="1" x1="0" y1="750" x2="1000" y2="750"/><line stroke="lightgray" stroke-width="1" opacity="1" x1="0" y1="500" x2="1000" y2="500"/><line stroke="lightgray" stroke-width="1" opacity="1" x1="0" y1="250" x2="1000" y2="250"/><line stroke="lightgray" stroke-width="1" opacity="1" x1="0" y1="0" x2="1000" y2="0"/><line stroke="steelblue" stroke-width="1.5" opacity="1" fill-opacity="0" x1="0" y1="927.273" x2="498.793" y2="927.273"/><circle fill="steelblue" fill-opacity="1" r="6" cx="498.793" cy="927.273"/><line stroke="steelblue" stroke-width="1.5" opacity="1" fill-opacity="0" x1="0" y1="854.545" x2="434.433" y2="854.545"/><circle fill="steelblue" fill-opacity="1" r="6" cx="434.433" cy="854.545"/><line stroke="steelblue" stroke-width="1.5" opacity="1" fill-opacity="0" x1="0" y1="781.818" x2="571.199" y2="781.818"/><circle fill="steelblue" fill-opacity="1" r="6" cx="571.199" cy="781.818"/><line stroke="steelblue" stroke-width="1.5" opacity="1" fill-opacity="0" x1="0" y1="709.091" x2="707.965" y2="709.091"/><circle fill="steelblue" fill-opacity="1" r="6" cx="707.965" cy="709.091"/><line stroke="steelblue" stroke-width="1.5" opacity="1" fill-opacity="0" x1="0" y1="636.364" x2="909.091" y2="636.364"/><circle fill="steelblue" fill-opacity="1" r="6" cx="909.091" cy="636.364"/><line stroke="steelblue" stroke-width="1.5" opacity="1" fill-opacity="0" x1="0" y1="563.636" x2="780.37" y2="563.636"/><circle fill="steelblue" fill-opacity="1" r="6" cx="780.37" cy="563.636"/><line stroke="steelblue" stroke-width="1.5" opacity="1" fill-opacity="0" x1="0" y1="490.909" x2="362.027" y2="490.909"/><circle fill="steelblue" fill-opacity="1" r="6" cx="362.027" cy="490.909"/><line stroke="steelblue" stroke-width="1.5" opacity="1" fill-opacity="0" x1="0" y1="418.182" x2="305.712" y2="418.182"/><circle fill="steelblue" fill-opacity="1" r="6" cx="305.712" cy="418.182"/><line stroke="steelblue" stroke-width="1.5" opacity="1" fill-opacity="0" x1="0" y1="345.454" x2="410.298" y2="345.454"/><circle fill="steelblue" fill-opacity="1" r="6" cx="410.298" cy="345.454"/><line stroke="steelblue" stroke-width="1.5" opacity="1" fill-opacity="0" x1="0" y1="272.727" x2="587.289" y2="272.727"/><circle fill="steelblue" fill-opacity="1" r="6" cx="587.289" cy="272.727"/><line stroke="steelblue" stroke-width="1.5" opacity="1" fill-opacity="0" x1="0" y1="200" x2="724.055" y2="200"/><circle fill="steelblue" fill-opacity="1" r="6" cx="724.055" cy="200"/><line stroke="steelblue" stroke-width="1.5" opacity="1" fill-opacity="0" x1="0" y1="127.273" x2="547.064" y2="127.273"/><circle fill="steelblue" fill-opacity="1" r="6" cx="547.064" cy="127.273"/><line stroke="dimgray" stroke-width="1" opacity="1" x1="0" y1="1000" x2="1000" y2="1000"/><line stroke="dimgray" stroke-width="1" opacity="1" x1="250" y1="1000" x2="250" y2="1006"/><text fill="dimgray" fill-opacity="1" x="250" y="1008" font-size="12" text-anchor="middle" dominant-baseline="hanging">31.07</text><line stroke="dimgray" stroke-width="1" opacity="1" x1="500" y1="1000" x2="500" y2="1006"/><text fill="dimgray" fill-opacity="1" x="500" y="1008" font-size="12" text-anchor="middle" dominant-baseline="hanging">62.15</text><line stroke="dimgray" stroke-width="1" opacity="1" x1="750" y1="1000" x2="750" y2="1006"/><text fill="dimgray" fill-opacity="1" x="750" y="1008" font-size="12" text-anchor="middle" dominant-baseline="hanging">93.22</text><line stroke="dimgray" stroke-width="1" opacity="1" x1="1000" y1="1000" x2="1000" y2="1006"/><text fill="dimgray" fill-opacity="1" x="1000" y="1008" font-size="12" text-anchor="middle" dominant-baseline="hanging">124.3</text><line stroke="dimgray" stroke-width="1" opacity="1" x1="0" y1="1000" x2="0" y2="0"/><line stroke="dimgray" stroke-width="1" opacity="1" x1="0" y1="750" x2="6" y2="750"/><text fill="dimgray" fill-opacity="1" x="10" y="750" font-size="12" text-anchor="start" dominant-baseline="central">3.438</text><line stroke="dimgray" stroke-width="1" opacity="1" x1="0" y1="500" x2="6" y2="500"/><text fill="dimgray" fill-opacity="1" x="10" y="500" font-size="12" text-anchor="start" dominant-baseline="central">6.875</text><line stroke="dimgray" stroke-width="1" opacity="1" x1="0" y1="250" x2="6" y2="250"/><text fill="dimgray" fill-opacity="1" x="10" y="250" font-size="12" text-anchor="start" dominant-baseline="central">10.31</text><line stroke="dimgray" stroke-width="1" opacity="1" x1="0" y1="0" x2="6" y2="0"/><text fill="dimgray" fill-opacity="1" x="10" y="0" font-size="12" text-anchor="start" dominant-baseline="central">13.75</text><text fill="black" fill-opacity="1" x="500" y="-26" font-size="16" text-anchor="middle" dominant-baseline="hanging">Average Monthly Rainfall</text></svg>