<svg xmlns="http://www.w3.org/2000/svg" viewBox="-20,-32 1040,1052"><rect fill="white" x="-20" y="-32" width="1040" height="1052"/><line stroke="lightgray" stroke-width="1" opacity="1" x1="250" y1="0" x2="250" y2="1000"/><line stroke="lightgray" stroke-width="1" opacity="1" x1="500" y1="0" x2="500" y2="1000"/><line stroke="lightgray" stroke-width="1" opacity="1" x1="750" y1="0" x2="750" y2="1000"/><line stroke="lightgray" stroke-width="1" opacity="1" x1="1000" y1="0" x2="1000" y2="1000"/><line stroke="lightgray" stroke-width="1" opacity="1" x1="0" y1="750" x2="1000" y2="750"/><line stroke="lightgray" stroke-width="1" opacity="1" x1="0" y1="500" x2="1000" y2="500"/><line stroke="lightgray" stroke-width="1" opacity="1" x1="0" y1="250" x2="1000" y2="250"/><line stroke="lightgray" stroke-width="1" opacity="1" x1="0" y1="0" x2="1000" y2="0"/><line stroke="steelblue" stroke-width="1.5" opacity="1" fill-opacity="0" x1="139.86" y1="1000" x2="139.86" y2="167.464"/><circle fill="steelblue" fill-opacity="1" r="6" cx="139.86" cy="167.464"/><line stroke="steelblue" stroke-width="1.5" opacity="1" fill-opacity="0" x1="279.72" y1="1000" x2="279.72" y2="291.866"/><circle fill="steelblue" fill-opacity="1" r="6" cx="279.72" cy="291.866"/><line stroke="steelblue" stroke-width="1.5" opacity="1" fill-opacity="0" x1="419.58" y1="1000" x2="419.58" y2="129.187"/><circle fill="steelblue" fill-opacity="1" r="6" cx="419.58" cy="129.187"/><line stroke="steelblue" stroke-width="1.5" opacity="1" fill-opacity="0" x1="559.441" y1="1000" x2="559.441" y2="349.282"/><circle fill="steelblue" fill-opacity="1" r="6" cx="559.441" cy="349.282"/><line stroke="steelblue" stroke-width="1.5" opacity="1" fill-opacity="0" x1="699.301" y1="1000" x2="699.301" y2="205.742"/><circle fill="steelblue" fill-opacity="1" r="6" cx="699.301" cy="205.742"/><line stroke="steelblue" stroke-width="1.5" opacity="1" fill-opacity="0" x1="839.161" y1="1000" x2="839.161" y2="90.9091"/><circle fill="steelblue" fill-opacity="1" r="6" cx="839.161" cy="90.9091"/><line stroke="dimgray" stroke-width="1" opacity="1" x1="0" y1="1000" x2="1000" y2="1000"/><line stroke="dimgray" stroke-width="1" opacity="1" x1="250" y1="1000" x2="250" y2="1006"/><text fill="dimgray" fill-opacity="1" x="250" y="1008" font-size="12" text-anchor="middle" dominant-baseline="hanging">1.788</text><line stroke="dimgray" stroke-width="1" opacity="1" x1="500" y1="1000" x2="500" y2="1006"/><text fill="dimgray" fill-opacity="1" x="500" y="1008" font-size="12" text-anchor="middle" dominant-baseline="hanging">3.575</text><line stroke="dimgray" stroke-width="1" opacity="1" x1="750" y1="1000" x2="750" y2="1006"/><text fill="dimgray" fill-opacity="1" x="750" y="1008" font-size="12" text-anchor="middle" dominant-baseline="hanging">5.363</text><line stroke="dimgray" stroke-width="1" opacity="1" x1="1000" y1="1000" x2="1000" y2="1006"/><text fill="dimgray" fill-opacity="1" x="1000" y="1008" font-size="12" text-anchor="middle" dominant-baseline="hanging">7.15</text><line stroke="dimgray" stroke-width="1" opacity="1" x1="0" y1="1000" x2="0" y2="0"/><line stroke="dimgray" stroke-width="1" opacity="1" x1="0" y1="750" x2="6" y2="750"/><text fill="dimgray" fill-opacity="1" x="10" y="750" font-size="12" text-anchor="start" dominant-baseline="central">26.12</text><line stroke="dimgray" stroke-width="1" opacity="1" x1="0" y1="500" x2="6" y2="500"/><text fill="dimgray" fill-opacity="1" x="10" y="500" font-size="12" text-anchor="start" dominant-baseline="central">52.25</text><line stroke="dimgray" stroke-width="1" opacity="1" x1="0" y1="250" x2="6" y2="250"/><text fill="dimgray" fill-opacity="1" x="10" y="250" font-size="12" text-anchor="start" dominant-baseline="central">78.38</text><line stroke="dimgray" stroke-width="1" opacity="1" x1="0" y1="0" x2="6" y2="0"/><text fill="dimgray" fill-opacity="1" x="10" y="0" font-size="12" text-anchor="start" dominant-baseline="central">104.5</text><text fill="black" fill-opacity="1" x="500" y="-26" font-size="16" text-anchor="middle" dominant-baseline="hanging">Customer Satisfaction by Department</text></svg>