<svg xmlns="http://www.w3.org/2000/svg" viewBox="-20,-56 1040,1076"><rect fill="white" x="-20" y="-56" width="1040" height="1076"/><line stroke="lightgray" stroke-width="1" opacity="1" x1="0" y1="0" x2="0" y2="1000"/><line stroke="lightgray" stroke-width="1" opacity="1" x1="250" y1="0" x2="250" y2="1000"/><line stroke="lightgray" stroke-width="1" opacity="1" x1="500" y1="0" x2="500" y2="1000"/><line stroke="lightgray" stroke-width="1" opacity="1" x1="750" y1="0" x2="750" y2="1000"/><line stroke="lightgray" stroke-width="1" opacity="1" x1="1000" y1="0" x2="1000" y2="1000"/><line stroke="lightgray" stroke-width="1" opacity="1" x1="0" y1="750" x2="1000" y2="750"/><line stroke="lightgray" stroke-width="1" opacity="1" x1="0" y1="500" x2="1000" y2="500"/><line stroke="lightgray" stroke-width="1" opacity="1" x1="0" y1="250" x2="1000" y2="250"/><line stroke="lightgray" stroke-width="1" opacity="1" x1="0" y1="0" x2="1000" y2="0"/><line stroke="steelblue" stroke-width="1.5" opacity="0.5" fill-opacity="0" x1="100" y1="1000" x2="100" y2="220"/><circle fill="steelblue" fill-opacity="0.5" r="6" cx="100" cy="220"/><line stroke="steelblue" stroke-width="1.5" opacity="0.5" fill-opacity="0" x1="300" y1="1000" x2="300" y2="180"/><circle fill="steelblue" fill-opacity="0.5" r="6" cx="300" cy="180"/><line stroke="steelblue" stroke-width="1.5" opacity="0.5" fill-opacity="0" x1="500" y1="1000" x2="500" y2="290"/><circle fill="steelblue" fill-opacity="0.5" r="6" cx="500" cy="290"/><line stroke="steelblue" stroke-width="1.5" opacity="0.5" fill-opacity="0" x1="700" y1="1000" x2="700" y2="120"/><circle fill="steelblue" fill-opacity="0.5" r="6" cx="700" cy="120"/><line stroke="steelblue" stroke-width="1.5" opacity="0.5" fill-opacity="0" x1="900" y1="1000" x2="900" y2="350"/><circle fill="steelblue" fill-opacity="0.5" r="6" cx="900" cy="350"/><line stroke="coral" stroke-width="1.5" opacity="1" fill-opacity="0" x1="100" y1="1000" x2="100" y2="150"/><circle fill="coral" fill-opacity="1" r="6" cx="100" cy="150"/><line stroke="coral" stroke-width="1.5" opacity="1" fill-opacity="0" x1="300" y1="1000" x2="300" y2="210"/><circle fill="coral" fill-opacity="1" r="6" cx="300" cy="210"/><line stroke="coral" stroke-width="1.5" opacity="1" fill-opacity="0" x1="500" y1="1000" x2="500" y2="100"/><circle fill="coral" fill-opacity="1" r="6" cx="500" cy="100"/><line stroke="coral" stroke-width="1.5" opacity="1" fill-opacity="0" x1="700" y1="1000" x2="700" y2="170"/><circle fill="coral" fill-opacity="1" r="6" cx="700" cy="170"/><line stroke="coral" stroke-width="1.5" opacity="1" fill-opacity="0" x1="900" y1="1000" x2="900" y2="240"/><circle fill="coral" fill-opacity="1" r="6" cx="900" cy="240"/><rect fill="steelblue" fill-opacity="1" x="437.2" y="-48" width="20" height="8"/><text fill="dimgray" fill-opacity="1" x="463.2" y="-44" font-size="12" dominant-baseline="central">2023</text><rect fill="coral" fill-opacity="1" x="508" y="-48" width="20" height="8"/><text fill="dimgray" fill-opacity="1" x="534" y="-44" font-size="12" dominant-baseline="central">2024</text><line stroke="dimgray" stroke-width="1" opacity="1" x1="0" y1="1000" x2="1000" y2="1000"/><line stroke="dimgray" stroke-width="1" opacity="1" x1="0" y1="1000" x2="0" y2="1006"/><text fill="dimgray" fill-opacity="1" x="0" y="1008" font-size="12" text-anchor="middle" dominant-baseline="hanging">0.5</text><line stroke="dimgray" stroke-width="1" opacity="1" x1="250" y1="1000" x2="250" y2="1006"/><text fill="dimgray" fill-opacity="1" x="250" y="1008" font-size="12" text-anchor="middle" dominant-baseline="hanging">1.75</text><line stroke="dimgray" stroke-width="1" opacity="1" x1="500" y1="1000" x2="500" y2="1006"/><text fill="dimgray" fill-opacity="1" x="500" y="1008" font-size="12" text-anchor="middle" dominant-baseline="hanging">3</text><line stroke="dimgray" stroke-width="1" opacity="1" x1="750" y1="1000" x2="750" y2="1006"/><text fill="dimgray" fill-opacity="1" x="750" y="1008" font-size="12" text-anchor="middle" dominant-baseline="hanging">4.25</text><line stroke="dimgray" stroke-width="1" opacity="1" x1="1000" y1="1000" x2="1000" y2="1006"/><text fill="dimgray" fill-opacity="1" x="1000" y="1008" font-size="12" text-anchor="middle" dominant-baseline="hanging">5.5</text><line stroke="dimgray" stroke-width="1" opacity="1" x1="0" y1="1000" x2="0" y2="0"/><line stroke="dimgray" stroke-width="1" opacity="1" x1="0" y1="750" x2="6" y2="750"/><text fill="dimgray" fill-opacity="1" x="10" y="750" font-size="12" text-anchor="start" dominant-baseline="central">25</text><line stroke="dimgray" stroke-width="1" opacity="1" x1="0" y1="500" x2="6" y2="500"/><text fill="dimgray" fill-opacity="1" x="10" y="500" font-size="12" text-anchor="start" dominant-baseline="central">50</text><line stroke="dimgray" stroke-width="1" opacity="1" x1="0" y1="250" x2="6" y2="250"/><text fill="dimgray" fill-opacity="1" x="10" y="250" font-size="12" text-anchor="start" dominant-baseline="central">75</text><line stroke="dimgray" stroke-width="1" opacity="1" x1="0" y1="0" x2="6" y2="0"/><text fill="dimgray" fill-opacity="1" x="10" y="0" font-size="12" text-anchor="start" dominant-baseline="central">100</text><text fill="black" fill-opacity="1" x="500" y="-50" font-size="16" text-anchor="middle" dominant-baseline="hanging">Scores 2023 vs 2024</text></svg>