<svg xmlns="http://www.w3.org/2000/svg" viewBox="-20,-38 1040,1058"><rect fill="white" x="-20" y="-38" width="1040" height="1058"/><text fill="dimgray" fill-opacity="1" x="0" y="-16" font-size="12" text-anchor="middle" dominant-baseline="hanging">Source</text><text fill="dimgray" fill-opacity="1" x="500" y="-16" font-size="12" text-anchor="middle" dominant-baseline="hanging">Device</text><text fill="dimgray" fill-opacity="1" x="1000" y="-16" font-size="12" text-anchor="middle" dominant-baseline="hanging">Outcome</text><path fill="steelblue" fill-opacity="0.5" d="M6,0 C250,0 250,0 494,0 L494,131.905 C250,131.905 250,131.109 6,131.109 Z"/><path fill="steelblue" fill-opacity="0.5" d="M6,131.109 C250,131.109 250,131.905 494,131.905 L494,229.264 C250,229.264 250,227.88 6,227.88 Z"/><path fill="steelblue" fill-opacity="0.5" d="M6,227.88 C250,227.88 250,447.254 494,447.254 L494,505.356 C250,505.356 250,285.63 6,285.63 Z"/><path fill="steelblue" fill-opacity="0.5" d="M6,285.63 C250,285.63 250,505.356 494,505.356 L494,681.229 C250,681.229 250,460.442 6,460.442 Z"/><path fill="coral" fill-opacity="0.5" d="M6,466.442 C250,466.442 250,229.264 494,229.264 L494,259.099 C250,259.099 250,496.098 6,496.098 Z"/><path fill="coral" fill-opacity="0.5" d="M6,496.098 C250,496.098 250,259.099 494,259.099 L494,299.927 C250,299.927 250,536.679 6,536.679 Z"/><path fill="coral" fill-opacity="0.5" d="M6,536.679 C250,536.679 250,681.229 494,681.229 L494,756.604 C250,756.604 250,611.599 6,611.599 Z"/><path fill="coral" fill-opacity="0.5" d="M6,611.599 C250,611.599 250,756.604 494,756.604 L494,907.352 C250,907.352 250,761.438 6,761.438 Z"/><path fill="seagreen" fill-opacity="0.5" d="M6,767.438 C250,767.438 250,299.927 494,299.927 L494,397.286 C250,397.286 250,864.208 6,864.208 Z"/><path fill="seagreen" fill-opacity="0.5" d="M6,864.208 C250,864.208 250,397.286 494,397.286 L494,441.254 C250,441.254 250,907.912 6,907.912 Z"/><path fill="seagreen" fill-opacity="0.5" d="M6,907.912 C250,907.912 250,907.352 494,907.352 L494,945.039 C250,945.039 250,945.371 6,945.371 Z"/><path fill="seagreen" fill-opacity="0.5" d="M6,945.371 C250,945.371 250,945.039 494,945.039 L494,1000 C250,1000 250,1000 6,1000 Z"/><path fill="steelblue" fill-opacity="0.5" d="M506,0 C750,0 750,0 994,0 L994,131.905 C750,131.905 750,131.905 506,131.905 Z"/><path fill="coral" fill-opacity="0.5" d="M506,131.905 C750,131.905 750,131.905 994,131.905 L994,161.741 C750,161.741 750,161.741 506,161.741 Z"/><path fill="seagreen" fill-opacity="0.5" d="M506,161.741 C750,161.741 750,161.741 994,161.741 L994,259.099 C750,259.099 750,259.099 506,259.099 Z"/><path fill="steelblue" fill-opacity="0.5" d="M506,259.099 C750,259.099 750,436.262 994,436.262 L994,533.621 C750,533.621 750,356.458 506,356.458 Z"/><path fill="coral" fill-opacity="0.5" d="M506,356.458 C750,356.458 750,533.621 994,533.621 L994,574.449 C750,574.449 750,397.286 506,397.286 Z"/><path fill="seagreen" fill-opacity="0.5" d="M506,397.286 C750,397.286 750,574.449 994,574.449 L994,618.417 C750,618.417 750,441.254 506,441.254 Z"/><path fill="steelblue" fill-opacity="0.5" d="M506,447.254 C750,447.254 750,259.099 994,259.099 L994,317.201 C750,317.201 750,505.356 506,505.356 Z"/><path fill="coral" fill-opacity="0.5" d="M506,505.356 C750,505.356 750,317.201 994,317.201 L994,392.575 C750,392.575 750,580.73 506,580.73 Z"/><path fill="seagreen" fill-opacity="0.5" d="M506,580.73 C750,580.73 750,392.575 994,392.575 L994,430.262 C750,430.262 750,618.417 506,618.417 Z"/><path fill="steelblue" fill-opacity="0.5" d="M506,618.417 C750,618.417 750,618.417 994,618.417 L994,794.291 C750,794.291 750,794.291 506,794.291 Z"/><path fill="coral" fill-opacity="0.5" d="M506,794.291 C750,794.291 750,794.291 994,794.291 L994,945.039 C750,945.039 750,945.039 506,945.039 Z"/><path fill="seagreen" fill-opacity="0.5" d="M506,945.039 C750,945.039 750,945.039 994,945.039 L994,1000 C750,1000 750,1000 506,1000 Z"/><rect fill="dimgray" fill-opacity="0.85" x="-6" y="0" width="12" height="460.442"/><text fill="dimgray" fill-opacity="1" x="-12" y="230.221" font-size="11" text-anchor="end" dominant-baseline="central">Search</text><rect fill="dimgray" fill-opacity="0.85" x="-6" y="466.442" width="12" height="294.995"/><text fill="dimgray" fill-opacity="1" x="-12" y="613.94" font-size="11" text-anchor="end" dominant-baseline="central">Social</text><rect fill="dimgray" fill-opacity="0.85" x="-6" y="767.438" width="12" height="232.562"/><text fill="dimgray" fill-opacity="1" x="-12" y="883.719" font-size="11" text-anchor="end" dominant-baseline="central">Direct</text><rect fill="dimgray" fill-opacity="0.85" x="494" y="0" width="12" height="441.254"/><text fill="dimgray" fill-opacity="1" x="512" y="220.627" font-size="11" text-anchor="start" dominant-baseline="central">Desktop</text><rect fill="dimgray" fill-opacity="0.85" x="494" y="447.254" width="12" height="552.746"/><text fill="dimgray" fill-opacity="1" x="512" y="723.627" font-size="11" text-anchor="start" dominant-baseline="central">Mobile</text><rect fill="dimgray" fill-opacity="0.85" x="994" y="0" width="12" height="430.262"/><text fill="dimgray" fill-opacity="1" x="1012" y="215.131" font-size="11" text-anchor="start" dominant-baseline="central">Purchase</text><rect fill="dimgray" fill-opacity="0.85" x="994" y="436.262" width="12" height="563.738"/><text fill="dimgray" fill-opacity="1" x="1012" y="718.131" font-size="11" text-anchor="start" dominant-baseline="central">Abandoned</text><text fill="black" fill-opacity="1" x="500" y="-32" font-size="22" text-anchor="middle" dominant-baseline="hanging">Retail Traffic: Source, Device, Outcome</text></svg>