<svg xmlns="http://www.w3.org/2000/svg" viewBox="0,0 1000,1000"><rect fill="white" x="0" y="0" width="1000" height="1000"/><path fill="steelblue" d="M360,500 L360,220 A280,280 0 0,1 639.447,482.419 Z"/><path fill="coral" d="M360,500 L639.447,482.419 A280,280 0 0,1 524.58,726.525 Z"/><path fill="seagreen" d="M360,500 L524.58,726.525 A280,280 0 0,1 195.42,726.525 Z"/><path fill="tomato" d="M360,500 L195.42,726.525 A280,280 0 0,1 183.465,282.663 Z"/><path fill="mediumpurple" d="M360,500 L183.465,282.663 A280,280 0 0,1 360,220 Z"/><text fill="white" x="484.588" y="367.328" font-size="12" text-anchor="middle" dominant-baseline="central">24%</text><text fill="white" x="524.678" y="577.492" font-size="12" text-anchor="middle" dominant-baseline="central">16%</text><text fill="white" x="360" y="682" font-size="12" text-anchor="middle" dominant-baseline="central">20%</text><text fill="white" x="178.066" y="504.9" font-size="12" text-anchor="middle" dominant-baseline="central">29%</text><text fill="white" x="299.119" y="328.485" font-size="12" text-anchor="middle" dominant-baseline="central">11%</text><rect fill="steelblue" x="700" y="452.5" width="12" height="12"/><text fill="dimgray" fill-opacity="1" x="720" y="458.5" font-size="12" dominant-baseline="central">North  24%</text><rect fill="coral" x="700" y="471.5" width="12" height="12"/><text fill="dimgray" fill-opacity="1" x="720" y="477.5" font-size="12" dominant-baseline="central">South  16%</text><rect fill="seagreen" x="700" y="490.5" width="12" height="12"/><text fill="dimgray" fill-opacity="1" x="720" y="496.5" font-size="12" dominant-baseline="central">East  20%</text><rect fill="tomato" x="700" y="509.5" width="12" height="12"/><text fill="dimgray" fill-opacity="1" x="720" y="515.5" font-size="12" dominant-baseline="central">West  29%</text><rect fill="mediumpurple" x="700" y="528.5" width="12" height="12"/><text fill="dimgray" fill-opacity="1" x="720" y="534.5" font-size="12" dominant-baseline="central">Central  11%</text><text fill="dimgray" fill-opacity="1" x="500" y="25" font-size="22" text-anchor="middle" dominant-baseline="hanging">Q1 Regional Sales (Fictional)</text></svg>