<svg xmlns="http://www.w3.org/2000/svg" viewBox="-20,-38 1040,1058"><rect fill="white" x="-20" y="-38" width="1040" height="1058"/><path fill="steelblue" fill-opacity="1" d="M500,500 L500,80 A420,420 0 0,1 816.786,775.766 Z"/><text fill="white" x="748.459" y="386.875" font-size="11" text-anchor="middle" dominant-baseline="central">Coal</text><path fill="coral" fill-opacity="1" d="M500,500 L816.786,775.766 A420,420 0 0,1 277.185,856.025 Z"/><text fill="white" x="540.163" y="770.029" font-size="11" text-anchor="middle" dominant-baseline="central">Natural Gas</text><path fill="seagreen" fill-opacity="1" d="M500,500 L277.185,856.025 A420,420 0 0,1 82.6832,547.4 Z"/><text fill="white" x="269.04" y="645.556" font-size="11" text-anchor="middle" dominant-baseline="central">Hydro</text><path fill="tomato" fill-opacity="1" d="M500,500 L82.6832,547.4 A420,420 0 0,1 126.983,306.976 Z"/><text fill="white" x="231.519" y="450.531" font-size="11" text-anchor="middle" dominant-baseline="central">Nuclear</text><path fill="mediumpurple" fill-opacity="1" d="M500,500 L126.983,306.976 A420,420 0 0,1 255.27,158.668 Z"/><text fill="white" x="293.527" y="321.4" font-size="11" text-anchor="middle" dominant-baseline="central">Wind &amp; Solar</text><path fill="goldenrod" fill-opacity="1" d="M500,500 L255.27,158.668 A420,420 0 0,1 500,80 Z"/><text fill="white" x="416.454" y="240.098" font-size="11" text-anchor="middle" dominant-baseline="central">Other</text><text fill="black" fill-opacity="1" x="500" y="-32" font-size="22" text-anchor="middle" dominant-baseline="hanging">Global Electricity Generation 2023</text></svg>