<svg xmlns="http://www.w3.org/2000/svg" viewBox="-82,-38 1102,1058"><rect fill="white" x="-82" y="-38" width="1102" height="1058"/><line stroke="lightgray" stroke-width="1" opacity="1" x1="0" y1="0" x2="0" y2="1000"/><line stroke="lightgray" stroke-width="1" opacity="1" x1="250" y1="0" x2="250" y2="1000"/><line stroke="lightgray" stroke-width="1" opacity="1" x1="500" y1="0" x2="500" y2="1000"/><line stroke="lightgray" stroke-width="1" opacity="1" x1="750" y1="0" x2="750" y2="1000"/><line stroke="lightgray" stroke-width="1" opacity="1" x1="1000" y1="0" x2="1000" y2="1000"/><line stroke="lightgray" stroke-width="1" opacity="1" x1="0" y1="1000" x2="1000" y2="1000"/><line stroke="lightgray" stroke-width="1" opacity="1" x1="0" y1="750" x2="1000" y2="750"/><line stroke="lightgray" stroke-width="1" opacity="1" x1="0" y1="500" x2="1000" y2="500"/><line stroke="lightgray" stroke-width="1" opacity="1" x1="0" y1="250" x2="1000" y2="250"/><line stroke="lightgray" stroke-width="1" opacity="1" x1="0" y1="0" x2="1000" y2="0"/><path stroke="steelblue" stroke-width="1" opacity="1" fill-opacity="0" d="M0,525.768 L1.6694,521.35 L3.3389,518.222 L5.0083,515.891 L6.6778,514.086 L8.3472,512.646 L10.0167,511.471 L11.6861,510.495 L13.3556,509.669 L15.025,508.962 L16.6945,508.349 L18.3639,507.814 L20.0334,507.341 L21.7028,506.921 L23.3723,506.545 L25.0417,506.207 L26.7112,505.9 L28.3806,505.621 L30.0501,505.367 L31.7195,505.133 L33.389,504.917 L35.0584,504.718 L36.7279,504.534 L38.3973,504.362 L40.0668,504.202 L41.7362,504.052 L43.4057,503.912 L45.0751,503.781 L46.7446,503.656 L48.414,503.54 L50.0835,503.429 L51.7529,503.325 L53.4224,503.225 L55.0918,503.131 L56.7613,503.042 L58.4307,502.956 L60.1002,502.875 L61.7696,502.797 L63.4391,502.723 L65.1085,502.652 L66.778,502.584 L68.4474,502.518 L70.1169,502.455 L71.7863,502.395 L73.4558,502.337 L75.1252,502.281 L76.7947,502.227 L78.4641,502.175 L80.1336,502.125 L81.803,502.076 L83.4725,502.029 L85.1419,501.983 L86.8114,501.939 L88.4808,501.897 L90.1503,501.855 L91.8197,501.815 L93.4891,501.776 L95.1586,501.738 L96.828,501.701 L98.4975,501.665 L100.167,501.63 L101.836,501.596 L103.506,501.562 L105.175,501.53 L106.845,501.498 L108.514,501.467 L110.184,501.437 L111.853,501.408 L113.522,501.379 L115.192,501.351 L116.861,501.323 L118.531,501.296 L120.2,501.269 L121.87,501.243 L123.539,501.218 L125.209,501.193 L126.878,501.169 L128.548,501.145 L130.217,501.121 L131.887,501.098 L133.556,501.075 L135.225,501.053 L136.895,501.031 L138.564,501.009 L140.234,500.988 L141.903,500.967 L143.573,500.946 L145.242,500.926 L146.911,500.906 L148.581,500.886 L150.25,500.867 L151.92,500.848 L153.589,500.829 L155.259,500.81 L156.928,500.791 L158.598,500.773 L160.267,500.755 L161.937,500.738 L163.606,500.72 L165.275,500.702 L166.945,500.685 L168.614,500.668 L170.284,500.652 L171.953,500.635 L173.623,500.618 L175.292,500.602 L176.962,500.586 L178.631,500.57 L180.3,500.554 L181.97,500.539 L183.639,500.523 L185.309,500.508 L186.978,500.492 L188.648,500.477 L190.317,500.462 L191.987,500.447 L193.656,500.432 L195.326,500.417 L196.995,500.403 L198.664,500.388 L200.334,500.374 L202.003,500.359 L203.673,500.345 L205.342,500.331 L207.012,500.317 L208.681,500.303 L210.351,500.289 L212.02,500.275 L213.69,500.261 L215.359,500.247 L217.028,500.233 L218.698,500.219 L220.367,500.206 L222.037,500.192 L223.706,500.178 L225.376,500.165 L227.045,500.151 L228.714,500.138 L230.384,500.125 L232.053,500.111 L233.723,500.098 L235.392,500.084 L237.062,500.071 L238.731,500.058 L240.401,500.044 L242.07,500.031 L243.74,500.018 L245.409,500.004 L247.078,499.991 L248.748,499.978 L250.417,499.964 L252.087,499.951 L253.756,499.938 L255.426,499.924 L257.095,499.911 L258.765,499.898 L260.434,499.884 L262.103,499.871 L263.773,499.857 L265.442,499.844 L267.112,499.83 L268.781,499.817 L270.451,499.803 L272.12,499.79 L273.79,499.776 L275.459,499.762 L277.128,499.748 L278.798,499.735 L280.467,499.721 L282.137,499.707 L283.806,499.693 L285.476,499.678 L287.145,499.664 L288.815,499.65 L290.484,499.636 L292.154,499.621 L293.823,499.607 L295.493,499.592 L297.162,499.577 L298.831,499.563 L300.501,499.548 L302.17,499.533 L303.84,499.518 L305.509,499.502 L307.179,499.487 L308.848,499.472 L310.517,499.456 L312.187,499.44 L313.856,499.424 L315.526,499.408 L317.195,499.392 L318.865,499.376 L320.534,499.359 L322.204,499.343 L323.873,499.326 L325.543,499.309 L327.212,499.291 L328.882,499.274 L330.551,499.257 L332.22,499.239 L333.89,499.221 L335.559,499.202 L337.229,499.184 L338.898,499.165 L340.568,499.146 L342.237,499.127 L343.906,499.107 L345.576,499.087 L347.245,499.067 L348.915,499.047 L350.584,499.026 L352.254,499.005 L353.923,498.983 L355.593,498.962 L357.262,498.94 L358.932,498.917 L360.601,498.894 L362.271,498.871 L363.94,498.847 L365.609,498.823 L367.279,498.798 L368.948,498.773 L370.618,498.748 L372.287,498.721 L373.957,498.695 L375.626,498.668 L377.296,498.64 L378.965,498.611 L380.634,498.582 L382.304,498.553 L383.973,498.522 L385.643,498.491 L387.312,498.459 L388.982,498.426 L390.651,498.393 L392.32,498.358 L393.99,498.323 L395.659,498.287 L397.329,498.249 L398.998,498.211 L400.668,498.171 L402.337,498.131 L404.007,498.089 L405.676,498.046 L407.346,498.001 L409.015,497.955 L410.685,497.907 L412.354,497.858 L414.023,497.807 L415.693,497.755 L417.362,497.7 L419.032,497.643 L420.701,497.584 L422.371,497.523 L424.04,497.459 L425.709,497.393 L427.379,497.324 L429.048,497.252 L430.718,497.176 L432.387,497.098 L434.057,497.015 L435.726,496.928 L437.396,496.837 L439.065,496.741 L440.735,496.64 L442.404,496.534 L444.074,496.421 L445.743,496.302 L447.412,496.175 L449.082,496.041 L450.751,495.897 L452.421,495.744 L454.09,495.58 L455.76,495.404 L457.429,495.215 L459.099,495.01 L460.768,494.789 L462.437,494.548 L464.107,494.286 L465.776,493.998 L467.446,493.681 L469.115,493.33 L470.785,492.94 L472.454,492.503 L474.123,492.01 L475.793,491.45 L477.462,490.807 L479.132,490.062 L480.801,489.189 L482.471,488.15 L484.14,486.893 L485.81,485.342 L487.479,483.378 L489.149,480.811 L490.818,477.312 L492.488,472.261 L494.157,464.325 L495.826,450.044 L497.496,416.729 L499.165,250.168 M500.835,749.832 L502.504,583.271 L504.174,549.956 L505.843,535.675 L507.512,527.739 L509.182,522.688 L510.851,519.189 L512.521,516.622 L514.19,514.658 L515.86,513.107 L517.529,511.85 L519.199,510.811 L520.868,509.938 L522.538,509.193 L524.207,508.55 L525.876,507.99 L527.546,507.497 L529.215,507.06 L530.885,506.67 L532.554,506.319 L534.224,506.002 L535.893,505.714 L537.563,505.452 L539.232,505.211 L540.902,504.99 L542.571,504.785 L544.24,504.596 L545.91,504.42 L547.579,504.256 L549.249,504.103 L550.918,503.959 L552.588,503.825 L554.257,503.698 L555.927,503.579 L557.596,503.466 L559.265,503.36 L560.935,503.259 L562.604,503.163 L564.274,503.072 L565.943,502.985 L567.613,502.902 L569.282,502.824 L570.952,502.748 L572.621,502.676 L574.29,502.607 L575.96,502.541 L577.629,502.477 L579.299,502.416 L580.968,502.357 L582.638,502.3 L584.307,502.245 L585.977,502.193 L587.646,502.142 L589.316,502.093 L590.985,502.045 L592.654,501.999 L594.324,501.954 L595.993,501.911 L597.663,501.869 L599.332,501.829 L601.002,501.789 L602.671,501.751 L604.341,501.713 L606.01,501.677 L607.679,501.642 L609.349,501.607 L611.018,501.574 L612.688,501.541 L614.357,501.509 L616.027,501.478 L617.696,501.447 L619.366,501.418 L621.035,501.389 L622.705,501.36 L624.374,501.332 L626.043,501.305 L627.713,501.279 L629.382,501.252 L631.052,501.227 L632.721,501.202 L634.391,501.177 L636.06,501.153 L637.73,501.129 L639.399,501.106 L641.068,501.083 L642.738,501.06 L644.407,501.038 L646.077,501.017 L647.746,500.995 L649.416,500.974 L651.085,500.953 L652.755,500.933 L654.424,500.913 L656.093,500.893 L657.763,500.873 L659.432,500.854 L661.102,500.835 L662.771,500.816 L664.441,500.798 L666.11,500.779 L667.78,500.761 L669.449,500.743 L671.119,500.726 L672.788,500.709 L674.457,500.691 L676.127,500.674 L677.796,500.657 L679.466,500.641 L681.135,500.624 L682.805,500.608 L684.474,500.592 L686.144,500.576 L687.813,500.56 L689.482,500.544 L691.152,500.528 L692.821,500.513 L694.491,500.498 L696.16,500.482 L697.83,500.467 L699.499,500.452 L701.169,500.437 L702.838,500.423 L704.508,500.408 L706.177,500.393 L707.846,500.379 L709.516,500.364 L711.185,500.35 L712.855,500.336 L714.524,500.322 L716.194,500.307 L717.863,500.293 L719.533,500.279 L721.202,500.265 L722.871,500.252 L724.541,500.238 L726.21,500.224 L727.88,500.21 L729.549,500.197 L731.219,500.183 L732.888,500.17 L734.558,500.156 L736.227,500.143 L737.896,500.129 L739.566,500.116 L741.235,500.102 L742.905,500.089 L744.574,500.076 L746.244,500.062 L747.913,500.049 L749.583,500.036 L751.252,500.022 L752.922,500.009 L754.591,499.996 L756.26,499.982 L757.93,499.969 L759.599,499.956 L761.269,499.942 L762.938,499.929 L764.608,499.916 L766.277,499.902 L767.947,499.889 L769.616,499.875 L771.285,499.862 L772.955,499.849 L774.624,499.835 L776.294,499.822 L777.963,499.808 L779.633,499.794 L781.302,499.781 L782.972,499.767 L784.641,499.753 L786.311,499.739 L787.98,499.725 L789.649,499.711 L791.319,499.697 L792.988,499.683 L794.658,499.669 L796.327,499.655 L797.997,499.641 L799.666,499.626 L801.336,499.612 L803.005,499.597 L804.674,499.583 L806.344,499.568 L808.013,499.553 L809.683,499.538 L811.352,499.523 L813.022,499.508 L814.691,499.492 L816.361,499.477 L818.03,499.461 L819.699,499.446 L821.369,499.43 L823.038,499.414 L824.708,499.398 L826.377,499.382 L828.047,499.365 L829.716,499.348 L831.386,499.332 L833.055,499.315 L834.725,499.298 L836.394,499.28 L838.063,499.262 L839.733,499.245 L841.402,499.227 L843.072,499.209 L844.741,499.19 L846.411,499.171 L848.08,499.152 L849.75,499.133 L851.419,499.114 L853.088,499.094 L854.758,499.074 L856.427,499.054 L858.097,499.033 L859.766,499.012 L861.436,498.991 L863.105,498.969 L864.775,498.947 L866.444,498.925 L868.114,498.902 L869.783,498.879 L871.452,498.855 L873.122,498.831 L874.791,498.807 L876.461,498.782 L878.13,498.757 L879.8,498.731 L881.469,498.704 L883.139,498.677 L884.808,498.649 L886.477,498.621 L888.147,498.592 L889.816,498.563 L891.486,498.533 L893.155,498.502 L894.825,498.47 L896.494,498.438 L898.164,498.404 L899.833,498.37 L901.503,498.335 L903.172,498.299 L904.841,498.262 L906.511,498.224 L908.18,498.185 L909.85,498.145 L911.519,498.103 L913.189,498.061 L914.858,498.017 L916.528,497.971 L918.197,497.924 L919.866,497.875 L921.536,497.825 L923.205,497.773 L924.875,497.719 L926.544,497.663 L928.214,497.605 L929.883,497.545 L931.553,497.482 L933.222,497.416 L934.891,497.348 L936.561,497.277 L938.23,497.203 L939.9,497.125 L941.569,497.044 L943.239,496.958 L944.908,496.869 L946.578,496.775 L948.247,496.675 L949.917,496.571 L951.586,496.46 L953.255,496.344 L954.925,496.219 L956.594,496.088 L958.264,495.948 L959.933,495.798 L961.603,495.638 L963.272,495.466 L964.942,495.282 L966.611,495.083 L968.28,494.867 L969.95,494.633 L971.619,494.379 L973.289,494.1 L974.958,493.793 L976.628,493.455 L978.297,493.079 L979.967,492.659 L981.636,492.186 L983.306,491.651 L984.975,491.038 L986.644,490.331 L988.314,489.505 L989.983,488.529 L991.653,487.354 L993.322,485.914 L994.992,484.109 L996.661,481.778 L998.331,478.65 L1000,474.232"/><line stroke="dimgray" stroke-width="1" opacity="1" x1="0" y1="1000" x2="1000" y2="1000"/><line stroke="dimgray" stroke-width="1" opacity="1" x1="0" y1="1000" x2="0" y2="1006"/><text fill="dimgray" fill-opacity="1" x="0" y="1008" font-size="12" text-anchor="middle" dominant-baseline="hanging">-1.521</text><line stroke="dimgray" stroke-width="1" opacity="1" x1="250" y1="1000" x2="250" y2="1006"/><text fill="dimgray" fill-opacity="1" x="250" y="1008" font-size="12" text-anchor="middle" dominant-baseline="hanging">0.025</text><line stroke="dimgray" stroke-width="1" opacity="1" x1="500" y1="1000" x2="500" y2="1006"/><text fill="dimgray" fill-opacity="1" x="500" y="1008" font-size="12" text-anchor="middle" dominant-baseline="hanging">1.571</text><line stroke="dimgray" stroke-width="1" opacity="1" x1="750" y1="1000" x2="750" y2="1006"/><text fill="dimgray" fill-opacity="1" x="750" y="1008" font-size="12" text-anchor="middle" dominant-baseline="hanging">3.117</text><line stroke="dimgray" stroke-width="1" opacity="1" x1="1000" y1="1000" x2="1000" y2="1006"/><text fill="dimgray" fill-opacity="1" x="1000" y="1008" font-size="12" text-anchor="middle" dominant-baseline="hanging">4.662</text><line stroke="dimgray" stroke-width="1" opacity="1" x1="0" y1="1000" x2="0" y2="0"/><line stroke="dimgray" stroke-width="1" opacity="1" x1="0" y1="1000" x2="-6" y2="1000"/><text fill="dimgray" fill-opacity="1" x="-10" y="1000" font-size="12" text-anchor="end" dominant-baseline="central">-387.8</text><line stroke="dimgray" stroke-width="1" opacity="1" x1="0" y1="750" x2="-6" y2="750"/><text fill="dimgray" fill-opacity="1" x="-10" y="750" font-size="12" text-anchor="end" dominant-baseline="central">-193.9</text><line stroke="dimgray" stroke-width="1" opacity="1" x1="0" y1="500" x2="-6" y2="500"/><text fill="dimgray" fill-opacity="1" x="-10" y="500" font-size="12" text-anchor="end" dominant-baseline="central">-6.366e-12</text><line stroke="dimgray" stroke-width="1" opacity="1" x1="0" y1="250" x2="-6" y2="250"/><text fill="dimgray" fill-opacity="1" x="-10" y="250" font-size="12" text-anchor="end" dominant-baseline="central">193.9</text><line stroke="dimgray" stroke-width="1" opacity="1" x1="0" y1="0" x2="-6" y2="0"/><text fill="dimgray" fill-opacity="1" x="-10" y="0" font-size="12" text-anchor="end" dominant-baseline="central">387.8</text><text fill="black" fill-opacity="1" x="500" y="-32" font-size="22" text-anchor="middle" dominant-baseline="hanging">tan(x) with asymptote breaks</text></svg>