<svg xmlns="http://www.w3.org/2000/svg" viewBox="-46,-38 1066,1058"><rect fill="white" x="-46" y="-38" width="1066" height="1058"/><line stroke="lightgray" stroke-width="1" opacity="1" x1="0" y1="0" x2="0" y2="1000"/><line stroke="lightgray" stroke-width="1" opacity="1" x1="250" y1="0" x2="250" y2="1000"/><line stroke="lightgray" stroke-width="1" opacity="1" x1="500" y1="0" x2="500" y2="1000"/><line stroke="lightgray" stroke-width="1" opacity="1" x1="750" y1="0" x2="750" y2="1000"/><line stroke="lightgray" stroke-width="1" opacity="1" x1="1000" y1="0" x2="1000" y2="1000"/><line stroke="lightgray" stroke-width="1" opacity="1" x1="0" y1="1000" x2="1000" y2="1000"/><line stroke="lightgray" stroke-width="1" opacity="1" x1="0" y1="750" x2="1000" y2="750"/><line stroke="lightgray" stroke-width="1" opacity="1" x1="0" y1="500" x2="1000" y2="500"/><line stroke="lightgray" stroke-width="1" opacity="1" x1="0" y1="250" x2="1000" y2="250"/><line stroke="lightgray" stroke-width="1" opacity="1" x1="0" y1="0" x2="1000" y2="0"/><path stroke="steelblue" stroke-width="1" opacity="1" fill-opacity="0" d="M0,500 L2.5063,487.889 L5.0125,475.789 L7.5188,463.714 L10.0251,451.675 L12.5313,439.683 L15.0376,427.752 L17.5439,415.892 L20.0501,404.115 L22.5564,392.434 L25.0627,380.859 L27.5689,369.403 L30.0752,358.076 L32.5815,346.89 L35.0877,335.855 L37.594,324.984 L40.1003,314.286 L42.6065,303.772 L45.1128,293.453 L47.619,283.338 L50.1253,273.439 L52.6316,263.764 L55.1378,254.324 L57.6441,245.127 L60.1504,236.183 L62.6566,227.501 L65.1629,219.089 L67.6692,210.956 L70.1754,203.109 L72.6817,195.557 L75.188,188.306 L77.6942,181.365 L80.2005,174.74 L82.7068,168.438 L85.213,162.464 L87.7193,156.825 L90.2256,151.527 L92.7318,146.574 L95.2381,141.972 L97.7444,137.724 L100.251,133.837 L102.757,130.312 L105.263,127.154 L107.769,124.365 L110.276,121.95 L112.782,119.909 L115.288,118.245 L117.794,116.96 L120.301,116.055 L122.807,115.531 L125.313,115.388 L127.82,115.626 L130.326,116.246 L132.832,117.246 L135.338,118.626 L137.845,120.384 L140.351,122.519 L142.857,125.028 L145.363,127.909 L147.87,131.159 L150.376,134.775 L152.882,138.753 L155.388,143.089 L157.895,147.78 L160.401,152.819 L162.907,158.203 L165.413,163.926 L167.92,169.983 L170.426,176.367 L172.932,183.071 L175.439,190.09 L177.945,197.417 L180.451,205.043 L182.957,212.963 L185.464,221.166 L187.97,229.647 L190.476,238.395 L192.982,247.403 L195.489,256.662 L197.995,266.161 L200.501,275.893 L203.007,285.847 L205.514,296.014 L208.02,306.382 L210.526,316.943 L213.033,327.686 L215.539,338.599 L218.045,349.672 L220.551,360.895 L223.058,372.255 L225.564,383.742 L228.07,395.345 L230.576,407.051 L233.083,418.849 L235.589,430.728 L238.095,442.676 L240.601,454.68 L243.108,466.73 L245.614,478.812 L248.12,490.916 L250.627,503.028 L253.133,515.138 L255.639,527.232 L258.145,539.3 L260.652,551.328 L263.158,563.306 L265.664,575.22 L268.17,587.061 L270.677,598.814 L273.183,610.47 L275.689,622.016 L278.195,633.442 L280.702,644.734 L283.208,655.884 L285.714,666.878 L288.221,677.707 L290.727,688.361 L293.233,698.827 L295.739,709.095 L298.246,719.157 L300.752,729.001 L303.258,738.618 L305.764,747.998 L308.271,757.133 L310.777,766.012 L313.283,774.628 L315.789,782.971 L318.296,791.033 L320.802,798.807 L323.308,806.284 L325.815,813.458 L328.321,820.321 L330.827,826.866 L333.333,833.087 L335.84,838.977 L338.346,844.531 L340.852,849.744 L343.358,854.61 L345.865,859.124 L348.371,863.281 L350.877,867.079 L353.384,870.512 L355.89,873.578 L358.396,876.274 L360.902,878.596 L363.409,880.542 L365.915,882.111 L368.421,883.302 L370.927,884.112 L373.434,884.541 L375.94,884.589 L378.446,884.255 L380.952,883.54 L383.459,882.445 L385.965,880.97 L388.471,879.118 L390.977,876.889 L393.484,874.287 L395.99,871.313 L398.496,867.971 L401.002,864.265 L403.509,860.197 L406.015,855.771 L408.521,850.993 L411.028,845.867 L413.534,840.398 L416.04,834.591 L418.546,828.452 L421.053,821.987 L423.559,815.203 L426.065,808.107 L428.571,800.704 L431.078,793.004 L433.584,785.013 L436.09,776.739 L438.596,768.191 L441.103,759.377 L443.609,750.305 L446.115,740.986 L448.622,731.427 L451.128,721.639 L453.634,711.631 L456.14,701.413 L458.647,690.995 L461.153,680.388 L463.659,669.602 L466.165,658.647 L468.672,647.536 L471.178,636.278 L473.684,624.884 L476.19,613.367 L478.697,601.738 L481.203,590.008 L483.709,578.188 L486.216,566.291 L488.722,554.328 L491.228,542.311 L493.734,530.252 L496.241,518.163 L498.747,506.056 L501.253,493.944 L503.759,481.837 L506.266,469.748 L508.772,457.689 L511.278,445.672 L513.784,433.709 L516.291,421.812 L518.797,409.993 L521.303,398.262 L523.809,386.633 L526.316,375.116 L528.822,363.722 L531.328,352.464 L533.835,341.353 L536.341,330.398 L538.847,319.612 L541.353,309.005 L543.86,298.587 L546.366,288.369 L548.872,278.361 L551.378,268.573 L553.885,259.014 L556.391,249.695 L558.897,240.623 L561.404,231.809 L563.91,223.261 L566.416,214.987 L568.922,206.996 L571.429,199.296 L573.935,191.893 L576.441,184.797 L578.947,178.013 L581.454,171.548 L583.96,165.41 L586.466,159.602 L588.972,154.133 L591.479,149.007 L593.985,144.229 L596.491,139.803 L598.997,135.735 L601.504,132.029 L604.01,128.687 L606.516,125.713 L609.023,123.111 L611.529,120.882 L614.035,119.03 L616.541,117.555 L619.048,116.46 L621.554,115.745 L624.06,115.411 L626.566,115.459 L629.073,115.888 L631.579,116.698 L634.085,117.888 L636.591,119.458 L639.098,121.404 L641.604,123.727 L644.11,126.422 L646.616,129.488 L649.123,132.921 L651.629,136.719 L654.135,140.876 L656.642,145.39 L659.148,150.256 L661.654,155.469 L664.16,161.023 L666.667,166.913 L669.173,173.134 L671.679,179.679 L674.186,186.542 L676.692,193.716 L679.198,201.193 L681.704,208.967 L684.211,217.029 L686.717,225.372 L689.223,233.988 L691.729,242.867 L694.236,252.002 L696.742,261.382 L699.248,270.999 L701.754,280.843 L704.261,290.905 L706.767,301.173 L709.273,311.639 L711.779,322.293 L714.286,333.122 L716.792,344.116 L719.298,355.266 L721.804,366.558 L724.311,377.984 L726.817,389.53 L729.323,401.186 L731.83,412.94 L734.336,424.78 L736.842,436.694 L739.348,448.672 L741.855,460.7 L744.361,472.768 L746.867,484.862 L749.373,496.972 L751.88,509.084 L754.386,521.188 L756.892,533.27 L759.399,545.319 L761.905,557.324 L764.411,569.272 L766.917,581.15 L769.424,592.949 L771.93,604.655 L774.436,616.258 L776.942,627.745 L779.449,639.105 L781.955,650.328 L784.461,661.401 L786.967,672.314 L789.474,683.057 L791.98,693.617 L794.486,703.986 L796.992,714.153 L799.499,724.107 L802.005,733.839 L804.511,743.338 L807.018,752.597 L809.524,761.605 L812.03,770.353 L814.536,778.834 L817.043,787.038 L819.549,794.957 L822.055,802.583 L824.561,809.91 L827.068,816.929 L829.574,823.634 L832.08,830.017 L834.587,836.074 L837.093,841.797 L839.599,847.181 L842.105,852.221 L844.611,856.911 L847.118,861.247 L849.624,865.225 L852.13,868.841 L854.637,872.091 L857.143,874.972 L859.649,877.481 L862.155,879.616 L864.662,881.374 L867.168,882.754 L869.674,883.754 L872.181,884.374 L874.687,884.612 L877.193,884.469 L879.699,883.945 L882.206,883.04 L884.712,881.755 L887.218,880.091 L889.724,878.05 L892.231,875.635 L894.737,872.846 L897.243,869.688 L899.749,866.163 L902.256,862.276 L904.762,858.028 L907.268,853.426 L909.774,848.473 L912.281,843.175 L914.787,837.536 L917.293,831.562 L919.799,825.26 L922.306,818.635 L924.812,811.693 L927.318,804.443 L929.825,796.891 L932.331,789.044 L934.837,780.911 L937.343,772.499 L939.85,763.817 L942.356,754.873 L944.862,745.676 L947.368,736.236 L949.875,726.561 L952.381,716.662 L954.887,706.547 L957.394,696.228 L959.9,685.714 L962.406,675.016 L964.912,664.145 L967.418,653.11 L969.925,641.924 L972.431,630.597 L974.937,619.141 L977.444,607.566 L979.95,595.885 L982.456,584.108 L984.962,572.248 L987.469,560.317 L989.975,548.325 L992.481,536.286 L994.987,524.211 L997.494,512.111 L1000,500"/><path stroke="coral" stroke-width="1" opacity="1" fill-opacity="0" d="M0,115.385 L2.5063,115.575 L5.0125,116.147 L7.5188,117.1 L10.0251,118.433 L12.5313,120.144 L15.0376,122.231 L17.5439,124.694 L20.0501,127.528 L22.5564,130.732 L25.0627,134.303 L27.5689,138.236 L30.0752,142.528 L32.5815,147.174 L35.0877,152.17 L37.594,157.512 L40.1003,163.193 L42.6065,169.208 L45.1128,175.551 L47.619,182.216 L50.1253,189.196 L52.6316,196.484 L55.1378,204.074 L57.6441,211.957 L60.1504,220.125 L62.6566,228.572 L65.1629,237.287 L67.6692,246.263 L70.1754,255.491 L72.6817,264.961 L75.188,274.664 L77.6942,284.591 L80.2005,294.732 L82.7068,305.076 L85.213,315.613 L87.7193,326.333 L90.2256,337.226 L92.7318,348.28 L95.2381,359.484 L97.7444,370.828 L100.251,382.3 L102.757,393.889 L105.263,405.582 L107.769,417.37 L110.276,429.24 L112.782,441.179 L115.288,453.177 L117.794,465.222 L120.301,477.301 L122.807,489.402 L125.313,501.514 L127.82,513.625 L130.326,525.722 L132.832,537.793 L135.338,549.827 L137.845,561.812 L140.351,573.735 L142.857,585.585 L145.363,597.35 L147.87,609.019 L150.376,620.579 L152.882,632.02 L155.388,643.33 L157.895,654.498 L160.401,665.513 L162.907,676.363 L165.413,687.039 L167.92,697.529 L170.426,707.823 L172.932,717.911 L175.439,727.783 L177.945,737.429 L180.451,746.839 L182.957,756.005 L185.464,764.917 L187.97,773.565 L190.476,781.943 L192.982,790.041 L195.489,797.851 L197.995,805.366 L200.501,812.578 L203.007,819.48 L205.514,826.065 L208.02,832.327 L210.526,838.259 L213.033,843.856 L215.539,849.111 L218.045,854.021 L220.551,858.579 L223.058,862.781 L225.564,866.624 L228.07,870.103 L230.576,873.215 L233.083,875.957 L235.589,878.326 L238.095,880.319 L240.601,881.936 L243.108,883.174 L245.614,884.031 L248.12,884.508 L250.627,884.604 L253.133,884.317 L255.639,883.65 L258.145,882.602 L260.652,881.175 L263.158,879.37 L265.664,877.188 L268.17,874.632 L270.677,871.705 L273.183,868.409 L275.689,864.748 L278.195,860.725 L280.702,856.344 L283.208,851.61 L285.714,846.527 L288.221,841.1 L290.727,835.335 L293.233,829.237 L295.739,822.813 L298.246,816.068 L300.752,809.01 L303.258,801.646 L305.764,793.983 L308.271,786.028 L310.777,777.789 L313.283,769.274 L315.789,760.493 L318.296,751.453 L320.802,742.164 L323.308,732.635 L325.815,722.875 L328.321,712.893 L330.827,702.701 L333.333,692.308 L335.84,681.724 L338.346,670.959 L340.852,660.025 L343.358,648.933 L345.865,637.692 L348.371,626.316 L350.877,614.813 L353.384,603.197 L355.89,591.479 L358.396,579.67 L360.902,567.782 L363.409,555.826 L365.915,543.816 L368.421,531.761 L370.927,519.676 L373.434,507.57 L375.94,495.458 L378.446,483.349 L380.952,471.258 L383.459,459.194 L385.965,447.172 L388.471,435.201 L390.977,423.295 L393.484,411.465 L395.99,399.723 L398.496,388.08 L401.002,376.549 L403.509,365.139 L406.015,353.864 L408.521,342.733 L411.028,331.759 L413.534,320.951 L416.04,310.321 L418.546,299.879 L421.053,289.635 L423.559,279.6 L426.065,269.784 L428.571,260.196 L431.078,250.846 L433.584,241.743 L436.09,232.896 L438.596,224.314 L441.103,216.006 L443.609,207.979 L446.115,200.242 L448.622,192.802 L451.128,185.667 L453.634,178.844 L456.14,172.339 L458.647,166.159 L461.153,160.31 L463.659,154.798 L466.165,149.629 L468.672,144.807 L471.178,140.337 L473.684,136.224 L476.19,132.472 L478.697,129.084 L481.203,126.065 L483.709,123.416 L486.216,121.141 L488.722,119.241 L491.228,117.719 L493.734,116.576 L496.241,115.814 L498.747,115.432 L501.253,115.432 L503.759,115.814 L506.266,116.576 L508.772,117.719 L511.278,119.241 L513.784,121.141 L516.291,123.416 L518.797,126.065 L521.303,129.084 L523.809,132.472 L526.316,136.224 L528.822,140.337 L531.328,144.807 L533.835,149.629 L536.341,154.798 L538.847,160.31 L541.353,166.159 L543.86,172.339 L546.366,178.844 L548.872,185.667 L551.378,192.802 L553.885,200.242 L556.391,207.979 L558.897,216.006 L561.404,224.314 L563.91,232.896 L566.416,241.743 L568.922,250.846 L571.429,260.196 L573.935,269.784 L576.441,279.6 L578.947,289.635 L581.454,299.879 L583.96,310.321 L586.466,320.951 L588.972,331.759 L591.479,342.733 L593.985,353.864 L596.491,365.139 L598.997,376.549 L601.504,388.08 L604.01,399.723 L606.516,411.465 L609.023,423.295 L611.529,435.201 L614.035,447.172 L616.541,459.194 L619.048,471.258 L621.554,483.349 L624.06,495.458 L626.566,507.57 L629.073,519.676 L631.579,531.761 L634.085,543.816 L636.591,555.826 L639.098,567.782 L641.604,579.67 L644.11,591.479 L646.616,603.197 L649.123,614.813 L651.629,626.316 L654.135,637.692 L656.642,648.933 L659.148,660.025 L661.654,670.959 L664.16,681.724 L666.667,692.308 L669.173,702.701 L671.679,712.893 L674.186,722.875 L676.692,732.635 L679.198,742.164 L681.704,751.453 L684.211,760.493 L686.717,769.274 L689.223,777.789 L691.729,786.028 L694.236,793.983 L696.742,801.646 L699.248,809.01 L701.754,816.068 L704.261,822.813 L706.767,829.237 L709.273,835.335 L711.779,841.1 L714.286,846.527 L716.792,851.61 L719.298,856.344 L721.804,860.725 L724.311,864.748 L726.817,868.409 L729.323,871.705 L731.83,874.632 L734.336,877.188 L736.842,879.37 L739.348,881.175 L741.855,882.602 L744.361,883.65 L746.867,884.317 L749.373,884.604 L751.88,884.508 L754.386,884.031 L756.892,883.174 L759.399,881.936 L761.905,880.319 L764.411,878.326 L766.917,875.957 L769.424,873.215 L771.93,870.103 L774.436,866.624 L776.942,862.781 L779.449,858.579 L781.955,854.021 L784.461,849.111 L786.967,843.856 L789.474,838.259 L791.98,832.327 L794.486,826.065 L796.992,819.48 L799.499,812.578 L802.005,805.366 L804.511,797.851 L807.018,790.041 L809.524,781.943 L812.03,773.565 L814.536,764.917 L817.043,756.005 L819.549,746.839 L822.055,737.429 L824.561,727.783 L827.068,717.911 L829.574,707.823 L832.08,697.529 L834.587,687.039 L837.093,676.363 L839.599,665.513 L842.105,654.498 L844.611,643.33 L847.118,632.02 L849.624,620.579 L852.13,609.019 L854.637,597.35 L857.143,585.585 L859.649,573.735 L862.155,561.812 L864.662,549.827 L867.168,537.793 L869.674,525.722 L872.181,513.625 L874.687,501.514 L877.193,489.402 L879.699,477.301 L882.206,465.222 L884.712,453.177 L887.218,441.179 L889.724,429.24 L892.231,417.37 L894.737,405.582 L897.243,393.889 L899.749,382.3 L902.256,370.828 L904.762,359.484 L907.268,348.28 L909.774,337.226 L912.281,326.333 L914.787,315.613 L917.293,305.076 L919.799,294.732 L922.306,284.591 L924.812,274.664 L927.318,264.961 L929.825,255.491 L932.331,246.263 L934.837,237.287 L937.343,228.572 L939.85,220.125 L942.356,211.957 L944.862,204.074 L947.368,196.484 L949.875,189.196 L952.381,182.216 L954.887,175.551 L957.394,169.208 L959.9,163.193 L962.406,157.512 L964.912,152.17 L967.418,147.174 L969.925,142.528 L972.431,138.236 L974.937,134.303 L977.444,130.732 L979.95,127.528 L982.456,124.694 L984.962,122.231 L987.469,120.144 L989.975,118.433 L992.481,117.1 L994.987,116.147 L997.494,115.575 L1000,115.385"/><line stroke="dimgray" stroke-width="1" opacity="1" x1="0" y1="1000" x2="1000" y2="1000"/><line stroke="dimgray" stroke-width="1" opacity="1" x1="0" y1="1000" x2="0" y2="1006"/><text fill="dimgray" fill-opacity="1" x="0" y="1008" font-size="12" text-anchor="middle" dominant-baseline="hanging">-6.283</text><line stroke="dimgray" stroke-width="1" opacity="1" x1="250" y1="1000" x2="250" y2="1006"/><text fill="dimgray" fill-opacity="1" x="250" y="1008" font-size="12" text-anchor="middle" dominant-baseline="hanging">-3.142</text><line stroke="dimgray" stroke-width="1" opacity="1" x1="500" y1="1000" x2="500" y2="1006"/><text fill="dimgray" fill-opacity="1" x="500" y="1008" font-size="12" text-anchor="middle" dominant-baseline="hanging">0</text><line stroke="dimgray" stroke-width="1" opacity="1" x1="750" y1="1000" x2="750" y2="1006"/><text fill="dimgray" fill-opacity="1" x="750" y="1008" font-size="12" text-anchor="middle" dominant-baseline="hanging">3.142</text><line stroke="dimgray" stroke-width="1" opacity="1" x1="1000" y1="1000" x2="1000" y2="1006"/><text fill="dimgray" fill-opacity="1" x="1000" y="1008" font-size="12" text-anchor="middle" dominant-baseline="hanging">6.283</text><line stroke="dimgray" stroke-width="1" opacity="1" x1="0" y1="1000" x2="0" y2="0"/><line stroke="dimgray" stroke-width="1" opacity="1" x1="0" y1="1000" x2="-6" y2="1000"/><text fill="dimgray" fill-opacity="1" x="-10" y="1000" font-size="12" text-anchor="end" dominant-baseline="central">-1.3</text><line stroke="dimgray" stroke-width="1" opacity="1" x1="0" y1="750" x2="-6" y2="750"/><text fill="dimgray" fill-opacity="1" x="-10" y="750" font-size="12" text-anchor="end" dominant-baseline="central">-0.65</text><line stroke="dimgray" stroke-width="1" opacity="1" x1="0" y1="500" x2="-6" y2="500"/><text fill="dimgray" fill-opacity="1" x="-10" y="500" font-size="12" text-anchor="end" dominant-baseline="central">0</text><line stroke="dimgray" stroke-width="1" opacity="1" x1="0" y1="250" x2="-6" y2="250"/><text fill="dimgray" fill-opacity="1" x="-10" y="250" font-size="12" text-anchor="end" dominant-baseline="central">0.65</text><line stroke="dimgray" stroke-width="1" opacity="1" x1="0" y1="0" x2="-6" y2="0"/><text fill="dimgray" fill-opacity="1" x="-10" y="0" font-size="12" text-anchor="end" dominant-baseline="central">1.3</text><text fill="black" fill-opacity="1" x="500" y="-32" font-size="22" text-anchor="middle" dominant-baseline="hanging">sin(x) and cos(x)</text></svg>