<svg xmlns="http://www.w3.org/2000/svg" viewBox="-46,-38 1066,1058"><rect fill="white" x="-46" y="-38" width="1066" height="1058"/><line stroke="lightgray" stroke-width="1" opacity="1" x1="0" y1="0" x2="0" y2="1000"/><line stroke="lightgray" stroke-width="1" opacity="1" x1="250" y1="0" x2="250" y2="1000"/><line stroke="lightgray" stroke-width="1" opacity="1" x1="500" y1="0" x2="500" y2="1000"/><line stroke="lightgray" stroke-width="1" opacity="1" x1="750" y1="0" x2="750" y2="1000"/><line stroke="lightgray" stroke-width="1" opacity="1" x1="1000" y1="0" x2="1000" y2="1000"/><line stroke="lightgray" stroke-width="1" opacity="1" x1="0" y1="1000" x2="1000" y2="1000"/><line stroke="lightgray" stroke-width="1" opacity="1" x1="0" y1="750" x2="1000" y2="750"/><line stroke="lightgray" stroke-width="1" opacity="1" x1="0" y1="500" x2="1000" y2="500"/><line stroke="lightgray" stroke-width="1" opacity="1" x1="0" y1="250" x2="1000" y2="250"/><line stroke="lightgray" stroke-width="1" opacity="1" x1="0" y1="0" x2="1000" y2="0"/><path stroke="steelblue" stroke-width="1" opacity="1" fill-opacity="0" d="M0,-9.49909e+07 L2.5063,-8.40391e+07 L5.0125,-7.43956e+07 L7.5188,-6.58993e+07 L10.0251,-5.84093e+07 L12.5313,-5.18024e+07 L15.0376,-4.59711e+07 L17.5439,-4.08214e+07 L20.0501,-3.62709e+07 L22.5564,-3.22474e+07 L25.0627,-2.86879e+07 L27.5689,-2.55371e+07 L30.0752,-2.27463e+07 L32.5815,-2.02729e+07 L35.0877,-1.80796e+07 L37.594,-1.61335e+07 L40.1003,-1.44058e+07 L42.6065,-1.2871e+07 L45.1128,-1.15068e+07 L47.619,-1.02935e+07 L50.1253,-9.2138e+06 L52.6316,-8.25243e+06 L55.1378,-7.39592e+06 L57.6441,-6.63238e+06 L60.1504,-5.95132e+06 L62.6566,-5.34348e+06 L65.1629,-4.80067e+06 L67.6692,-4.31565e+06 L70.1754,-3.88202e+06 L72.6817,-3.4941e+06 L75.188,-3.14688e+06 L77.6942,-2.8359e+06 L80.2005,-2.55723e+06 L82.7068,-2.30735e+06 L85.213,-2.08317e+06 L87.7193,-1.88192e+06 L90.2256,-1.70115e+06 L92.7318,-1.53869e+06 L95.2381,-1.3926e+06 L97.7444,-1.26115e+06 L100.251,-1.14281e+06 L102.757,-1.0362e+06 L105.263,-940117 L107.769,-853461 L110.276,-775266 L112.782,-704664 L115.288,-640883 L117.794,-583229 L120.301,-531084 L122.807,-483895 L125.313,-441167 L127.82,-402455 L130.326,-367363 L132.832,-335533 L135.338,-306646 L137.845,-280415 L140.351,-256581 L142.857,-234915 L145.363,-215207 L147.87,-197270 L150.376,-180936 L152.882,-166054 L155.388,-152486 L157.895,-140109 L160.401,-128813 L162.907,-118498 L165.413,-109072 L167.92,-100455 L170.426,-92573 L172.932,-85358.7 L175.439,-78752.1 L177.945,-72698.7 L180.451,-67149.1 L182.957,-62058.4 L185.464,-57386.3 L187.97,-53095.8 L190.476,-49153.7 L192.982,-45529.6 L195.489,-42196.1 L197.995,-39128.2 L200.501,-36303.2 L203.007,-33700.4 L205.514,-31301 L208.02,-29088 L210.526,-27045.8 L213.033,-25160.1 L215.539,-23418 L218.045,-21807.8 L220.551,-20318.6 L223.058,-18940.6 L225.564,-17664.8 L228.07,-16483 L230.576,-15387.8 L233.083,-14372.1 L235.589,-13429.8 L238.095,-12555.1 L240.601,-11742.7 L243.108,-10987.7 L245.614,-10285.9 L248.12,-9632.95 L250.627,-9025.29 L253.133,-8459.45 L255.639,-7932.28 L258.145,-7440.88 L260.652,-6982.6 L263.158,-6554.99 L265.664,-6155.79 L268.17,-5782.93 L270.677,-5434.5 L273.183,-5108.73 L275.689,-4803.99 L278.195,-4518.8 L280.702,-4251.77 L283.208,-4001.61 L285.714,-3767.15 L288.221,-3547.3 L290.727,-3341.05 L293.233,-3147.47 L295.739,-2965.69 L298.246,-2794.91 L300.752,-2634.39 L303.258,-2483.46 L305.764,-2341.46 L308.271,-2207.82 L310.777,-2081.97 L313.283,-1963.43 L315.789,-1851.71 L318.296,-1746.37 L320.802,-1647.01 L323.308,-1553.25 L325.815,-1464.74 L328.321,-1381.14 L330.827,-1302.16 L333.333,-1227.51 L335.84,-1156.92 L338.346,-1090.15 L340.852,-1026.97 L343.358,-967.154 L345.865,-910.512 L348.371,-856.854 L350.877,-806.006 L353.384,-757.803 L355.89,-712.093 L358.396,-668.734 L360.902,-627.591 L363.409,-588.541 L365.915,-551.465 L368.421,-516.255 L370.927,-482.808 L373.434,-451.028 L375.94,-420.825 L378.446,-392.114 L380.952,-364.817 L383.459,-338.858 L385.965,-314.168 L388.471,-290.683 L390.977,-268.34 L393.484,-247.082 L395.99,-226.854 L398.496,-207.606 L401.002,-189.29 L403.509,-171.861 L406.015,-155.276 L408.521,-139.496 L411.028,-124.484 L413.534,-110.205 L416.04,-96.6248 L418.546,-83.7132 L421.053,-71.4409 L423.559,-59.7804 L426.065,-48.706 L428.571,-38.1934 L431.078,-28.2198 L433.584,-18.7638 L436.09,-9.8054 L438.596,-1.3258 L441.103,6.6929 L443.609,14.267 L446.115,21.4122 L448.622,28.1429 L451.128,34.4728 L453.634,40.4143 L456.14,45.9795 L458.647,51.1791 L461.153,56.0234 L463.659,60.5218 L466.165,64.683 L468.672,68.515 L471.178,72.0252 L473.684,75.2201 L476.19,78.1058 L478.697,80.6879 L481.203,82.971 L483.709,84.9596 L486.216,86.6573 L488.722,88.0672 L491.228,89.192 L493.734,90.0339 L496.241,90.5942 L498.747,90.8741 L501.253,90.8741 L503.759,90.5942 L506.266,90.0339 L508.772,89.192 L511.278,88.0672 L513.784,86.6573 L516.291,84.9596 L518.797,82.971 L521.303,80.6879 L523.809,78.1058 L526.316,75.2201 L528.822,72.0252 L531.328,68.515 L533.835,64.683 L536.341,60.5218 L538.847,56.0234 L541.353,51.1791 L543.86,45.9795 L546.366,40.4143 L548.872,34.4728 L551.378,28.1429 L553.885,21.4122 L556.391,14.267 L558.897,6.6929 L561.404,-1.3258 L563.91,-9.8054 L566.416,-18.7638 L568.922,-28.2198 L571.429,-38.1934 L573.935,-48.706 L576.441,-59.7804 L578.947,-71.4409 L581.454,-83.7132 L583.96,-96.6248 L586.466,-110.205 L588.972,-124.484 L591.479,-139.496 L593.985,-155.276 L596.491,-171.861 L598.997,-189.29 L601.504,-207.606 L604.01,-226.854 L606.516,-247.082 L609.023,-268.34 L611.529,-290.683 L614.035,-314.168 L616.541,-338.858 L619.048,-364.817 L621.554,-392.114 L624.06,-420.825 L626.566,-451.028 L629.073,-482.808 L631.579,-516.255 L634.085,-551.465 L636.591,-588.541 L639.098,-627.591 L641.604,-668.734 L644.11,-712.093 L646.616,-757.803 L649.123,-806.006 L651.629,-856.854 L654.135,-910.512 L656.642,-967.154 L659.148,-1026.97 L661.654,-1090.15 L664.16,-1156.92 L666.667,-1227.51 L669.173,-1302.16 L671.679,-1381.14 L674.186,-1464.74 L676.692,-1553.25 L679.198,-1647.01 L681.704,-1746.37 L684.211,-1851.71 L686.717,-1963.43 L689.223,-2081.97 L691.729,-2207.82 L694.236,-2341.46 L696.742,-2483.46 L699.248,-2634.39 L701.754,-2794.91 L704.261,-2965.69 L706.767,-3147.47 L709.273,-3341.05 L711.779,-3547.3 L714.286,-3767.15 L716.792,-4001.61 L719.298,-4251.77 L721.804,-4518.8 L724.311,-4803.99 L726.817,-5108.73 L729.323,-5434.5 L731.83,-5782.93 L734.336,-6155.79 L736.842,-6554.99 L739.348,-6982.6 L741.855,-7440.88 L744.361,-7932.28 L746.867,-8459.45 L749.373,-9025.29 L751.88,-9632.95 L754.386,-10285.9 L756.892,-10987.7 L759.399,-11742.7 L761.905,-12555.1 L764.411,-13429.8 L766.917,-14372.1 L769.424,-15387.8 L771.93,-16483 L774.436,-17664.8 L776.942,-18940.6 L779.449,-20318.6 L781.955,-21807.8 L784.461,-23418 L786.967,-25160.1 L789.474,-27045.8 L791.98,-29088 L794.486,-31301 L796.992,-33700.4 L799.499,-36303.2 L802.005,-39128.2 L804.511,-42196.1 L807.018,-45529.6 L809.524,-49153.7 L812.03,-53095.8 L814.536,-57386.3 L817.043,-62058.4 L819.549,-67149.1 L822.055,-72698.7 L824.561,-78752.1 L827.068,-85358.7 L829.574,-92573 L832.08,-100455 L834.587,-109072 L837.093,-118498 L839.599,-128813 L842.105,-140109 L844.611,-152486 L847.118,-166054 L849.624,-180936 L852.13,-197270 L854.637,-215207 L857.143,-234915 L859.649,-256581 L862.155,-280415 L864.662,-306646 L867.168,-335533 L869.674,-367363 L872.181,-402455 L874.687,-441167 L877.193,-483895 L879.699,-531084 L882.206,-583229 L884.712,-640883 L887.218,-704664 L889.724,-775266 L892.231,-853461 L894.737,-940117 L897.243,-1.0362e+06 L899.749,-1.14281e+06 L902.256,-1.26115e+06 L904.762,-1.3926e+06 L907.268,-1.53869e+06 L909.774,-1.70115e+06 L912.281,-1.88192e+06 L914.787,-2.08317e+06 L917.293,-2.30735e+06 L919.799,-2.55723e+06 L922.306,-2.8359e+06 L924.812,-3.14688e+06 L927.318,-3.4941e+06 L929.825,-3.88202e+06 L932.331,-4.31565e+06 L934.837,-4.80067e+06 L937.343,-5.34348e+06 L939.85,-5.95132e+06 L942.356,-6.63238e+06 L944.862,-7.39592e+06 L947.368,-8.25243e+06 L949.875,-9.2138e+06 L952.381,-1.02935e+07 L954.887,-1.15068e+07 L957.394,-1.2871e+07 L959.9,-1.44058e+07 L962.406,-1.61335e+07 L964.912,-1.80796e+07 L967.418,-2.02729e+07 L969.925,-2.27463e+07 L972.431,-2.55371e+07 L974.937,-2.86879e+07 L977.444,-3.22474e+07 L979.95,-3.62709e+07 L982.456,-4.08214e+07 L984.962,-4.59711e+07 L987.469,-5.18024e+07 L989.975,-5.84093e+07 L992.481,-6.58993e+07 L994.987,-7.43956e+07 L997.494,-8.40391e+07 L1000,-9.49909e+07"/><path stroke="coral" stroke-width="1" opacity="1" fill-opacity="0" d="M0,6.64941e+08 M2.5063,5.85329e+08 M5.0125,5.15553e+08 M7.5188,4.54363e+08 M10.0251,4.00671e+08 M12.5313,3.53533e+08 M15.0376,3.12124e+08 M17.5439,2.75728e+08 M20.0501,2.43719e+08 M22.5564,2.15553e+08 M25.0627,1.90754e+08 M27.5689,1.68907e+08 M30.0752,1.49651e+08 M32.5815,1.32667e+08 M35.0877,1.1768e+08 M37.594,1.04448e+08 M40.1003,9.27572e+07 M42.6065,8.24236e+07 M45.1128,7.32841e+07 M47.619,6.51961e+07 M50.1253,5.80348e+07 L52.6316,5.16902e+07 L55.1378,4.60662e+07 L57.6441,4.10781e+07 L60.1504,3.66515e+07 L62.6566,3.2721e+07 L65.1629,2.9229e+07 L67.6692,2.61249e+07 L70.1754,2.3364e+07 L72.6817,2.09071e+07 L75.188,1.87195e+07 L77.6942,1.67704e+07 L80.2005,1.50331e+07 L82.7068,1.34835e+07 L85.213,1.21007e+07 L87.7193,1.0866e+07 L90.2256,9.76292e+06 L92.7318,8.77691e+06 L95.2381,7.89504e+06 L97.7444,7.10589e+06 L100.251,6.39931e+06 L102.757,5.76632e+06 L105.263,5.19894e+06 L107.769,4.69009e+06 L110.276,4.23348e+06 L112.782,3.82353e+06 L115.288,3.45525e+06 L117.794,3.12425e+06 L120.301,2.82658e+06 L122.807,2.55873e+06 L125.313,2.3176e+06 L127.82,2.10039e+06 L130.326,1.90463e+06 L132.832,1.72811e+06 L135.338,1.56884e+06 L137.845,1.42506e+06 L140.351,1.2952e+06 L142.857,1.17785e+06 L145.363,1.07174e+06 L147.87,975742 L150.376,888851 L152.882,810158 L155.388,738853 L157.895,674207 L160.401,615567 L162.907,562346 L165.413,514018 L167.92,470111 L170.426,430197 L172.932,393896 L175.439,360863 L177.945,330787 L180.451,303389 L182.957,278419 L185.464,255648 L187.97,234873 L190.476,215908 L192.982,198587 L195.489,182759 L197.995,168288 L200.501,155051 L203.007,142936 L205.514,131842 L208.02,121679 L210.526,112363 L213.033,103819 L215.539,95979 L218.045,88782 L220.551,82171.5 L223.058,76096.6 L225.564,70511.2 L228.07,65373.2 L230.576,60644.4 L233.083,56290.1 L235.589,52278.5 L238.095,48580.8 L240.601,45170.8 L243.108,42024.5 L245.614,39120.1 L248.12,36437.7 L250.627,33959.1 L253.133,31667.7 L255.639,29548.2 L258.145,27586.9 L260.652,25771.1 L263.158,24089 L265.664,22530.2 L268.17,21085 L270.677,19744.2 L273.183,18500 L275.689,17344.6 L278.195,16271.3 L280.702,15273.8 L283.208,14346.2 L285.714,13483.3 L288.221,12680.1 L290.727,11932.2 L293.233,11235.5 L295.739,10586.1 L298.246,9980.51 L300.752,9415.56 L303.258,8888.24 L305.764,8395.84 L308.271,7935.81 L310.777,7505.83 L313.283,7103.76 L315.789,6727.61 L318.296,6375.53 L320.802,6045.85 L323.308,5736.99 L325.815,5447.5 L328.321,5176.05 L330.827,4921.39 L333.333,4682.37 L335.84,4457.94 L338.346,4247.09 L340.852,4048.92 L343.358,3862.58 L345.865,3687.28 L348.371,3522.29 L350.877,3366.92 L353.384,3220.56 L355.89,3082.61 L358.396,2952.53 L360.902,2829.81 L363.409,2713.97 L365.915,2604.58 L368.421,2501.24 L370.927,2403.54 L373.434,2311.15 L375.94,2223.73 L378.446,2140.97 L380.952,2062.57 L383.459,1988.28 L385.965,1917.84 L388.471,1851 L390.977,1787.56 L393.484,1727.31 L395.99,1670.04 L398.496,1615.59 L401.002,1563.78 L403.509,1514.46 L406.015,1467.47 L408.521,1422.67 L411.028,1379.94 L413.534,1339.15 L416.04,1300.18 L418.546,1262.93 L421.053,1227.29 L423.559,1193.16 L426.065,1160.46 L428.571,1129.1 L431.078,1099 L433.584,1070.08 L436.09,1042.27 L438.596,1015.49 L441.103,989.697 L443.609,964.813 L446.115,940.785 L448.622,917.556 L451.128,895.074 L453.634,873.288 L456.14,852.15 L458.647,831.614 L461.153,811.636 L463.659,792.175 L466.165,773.188 L468.672,754.639 L471.178,736.487 L473.684,718.699 L476.19,701.237 L478.697,684.069 L481.203,667.161 L483.709,650.48 L486.216,633.994 L488.722,617.674 L491.228,601.487 L493.734,585.404 L496.241,569.395 L498.747,553.43 L501.253,537.48 L503.759,521.514 L506.266,505.505 L508.772,489.422 L511.278,473.236 L513.784,456.915 L516.291,440.429 L518.797,423.748 L521.303,406.84 L523.809,389.672 L526.316,372.21 L528.822,354.422 L531.328,336.271 L533.835,317.721 L536.341,298.734 L538.847,279.273 L541.353,259.295 L543.86,238.759 L546.366,217.621 L548.872,195.835 L551.378,173.353 L553.885,150.124 L556.391,126.096 L558.897,101.213 L561.404,75.4153 L563.91,48.643 L566.416,20.8305 L568.922,-8.0908 L571.429,-38.1934 L573.935,-69.5537 L576.441,-102.253 L578.947,-136.377 L581.454,-172.018 L583.96,-209.27 L586.466,-248.238 L588.972,-289.031 L591.479,-331.763 L593.985,-376.559 L596.491,-423.55 L598.997,-472.875 L601.504,-524.684 L604.01,-579.135 L606.516,-636.398 L609.023,-696.653 L611.529,-760.094 L614.035,-826.926 L616.541,-897.371 L619.048,-971.664 L621.554,-1050.06 L624.06,-1132.82 L626.566,-1220.24 L629.073,-1312.63 L631.579,-1410.33 L634.085,-1513.68 L636.591,-1623.06 L639.098,-1738.9 L641.604,-1861.62 L644.11,-1991.7 L646.616,-2129.65 L649.123,-2276.01 L651.629,-2431.38 L654.135,-2596.37 L656.642,-2771.67 L659.148,-2958.01 L661.654,-3156.18 L664.16,-3367.03 L666.667,-3591.47 L669.173,-3830.48 L671.679,-4085.14 L674.186,-4356.6 L676.692,-4646.08 L679.198,-4954.94 L681.704,-5284.62 L684.211,-5636.7 L686.717,-6012.85 L689.223,-6414.93 L691.729,-6844.9 L694.236,-7304.93 L696.742,-7797.34 L699.248,-8324.65 L701.754,-8889.61 L704.261,-9495.18 L706.767,-10144.6 L709.273,-10841.3 L711.779,-11589.2 L714.286,-12392.4 L716.792,-13255.3 L719.298,-14182.9 L721.804,-15180.4 L724.311,-16253.7 L726.817,-17409 L729.323,-18653.3 L731.83,-19994 L734.336,-21439.3 L736.842,-22998.1 L739.348,-24680.1 L741.855,-26496 L744.361,-28457.3 L746.867,-30576.8 L749.373,-32868.2 L751.88,-35346.8 L754.386,-38029.2 L756.892,-40933.6 L759.399,-44079.9 L761.905,-47489.9 L764.411,-51187.5 L766.917,-55199.2 L769.424,-59553.5 L771.93,-64282.3 L774.436,-69420.3 L776.942,-75005.7 L779.449,-81080.6 L781.955,-87691.1 L784.461,-94888.1 L786.967,-102728 L789.474,-111272 L791.98,-120588 L794.486,-130751 L796.992,-141845 L799.499,-153960 L802.005,-167197 L804.511,-181669 L807.018,-197496 L809.524,-214817 L812.03,-233782 L814.536,-254557 L817.043,-277328 L819.549,-302298 L822.055,-329696 L824.561,-359772 L827.068,-392805 L829.574,-429106 L832.08,-469020 L834.587,-512927 L837.093,-561255 L839.599,-614476 L842.105,-673116 L844.611,-737762 L847.118,-809067 L849.624,-887760 L852.13,-974651 L854.637,-1.07065e+06 L857.143,-1.17676e+06 L859.649,-1.29411e+06 L862.155,-1.42397e+06 L864.662,-1.56775e+06 L867.168,-1.72702e+06 L869.674,-1.90354e+06 L872.181,-2.0993e+06 L874.687,-2.31651e+06 L877.193,-2.55764e+06 L879.699,-2.82549e+06 L882.206,-3.12316e+06 L884.712,-3.45416e+06 L887.218,-3.82243e+06 L889.724,-4.23239e+06 L892.231,-4.689e+06 L894.737,-5.19785e+06 L897.243,-5.76523e+06 L899.749,-6.39822e+06 L902.256,-7.1048e+06 L904.762,-7.89395e+06 L907.268,-8.77582e+06 L909.774,-9.76183e+06 L912.281,-1.08649e+07 L914.787,-1.20996e+07 L917.293,-1.34824e+07 L919.799,-1.5032e+07 L922.306,-1.67693e+07 L924.812,-1.87184e+07 L927.318,-2.0906e+07 L929.825,-2.3363e+07 L932.331,-2.61238e+07 L934.837,-2.92279e+07 L937.343,-3.27199e+07 L939.85,-3.66504e+07 L942.356,-4.1077e+07 L944.862,-4.60651e+07 L947.368,-5.16892e+07 L949.875,-5.80337e+07 M952.381,-6.5195e+07 M954.887,-7.3283e+07 M957.394,-8.24225e+07 M959.9,-9.27561e+07 M962.406,-1.04446e+08 M964.912,-1.17679e+08 M967.418,-1.32666e+08 M969.925,-1.49649e+08 M972.431,-1.68906e+08 M974.937,-1.90753e+08 M977.444,-2.15552e+08 M979.95,-2.43718e+08 M982.456,-2.75727e+08 M984.962,-3.12123e+08 M987.469,-3.53532e+08 M989.975,-4.0067e+08 M992.481,-4.54362e+08 M994.987,-5.15552e+08 M997.494,-5.85328e+08 M1000,-6.6494e+08"/><line stroke="dimgray" stroke-width="1" opacity="1" x1="0" y1="1000" x2="1000" y2="1000"/><line stroke="dimgray" stroke-width="1" opacity="1" x1="0" y1="1000" x2="0" y2="1006"/><text fill="dimgray" fill-opacity="1" x="0" y="1008" font-size="12" text-anchor="middle" dominant-baseline="hanging">-3.5</text><line stroke="dimgray" stroke-width="1" opacity="1" x1="250" y1="1000" x2="250" y2="1006"/><text fill="dimgray" fill-opacity="1" x="250" y="1008" font-size="12" text-anchor="middle" dominant-baseline="hanging">-1.75</text><line stroke="dimgray" stroke-width="1" opacity="1" x1="500" y1="1000" x2="500" y2="1006"/><text fill="dimgray" fill-opacity="1" x="500" y="1008" font-size="12" text-anchor="middle" dominant-baseline="hanging">0</text><line stroke="dimgray" stroke-width="1" opacity="1" x1="750" y1="1000" x2="750" y2="1006"/><text fill="dimgray" fill-opacity="1" x="750" y="1008" font-size="12" text-anchor="middle" dominant-baseline="hanging">1.75</text><line stroke="dimgray" stroke-width="1" opacity="1" x1="1000" y1="1000" x2="1000" y2="1006"/><text fill="dimgray" fill-opacity="1" x="1000" y="1008" font-size="12" text-anchor="middle" dominant-baseline="hanging">3.5</text><line stroke="dimgray" stroke-width="1" opacity="1" x1="0" y1="1000" x2="0" y2="0"/><line stroke="dimgray" stroke-width="1" opacity="1" x1="0" y1="1000" x2="-6" y2="1000"/><text fill="dimgray" fill-opacity="1" x="-10" y="1000" font-size="12" text-anchor="end" dominant-baseline="central">-1</text><line stroke="dimgray" stroke-width="1" opacity="1" x1="0" y1="750" x2="-6" y2="750"/><text fill="dimgray" fill-opacity="1" x="-10" y="750" font-size="12" text-anchor="end" dominant-baseline="central">-0.45</text><line stroke="dimgray" stroke-width="1" opacity="1" x1="0" y1="500" x2="-6" y2="500"/><text fill="dimgray" fill-opacity="1" x="-10" y="500" font-size="12" text-anchor="end" dominant-baseline="central">0.1</text><line stroke="dimgray" stroke-width="1" opacity="1" x1="0" y1="250" x2="-6" y2="250"/><text fill="dimgray" fill-opacity="1" x="-10" y="250" font-size="12" text-anchor="end" dominant-baseline="central">0.65</text><line stroke="dimgray" stroke-width="1" opacity="1" x1="0" y1="0" x2="-6" y2="0"/><text fill="dimgray" fill-opacity="1" x="-10" y="0" font-size="12" text-anchor="end" dominant-baseline="central">1.2</text><text fill="black" fill-opacity="1" x="500" y="-32" font-size="22" text-anchor="middle" dominant-baseline="hanging">Gaussian and its derivative</text></svg>