<svg xmlns="http://www.w3.org/2000/svg" viewBox="0,0 1000,1000"><rect fill="white" x="0" y="0" width="1000" height="1000"/><polyline stroke="lightgray" stroke-width="1" opacity="1" points="500,432 558.89,466 558.89,534 500,568 441.11,534 441.11,466 500,432"/><polyline stroke="lightgray" stroke-width="1" opacity="1" points="500,364 617.779,432 617.779,568 500,636 382.221,568 382.221,432 500,364"/><polyline stroke="lightgray" stroke-width="1" opacity="1" points="500,296 676.669,398 676.669,602 500,704 323.331,602 323.331,398 500,296"/><polyline stroke="lightgray" stroke-width="1" opacity="1" points="500,228 735.559,364 735.559,636 500,772 264.441,636 264.441,364 500,228"/><polyline stroke="lightgray" stroke-width="1" opacity="1" points="500,160 794.449,330 794.449,670 500,840 205.551,670 205.551,330 500,160"/><line stroke="lightgray" stroke-width="1" opacity="1" x1="500" y1="500" x2="500" y2="160"/><line stroke="lightgray" stroke-width="1" opacity="1" x1="500" y1="500" x2="794.449" y2="330"/><line stroke="lightgray" stroke-width="1" opacity="1" x1="500" y1="500" x2="794.449" y2="670"/><line stroke="lightgray" stroke-width="1" opacity="1" x1="500" y1="500" x2="500" y2="840"/><line stroke="lightgray" stroke-width="1" opacity="1" x1="500" y1="500" x2="205.551" y2="670"/><line stroke="lightgray" stroke-width="1" opacity="1" x1="500" y1="500" x2="205.551" y2="330"/><text fill="dimgray" fill-opacity="0.5" x="506" y="432" font-size="9" text-anchor="start" dominant-baseline="central">18.2</text><text fill="dimgray" fill-opacity="0.5" x="506" y="364" font-size="9" text-anchor="start" dominant-baseline="central">36.4</text><text fill="dimgray" fill-opacity="0.5" x="506" y="296" font-size="9" text-anchor="start" dominant-baseline="central">54.6</text><text fill="dimgray" fill-opacity="0.5" x="506" y="228" font-size="9" text-anchor="start" dominant-baseline="central">72.8</text><text fill="dimgray" fill-opacity="0.5" x="506" y="160" font-size="9" text-anchor="start" dominant-baseline="central">91</text><text fill="dimgray" fill-opacity="1" x="500" y="105" font-size="13" text-anchor="middle" dominant-baseline="alphabetic">Speed</text><text fill="dimgray" fill-opacity="1" x="842.08" y="302.5" font-size="13" text-anchor="start" dominant-baseline="alphabetic">Endurance</text><text fill="dimgray" fill-opacity="1" x="842.08" y="697.5" font-size="13" text-anchor="start" dominant-baseline="hanging">Strength</text><text fill="dimgray" fill-opacity="1" x="500" y="895" font-size="13" text-anchor="middle" dominant-baseline="hanging">Agility</text><text fill="dimgray" fill-opacity="1" x="157.92" y="697.5" font-size="13" text-anchor="end" dominant-baseline="hanging">Reaction</text><text fill="dimgray" fill-opacity="1" x="157.92" y="302.5" font-size="13" text-anchor="end" dominant-baseline="alphabetic">Power</text><polygon fill="steelblue" fill-opacity="0.2" points="500,171.209 732.97,365.495 710.321,621.429 500,840 247.615,645.714 305.858,387.912"/><polyline stroke="steelblue" stroke-width="1" opacity="1" points="500,171.209 732.97,365.495 710.321,621.429 500,840 247.615,645.714 305.858,387.912 500,171.209"/><polygon fill="coral" fill-opacity="0.2" points="500,260.879 775.034,341.209 758.856,649.451 500,761.538 279.972,627.033 215.258,335.604"/><polyline stroke="coral" stroke-width="1" opacity="1" points="500,260.879 775.034,341.209 758.856,649.451 500,761.538 279.972,627.033 215.258,335.604 500,260.879"/><rect fill="steelblue" fill-opacity="1" x="25" y="937" width="12" height="12"/><text fill="dimgray" fill-opacity="1" x="44" y="943" font-size="12" dominant-baseline="central">Team Alpha</text><rect fill="coral" fill-opacity="1" x="25" y="956" width="12" height="12"/><text fill="dimgray" fill-opacity="1" x="44" y="962" font-size="12" dominant-baseline="central">Team Beta</text><text fill="dimgray" fill-opacity="1" x="500" y="20" font-size="22" text-anchor="middle" dominant-baseline="hanging">Athletic Combine — Team Alpha vs Team Beta</text></svg>