<svg xmlns="http://www.w3.org/2000/svg" viewBox="-20,-32 1040,1052"><rect fill="white" x="-20" y="-32" width="1040" height="1052"/><line stroke="lightgray" stroke-width="1" opacity="1" x1="0" y1="0" x2="0" y2="1000"/><line stroke="lightgray" stroke-width="1" opacity="1" x1="250" y1="0" x2="250" y2="1000"/><line stroke="lightgray" stroke-width="1" opacity="1" x1="500" y1="0" x2="500" y2="1000"/><line stroke="lightgray" stroke-width="1" opacity="1" x1="750" y1="0" x2="750" y2="1000"/><line stroke="lightgray" stroke-width="1" opacity="1" x1="1000" y1="0" x2="1000" y2="1000"/><line stroke="lightgray" stroke-width="1" opacity="1" x1="0" y1="1000" x2="1000" y2="1000"/><line stroke="lightgray" stroke-width="1" opacity="1" x1="0" y1="750" x2="1000" y2="750"/><line stroke="lightgray" stroke-width="1" opacity="1" x1="0" y1="500" x2="1000" y2="500"/><line stroke="lightgray" stroke-width="1" opacity="1" x1="0" y1="250" x2="1000" y2="250"/><line stroke="lightgray" stroke-width="1" opacity="1" x1="0" y1="0" x2="1000" y2="0"/><polygon fill="steelblue" fill-opacity="0.55" points="0,907.407 0,907.388 12.5,907.227 25,906.472 37.5,904.572 50,901.83 62.5,898.87 75,895.906 87.5,893.194 100,889.691 112.5,884.794 125,878.821 137.5,868.094 150,848.556 162.5,826.788 175,810.2 187.5,791.715 200,769.878 212.5,757.249 225,755.556 237.5,763.571 250,787.71 262.5,820.562 275,846.99 287.5,863.442 300,873.431 312.5,879.147 325,883.441 337.5,891.12 350,900.2 362.5,905.502 375,907.115 387.5,907.382 400,907.406 412.5,907.407 425,907.407 437.5,907.407 450,907.407 462.5,907.407 475,907.407 487.5,907.407 500,907.407 512.5,907.407 525,907.407 537.5,907.407 550,907.407 562.5,907.407 575,907.407 587.5,907.407 600,907.407 612.5,907.407 625,907.407 637.5,907.407 650,907.407 662.5,907.407 675,907.407 687.5,907.407 700,907.407 712.5,907.407 725,907.407 737.5,907.407 750,907.407 762.5,907.407 775,907.407 787.5,907.407 800,907.407 812.5,907.407 825,907.407 837.5,907.407 850,907.407 862.5,907.407 875,907.407 887.5,907.407 900,907.407 912.5,907.407 925,907.407 937.5,907.407 950,907.407 962.5,907.407 975,907.407 987.5,907.407 1000,907.407 1000,907.407"/><polyline stroke="steelblue" stroke-width="1" opacity="1" fill-opacity="0" points="0,907.388 12.5,907.227 25,906.472 37.5,904.572 50,901.83 62.5,898.87 75,895.906 87.5,893.194 100,889.691 112.5,884.794 125,878.821 137.5,868.094 150,848.556 162.5,826.788 175,810.2 187.5,791.715 200,769.878 212.5,757.249 225,755.556 237.5,763.571 250,787.71 262.5,820.562 275,846.99 287.5,863.442 300,873.431 312.5,879.147 325,883.441 337.5,891.12 350,900.2 362.5,905.502 375,907.115 387.5,907.382 400,907.406 412.5,907.407 425,907.407 437.5,907.407 450,907.407 462.5,907.407 475,907.407 487.5,907.407 500,907.407 512.5,907.407 525,907.407 537.5,907.407 550,907.407 562.5,907.407 575,907.407 587.5,907.407 600,907.407 612.5,907.407 625,907.407 637.5,907.407 650,907.407 662.5,907.407 675,907.407 687.5,907.407 700,907.407 712.5,907.407 725,907.407 737.5,907.407 750,907.407 762.5,907.407 775,907.407 787.5,907.407 800,907.407 812.5,907.407 825,907.407 837.5,907.407 850,907.407 862.5,907.407 875,907.407 887.5,907.407 900,907.407 912.5,907.407 925,907.407 937.5,907.407 950,907.407 962.5,907.407 975,907.407 987.5,907.407 1000,907.407"/><polygon fill="coral" fill-opacity="0.55" points="0,722.222 0,722.219 12.5,722.2 25,722.101 37.5,721.746 50,720.874 62.5,719.472 75,718.152 87.5,717.723 100,718.031 112.5,717.762 125,715.742 137.5,711.859 150,706.318 162.5,698.275 175,685.936 187.5,668.947 200,650.91 212.5,637.317 225,628.672 237.5,618.64 250,603.149 262.5,587.058 275,576.905 287.5,572.48 300,570.37 312.5,570.777 325,576.931 337.5,590.503 350,609.441 362.5,629.384 375,646.486 387.5,658.808 400,666.306 412.5,671.008 425,676.235 437.5,683.986 450,693.504 462.5,702.9 475,710.857 487.5,716.644 500,720.045 512.5,721.57 525,722.076 537.5,722.198 550,722.219 562.5,722.222 575,722.222 587.5,722.222 600,722.222 612.5,722.222 625,722.222 637.5,722.222 650,722.222 662.5,722.222 675,722.222 687.5,722.222 700,722.222 712.5,722.222 725,722.222 737.5,722.222 750,722.222 762.5,722.222 775,722.222 787.5,722.222 800,722.222 812.5,722.222 825,722.222 837.5,722.222 850,722.222 862.5,722.222 875,722.222 887.5,722.222 900,722.222 912.5,722.222 925,722.222 937.5,722.222 950,722.222 962.5,722.222 975,722.222 987.5,722.222 1000,722.222 1000,722.222"/><polyline stroke="coral" stroke-width="1" opacity="1" fill-opacity="0" points="0,722.219 12.5,722.2 25,722.101 37.5,721.746 50,720.874 62.5,719.472 75,718.152 87.5,717.723 100,718.031 112.5,717.762 125,715.742 137.5,711.859 150,706.318 162.5,698.275 175,685.936 187.5,668.947 200,650.91 212.5,637.317 225,628.672 237.5,618.64 250,603.149 262.5,587.058 275,576.905 287.5,572.48 300,570.37 312.5,570.777 325,576.931 337.5,590.503 350,609.441 362.5,629.384 375,646.486 387.5,658.808 400,666.306 412.5,671.008 425,676.235 437.5,683.986 450,693.504 462.5,702.9 475,710.857 487.5,716.644 500,720.045 512.5,721.57 525,722.076 537.5,722.198 550,722.219 562.5,722.222 575,722.222 587.5,722.222 600,722.222 612.5,722.222 625,722.222 637.5,722.222 650,722.222 662.5,722.222 675,722.222 687.5,722.222 700,722.222 712.5,722.222 725,722.222 737.5,722.222 750,722.222 762.5,722.222 775,722.222 787.5,722.222 800,722.222 812.5,722.222 825,722.222 837.5,722.222 850,722.222 862.5,722.222 875,722.222 887.5,722.222 900,722.222 912.5,722.222 925,722.222 937.5,722.222 950,722.222 962.5,722.222 975,722.222 987.5,722.222 1000,722.222"/><polygon fill="seagreen" fill-opacity="0.55" points="0,537.037 0,537.037 12.5,537.037 25,537.037 37.5,537.037 50,537.037 62.5,537.037 75,537.037 87.5,537.037 100,537.037 112.5,537.035 125,537.024 137.5,536.962 150,536.7 162.5,535.909 175,534.187 187.5,531.534 200,528.741 212.5,526.85 225,525.866 237.5,524.145 250,519.254 262.5,509.686 275,495.77 287.5,478.762 300,460.032 312.5,442.132 325,428.325 337.5,418.477 350,408.199 362.5,395.531 375,385.664 387.5,385.185 400,394.347 412.5,408.789 425,425.136 437.5,440.616 450,451.72 462.5,458.198 475,465.094 487.5,476.968 500,492.562 512.5,507.335 525,518.631 537.5,526.519 550,531.759 562.5,534.844 575,536.315 587.5,536.854 600,537.002 612.5,537.032 625,537.037 637.5,537.037 650,537.037 662.5,537.037 675,537.037 687.5,537.037 700,537.037 712.5,537.037 725,537.037 737.5,537.037 750,537.037 762.5,537.037 775,537.037 787.5,537.037 800,537.037 812.5,537.037 825,537.037 837.5,537.037 850,537.037 862.5,537.037 875,537.037 887.5,537.037 900,537.037 912.5,537.037 925,537.037 937.5,537.037 950,537.037 962.5,537.037 975,537.037 987.5,537.037 1000,537.037 1000,537.037"/><polyline stroke="seagreen" stroke-width="1" opacity="1" fill-opacity="0" points="0,537.037 12.5,537.037 25,537.037 37.5,537.037 50,537.037 62.5,537.037 75,537.037 87.5,537.037 100,537.037 112.5,537.035 125,537.024 137.5,536.962 150,536.7 162.5,535.909 175,534.187 187.5,531.534 200,528.741 212.5,526.85 225,525.866 237.5,524.145 250,519.254 262.5,509.686 275,495.77 287.5,478.762 300,460.032 312.5,442.132 325,428.325 337.5,418.477 350,408.199 362.5,395.531 375,385.664 387.5,385.185 400,394.347 412.5,408.789 425,425.136 437.5,440.616 450,451.72 462.5,458.198 475,465.094 487.5,476.968 500,492.562 512.5,507.335 525,518.631 537.5,526.519 550,531.759 562.5,534.844 575,536.315 587.5,536.854 600,537.002 612.5,537.032 625,537.037 637.5,537.037 650,537.037 662.5,537.037 675,537.037 687.5,537.037 700,537.037 712.5,537.037 725,537.037 737.5,537.037 750,537.037 762.5,537.037 775,537.037 787.5,537.037 800,537.037 812.5,537.037 825,537.037 837.5,537.037 850,537.037 862.5,537.037 875,537.037 887.5,537.037 900,537.037 912.5,537.037 925,537.037 937.5,537.037 950,537.037 962.5,537.037 975,537.037 987.5,537.037 1000,537.037"/><polygon fill="tomato" fill-opacity="0.55" points="0,351.852 0,351.852 12.5,351.852 25,351.852 37.5,351.852 50,351.852 62.5,351.852 75,351.852 87.5,351.852 100,351.852 112.5,351.852 125,351.852 137.5,351.852 150,351.851 162.5,351.85 175,351.846 187.5,351.834 200,351.8 212.5,351.714 225,351.521 237.5,351.135 250,350.436 262.5,349.296 275,347.609 287.5,345.336 300,342.527 312.5,339.311 325,335.819 337.5,332.102 350,328.056 362.5,323.459 375,318.104 387.5,311.958 400,305.236 412.5,298.304 425,291.481 437.5,284.86 450,278.222 462.5,271.116 475,263.066 487.5,253.871 500,243.828 512.5,233.723 525,224.515 537.5,216.891 550,211.015 562.5,206.614 575,203.335 587.5,201.059 600,200 612.5,200.59 625,203.277 637.5,208.34 650,215.715 662.5,224.889 675,234.966 687.5,244.979 700,254.339 712.5,263.133 725,271.996 737.5,281.615 750,292.183 762.5,303.19 775,313.671 787.5,322.682 800,329.709 812.5,334.785 825,338.336 837.5,340.9 850,342.893 862.5,344.501 875,345.727 887.5,346.53 900,346.952 912.5,347.158 925,347.379 937.5,347.794 950,348.451 962.5,349.261 975,350.073 987.5,350.756 1000,351.247 1000,351.852"/><polyline stroke="tomato" stroke-width="1" opacity="1" fill-opacity="0" points="0,351.852 12.5,351.852 25,351.852 37.5,351.852 50,351.852 62.5,351.852 75,351.852 87.5,351.852 100,351.852 112.5,351.852 125,351.852 137.5,351.852 150,351.851 162.5,351.85 175,351.846 187.5,351.834 200,351.8 212.5,351.714 225,351.521 237.5,351.135 250,350.436 262.5,349.296 275,347.609 287.5,345.336 300,342.527 312.5,339.311 325,335.819 337.5,332.102 350,328.056 362.5,323.459 375,318.104 387.5,311.958 400,305.236 412.5,298.304 425,291.481 437.5,284.86 450,278.222 462.5,271.116 475,263.066 487.5,253.871 500,243.828 512.5,233.723 525,224.515 537.5,216.891 550,211.015 562.5,206.614 575,203.335 587.5,201.059 600,200 612.5,200.59 625,203.277 637.5,208.34 650,215.715 662.5,224.889 675,234.966 687.5,244.979 700,254.339 712.5,263.133 725,271.996 737.5,281.615 750,292.183 762.5,303.19 775,313.671 787.5,322.682 800,329.709 812.5,334.785 825,338.336 837.5,340.9 850,342.893 862.5,344.501 875,345.727 887.5,346.53 900,346.952 912.5,347.158 925,347.379 937.5,347.794 950,348.451 962.5,349.261 975,350.073 987.5,350.756 1000,351.247"/><polygon fill="mediumpurple" fill-opacity="0.55" points="0,166.667 0,166.666 12.5,166.666 25,166.664 37.5,166.66 50,166.651 62.5,166.631 75,166.591 87.5,166.515 100,166.38 112.5,166.156 125,165.806 137.5,165.296 150,164.603 162.5,163.725 175,162.699 187.5,161.598 200,160.529 212.5,159.612 225,158.952 237.5,158.605 250,158.548 262.5,158.669 275,158.768 287.5,158.582 300,157.825 312.5,156.236 325,153.626 337.5,149.918 350,145.169 362.5,139.565 375,133.388 387.5,126.946 400,120.496 412.5,114.167 425,107.915 437.5,101.538 450,94.7479 462.5,87.2793 475,79.0022 487.5,69.9947 500,60.5522 512.5,51.1352 525,42.2755 537.5,34.474 550,28.116 562.5,23.4187 575,20.4084 587.5,18.9237 600,18.637 612.5,19.0958 625,19.7852 637.5,20.2153 650,20.0241 662.5,19.0794 675,17.5464 687.5,15.8935 700,14.8148 712.5,15.0801 725,17.3438 737.5,21.9704 750,28.9298 762.5,37.7975 775,47.8607 787.5,58.2932 800,68.3438 812.5,77.4796 825,85.4529 837.5,92.2856 850,98.196 862.5,103.502 875,108.532 887.5,113.553 900,118.738 912.5,124.144 925,129.719 937.5,135.327 950,140.779 962.5,145.87 975,150.417 987.5,154.28 1000,157.38 1000,166.667"/><polyline stroke="mediumpurple" stroke-width="1" opacity="1" fill-opacity="0" points="0,166.666 12.5,166.666 25,166.664 37.5,166.66 50,166.651 62.5,166.631 75,166.591 87.5,166.515 100,166.38 112.5,166.156 125,165.806 137.5,165.296 150,164.603 162.5,163.725 175,162.699 187.5,161.598 200,160.529 212.5,159.612 225,158.952 237.5,158.605 250,158.548 262.5,158.669 275,158.768 287.5,158.582 300,157.825 312.5,156.236 325,153.626 337.5,149.918 350,145.169 362.5,139.565 375,133.388 387.5,126.946 400,120.496 412.5,114.167 425,107.915 437.5,101.538 450,94.7479 462.5,87.2793 475,79.0022 487.5,69.9947 500,60.5522 512.5,51.1352 525,42.2755 537.5,34.474 550,28.116 562.5,23.4187 575,20.4084 587.5,18.9237 600,18.637 612.5,19.0958 625,19.7852 637.5,20.2153 650,20.0241 662.5,19.0794 675,17.5464 687.5,15.8935 700,14.8148 712.5,15.0801 725,17.3438 737.5,21.9704 750,28.9298 762.5,37.7975 775,47.8607 787.5,58.2932 800,68.3438 812.5,77.4796 825,85.4529 837.5,92.2856 850,98.196 862.5,103.502 875,108.532 887.5,113.553 900,118.738 912.5,124.144 925,129.719 937.5,135.327 950,140.779 962.5,145.87 975,150.417 987.5,154.28 1000,157.38"/><line stroke="dimgray" stroke-width="1" opacity="1" x1="0" y1="1000" x2="1000" y2="1000"/><line stroke="dimgray" stroke-width="1" opacity="1" x1="0" y1="1000" x2="0" y2="1006"/><text fill="dimgray" fill-opacity="1" x="0" y="1008" font-size="12" text-anchor="middle" dominant-baseline="hanging">10</text><line stroke="dimgray" stroke-width="1" opacity="1" x1="250" y1="1000" x2="250" y2="1006"/><text fill="dimgray" fill-opacity="1" x="250" y="1008" font-size="12" text-anchor="middle" dominant-baseline="hanging">47.5</text><line stroke="dimgray" stroke-width="1" opacity="1" x1="500" y1="1000" x2="500" y2="1006"/><text fill="dimgray" fill-opacity="1" x="500" y="1008" font-size="12" text-anchor="middle" dominant-baseline="hanging">85</text><line stroke="dimgray" stroke-width="1" opacity="1" x1="750" y1="1000" x2="750" y2="1006"/><text fill="dimgray" fill-opacity="1" x="750" y="1008" font-size="12" text-anchor="middle" dominant-baseline="hanging">122.5</text><line stroke="dimgray" stroke-width="1" opacity="1" x1="1000" y1="1000" x2="1000" y2="1006"/><text fill="dimgray" fill-opacity="1" x="1000" y="1008" font-size="12" text-anchor="middle" dominant-baseline="hanging">160</text><line stroke="dimgray" stroke-width="1" opacity="1" x1="0" y1="1000" x2="0" y2="0"/><line stroke="dimgray" stroke-width="1" opacity="1" x1="0" y1="1000" x2="6" y2="1000"/><text fill="dimgray" fill-opacity="1" x="10" y="1000" font-size="12" text-anchor="start" dominant-baseline="central">0.5</text><line stroke="dimgray" stroke-width="1" opacity="1" x1="0" y1="750" x2="6" y2="750"/><text fill="dimgray" fill-opacity="1" x="10" y="750" font-size="12" text-anchor="start" dominant-baseline="central">1.85</text><line stroke="dimgray" stroke-width="1" opacity="1" x1="0" y1="500" x2="6" y2="500"/><text fill="dimgray" fill-opacity="1" x="10" y="500" font-size="12" text-anchor="start" dominant-baseline="central">3.2</text><line stroke="dimgray" stroke-width="1" opacity="1" x1="0" y1="250" x2="6" y2="250"/><text fill="dimgray" fill-opacity="1" x="10" y="250" font-size="12" text-anchor="start" dominant-baseline="central">4.55</text><line stroke="dimgray" stroke-width="1" opacity="1" x1="0" y1="0" x2="6" y2="0"/><text fill="dimgray" fill-opacity="1" x="10" y="0" font-size="12" text-anchor="start" dominant-baseline="central">5.9</text><text fill="black" fill-opacity="1" x="500" y="-26" font-size="16" text-anchor="middle" dominant-baseline="hanging">Response Time Distribution by Region</text></svg>