<svg xmlns="http://www.w3.org/2000/svg" viewBox="-20,-32 1040,1052"><rect fill="darkslategray" x="-20" y="-32" width="1040" height="1052"/><line stroke="dimgray" stroke-width="1" opacity="0.5" x1="0" y1="0" x2="0" y2="1000"/><line stroke="dimgray" stroke-width="1" opacity="0.5" x1="250" y1="0" x2="250" y2="1000"/><line stroke="dimgray" stroke-width="1" opacity="0.5" x1="500" y1="0" x2="500" y2="1000"/><line stroke="dimgray" stroke-width="1" opacity="0.5" x1="750" y1="0" x2="750" y2="1000"/><line stroke="dimgray" stroke-width="1" opacity="0.5" x1="1000" y1="0" x2="1000" y2="1000"/><line stroke="dimgray" stroke-width="1" opacity="0.5" x1="0" y1="1000" x2="1000" y2="1000"/><line stroke="dimgray" stroke-width="1" opacity="0.5" x1="0" y1="750" x2="1000" y2="750"/><line stroke="dimgray" stroke-width="1" opacity="0.5" x1="0" y1="500" x2="1000" y2="500"/><line stroke="dimgray" stroke-width="1" opacity="0.5" x1="0" y1="250" x2="1000" y2="250"/><line stroke="dimgray" stroke-width="1" opacity="0.5" x1="0" y1="0" x2="1000" y2="0"/><polygon fill="cornflowerblue" fill-opacity="0.55" points="0,907.407 0,904.869 12.5,903.839 25,902.522 37.5,900.884 50,898.905 62.5,896.577 75,893.907 87.5,890.918 100,887.651 112.5,884.16 125,880.509 137.5,876.769 150,873.014 162.5,869.305 175,865.681 187.5,862.147 200,858.662 212.5,855.126 225,851.39 237.5,847.26 250,842.53 262.5,837.011 275,830.572 287.5,823.181 300,814.924 312.5,806.024 325,796.818 337.5,787.727 350,779.204 362.5,771.671 375,765.463 387.5,760.78 400,757.664 412.5,756.003 425,755.556 437.5,755.998 450,756.981 462.5,758.186 475,759.367 487.5,760.371 500,761.149 512.5,761.733 525,762.214 537.5,762.711 550,763.341 562.5,764.208 575,765.392 587.5,766.953 600,768.943 612.5,771.41 625,774.405 637.5,777.977 650,782.171 662.5,787.011 675,792.492 687.5,798.57 700,805.158 712.5,812.127 725,819.316 737.5,826.539 750,833.605 762.5,840.331 775,846.558 787.5,852.167 800,857.087 812.5,861.3 825,864.837 837.5,867.776 850,870.231 862.5,872.333 875,874.222 887.5,876.024 900,877.85 912.5,879.776 925,881.847 937.5,884.075 950,886.438 962.5,888.892 975,891.373 987.5,893.809 1000,896.131 1000,907.407"/><polyline stroke="cornflowerblue" stroke-width="1" opacity="1" fill-opacity="0" points="0,904.869 12.5,903.839 25,902.522 37.5,900.884 50,898.905 62.5,896.577 75,893.907 87.5,890.918 100,887.651 112.5,884.16 125,880.509 137.5,876.769 150,873.014 162.5,869.305 175,865.681 187.5,862.147 200,858.662 212.5,855.126 225,851.39 237.5,847.26 250,842.53 262.5,837.011 275,830.572 287.5,823.181 300,814.924 312.5,806.024 325,796.818 337.5,787.727 350,779.204 362.5,771.671 375,765.463 387.5,760.78 400,757.664 412.5,756.003 425,755.556 437.5,755.998 450,756.981 462.5,758.186 475,759.367 487.5,760.371 500,761.149 512.5,761.733 525,762.214 537.5,762.711 550,763.341 562.5,764.208 575,765.392 587.5,766.953 600,768.943 612.5,771.41 625,774.405 637.5,777.977 650,782.171 662.5,787.011 675,792.492 687.5,798.57 700,805.158 712.5,812.127 725,819.316 737.5,826.539 750,833.605 762.5,840.331 775,846.558 787.5,852.167 800,857.087 812.5,861.3 825,864.837 837.5,867.776 850,870.231 862.5,872.333 875,874.222 887.5,876.024 900,877.85 912.5,879.776 925,881.847 937.5,884.075 950,886.438 962.5,888.892 975,891.373 987.5,893.809 1000,896.131"/><polygon fill="coral" fill-opacity="0.55" points="0,722.222 0,722.222 12.5,722.222 25,722.222 37.5,722.221 50,722.218 62.5,722.212 75,722.2 87.5,722.173 100,722.12 112.5,722.021 125,721.847 137.5,721.557 150,721.102 162.5,720.426 175,719.476 187.5,718.21 200,716.602 212.5,714.647 225,712.358 237.5,709.752 250,706.845 262.5,703.639 275,700.124 287.5,696.282 300,692.092 312.5,687.528 325,682.545 337.5,677.078 350,671.03 362.5,664.3 375,656.828 387.5,648.644 400,639.915 412.5,630.946 425,622.136 437.5,613.897 450,606.557 462.5,600.283 475,595.054 487.5,590.681 500,586.884 512.5,583.394 525,580.045 537.5,576.845 550,573.979 562.5,571.75 575,570.477 587.5,570.37 600,571.45 612.5,573.521 625,576.237 637.5,579.227 650,582.234 662.5,585.217 675,588.375 687.5,592.082 700,596.752 712.5,602.696 725,610.014 737.5,618.562 750,628.002 762.5,637.896 775,647.824 787.5,657.46 800,666.604 812.5,675.162 825,683.095 837.5,690.371 850,696.931 862.5,702.688 875,707.544 887.5,711.429 900,714.317 912.5,716.252 925,717.34 937.5,717.743 950,717.659 962.5,717.301 975,716.874 987.5,716.553 1000,716.46 1000,722.222"/><polyline stroke="coral" stroke-width="1" opacity="1" fill-opacity="0" points="0,722.222 12.5,722.222 25,722.222 37.5,722.221 50,722.218 62.5,722.212 75,722.2 87.5,722.173 100,722.12 112.5,722.021 125,721.847 137.5,721.557 150,721.102 162.5,720.426 175,719.476 187.5,718.21 200,716.602 212.5,714.647 225,712.358 237.5,709.752 250,706.845 262.5,703.639 275,700.124 287.5,696.282 300,692.092 312.5,687.528 325,682.545 337.5,677.078 350,671.03 362.5,664.3 375,656.828 387.5,648.644 400,639.915 412.5,630.946 425,622.136 437.5,613.897 450,606.557 462.5,600.283 475,595.054 487.5,590.681 500,586.884 512.5,583.394 525,580.045 537.5,576.845 550,573.979 562.5,571.75 575,570.477 587.5,570.37 600,571.45 612.5,573.521 625,576.237 637.5,579.227 650,582.234 662.5,585.217 675,588.375 687.5,592.082 700,596.752 712.5,602.696 725,610.014 737.5,618.562 750,628.002 762.5,637.896 775,647.824 787.5,657.46 800,666.604 812.5,675.162 825,683.095 837.5,690.371 850,696.931 862.5,702.688 875,707.544 887.5,711.429 900,714.317 912.5,716.252 925,717.34 937.5,717.743 950,717.659 962.5,717.301 975,716.874 987.5,716.553 1000,716.46"/><polygon fill="limegreen" fill-opacity="0.55" points="0,537.037 0,537.037 12.5,537.037 25,537.037 37.5,537.037 50,537.037 62.5,537.037 75,537.037 87.5,537.037 100,537.037 112.5,537.037 125,537.037 137.5,537.037 150,537.037 162.5,537.037 175,537.036 187.5,537.033 200,537.023 212.5,536.994 225,536.919 237.5,536.747 250,536.398 262.5,535.765 275,534.752 287.5,533.305 300,531.46 312.5,529.348 325,527.172 337.5,525.169 350,523.576 362.5,522.575 375,522.21 387.5,522.277 400,522.278 412.5,521.519 425,519.33 437.5,515.268 450,509.138 462.5,500.841 475,490.204 487.5,477.008 500,461.252 512.5,443.506 525,425.122 537.5,408.13 550,394.807 562.5,386.967 575,385.185 587.5,388.318 600,393.691 612.5,398.097 625,399.203 637.5,396.66 650,392.248 662.5,388.99 675,389.715 687.5,395.834 700,406.875 712.5,420.913 725,435.579 737.5,449.075 750,460.68 762.5,470.581 775,479.287 787.5,487.1 800,493.985 812.5,499.777 825,504.474 837.5,508.328 850,511.735 862.5,515.03 875,518.375 887.5,521.754 900,525.049 912.5,528.106 925,530.779 937.5,532.954 950,534.581 962.5,535.686 975,536.362 987.5,536.733 1000,536.913 1000,537.037"/><polyline stroke="limegreen" stroke-width="1" opacity="1" fill-opacity="0" points="0,537.037 12.5,537.037 25,537.037 37.5,537.037 50,537.037 62.5,537.037 75,537.037 87.5,537.037 100,537.037 112.5,537.037 125,537.037 137.5,537.037 150,537.037 162.5,537.037 175,537.036 187.5,537.033 200,537.023 212.5,536.994 225,536.919 237.5,536.747 250,536.398 262.5,535.765 275,534.752 287.5,533.305 300,531.46 312.5,529.348 325,527.172 337.5,525.169 350,523.576 362.5,522.575 375,522.21 387.5,522.277 400,522.278 412.5,521.519 425,519.33 437.5,515.268 450,509.138 462.5,500.841 475,490.204 487.5,477.008 500,461.252 512.5,443.506 525,425.122 537.5,408.13 550,394.807 562.5,386.967 575,385.185 587.5,388.318 600,393.691 612.5,398.097 625,399.203 637.5,396.66 650,392.248 662.5,388.99 675,389.715 687.5,395.834 700,406.875 712.5,420.913 725,435.579 737.5,449.075 750,460.68 762.5,470.581 775,479.287 787.5,487.1 800,493.985 812.5,499.777 825,504.474 837.5,508.328 850,511.735 862.5,515.03 875,518.375 887.5,521.754 900,525.049 912.5,528.106 925,530.779 937.5,532.954 950,534.581 962.5,535.686 975,536.362 987.5,536.733 1000,536.913"/><polygon fill="tomato" fill-opacity="0.55" points="0,351.852 0,351.852 12.5,351.852 25,351.852 37.5,351.852 50,351.852 62.5,351.852 75,351.852 87.5,351.851 100,351.85 112.5,351.847 125,351.84 137.5,351.823 150,351.786 162.5,351.709 175,351.555 187.5,351.266 200,350.749 212.5,349.871 225,348.455 237.5,346.286 250,343.128 262.5,338.756 275,332.995 287.5,325.765 300,317.113 312.5,307.227 325,296.425 337.5,285.124 350,273.788 362.5,262.877 375,252.807 387.5,243.916 400,236.448 412.5,230.531 425,226.166 437.5,223.215 450,221.403 462.5,220.35 475,219.625 487.5,218.829 500,217.67 512.5,216.008 525,213.865 537.5,211.382 550,208.763 562.5,206.209 575,203.898 587.5,201.98 600,200.614 612.5,200 625,200.379 637.5,202.009 650,205.097 662.5,209.724 675,215.794 687.5,223.031 700,231.02 712.5,239.307 725,247.496 737.5,255.324 750,262.693 762.5,269.646 775,276.307 787.5,282.813 800,289.262 812.5,295.693 825,302.087 837.5,308.384 850,314.5 862.5,320.332 875,325.761 887.5,330.659 900,334.898 912.5,338.374 925,341.036 937.5,342.905 950,344.079 962.5,344.724 975,345.04 987.5,345.23 1000,345.461 1000,351.852"/><polyline stroke="tomato" stroke-width="1" opacity="1" fill-opacity="0" points="0,351.852 12.5,351.852 25,351.852 37.5,351.852 50,351.852 62.5,351.852 75,351.852 87.5,351.851 100,351.85 112.5,351.847 125,351.84 137.5,351.823 150,351.786 162.5,351.709 175,351.555 187.5,351.266 200,350.749 212.5,349.871 225,348.455 237.5,346.286 250,343.128 262.5,338.756 275,332.995 287.5,325.765 300,317.113 312.5,307.227 325,296.425 337.5,285.124 350,273.788 362.5,262.877 375,252.807 387.5,243.916 400,236.448 412.5,230.531 425,226.166 437.5,223.215 450,221.403 462.5,220.35 475,219.625 487.5,218.829 500,217.67 512.5,216.008 525,213.865 537.5,211.382 550,208.763 562.5,206.209 575,203.898 587.5,201.98 600,200.614 612.5,200 625,200.379 637.5,202.009 650,205.097 662.5,209.724 675,215.794 687.5,223.031 700,231.02 712.5,239.307 725,247.496 737.5,255.324 750,262.693 762.5,269.646 775,276.307 787.5,282.813 800,289.262 812.5,295.693 825,302.087 837.5,308.384 850,314.5 862.5,320.332 875,325.761 887.5,330.659 900,334.898 912.5,338.374 925,341.036 937.5,342.905 950,344.079 962.5,344.724 975,345.04 987.5,345.23 1000,345.461"/><polygon fill="violet" fill-opacity="0.55" points="0,166.667 0,166.667 12.5,166.667 25,166.667 37.5,166.667 50,166.667 62.5,166.667 75,166.667 87.5,166.667 100,166.667 112.5,166.667 125,166.667 137.5,166.667 150,166.667 162.5,166.667 175,166.667 187.5,166.666 200,166.665 212.5,166.662 225,166.654 237.5,166.632 250,166.58 262.5,166.462 275,166.221 287.5,165.767 300,164.982 312.5,163.735 325,161.917 337.5,159.48 350,156.468 362.5,153.016 375,149.308 387.5,145.504 400,141.667 412.5,137.741 425,133.57 437.5,128.971 450,123.778 462.5,117.864 475,111.108 487.5,103.374 500,94.5509 512.5,84.6546 525,73.9519 537.5,63.0023 550,52.5576 562.5,43.341 575,35.8109 587.5,30.0337 600,25.7241 612.5,22.4225 625,19.716 637.5,17.4172 650,15.649 662.5,14.8148 675,15.4572 687.5,18.0352 700,22.6971 712.5,29.1485 725,36.6917 737.5,44.4316 750,51.5661 762.5,57.6425 775,62.6846 787.5,67.1536 800,71.7667 812.5,77.2431 825,84.0683 837.5,92.3566 850,101.847 862.5,112.007 875,122.2 887.5,131.822 900,140.411 912.5,147.684 925,153.532 937.5,157.996 950,161.224 962.5,163.43 975,164.85 987.5,165.707 1000,166.191 1000,166.667"/><polyline stroke="violet" stroke-width="1" opacity="1" fill-opacity="0" points="0,166.667 12.5,166.667 25,166.667 37.5,166.667 50,166.667 62.5,166.667 75,166.667 87.5,166.667 100,166.667 112.5,166.667 125,166.667 137.5,166.667 150,166.667 162.5,166.667 175,166.667 187.5,166.666 200,166.665 212.5,166.662 225,166.654 237.5,166.632 250,166.58 262.5,166.462 275,166.221 287.5,165.767 300,164.982 312.5,163.735 325,161.917 337.5,159.48 350,156.468 362.5,153.016 375,149.308 387.5,145.504 400,141.667 412.5,137.741 425,133.57 437.5,128.971 450,123.778 462.5,117.864 475,111.108 487.5,103.374 500,94.5509 512.5,84.6546 525,73.9519 537.5,63.0023 550,52.5576 562.5,43.341 575,35.8109 587.5,30.0337 600,25.7241 612.5,22.4225 625,19.716 637.5,17.4172 650,15.649 662.5,14.8148 675,15.4572 687.5,18.0352 700,22.6971 712.5,29.1485 725,36.6917 737.5,44.4316 750,51.5661 762.5,57.6425 775,62.6846 787.5,67.1536 800,71.7667 812.5,77.2431 825,84.0683 837.5,92.3566 850,101.847 862.5,112.007 875,122.2 887.5,131.822 900,140.411 912.5,147.684 925,153.532 937.5,157.996 950,161.224 962.5,163.43 975,164.85 987.5,165.707 1000,166.191"/><line stroke="lightgray" stroke-width="1" opacity="1" x1="0" y1="1000" x2="1000" y2="1000"/><line stroke="lightgray" stroke-width="1" opacity="1" x1="0" y1="1000" x2="0" y2="1006"/><text fill="lightgray" fill-opacity="1" x="0" y="1008" font-size="12" text-anchor="middle" dominant-baseline="hanging">20</text><line stroke="lightgray" stroke-width="1" opacity="1" x1="250" y1="1000" x2="250" y2="1006"/><text fill="lightgray" fill-opacity="1" x="250" y="1008" font-size="12" text-anchor="middle" dominant-baseline="hanging">40</text><line stroke="lightgray" stroke-width="1" opacity="1" x1="500" y1="1000" x2="500" y2="1006"/><text fill="lightgray" fill-opacity="1" x="500" y="1008" font-size="12" text-anchor="middle" dominant-baseline="hanging">60</text><line stroke="lightgray" stroke-width="1" opacity="1" x1="750" y1="1000" x2="750" y2="1006"/><text fill="lightgray" fill-opacity="1" x="750" y="1008" font-size="12" text-anchor="middle" dominant-baseline="hanging">80</text><line stroke="lightgray" stroke-width="1" opacity="1" x1="1000" y1="1000" x2="1000" y2="1006"/><text fill="lightgray" fill-opacity="1" x="1000" y="1008" font-size="12" text-anchor="middle" dominant-baseline="hanging">100</text><line stroke="lightgray" stroke-width="1" opacity="1" x1="0" y1="1000" x2="0" y2="0"/><line stroke="lightgray" stroke-width="1" opacity="1" x1="0" y1="1000" x2="6" y2="1000"/><text fill="lightgray" fill-opacity="1" x="10" y="1000" font-size="12" text-anchor="start" dominant-baseline="central">0.5</text><line stroke="lightgray" stroke-width="1" opacity="1" x1="0" y1="750" x2="6" y2="750"/><text fill="lightgray" fill-opacity="1" x="10" y="750" font-size="12" text-anchor="start" dominant-baseline="central">1.85</text><line stroke="lightgray" stroke-width="1" opacity="1" x1="0" y1="500" x2="6" y2="500"/><text fill="lightgray" fill-opacity="1" x="10" y="500" font-size="12" text-anchor="start" dominant-baseline="central">3.2</text><line stroke="lightgray" stroke-width="1" opacity="1" x1="0" y1="250" x2="6" y2="250"/><text fill="lightgray" fill-opacity="1" x="10" y="250" font-size="12" text-anchor="start" dominant-baseline="central">4.55</text><line stroke="lightgray" stroke-width="1" opacity="1" x1="0" y1="0" x2="6" y2="0"/><text fill="lightgray" fill-opacity="1" x="10" y="0" font-size="12" text-anchor="start" dominant-baseline="central">5.9</text><text fill="black" fill-opacity="1" x="500" y="-26" font-size="16" text-anchor="middle" dominant-baseline="hanging">Exam Score Distribution by Cohort</text></svg>