<svg xmlns="http://www.w3.org/2000/svg" viewBox="-20,-38 1112.4,1058"><rect fill="white" x="-20" y="-38" width="1112.4" height="1058"/><rect fill="floralwhite" x="0" y="0" width="1000" height="1000"/><line stroke="lightgray" stroke-width="1" opacity="1" x1="250" y1="0" x2="250" y2="1000"/><line stroke="lightgray" stroke-width="1" opacity="1" x1="500" y1="0" x2="500" y2="1000"/><line stroke="lightgray" stroke-width="1" opacity="1" x1="750" y1="0" x2="750" y2="1000"/><line stroke="lightgray" stroke-width="1" opacity="1" x1="1000" y1="0" x2="1000" y2="1000"/><line stroke="lightgray" stroke-width="1" opacity="1" x1="0" y1="750" x2="1000" y2="750"/><line stroke="lightgray" stroke-width="1" opacity="1" x1="0" y1="500" x2="1000" y2="500"/><line stroke="lightgray" stroke-width="1" opacity="1" x1="0" y1="250" x2="1000" y2="250"/><line stroke="lightgray" stroke-width="1" opacity="1" x1="0" y1="0" x2="1000" y2="0"/><polygon stroke="steelblue" stroke-width="1" fill="steelblue" opacity="0.28" fill-opacity="0.28" points="0,318.182 33.3333,284.056 66.6667,272.526 100,266.726 133.333,249.814 166.667,216.631 200,177.918 233.333,154.465 266.667,164.691 300,213.173 333.333,287.11 366.667,362.912 400,419.008 433.333,447.204 466.667,455.828 500,462.88 533.333,483.471 566.667,519.288 600,556.567 633.333,573.879 666.667,555.044 700,499.352 733.333,422.844 766.667,349.842 800,299.754 833.333,277.06 866.667,270.426 900,261.355 933.333,236.994 966.667,199.235 1000,164.472 1000,727.273 966.667,727.273 933.333,727.273 900,727.273 866.667,727.273 833.333,727.273 800,727.273 766.667,727.273 733.333,727.273 700,727.273 666.667,727.273 633.333,727.273 600,727.273 566.667,727.273 533.333,727.273 500,727.273 466.667,727.273 433.333,727.273 400,727.273 366.667,727.273 333.333,727.273 300,727.273 266.667,727.273 233.333,727.273 200,727.273 166.667,727.273 133.333,727.273 100,727.273 66.6667,727.273 33.3333,727.273 0,727.273"/><polyline stroke="tomato" stroke-width="4" opacity="1" fill-opacity="0" stroke-dasharray="12,6,3,6" points="0,318.182 33.3333,284.056 66.6667,272.526 100,266.726 133.333,249.814 166.667,216.631 200,177.918 233.333,154.465 266.667,164.691 300,213.173 333.333,287.11 366.667,362.912 400,419.008 433.333,447.204 466.667,455.828 500,462.88 533.333,483.471 566.667,519.288 600,556.567 633.333,573.879 666.667,555.044 700,499.352 733.333,422.844 766.667,349.842 800,299.754 833.333,277.06 866.667,270.426 900,261.355 933.333,236.994 966.667,199.235 1000,164.472"/><circle fill="darkgoldenrod" fill-opacity="1" r="8" cx="0" cy="318.182"/><circle fill="darkgoldenrod" fill-opacity="1" r="8" cx="166.667" cy="216.631"/><circle fill="darkgoldenrod" fill-opacity="1" r="8" cx="333.333" cy="287.11"/><circle fill="darkgoldenrod" fill-opacity="1" r="8" cx="500" cy="462.88"/><circle fill="darkgoldenrod" fill-opacity="1" r="8" cx="666.667" cy="555.044"/><circle fill="darkgoldenrod" fill-opacity="1" r="8" cx="833.333" cy="277.06"/><circle fill="darkgoldenrod" fill-opacity="1" r="8" cx="1000" cy="164.472"/><rect fill="steelblue" fill-opacity="1" x="1008" y="476" width="20" height="8"/><text fill="dimgray" fill-opacity="1" x="1034" y="480" font-size="12" dominant-baseline="central">Band</text><rect fill="tomato" fill-opacity="1" x="1008" y="496" width="20" height="8"/><text fill="dimgray" fill-opacity="1" x="1034" y="500" font-size="12" dominant-baseline="central">Trend</text><rect fill="darkgoldenrod" fill-opacity="1" x="1008" y="516" width="20" height="8"/><text fill="dimgray" fill-opacity="1" x="1034" y="520" font-size="12" dominant-baseline="central">Samples</text><line stroke="dimgray" stroke-width="1" opacity="1" x1="0" y1="1000" x2="1000" y2="1000"/><line stroke="dimgray" stroke-width="1" opacity="1" x1="250" y1="1000" x2="250" y2="1006"/><text fill="dimgray" fill-opacity="1" x="250" y="1008" font-size="12" text-anchor="middle" dominant-baseline="hanging">2.5</text><line stroke="dimgray" stroke-width="1" opacity="1" x1="500" y1="1000" x2="500" y2="1006"/><text fill="dimgray" fill-opacity="1" x="500" y="1008" font-size="12" text-anchor="middle" dominant-baseline="hanging">5</text><line stroke="dimgray" stroke-width="1" opacity="1" x1="750" y1="1000" x2="750" y2="1006"/><text fill="dimgray" fill-opacity="1" x="750" y="1008" font-size="12" text-anchor="middle" dominant-baseline="hanging">7.5</text><line stroke="dimgray" stroke-width="1" opacity="1" x1="1000" y1="1000" x2="1000" y2="1006"/><text fill="dimgray" fill-opacity="1" x="1000" y="1008" font-size="12" text-anchor="middle" dominant-baseline="hanging">10</text><line stroke="dimgray" stroke-width="1" opacity="1" x1="0" y1="1000" x2="0" y2="0"/><line stroke="dimgray" stroke-width="1" opacity="1" x1="0" y1="750" x2="6" y2="750"/><text fill="dimgray" fill-opacity="1" x="10" y="750" font-size="12" text-anchor="start" dominant-baseline="central">1.375</text><line stroke="dimgray" stroke-width="1" opacity="1" x1="0" y1="500" x2="6" y2="500"/><text fill="dimgray" fill-opacity="1" x="10" y="500" font-size="12" text-anchor="start" dominant-baseline="central">2.75</text><line stroke="dimgray" stroke-width="1" opacity="1" x1="0" y1="250" x2="6" y2="250"/><text fill="dimgray" fill-opacity="1" x="10" y="250" font-size="12" text-anchor="start" dominant-baseline="central">4.125</text><line stroke="dimgray" stroke-width="1" opacity="1" x1="0" y1="0" x2="6" y2="0"/><text fill="dimgray" fill-opacity="1" x="10" y="0" font-size="12" text-anchor="start" dominant-baseline="central">5.5</text><text fill="black" fill-opacity="1" x="500" y="-32" font-size="22" text-anchor="middle" dominant-baseline="hanging">Series Styling</text></svg>