<svg xmlns="http://www.w3.org/2000/svg" viewBox="-54.8,-62 1074.8,1082"><rect fill="white" x="-54.8" y="-62" width="1074.8" height="1082"/><line stroke="lightgray" stroke-width="1" opacity="1" x1="0" y1="0" x2="0" y2="1000"/><line stroke="lightgray" stroke-width="1" opacity="1" x1="294.118" y1="0" x2="294.118" y2="1000"/><line stroke="lightgray" stroke-width="1" opacity="1" x1="588.235" y1="0" x2="588.235" y2="1000"/><line stroke="lightgray" stroke-width="1" opacity="1" x1="882.353" y1="0" x2="882.353" y2="1000"/><line stroke="lightgray" stroke-width="1" opacity="1" x1="0" y1="1000" x2="1000" y2="1000"/><line stroke="lightgray" stroke-width="1" opacity="1" x1="0" y1="750" x2="1000" y2="750"/><line stroke="lightgray" stroke-width="1" opacity="1" x1="0" y1="500" x2="1000" y2="500"/><line stroke="lightgray" stroke-width="1" opacity="1" x1="0" y1="250" x2="1000" y2="250"/><line stroke="lightgray" stroke-width="1" opacity="1" x1="0" y1="0" x2="1000" y2="0"/><polygon stroke="firebrick" stroke-width="1" fill="firebrick" opacity="1" fill-opacity="1" points="0,467.577 58.8235,460.828 117.647,468.14 176.471,473.796 235.294,474.404 294.118,471.505 352.941,487.404 411.765,486.367 470.588,495.495 529.412,512.045 588.235,536.512 647.059,618.159 705.882,606.272 764.706,690.85 823.529,720.964 882.353,804.1 941.177,802.563 1000,851.548 1000,1000 941.177,1000 882.353,1000 823.529,1000 764.706,1000 705.882,1000 647.059,1000 588.235,1000 529.412,1000 470.588,1000 411.765,1000 352.941,1000 294.118,1000 235.294,1000 176.471,1000 117.647,1000 58.8235,1000 0,1000"/><polygon stroke="sienna" stroke-width="1" fill="sienna" opacity="1" fill-opacity="1" points="0,340.273 58.8235,331.167 117.647,324.122 176.471,335.959 235.294,320.535 294.118,309.946 352.941,304.163 411.765,302 470.588,292.042 529.412,285.89 588.235,301.129 647.059,308.701 705.882,322.797 764.706,343.805 823.529,363.526 882.353,394.837 941.177,399.62 1000,423.27 1000,851.548 941.177,802.563 882.353,804.1 823.529,720.964 764.706,690.85 705.882,606.272 647.059,618.159 588.235,536.512 529.412,512.045 470.588,495.495 411.765,486.367 352.941,487.404 294.118,471.505 235.294,474.404 176.471,473.796 117.647,468.14 58.8235,460.828 0,467.577"/><polygon stroke="peru" stroke-width="1" fill="peru" opacity="1" fill-opacity="1" points="0,143.345 58.8235,119.398 117.647,116.06 176.471,131.475 235.294,124.782 294.118,107.258 352.941,97.3217 411.765,97.1176 470.588,95.0951 529.412,87.7581 588.235,98.6198 647.059,114.754 705.882,124.44 764.706,142.857 823.529,167.032 882.353,194.887 941.177,216.422 1000,245.219 1000,423.27 941.177,399.62 882.353,394.837 823.529,363.526 764.706,343.805 705.882,322.797 647.059,308.701 588.235,301.129 529.412,285.89 470.588,292.042 411.765,302 352.941,304.163 294.118,309.946 235.294,320.535 176.471,335.959 117.647,324.122 58.8235,331.167 0,340.273"/><polygon stroke="darkgoldenrod" stroke-width="1" fill="darkgoldenrod" opacity="1" fill-opacity="1" points="0,102.389 58.8235,84.1601 117.647,85.8257 176.471,106.331 235.294,97.7312 294.118,77.4194 352.941,73.1901 411.765,73.4874 470.588,79.0791 529.412,76.4503 588.235,89.335 647.059,107.188 705.882,116.974 764.706,137.123 823.529,160.945 882.353,190.838 941.177,212.15 1000,241.576 1000,245.219 941.177,216.422 882.353,194.887 823.529,167.032 764.706,142.857 705.882,124.44 647.059,114.754 588.235,98.6198 529.412,87.7581 470.588,95.0951 411.765,97.1176 352.941,97.3217 294.118,107.258 235.294,124.782 176.471,131.475 117.647,116.06 58.8235,119.398 0,143.345"/><polygon stroke="sandybrown" stroke-width="1" fill="sandybrown" opacity="1" fill-opacity="1" points="0,1.0239 58.8235,1.0263 117.647,1.3004 176.471,1.2118 235.294,4.363 294.118,3.2258 352.941,3.1822 411.765,3.8951 470.588,6.7568 529.412,14.0118 588.235,24.8432 647.059,37.3266 705.882,52.5137 764.706,70.3067 823.529,89.6031 882.353,118.704 941.177,151.637 1000,186.248 1000,241.576 941.177,212.15 882.353,190.838 823.529,160.945 764.706,137.123 705.882,116.974 647.059,107.188 588.235,89.335 529.412,76.4503 470.588,79.0791 411.765,73.4874 352.941,73.1901 294.118,77.4194 235.294,97.7312 176.471,106.331 117.647,85.8257 58.8235,84.1601 0,102.389"/><polygon stroke="coral" stroke-width="1" fill="coral" opacity="1" fill-opacity="1" points="0,0 58.8235,0 117.647,0 176.471,-0 235.294,0.2909 294.118,0.2688 352.941,0.2652 411.765,0.2597 470.588,0.2503 529.412,0.4916 588.235,1.0038 647.059,2.0177 705.882,7.2175 764.706,13.7123 823.529,22.6443 882.353,33.1562 941.177,48.6474 1000,69.2168 1000,186.248 941.177,151.637 882.353,118.704 823.529,89.6031 764.706,70.3067 705.882,52.5137 647.059,37.3266 588.235,24.8432 529.412,14.0118 470.588,6.7568 411.765,3.8951 352.941,3.1822 294.118,3.2258 235.294,4.363 176.471,1.2118 117.647,1.3004 58.8235,1.0263 0,1.0239"/><polygon stroke="peachpuff" stroke-width="1" fill="peachpuff" opacity="1" fill-opacity="1" points="0,0 58.8235,0 117.647,0 176.471,-0 235.294,0 294.118,0 352.941,-0 411.765,-0 470.588,0 529.412,-0 588.235,-0 647.059,0 705.882,0 764.706,0 823.529,0 882.353,0 941.177,0 1000,0 1000,69.2168 941.177,48.6474 882.353,33.1562 823.529,22.6443 764.706,13.7123 705.882,7.2175 647.059,2.0177 588.235,1.0038 529.412,0.4916 470.588,0.2503 411.765,0.2597 352.941,0.2652 294.118,0.2688 235.294,0.2909 176.471,-0 117.647,0 58.8235,0 0,0"/><rect fill="firebrick" fill-opacity="1" x="199" y="-54" width="20" height="8"/><text fill="dimgray" fill-opacity="1" x="225" y="-50" font-size="12" dominant-baseline="central">Coal</text><rect fill="sienna" fill-opacity="1" x="269.8" y="-54" width="20" height="8"/><text fill="dimgray" fill-opacity="1" x="295.8" y="-50" font-size="12" dominant-baseline="central">Natural Gas</text><rect fill="peru" fill-opacity="1" x="391" y="-54" width="20" height="8"/><text fill="dimgray" fill-opacity="1" x="417" y="-50" font-size="12" dominant-baseline="central">Nuclear</text><rect fill="darkgoldenrod" fill-opacity="1" x="483.4" y="-54" width="20" height="8"/><text fill="dimgray" fill-opacity="1" x="509.4" y="-50" font-size="12" dominant-baseline="central">Petroleum</text><rect fill="sandybrown" fill-opacity="1" x="590.2" y="-54" width="20" height="8"/><text fill="dimgray" fill-opacity="1" x="616.2" y="-50" font-size="12" dominant-baseline="central">Hydro</text><rect fill="coral" fill-opacity="1" x="668.2" y="-54" width="20" height="8"/><text fill="dimgray" fill-opacity="1" x="694.2" y="-50" font-size="12" dominant-baseline="central">Wind</text><rect fill="peachpuff" fill-opacity="1" x="739" y="-54" width="20" height="8"/><text fill="dimgray" fill-opacity="1" x="765" y="-50" font-size="12" dominant-baseline="central">Solar</text><line stroke="dimgray" stroke-width="1" opacity="1" x1="0" y1="1000" x2="1000" y2="1000"/><line stroke="dimgray" stroke-width="1" opacity="1" x1="0" y1="1000" x2="0" y2="1006"/><text fill="dimgray" fill-opacity="1" x="0" y="1008" font-size="12" text-anchor="middle" dominant-baseline="hanging">1990</text><line stroke="dimgray" stroke-width="1" opacity="1" x1="294.118" y1="1000" x2="294.118" y2="1006"/><text fill="dimgray" fill-opacity="1" x="294.118" y="1008" font-size="12" text-anchor="middle" dominant-baseline="hanging">2000</text><line stroke="dimgray" stroke-width="1" opacity="1" x1="588.235" y1="1000" x2="588.235" y2="1006"/><text fill="dimgray" fill-opacity="1" x="588.235" y="1008" font-size="12" text-anchor="middle" dominant-baseline="hanging">2010</text><line stroke="dimgray" stroke-width="1" opacity="1" x1="882.353" y1="1000" x2="882.353" y2="1006"/><text fill="dimgray" fill-opacity="1" x="882.353" y="1008" font-size="12" text-anchor="middle" dominant-baseline="hanging">2020</text><line stroke="dimgray" stroke-width="1" opacity="1" x1="0" y1="1000" x2="0" y2="0"/><line stroke="dimgray" stroke-width="1" opacity="1" x1="0" y1="1000" x2="-6" y2="1000"/><text fill="dimgray" fill-opacity="1" x="-10" y="1000" font-size="12" text-anchor="end" dominant-baseline="central">0%</text><line stroke="dimgray" stroke-width="1" opacity="1" x1="0" y1="750" x2="-6" y2="750"/><text fill="dimgray" fill-opacity="1" x="-10" y="750" font-size="12" text-anchor="end" dominant-baseline="central">25%</text><line stroke="dimgray" stroke-width="1" opacity="1" x1="0" y1="500" x2="-6" y2="500"/><text fill="dimgray" fill-opacity="1" x="-10" y="500" font-size="12" text-anchor="end" dominant-baseline="central">50%</text><line stroke="dimgray" stroke-width="1" opacity="1" x1="0" y1="250" x2="-6" y2="250"/><text fill="dimgray" fill-opacity="1" x="-10" y="250" font-size="12" text-anchor="end" dominant-baseline="central">75%</text><line stroke="dimgray" stroke-width="1" opacity="1" x1="0" y1="0" x2="-6" y2="0"/><text fill="dimgray" fill-opacity="1" x="-10" y="0" font-size="12" text-anchor="end" dominant-baseline="central">100%</text><text fill="dimgray" fill-opacity="1" transform="rotate(-90,-48.8,500)" x="-48.8" y="500" font-size="12" text-anchor="middle" dominant-baseline="central">Share</text><text fill="black" fill-opacity="1" x="500" y="-56" font-size="22" text-anchor="middle" dominant-baseline="hanging">Normalized Stacked Area</text></svg>