<svg xmlns="http://www.w3.org/2000/svg" viewBox="-54.8,-62 1074.8,1082"><rect fill="white" x="-54.8" y="-62" width="1074.8" height="1082"/><line stroke="lightgray" stroke-width="1" opacity="1" x1="0" y1="0" x2="0" y2="1000"/><line stroke="lightgray" stroke-width="1" opacity="1" x1="294.118" y1="0" x2="294.118" y2="1000"/><line stroke="lightgray" stroke-width="1" opacity="1" x1="588.235" y1="0" x2="588.235" y2="1000"/><line stroke="lightgray" stroke-width="1" opacity="1" x1="882.353" y1="0" x2="882.353" y2="1000"/><line stroke="lightgray" stroke-width="1" opacity="1" x1="0" y1="1000" x2="1000" y2="1000"/><line stroke="lightgray" stroke-width="1" opacity="1" x1="0" y1="800" x2="1000" y2="800"/><line stroke="lightgray" stroke-width="1" opacity="1" x1="0" y1="600" x2="1000" y2="600"/><line stroke="lightgray" stroke-width="1" opacity="1" x1="0" y1="400" x2="1000" y2="400"/><line stroke="lightgray" stroke-width="1" opacity="1" x1="0" y1="200" x2="1000" y2="200"/><line stroke="lightgray" stroke-width="1" opacity="1" x1="0" y1="0" x2="1000" y2="0"/><polygon stroke="navy" stroke-width="1" fill="navy" opacity="1" fill-opacity="1" points="0,675 58.8235,671.667 117.647,659.167 176.471,638.125 235.294,623.542 294.118,590.417 352.941,597.292 411.765,587.917 470.588,580 529.412,586.458 588.235,615.208 647.059,684.583 705.882,670.417 764.706,741.667 823.529,761.25 882.353,838.75 941.177,826.667 1000,864.167 1000,1000 941.177,1000 882.353,1000 823.529,1000 764.706,1000 705.882,1000 647.059,1000 588.235,1000 529.412,1000 470.588,1000 411.765,1000 352.941,1000 294.118,1000 235.294,1000 176.471,1000 117.647,1000 58.8235,1000 0,1000"/><polygon stroke="royalblue" stroke-width="1" fill="royalblue" opacity="1" fill-opacity="1" points="0,597.292 58.8235,592.708 117.647,566.875 176.471,543.333 235.294,513.333 294.118,465.208 352.941,453.333 411.765,440 470.588,410.625 529.412,394.792 588.235,419.792 647.059,428.958 705.882,433.125 764.706,451.667 823.529,455.417 882.353,501.875 941.177,472.917 1000,472.292 1000,864.167 941.177,826.667 882.353,838.75 823.529,761.25 764.706,741.667 705.882,670.417 647.059,684.583 588.235,615.208 529.412,586.458 470.588,580 411.765,587.917 352.941,597.292 294.118,590.417 235.294,623.542 176.471,638.125 117.647,659.167 58.8235,671.667 0,675"/><polygon stroke="mediumslateblue" stroke-width="1" fill="mediumslateblue" opacity="1" fill-opacity="1" points="0,477.083 58.8235,463.75 117.647,433.542 176.471,402.708 235.294,373.125 294.118,308.125 352.941,290.833 411.765,275.625 470.588,246.667 529.412,226.875 588.235,251.667 647.059,268.75 705.882,267.083 764.706,283.75 823.529,287.292 882.353,337.292 941.177,312.083 1000,309.375 1000,472.292 941.177,472.917 882.353,501.875 823.529,455.417 764.706,451.667 705.882,433.125 647.059,428.958 588.235,419.792 529.412,394.792 470.588,410.625 411.765,440 352.941,453.333 294.118,465.208 235.294,513.333 176.471,543.333 117.647,566.875 58.8235,592.708 0,597.292"/><polygon stroke="steelblue" stroke-width="1" fill="steelblue" opacity="1" fill-opacity="1" points="0,452.083 58.8235,442.292 117.647,414.167 176.471,385.417 235.294,353.75 294.118,285 352.941,271.875 411.765,256.667 470.588,233.333 529.412,217.292 588.235,243.958 647.059,262.5 705.882,260.833 764.706,278.958 823.529,282.083 882.353,333.958 941.177,308.333 1000,306.042 1000,309.375 941.177,312.083 882.353,337.292 823.529,287.292 764.706,283.75 705.882,267.083 647.059,268.75 588.235,251.667 529.412,226.875 470.588,246.667 411.765,275.625 352.941,290.833 294.118,308.125 235.294,373.125 176.471,402.708 117.647,433.542 58.8235,463.75 0,477.083"/><polygon stroke="cadetblue" stroke-width="1" fill="cadetblue" opacity="1" fill-opacity="1" points="0,390.208 58.8235,391.667 117.647,360 176.471,313.125 235.294,286.875 294.118,227.5 352.941,216.875 411.765,200.833 470.588,173.125 529.412,164.375 588.235,190.417 647.059,204.792 705.882,206.875 764.706,223.125 823.529,221.042 882.353,274.583 941.177,255.208 1000,255.417 1000,306.042 941.177,308.333 882.353,333.958 823.529,282.083 764.706,278.958 705.882,260.833 647.059,262.5 588.235,243.958 529.412,217.292 470.588,233.333 411.765,256.667 352.941,271.875 294.118,285 235.294,353.75 176.471,385.417 117.647,414.167 58.8235,442.292 0,452.083"/><polygon stroke="cornflowerblue" stroke-width="1" fill="cornflowerblue" opacity="1" fill-opacity="1" points="0,389.583 58.8235,391.042 117.647,359.167 176.471,312.292 235.294,283.958 294.118,225.208 352.941,214.583 411.765,197.917 470.588,167.708 529.412,152.917 588.235,170.625 647.059,175.625 705.882,168.958 764.706,175.833 823.529,163.75 882.353,204.167 941.177,164.792 1000,148.333 1000,255.417 941.177,255.208 882.353,274.583 823.529,221.042 764.706,223.125 705.882,206.875 647.059,204.792 588.235,190.417 529.412,164.375 470.588,173.125 411.765,200.833 352.941,216.875 294.118,227.5 235.294,286.875 176.471,313.125 117.647,360 58.8235,391.667 0,390.208"/><polygon stroke="powderblue" stroke-width="1" fill="powderblue" opacity="1" fill-opacity="1" points="0,389.583 58.8235,391.042 117.647,359.167 176.471,312.292 235.294,283.75 294.118,225 352.941,214.375 411.765,197.708 470.588,167.5 529.412,152.5 588.235,169.792 647.059,173.958 705.882,162.917 764.706,164.375 823.529,144.375 882.353,176.875 941.177,122.083 1000,85 1000,148.333 941.177,164.792 882.353,204.167 823.529,163.75 764.706,175.833 705.882,168.958 647.059,175.625 588.235,170.625 529.412,152.917 470.588,167.708 411.765,197.917 352.941,214.583 294.118,225.208 235.294,283.958 176.471,312.292 117.647,359.167 58.8235,391.042 0,389.583"/><rect fill="navy" fill-opacity="1" x="199" y="-54" width="20" height="8"/><text fill="dimgray" fill-opacity="1" x="225" y="-50" font-size="12" dominant-baseline="central">Coal</text><rect fill="royalblue" fill-opacity="1" x="269.8" y="-54" width="20" height="8"/><text fill="dimgray" fill-opacity="1" x="295.8" y="-50" font-size="12" dominant-baseline="central">Natural Gas</text><rect fill="mediumslateblue" fill-opacity="1" x="391" y="-54" width="20" height="8"/><text fill="dimgray" fill-opacity="1" x="417" y="-50" font-size="12" dominant-baseline="central">Nuclear</text><rect fill="steelblue" fill-opacity="1" x="483.4" y="-54" width="20" height="8"/><text fill="dimgray" fill-opacity="1" x="509.4" y="-50" font-size="12" dominant-baseline="central">Petroleum</text><rect fill="cadetblue" fill-opacity="1" x="590.2" y="-54" width="20" height="8"/><text fill="dimgray" fill-opacity="1" x="616.2" y="-50" font-size="12" dominant-baseline="central">Hydro</text><rect fill="cornflowerblue" fill-opacity="1" x="668.2" y="-54" width="20" height="8"/><text fill="dimgray" fill-opacity="1" x="694.2" y="-50" font-size="12" dominant-baseline="central">Wind</text><rect fill="powderblue" fill-opacity="1" x="739" y="-54" width="20" height="8"/><text fill="dimgray" fill-opacity="1" x="765" y="-50" font-size="12" dominant-baseline="central">Solar</text><line stroke="dimgray" stroke-width="1" opacity="1" x1="0" y1="1000" x2="1000" y2="1000"/><line stroke="dimgray" stroke-width="1" opacity="1" x1="0" y1="1000" x2="0" y2="1006"/><text fill="dimgray" fill-opacity="1" x="0" y="1008" font-size="12" text-anchor="middle" dominant-baseline="hanging">1990</text><line stroke="dimgray" stroke-width="1" opacity="1" x1="294.118" y1="1000" x2="294.118" y2="1006"/><text fill="dimgray" fill-opacity="1" x="294.118" y="1008" font-size="12" text-anchor="middle" dominant-baseline="hanging">2000</text><line stroke="dimgray" stroke-width="1" opacity="1" x1="588.235" y1="1000" x2="588.235" y2="1006"/><text fill="dimgray" fill-opacity="1" x="588.235" y="1008" font-size="12" text-anchor="middle" dominant-baseline="hanging">2010</text><line stroke="dimgray" stroke-width="1" opacity="1" x1="882.353" y1="1000" x2="882.353" y2="1006"/><text fill="dimgray" fill-opacity="1" x="882.353" y="1008" font-size="12" text-anchor="middle" dominant-baseline="hanging">2020</text><line stroke="dimgray" stroke-width="1" opacity="1" x1="0" y1="1000" x2="0" y2="0"/><line stroke="dimgray" stroke-width="1" opacity="1" x1="0" y1="1000" x2="-6" y2="1000"/><text fill="dimgray" fill-opacity="1" x="-10" y="1000" font-size="12" text-anchor="end" dominant-baseline="central">0</text><line stroke="dimgray" stroke-width="1" opacity="1" x1="0" y1="800" x2="-6" y2="800"/><text fill="dimgray" fill-opacity="1" x="-10" y="800" font-size="12" text-anchor="end" dominant-baseline="central">960</text><line stroke="dimgray" stroke-width="1" opacity="1" x1="0" y1="600" x2="-6" y2="600"/><text fill="dimgray" fill-opacity="1" x="-10" y="600" font-size="12" text-anchor="end" dominant-baseline="central">1920</text><line stroke="dimgray" stroke-width="1" opacity="1" x1="0" y1="400" x2="-6" y2="400"/><text fill="dimgray" fill-opacity="1" x="-10" y="400" font-size="12" text-anchor="end" dominant-baseline="central">2880</text><line stroke="dimgray" stroke-width="1" opacity="1" x1="0" y1="200" x2="-6" y2="200"/><text fill="dimgray" fill-opacity="1" x="-10" y="200" font-size="12" text-anchor="end" dominant-baseline="central">3840</text><line stroke="dimgray" stroke-width="1" opacity="1" x1="0" y1="0" x2="-6" y2="0"/><text fill="dimgray" fill-opacity="1" x="-10" y="0" font-size="12" text-anchor="end" dominant-baseline="central">4800</text><text fill="dimgray" fill-opacity="1" transform="rotate(-90,-48.8,500)" x="-48.8" y="500" font-size="12" text-anchor="middle" dominant-baseline="central">TWh</text><text fill="black" fill-opacity="1" x="500" y="-56" font-size="22" text-anchor="middle" dominant-baseline="hanging">US Electricity by Source</text></svg>