<svg xmlns="http://www.w3.org/2000/svg" viewBox="-62,-38 1212,1074"><rect fill="white" x="-62" y="-38" width="1212" height="1074"/><line stroke="lightgray" stroke-width="1" opacity="1" x1="0" y1="0" x2="0" y2="1000"/><line stroke="lightgray" stroke-width="1" opacity="1" x1="250" y1="0" x2="250" y2="1000"/><line stroke="lightgray" stroke-width="1" opacity="1" x1="500" y1="0" x2="500" y2="1000"/><line stroke="lightgray" stroke-width="1" opacity="1" x1="750" y1="0" x2="750" y2="1000"/><line stroke="lightgray" stroke-width="1" opacity="1" x1="1000" y1="0" x2="1000" y2="1000"/><line stroke="lightgray" stroke-width="1" opacity="1" x1="0" y1="1000" x2="1000" y2="1000"/><line stroke="lightgray" stroke-width="1" opacity="1" x1="0" y1="750" x2="1000" y2="750"/><line stroke="lightgray" stroke-width="1" opacity="1" x1="0" y1="500" x2="1000" y2="500"/><line stroke="lightgray" stroke-width="1" opacity="1" x1="0" y1="250" x2="1000" y2="250"/><line stroke="lightgray" stroke-width="1" opacity="1" x1="0" y1="0" x2="1000" y2="0"/><polyline stroke="steelblue" stroke-width="3" opacity="1" fill-opacity="0" points="0,714.286 250,714.286 250,607.143 375,607.143 375,214.286 708.333,214.286 708.333,357.143 875,357.143 875,607.143 1000,607.143 1000,714.286"/><polyline stroke="tomato" stroke-width="2" opacity="1" fill-opacity="0" stroke-dasharray="12,6" points="0,714.286 0,607.143 250,607.143 250,214.286 375,214.286 375,357.143 708.333,357.143 708.333,607.143 875,607.143 875,714.286 1000,714.286"/><polyline stroke="seagreen" stroke-width="2" opacity="1" fill-opacity="0" stroke-dasharray="3,6" points="0,714.286 125,714.286 125,607.143 250,607.143 312.5,607.143 312.5,214.286 375,214.286 541.667,214.286 541.667,357.143 708.333,357.143 791.667,357.143 791.667,607.143 875,607.143 937.5,607.143 937.5,714.286 1000,714.286"/><rect fill="steelblue" fill-opacity="1" x="1008" y="476" width="20" height="8"/><text fill="dimgray" fill-opacity="1" x="1034" y="480" font-size="12" dominant-baseline="central">After (default)</text><rect fill="tomato" fill-opacity="1" x="1008" y="496" width="20" height="8"/><text fill="dimgray" fill-opacity="1" x="1034" y="500" font-size="12" dominant-baseline="central">Before</text><rect fill="seagreen" fill-opacity="1" x="1008" y="516" width="20" height="8"/><text fill="dimgray" fill-opacity="1" x="1034" y="520" font-size="12" dominant-baseline="central">Mid</text><line stroke="dimgray" stroke-width="1" opacity="1" x1="0" y1="1000" x2="1000" y2="1000"/><line stroke="dimgray" stroke-width="1" opacity="1" x1="0" y1="1000" x2="0" y2="1006"/><text fill="dimgray" fill-opacity="1" x="0" y="1008" font-size="12" text-anchor="middle" dominant-baseline="hanging">0h</text><line stroke="dimgray" stroke-width="1" opacity="1" x1="250" y1="1000" x2="250" y2="1006"/><text fill="dimgray" fill-opacity="1" x="250" y="1008" font-size="12" text-anchor="middle" dominant-baseline="hanging">6h</text><line stroke="dimgray" stroke-width="1" opacity="1" x1="500" y1="1000" x2="500" y2="1006"/><text fill="dimgray" fill-opacity="1" x="500" y="1008" font-size="12" text-anchor="middle" dominant-baseline="hanging">12h</text><line stroke="dimgray" stroke-width="1" opacity="1" x1="750" y1="1000" x2="750" y2="1006"/><text fill="dimgray" fill-opacity="1" x="750" y="1008" font-size="12" text-anchor="middle" dominant-baseline="hanging">18h</text><line stroke="dimgray" stroke-width="1" opacity="1" x1="1000" y1="1000" x2="1000" y2="1006"/><text fill="dimgray" fill-opacity="1" x="1000" y="1008" font-size="12" text-anchor="middle" dominant-baseline="hanging">24h</text><text fill="dimgray" fill-opacity="1" x="500" y="1024" font-size="12" text-anchor="middle" dominant-baseline="hanging">Hour of Day</text><line stroke="dimgray" stroke-width="1" opacity="1" x1="0" y1="1000" x2="0" y2="0"/><line stroke="dimgray" stroke-width="1" opacity="1" x1="0" y1="1000" x2="-6" y2="1000"/><text fill="dimgray" fill-opacity="1" x="-10" y="1000" font-size="12" text-anchor="end" dominant-baseline="central">$0.00</text><line stroke="dimgray" stroke-width="1" opacity="1" x1="0" y1="750" x2="-6" y2="750"/><text fill="dimgray" fill-opacity="1" x="-10" y="750" font-size="12" text-anchor="end" dominant-baseline="central">$0.07</text><line stroke="dimgray" stroke-width="1" opacity="1" x1="0" y1="500" x2="-6" y2="500"/><text fill="dimgray" fill-opacity="1" x="-10" y="500" font-size="12" text-anchor="end" dominant-baseline="central">$0.14</text><line stroke="dimgray" stroke-width="1" opacity="1" x1="0" y1="250" x2="-6" y2="250"/><text fill="dimgray" fill-opacity="1" x="-10" y="250" font-size="12" text-anchor="end" dominant-baseline="central">$0.21</text><line stroke="dimgray" stroke-width="1" opacity="1" x1="0" y1="0" x2="-6" y2="0"/><text fill="dimgray" fill-opacity="1" x="-10" y="0" font-size="12" text-anchor="end" dominant-baseline="central">$0.28</text><text fill="dimgray" fill-opacity="1" transform="rotate(-90,-56,500)" x="-56" y="500" font-size="12" text-anchor="middle" dominant-baseline="central">Rate ($/kWh)</text><text fill="black" fill-opacity="1" x="500" y="-32" font-size="22" text-anchor="middle" dominant-baseline="hanging">Step Line</text></svg>