<svg xmlns="http://www.w3.org/2000/svg" viewBox="-20,-38 1040,1082"><rect fill="white" x="-20" y="-38" width="1040" height="1082"/><line stroke="lightgray" stroke-width="1" opacity="1" x1="0" y1="0" x2="0" y2="1000"/><line stroke="lightgray" stroke-width="1" opacity="1" x1="294.118" y1="0" x2="294.118" y2="1000"/><line stroke="lightgray" stroke-width="1" opacity="1" x1="588.235" y1="0" x2="588.235" y2="1000"/><line stroke="lightgray" stroke-width="1" opacity="1" x1="882.353" y1="0" x2="882.353" y2="1000"/><polygon stroke="red" stroke-width="1" fill="red" opacity="1" fill-opacity="1" points="0,487.5 58.8235,479.167 117.647,475 176.471,464.583 235.294,475 294.118,537.5 352.941,618.75 411.765,629.167 470.588,629.167 529.412,636.667 588.235,683.333 647.059,763.75 705.882,868.75 764.706,916.667 823.529,872.083 882.353,804.583 941.177,770.417 1000,691.667 1000,691.667 941.177,770.417 882.353,804.583 823.529,872.083 764.706,916.667 705.882,868.75 647.059,763.75 588.235,683.333 529.412,645 470.588,645.833 411.765,662.5 352.941,668.75 294.118,620.833 235.294,641.667 176.471,639.583 117.647,641.667 58.8235,604.167 0,533.333"/><polygon stroke="orangered" stroke-width="1" fill="orangered" opacity="1" fill-opacity="1" points="0,487.5 58.8235,433.333 117.647,391.667 176.471,389.583 235.294,400 294.118,487.5 352.941,593.75 411.765,629.167 470.588,629.167 529.412,636.667 588.235,683.333 647.059,763.75 705.882,868.75 764.706,916.667 823.529,872.083 882.353,804.583 941.177,770.417 1000,691.667 1000,691.667 941.177,770.417 882.353,804.583 823.529,872.083 764.706,916.667 705.882,868.75 647.059,763.75 588.235,683.333 529.412,636.667 470.588,629.167 411.765,629.167 352.941,618.75 294.118,537.5 235.294,475 176.471,464.583 117.647,475 58.8235,479.167 0,487.5"/><polygon stroke="orange" stroke-width="1" fill="orange" opacity="1" fill-opacity="1" points="0,466.667 58.8235,395.833 117.647,358.333 176.471,372.917 235.294,395.833 294.118,487.5 352.941,593.75 411.765,629.167 470.588,629.167 529.412,636.667 588.235,683.333 647.059,763.75 705.882,868.75 764.706,916.667 823.529,872.083 882.353,804.583 941.177,770.417 1000,691.667 1000,691.667 941.177,770.417 882.353,804.583 823.529,872.083 764.706,916.667 705.882,868.75 647.059,763.75 588.235,683.333 529.412,636.667 470.588,629.167 411.765,629.167 352.941,593.75 294.118,487.5 235.294,400 176.471,389.583 117.647,391.667 58.8235,433.333 0,487.5"/><polygon stroke="goldenrod" stroke-width="1" fill="goldenrod" opacity="1" fill-opacity="1" points="0,466.667 58.8235,395.833 117.647,358.333 176.471,360.417 235.294,358.333 294.118,462.5 352.941,581.25 411.765,629.167 470.588,629.167 529.412,636.667 588.235,683.333 647.059,763.75 705.882,868.75 764.706,916.667 823.529,872.083 882.353,804.583 941.177,770.417 1000,691.667 1000,691.667 941.177,770.417 882.353,804.583 823.529,872.083 764.706,916.667 705.882,868.75 647.059,763.75 588.235,683.333 529.412,636.667 470.588,629.167 411.765,629.167 352.941,593.75 294.118,487.5 235.294,395.833 176.471,372.917 117.647,358.333 58.8235,395.833 0,466.667"/><polygon stroke="yellowgreen" stroke-width="1" fill="yellowgreen" opacity="1" fill-opacity="1" points="0,466.667 58.8235,395.833 117.647,358.333 176.471,360.417 235.294,358.333 294.118,379.167 352.941,397.917 411.765,445.833 470.588,445.833 529.412,470 588.235,550 647.059,630.417 705.882,752.083 764.706,825 823.529,811.25 882.353,770.417 941.177,737.083 1000,691.667 1000,691.667 941.177,770.417 882.353,804.583 823.529,872.083 764.706,916.667 705.882,868.75 647.059,763.75 588.235,683.333 529.412,636.667 470.588,629.167 411.765,629.167 352.941,581.25 294.118,462.5 235.294,358.333 176.471,360.417 117.647,358.333 58.8235,395.833 0,466.667"/><polygon stroke="limegreen" stroke-width="1" fill="limegreen" opacity="1" fill-opacity="1" points="0,466.667 58.8235,395.833 117.647,358.333 176.471,360.417 235.294,358.333 294.118,379.167 352.941,364.583 411.765,387.5 470.588,395.833 529.412,415.833 588.235,537.5 647.059,630.417 705.882,752.083 764.706,825 823.529,811.25 882.353,770.417 941.177,737.083 1000,691.667 1000,691.667 941.177,737.083 882.353,770.417 823.529,811.25 764.706,825 705.882,752.083 647.059,630.417 588.235,550 529.412,470 470.588,445.833 411.765,445.833 352.941,397.917 294.118,379.167 235.294,358.333 176.471,360.417 117.647,358.333 58.8235,395.833 0,466.667"/><polygon stroke="mediumseagreen" stroke-width="1" fill="mediumseagreen" opacity="1" fill-opacity="1" points="0,466.667 58.8235,395.833 117.647,358.333 176.471,360.417 235.294,358.333 294.118,379.167 352.941,331.25 411.765,337.5 470.588,354.167 529.412,382.5 588.235,512.5 647.059,622.083 705.882,752.083 764.706,825 823.529,811.25 882.353,770.417 941.177,737.083 1000,691.667 1000,691.667 941.177,737.083 882.353,770.417 823.529,811.25 764.706,825 705.882,752.083 647.059,630.417 588.235,537.5 529.412,415.833 470.588,395.833 411.765,387.5 352.941,364.583 294.118,379.167 235.294,358.333 176.471,360.417 117.647,358.333 58.8235,395.833 0,466.667"/><polygon stroke="mediumaquamarine" stroke-width="1" fill="mediumaquamarine" opacity="1" fill-opacity="1" points="0,466.667 58.8235,395.833 117.647,358.333 176.471,360.417 235.294,358.333 294.118,379.167 352.941,331.25 411.765,337.5 470.588,354.167 529.412,361.667 588.235,420.833 647.059,480.417 705.882,560.417 764.706,566.667 823.529,586.25 882.353,620.417 941.177,612.083 1000,608.333 1000,691.667 941.177,737.083 882.353,770.417 823.529,811.25 764.706,825 705.882,752.083 647.059,622.083 588.235,512.5 529.412,382.5 470.588,354.167 411.765,337.5 352.941,331.25 294.118,379.167 235.294,358.333 176.471,360.417 117.647,358.333 58.8235,395.833 0,466.667"/><polygon stroke="cornflowerblue" stroke-width="1" fill="cornflowerblue" opacity="1" fill-opacity="1" points="0,466.667 58.8235,395.833 117.647,358.333 176.471,360.417 235.294,358.333 294.118,379.167 352.941,331.25 411.765,337.5 470.588,354.167 529.412,355 588.235,354.167 647.059,397.083 705.882,468.75 764.706,475 823.529,502.917 882.353,553.75 941.177,553.75 1000,575 1000,608.333 941.177,612.083 882.353,620.417 823.529,586.25 764.706,566.667 705.882,560.417 647.059,480.417 588.235,420.833 529.412,361.667 470.588,354.167 411.765,337.5 352.941,331.25 294.118,379.167 235.294,358.333 176.471,360.417 117.647,358.333 58.8235,395.833 0,466.667"/><polygon stroke="royalblue" stroke-width="1" fill="royalblue" opacity="1" fill-opacity="1" points="0,466.667 58.8235,395.833 117.647,358.333 176.471,360.417 235.294,358.333 294.118,379.167 352.941,331.25 411.765,337.5 470.588,354.167 529.412,355 588.235,354.167 647.059,351.25 705.882,314.583 764.706,258.333 823.529,327.917 882.353,428.75 941.177,462.083 1000,542.5 1000,575 941.177,553.75 882.353,553.75 823.529,502.917 764.706,475 705.882,468.75 647.059,397.083 588.235,354.167 529.412,355 470.588,354.167 411.765,337.5 352.941,331.25 294.118,379.167 235.294,358.333 176.471,360.417 117.647,358.333 58.8235,395.833 0,466.667"/><polygon stroke="blueviolet" stroke-width="1" fill="blueviolet" opacity="1" fill-opacity="1" points="0,466.667 58.8235,395.833 117.647,358.333 176.471,360.417 235.294,358.333 294.118,379.167 352.941,331.25 411.765,337.5 470.588,354.167 529.412,355 588.235,316.667 647.059,267.917 705.882,206.25 764.706,166.667 823.529,236.25 882.353,314.583 941.177,346.25 1000,445.833 1000,542.5 941.177,462.083 882.353,428.75 823.529,327.917 764.706,258.333 705.882,314.583 647.059,351.25 588.235,354.167 529.412,355 470.588,354.167 411.765,337.5 352.941,331.25 294.118,379.167 235.294,358.333 176.471,360.417 117.647,358.333 58.8235,395.833 0,466.667"/><polygon stroke="hotpink" stroke-width="1" fill="hotpink" opacity="1" fill-opacity="1" points="0,466.667 58.8235,395.833 117.647,358.333 176.471,360.417 235.294,358.333 294.118,379.167 352.941,331.25 411.765,337.5 470.588,354.167 529.412,355 588.235,316.667 647.059,236.25 705.882,131.25 764.706,83.3333 823.529,127.917 882.353,195.417 941.177,229.583 1000,308.333 1000,445.833 941.177,346.25 882.353,314.583 823.529,236.25 764.706,166.667 705.882,206.25 647.059,267.917 588.235,316.667 529.412,355 470.588,354.167 411.765,337.5 352.941,331.25 294.118,379.167 235.294,358.333 176.471,360.417 117.647,358.333 58.8235,395.833 0,466.667"/><rect fill="red" fill-opacity="1" x="29.2" y="1008" width="20" height="8"/><text fill="dimgray" fill-opacity="1" x="55.2" y="1012" font-size="12" dominant-baseline="central">PlayStation</text><rect fill="orangered" fill-opacity="1" x="150.4" y="1008" width="20" height="8"/><text fill="dimgray" fill-opacity="1" x="176.4" y="1012" font-size="12" dominant-baseline="central">N64</text><rect fill="orange" fill-opacity="1" x="214" y="1008" width="20" height="8"/><text fill="dimgray" fill-opacity="1" x="240" y="1012" font-size="12" dominant-baseline="central">Saturn</text><rect fill="goldenrod" fill-opacity="1" x="299.2" y="1008" width="20" height="8"/><text fill="dimgray" fill-opacity="1" x="325.2" y="1012" font-size="12" dominant-baseline="central">Dreamcast</text><rect fill="yellowgreen" fill-opacity="1" x="406" y="1008" width="20" height="8"/><text fill="dimgray" fill-opacity="1" x="432" y="1012" font-size="12" dominant-baseline="central">PS2</text><rect fill="limegreen" fill-opacity="1" x="469.6" y="1008" width="20" height="8"/><text fill="dimgray" fill-opacity="1" x="495.6" y="1012" font-size="12" dominant-baseline="central">Xbox</text><rect fill="mediumseagreen" fill-opacity="1" x="540.4" y="1008" width="20" height="8"/><text fill="dimgray" fill-opacity="1" x="566.4" y="1012" font-size="12" dominant-baseline="central">GameCube</text><rect fill="mediumaquamarine" fill-opacity="1" x="640" y="1008" width="20" height="8"/><text fill="dimgray" fill-opacity="1" x="666" y="1012" font-size="12" dominant-baseline="central">DS</text><rect fill="cornflowerblue" fill-opacity="1" x="696.4" y="1008" width="20" height="8"/><text fill="dimgray" fill-opacity="1" x="722.4" y="1012" font-size="12" dominant-baseline="central">PSP</text><rect fill="royalblue" fill-opacity="1" x="760" y="1008" width="20" height="8"/><text fill="dimgray" fill-opacity="1" x="786" y="1012" font-size="12" dominant-baseline="central">Wii</text><rect fill="blueviolet" fill-opacity="1" x="823.6" y="1008" width="20" height="8"/><text fill="dimgray" fill-opacity="1" x="849.6" y="1012" font-size="12" dominant-baseline="central">Xbox 360</text><rect fill="hotpink" fill-opacity="1" x="923.2" y="1008" width="20" height="8"/><text fill="dimgray" fill-opacity="1" x="949.2" y="1012" font-size="12" dominant-baseline="central">PS3</text><line stroke="dimgray" stroke-width="1" opacity="1" x1="0" y1="1000" x2="0" y2="1006"/><text fill="dimgray" fill-opacity="1" x="0" y="1008" font-size="12" text-anchor="middle" dominant-baseline="hanging">1995</text><line stroke="dimgray" stroke-width="1" opacity="1" x1="294.118" y1="1000" x2="294.118" y2="1006"/><text fill="dimgray" fill-opacity="1" x="294.118" y="1008" font-size="12" text-anchor="middle" dominant-baseline="hanging">2000</text><line stroke="dimgray" stroke-width="1" opacity="1" x1="588.235" y1="1000" x2="588.235" y2="1006"/><text fill="dimgray" fill-opacity="1" x="588.235" y="1008" font-size="12" text-anchor="middle" dominant-baseline="hanging">2005</text><line stroke="dimgray" stroke-width="1" opacity="1" x1="882.353" y1="1000" x2="882.353" y2="1006"/><text fill="dimgray" fill-opacity="1" x="882.353" y="1008" font-size="12" text-anchor="middle" dominant-baseline="hanging">2010</text><text fill="black" fill-opacity="1" x="500" y="-32" font-size="22" text-anchor="middle" dominant-baseline="hanging">Console Wars 1995–2012</text></svg>