<svg xmlns="http://www.w3.org/2000/svg" viewBox="-62,-38 1082,1058"><rect fill="black" x="-62" y="-38" width="1082" height="1058"/><line stroke="rgb(48,48,48)" stroke-width="1" opacity="0.9" x1="0" y1="0" x2="0" y2="1000"/><line stroke="rgb(48,48,48)" stroke-width="1" opacity="0.9" x1="90.9091" y1="0" x2="90.9091" y2="1000"/><line stroke="rgb(48,48,48)" stroke-width="1" opacity="0.9" x1="181.818" y1="0" x2="181.818" y2="1000"/><line stroke="rgb(48,48,48)" stroke-width="1" opacity="0.9" x1="272.727" y1="0" x2="272.727" y2="1000"/><line stroke="rgb(48,48,48)" stroke-width="1" opacity="0.9" x1="363.636" y1="0" x2="363.636" y2="1000"/><line stroke="rgb(48,48,48)" stroke-width="1" opacity="0.9" x1="454.546" y1="0" x2="454.546" y2="1000"/><line stroke="rgb(48,48,48)" stroke-width="1" opacity="0.9" x1="545.455" y1="0" x2="545.455" y2="1000"/><line stroke="rgb(48,48,48)" stroke-width="1" opacity="0.9" x1="636.364" y1="0" x2="636.364" y2="1000"/><line stroke="rgb(48,48,48)" stroke-width="1" opacity="0.9" x1="727.273" y1="0" x2="727.273" y2="1000"/><line stroke="rgb(48,48,48)" stroke-width="1" opacity="0.9" x1="818.182" y1="0" x2="818.182" y2="1000"/><line stroke="rgb(48,48,48)" stroke-width="1" opacity="0.9" x1="909.091" y1="0" x2="909.091" y2="1000"/><line stroke="rgb(48,48,48)" stroke-width="1" opacity="0.9" x1="1000" y1="0" x2="1000" y2="1000"/><line stroke="rgb(48,48,48)" stroke-width="1" opacity="0.9" x1="0" y1="1000" x2="1000" y2="1000"/><line stroke="rgb(48,48,48)" stroke-width="1" opacity="0.9" x1="0" y1="833.333" x2="1000" y2="833.333"/><line stroke="rgb(48,48,48)" stroke-width="1" opacity="0.9" x1="0" y1="666.667" x2="1000" y2="666.667"/><line stroke="rgb(48,48,48)" stroke-width="1" opacity="0.9" x1="0" y1="500" x2="1000" y2="500"/><line stroke="rgb(48,48,48)" stroke-width="1" opacity="0.9" x1="0" y1="333.333" x2="1000" y2="333.333"/><line stroke="rgb(48,48,48)" stroke-width="1" opacity="0.9" x1="0" y1="166.667" x2="1000" y2="166.667"/><line stroke="rgb(48,48,48)" stroke-width="1" opacity="0.9" x1="0" y1="0" x2="1000" y2="0"/><polyline stroke="rgb(0,120,248)" stroke-width="1" opacity="1" fill-opacity="0" points="0,657.143 90.9091,571.429 181.818,600 272.727,485.714 363.636,371.429 454.546,228.571 545.455,114.286 636.364,171.429 727.273,314.286 818.182,428.571 909.091,542.857 1000,457.143"/><polyline stroke="rgb(216,0,58)" stroke-width="1" opacity="1" fill-opacity="0" points="0,771.429 90.9091,742.857 181.818,685.714 272.727,628.571 363.636,514.286 454.546,428.571 545.455,342.857 636.364,400 727.273,485.714 818.182,571.429 909.091,657.143 1000,600"/><polyline stroke="rgb(0,184,0)" stroke-width="1" opacity="1" fill-opacity="0" points="0,857.143 90.9091,828.571 181.818,800 272.727,771.429 363.636,714.286 454.546,628.571 545.455,542.857 636.364,600 727.273,685.714 818.182,742.857 909.091,800 1000,771.429"/><line stroke="rgb(144,144,144)" stroke-width="1" opacity="1" x1="0" y1="1000" x2="1000" y2="1000"/><line stroke="rgb(144,144,144)" stroke-width="1" opacity="1" x1="0" y1="1000" x2="0" y2="1006"/><text fill="rgb(144,144,144)" fill-opacity="1" x="0" y="1008" font-size="12" text-anchor="middle" dominant-baseline="hanging">Jan</text><line stroke="rgb(144,144,144)" stroke-width="1" opacity="1" x1="90.9091" y1="1000" x2="90.9091" y2="1006"/><text fill="rgb(144,144,144)" fill-opacity="1" x="90.9091" y="1008" font-size="12" text-anchor="middle" dominant-baseline="hanging">Feb</text><line stroke="rgb(144,144,144)" stroke-width="1" opacity="1" x1="181.818" y1="1000" x2="181.818" y2="1006"/><text fill="rgb(144,144,144)" fill-opacity="1" x="181.818" y="1008" font-size="12" text-anchor="middle" dominant-baseline="hanging">Mar</text><line stroke="rgb(144,144,144)" stroke-width="1" opacity="1" x1="272.727" y1="1000" x2="272.727" y2="1006"/><text fill="rgb(144,144,144)" fill-opacity="1" x="272.727" y="1008" font-size="12" text-anchor="middle" dominant-baseline="hanging">Apr</text><line stroke="rgb(144,144,144)" stroke-width="1" opacity="1" x1="363.636" y1="1000" x2="363.636" y2="1006"/><text fill="rgb(144,144,144)" fill-opacity="1" x="363.636" y="1008" font-size="12" text-anchor="middle" dominant-baseline="hanging">May</text><line stroke="rgb(144,144,144)" stroke-width="1" opacity="1" x1="454.546" y1="1000" x2="454.546" y2="1006"/><text fill="rgb(144,144,144)" fill-opacity="1" x="454.546" y="1008" font-size="12" text-anchor="middle" dominant-baseline="hanging">Jun</text><line stroke="rgb(144,144,144)" stroke-width="1" opacity="1" x1="545.455" y1="1000" x2="545.455" y2="1006"/><text fill="rgb(144,144,144)" fill-opacity="1" x="545.455" y="1008" font-size="12" text-anchor="middle" dominant-baseline="hanging">Jul</text><line stroke="rgb(144,144,144)" stroke-width="1" opacity="1" x1="636.364" y1="1000" x2="636.364" y2="1006"/><text fill="rgb(144,144,144)" fill-opacity="1" x="636.364" y="1008" font-size="12" text-anchor="middle" dominant-baseline="hanging">Aug</text><line stroke="rgb(144,144,144)" stroke-width="1" opacity="1" x1="727.273" y1="1000" x2="727.273" y2="1006"/><text fill="rgb(144,144,144)" fill-opacity="1" x="727.273" y="1008" font-size="12" text-anchor="middle" dominant-baseline="hanging">Sep</text><line stroke="rgb(144,144,144)" stroke-width="1" opacity="1" x1="818.182" y1="1000" x2="818.182" y2="1006"/><text fill="rgb(144,144,144)" fill-opacity="1" x="818.182" y="1008" font-size="12" text-anchor="middle" dominant-baseline="hanging">Oct</text><line stroke="rgb(144,144,144)" stroke-width="1" opacity="1" x1="909.091" y1="1000" x2="909.091" y2="1006"/><text fill="rgb(144,144,144)" fill-opacity="1" x="909.091" y="1008" font-size="12" text-anchor="middle" dominant-baseline="hanging">Nov</text><line stroke="rgb(144,144,144)" stroke-width="1" opacity="1" x1="1000" y1="1000" x2="1000" y2="1006"/><text fill="rgb(144,144,144)" fill-opacity="1" x="1000" y="1008" font-size="12" text-anchor="middle" dominant-baseline="hanging">Dec</text><line stroke="rgb(144,144,144)" stroke-width="1" opacity="1" x1="0" y1="1000" x2="0" y2="0"/><line stroke="rgb(144,144,144)" stroke-width="1" opacity="1" x1="0" y1="1000" x2="-6" y2="1000"/><text fill="rgb(144,144,144)" fill-opacity="1" x="-10" y="1000" font-size="12" text-anchor="end" dominant-baseline="central">0</text><line stroke="rgb(144,144,144)" stroke-width="1" opacity="1" x1="0" y1="833.333" x2="-6" y2="833.333"/><text fill="rgb(144,144,144)" fill-opacity="1" x="-10" y="833.333" font-size="12" text-anchor="end" dominant-baseline="central">5.833</text><line stroke="rgb(144,144,144)" stroke-width="1" opacity="1" x1="0" y1="666.667" x2="-6" y2="666.667"/><text fill="rgb(144,144,144)" fill-opacity="1" x="-10" y="666.667" font-size="12" text-anchor="end" dominant-baseline="central">11.67</text><line stroke="rgb(144,144,144)" stroke-width="1" opacity="1" x1="0" y1="500" x2="-6" y2="500"/><text fill="rgb(144,144,144)" fill-opacity="1" x="-10" y="500" font-size="12" text-anchor="end" dominant-baseline="central">17.5</text><line stroke="rgb(144,144,144)" stroke-width="1" opacity="1" x1="0" y1="333.333" x2="-6" y2="333.333"/><text fill="rgb(144,144,144)" fill-opacity="1" x="-10" y="333.333" font-size="12" text-anchor="end" dominant-baseline="central">23.33</text><line stroke="rgb(144,144,144)" stroke-width="1" opacity="1" x1="0" y1="166.667" x2="-6" y2="166.667"/><text fill="rgb(144,144,144)" fill-opacity="1" x="-10" y="166.667" font-size="12" text-anchor="end" dominant-baseline="central">29.17</text><line stroke="rgb(144,144,144)" stroke-width="1" opacity="1" x1="0" y1="0" x2="-6" y2="0"/><text fill="rgb(144,144,144)" fill-opacity="1" x="-10" y="0" font-size="12" text-anchor="end" dominant-baseline="central">35</text><text fill="rgb(144,144,144)" fill-opacity="1" transform="rotate(-90,-56,500)" x="-56" y="500" font-size="12" text-anchor="middle" dominant-baseline="central">Visitors (k)</text><text fill="black" fill-opacity="1" x="500" y="-32" font-size="22" text-anchor="middle" dominant-baseline="hanging">NES</text></svg>