<svg xmlns="http://www.w3.org/2000/svg" viewBox="-62,-38 1082,1074"><rect fill="white" x="-62" y="-38" width="1082" height="1074"/><line stroke="lightgray" stroke-width="1" opacity="1" x1="0" y1="0" x2="0" y2="1000"/><line stroke="lightgray" stroke-width="1" opacity="1" x1="200" y1="0" x2="200" y2="1000"/><line stroke="lightgray" stroke-width="1" opacity="1" x1="400" y1="0" x2="400" y2="1000"/><line stroke="lightgray" stroke-width="1" opacity="1" x1="600" y1="0" x2="600" y2="1000"/><line stroke="lightgray" stroke-width="1" opacity="1" x1="800" y1="0" x2="800" y2="1000"/><line stroke="lightgray" stroke-width="1" opacity="1" x1="1000" y1="0" x2="1000" y2="1000"/><line stroke="lightgray" stroke-width="1" opacity="1" x1="0" y1="1000" x2="1000" y2="1000"/><line stroke="lightgray" stroke-width="1" opacity="1" x1="0" y1="750" x2="1000" y2="750"/><line stroke="lightgray" stroke-width="1" opacity="1" x1="0" y1="500" x2="1000" y2="500"/><line stroke="lightgray" stroke-width="1" opacity="1" x1="0" y1="250" x2="1000" y2="250"/><line stroke="lightgray" stroke-width="1" opacity="1" x1="0" y1="0" x2="1000" y2="0"/><circle fill="steelblue" fill-opacity="1" r="5" cx="395.435" cy="436.099"/><circle fill="steelblue" fill-opacity="1" r="5" cx="649.77" cy="474.871"/><circle fill="steelblue" fill-opacity="1" r="5" cx="380.062" cy="509.805"/><circle fill="steelblue" fill-opacity="1" r="5" cx="83.3333" cy="675.287"/><circle fill="steelblue" fill-opacity="1" r="5" cx="817.021" cy="83.3333"/><circle fill="steelblue" fill-opacity="1" r="5" cx="455.695" cy="365.968"/><circle fill="steelblue" fill-opacity="1" r="5" cx="451.845" cy="624.509"/><circle fill="steelblue" fill-opacity="1" r="5" cx="852.177" cy="194.327"/><circle fill="steelblue" fill-opacity="1" r="5" cx="781.595" cy="274.965"/><circle fill="steelblue" fill-opacity="1" r="5" cx="838.183" cy="323.419"/><circle fill="steelblue" fill-opacity="1" r="5" cx="728.587" cy="248.424"/><circle fill="steelblue" fill-opacity="1" r="5" cx="204.689" cy="720.259"/><circle fill="steelblue" fill-opacity="1" r="5" cx="397.964" cy="695.966"/><circle fill="steelblue" fill-opacity="1" r="5" cx="916.667" cy="256.851"/><circle fill="steelblue" fill-opacity="1" r="5" cx="484.347" cy="408.089"/><circle fill="steelblue" fill-opacity="1" r="5" cx="750.902" cy="312.883"/><circle fill="steelblue" fill-opacity="1" r="5" cx="147.088" cy="866.783"/><circle fill="steelblue" fill-opacity="1" r="5" cx="124.108" cy="916.667"/><circle fill="steelblue" fill-opacity="1" r="5" cx="803.534" cy="313.506"/><circle fill="steelblue" fill-opacity="1" r="5" cx="540.759" cy="293.841"/><line stroke="dimgray" stroke-width="1" opacity="1" x1="0" y1="1000" x2="1000" y2="1000"/><line stroke="dimgray" stroke-width="1" opacity="1" x1="0" y1="1000" x2="0" y2="1006"/><text fill="dimgray" fill-opacity="1" x="0" y="1008" font-size="12" text-anchor="middle" dominant-baseline="hanging">14</text><line stroke="dimgray" stroke-width="1" opacity="1" x1="200" y1="1000" x2="200" y2="1006"/><text fill="dimgray" fill-opacity="1" x="200" y="1008" font-size="12" text-anchor="middle" dominant-baseline="hanging">18.4</text><line stroke="dimgray" stroke-width="1" opacity="1" x1="400" y1="1000" x2="400" y2="1006"/><text fill="dimgray" fill-opacity="1" x="400" y="1008" font-size="12" text-anchor="middle" dominant-baseline="hanging">22.8</text><line stroke="dimgray" stroke-width="1" opacity="1" x1="600" y1="1000" x2="600" y2="1006"/><text fill="dimgray" fill-opacity="1" x="600" y="1008" font-size="12" text-anchor="middle" dominant-baseline="hanging">27.2</text><line stroke="dimgray" stroke-width="1" opacity="1" x1="800" y1="1000" x2="800" y2="1006"/><text fill="dimgray" fill-opacity="1" x="800" y="1008" font-size="12" text-anchor="middle" dominant-baseline="hanging">31.6</text><line stroke="dimgray" stroke-width="1" opacity="1" x1="1000" y1="1000" x2="1000" y2="1006"/><text fill="dimgray" fill-opacity="1" x="1000" y="1008" font-size="12" text-anchor="middle" dominant-baseline="hanging">36</text><text fill="dimgray" fill-opacity="1" x="500" y="1024" font-size="12" text-anchor="middle" dominant-baseline="hanging">Temperature (°C)</text><line stroke="dimgray" stroke-width="1" opacity="1" x1="0" y1="1000" x2="0" y2="0"/><line stroke="dimgray" stroke-width="1" opacity="1" x1="0" y1="1000" x2="-6" y2="1000"/><text fill="dimgray" fill-opacity="1" x="-10" y="1000" font-size="12" text-anchor="end" dominant-baseline="central">988</text><line stroke="dimgray" stroke-width="1" opacity="1" x1="0" y1="750" x2="-6" y2="750"/><text fill="dimgray" fill-opacity="1" x="-10" y="750" font-size="12" text-anchor="end" dominant-baseline="central">996.5</text><line stroke="dimgray" stroke-width="1" opacity="1" x1="0" y1="500" x2="-6" y2="500"/><text fill="dimgray" fill-opacity="1" x="-10" y="500" font-size="12" text-anchor="end" dominant-baseline="central">1005</text><line stroke="dimgray" stroke-width="1" opacity="1" x1="0" y1="250" x2="-6" y2="250"/><text fill="dimgray" fill-opacity="1" x="-10" y="250" font-size="12" text-anchor="end" dominant-baseline="central">1014</text><line stroke="dimgray" stroke-width="1" opacity="1" x1="0" y1="0" x2="-6" y2="0"/><text fill="dimgray" fill-opacity="1" x="-10" y="0" font-size="12" text-anchor="end" dominant-baseline="central">1022</text><text fill="dimgray" fill-opacity="1" transform="rotate(-90,-56,500)" x="-56" y="500" font-size="12" text-anchor="middle" dominant-baseline="central">Pressure (hPa)</text><text fill="black" fill-opacity="1" x="500" y="-32" font-size="22" text-anchor="middle" dominant-baseline="hanging">Temperature vs Pressure (hover for values)</text><circle fill-opacity="0" pointer-events="all" r="8" cx="395.435" cy="436.099"><title>Temp: 22.7 °C
Pressure: 1001.0 hPa</title></circle><circle fill-opacity="0" pointer-events="all" r="8" cx="649.77" cy="474.871"><title>Temp: 28.2 °C
Pressure: 999.5 hPa</title></circle><circle fill-opacity="0" pointer-events="all" r="8" cx="380.062" cy="509.805"><title>Temp: 22.3 °C
Pressure: 998.1 hPa</title></circle><circle fill-opacity="0" pointer-events="all" r="8" cx="83.3333" cy="675.287"><title>Temp: 15.8 °C
Pressure: 991.7 hPa</title></circle><circle fill-opacity="0" pointer-events="all" r="8" cx="817.021" cy="83.3333"><title>Temp: 31.9 °C
Pressure: 1014.6 hPa</title></circle><circle fill-opacity="0" pointer-events="all" r="8" cx="455.695" cy="365.968"><title>Temp: 24.0 °C
Pressure: 1003.7 hPa</title></circle><circle fill-opacity="0" pointer-events="all" r="8" cx="451.845" cy="624.509"><title>Temp: 23.9 °C
Pressure: 993.7 hPa</title></circle><circle fill-opacity="0" pointer-events="all" r="8" cx="852.177" cy="194.327"><title>Temp: 32.6 °C
Pressure: 1010.3 hPa</title></circle><circle fill-opacity="0" pointer-events="all" r="8" cx="781.595" cy="274.965"><title>Temp: 31.1 °C
Pressure: 1007.2 hPa</title></circle><circle fill-opacity="0" pointer-events="all" r="8" cx="838.183" cy="323.419"><title>Temp: 32.3 °C
Pressure: 1005.3 hPa</title></circle><circle fill-opacity="0" pointer-events="all" r="8" cx="728.587" cy="248.424"><title>Temp: 29.9 °C
Pressure: 1008.2 hPa</title></circle><circle fill-opacity="0" pointer-events="all" r="8" cx="204.689" cy="720.259"><title>Temp: 18.5 °C
Pressure: 990.0 hPa</title></circle><circle fill-opacity="0" pointer-events="all" r="8" cx="397.964" cy="695.966"><title>Temp: 22.7 °C
Pressure: 990.9 hPa</title></circle><circle fill-opacity="0" pointer-events="all" r="8" cx="916.667" cy="256.851"><title>Temp: 34.0 °C
Pressure: 1007.9 hPa</title></circle><circle fill-opacity="0" pointer-events="all" r="8" cx="484.347" cy="408.089"><title>Temp: 24.6 °C
Pressure: 1002.0 hPa</title></circle><circle fill-opacity="0" pointer-events="all" r="8" cx="750.902" cy="312.883"><title>Temp: 30.4 °C
Pressure: 1005.7 hPa</title></circle><circle fill-opacity="0" pointer-events="all" r="8" cx="147.088" cy="866.783"><title>Temp: 17.2 °C
Pressure: 984.3 hPa</title></circle><circle fill-opacity="0" pointer-events="all" r="8" cx="124.108" cy="916.667"><title>Temp: 16.7 °C
Pressure: 982.4 hPa</title></circle><circle fill-opacity="0" pointer-events="all" r="8" cx="803.534" cy="313.506"><title>Temp: 31.6 °C
Pressure: 1005.7 hPa</title></circle><circle fill-opacity="0" pointer-events="all" r="8" cx="540.759" cy="293.841"><title>Temp: 25.8 °C
Pressure: 1006.4 hPa</title></circle></svg>