<svg xmlns="http://www.w3.org/2000/svg" viewBox="-38.8,-38 1131.2,1058"><rect fill="white" x="-38.8" y="-38" width="1131.2" height="1058"/><line stroke="lightgray" stroke-width="1" opacity="1" x1="500" y1="0" x2="500" y2="1000"/><line stroke="lightgray" stroke-width="1" opacity="1" x1="0" y1="1000" x2="1000" y2="1000"/><line stroke="lightgray" stroke-width="1" opacity="1" x1="0" y1="800" x2="1000" y2="800"/><line stroke="lightgray" stroke-width="1" opacity="1" x1="0" y1="600" x2="1000" y2="600"/><line stroke="lightgray" stroke-width="1" opacity="1" x1="0" y1="400" x2="1000" y2="400"/><line stroke="lightgray" stroke-width="1" opacity="1" x1="0" y1="200" x2="1000" y2="200"/><line stroke="lightgray" stroke-width="1" opacity="1" x1="0" y1="0" x2="1000" y2="0"/><polygon stroke="steelblue" stroke-width="1" fill="steelblue" opacity="1" fill-opacity="0.3" points="250.305,882.678 250.441,877.399 250.621,872.121 250.849,866.842 251.131,861.564 251.466,856.285 251.851,851.007 252.28,845.729 252.739,840.45 253.215,835.172 253.69,829.893 254.148,824.615 254.574,819.336 254.957,814.058 255.293,808.779 255.581,803.501 255.83,798.222 256.053,792.944 256.269,787.665 256.503,782.387 256.787,777.108 257.154,771.83 257.646,766.552 258.302,761.273 259.166,755.995 260.275,750.716 261.661,745.438 263.341,740.159 265.316,734.881 267.566,729.602 270.048,724.324 272.699,719.045 275.435,713.767 278.161,708.488 280.777,703.21 283.187,697.931 285.305,692.653 287.065,687.375 288.422,682.096 289.358,676.818 289.875,671.539 290,666.261 289.774,660.982 289.25,655.704 288.491,650.425 287.563,645.147 286.53,639.868 285.454,634.59 284.391,629.311 283.387,624.033 282.476,618.754 281.678,613.476 280.998,608.197 280.425,602.919 279.935,597.641 279.493,592.362 279.063,587.084 278.606,581.805 278.091,576.527 277.502,571.248 276.835,565.97 276.102,560.691 275.326,555.413 274.54,550.134 273.778,544.856 273.069,539.577 272.433,534.299 271.873,529.02 271.382,523.742 270.935,518.463 270.498,513.185 270.032,507.907 269.498,502.628 268.865,497.35 268.112,492.071 267.232,486.793 266.23,481.514 265.128,476.236 263.951,470.957 262.735,465.679 261.512,460.4 260.314,455.122 259.165,449.844 258.083,444.565 257.078,439.286 256.154,434.008 255.312,428.73 254.547,423.451 253.857,418.173 253.235,412.894 252.68,407.616 252.188,402.337 251.757,397.059 251.386,391.78 251.071,386.502 250.811,381.223 250.6,375.945 250.434,370.666 250.306,365.388 250.21,360.11 249.79,360.11 249.694,365.388 249.566,370.666 249.4,375.945 249.189,381.223 248.929,386.502 248.614,391.78 248.243,397.059 247.812,402.337 247.32,407.616 246.765,412.894 246.143,418.173 245.453,423.451 244.688,428.73 243.846,434.008 242.922,439.286 241.917,444.565 240.835,449.844 239.686,455.122 238.488,460.4 237.265,465.679 236.049,470.957 234.872,476.236 233.77,481.514 232.768,486.793 231.888,492.071 231.135,497.35 230.502,502.628 229.968,507.907 229.502,513.185 229.065,518.463 228.618,523.742 228.127,529.02 227.567,534.299 226.931,539.577 226.222,544.856 225.46,550.134 224.674,555.413 223.898,560.691 223.165,565.97 222.498,571.248 221.909,576.527 221.394,581.805 220.937,587.084 220.506,592.362 220.065,597.641 219.575,602.919 219.002,608.197 218.322,613.476 217.524,618.754 216.613,624.033 215.609,629.311 214.546,634.59 213.47,639.868 212.437,645.147 211.509,650.425 210.75,655.704 210.226,660.982 210,666.261 210.125,671.539 210.642,676.818 211.578,682.096 212.935,687.375 214.695,692.653 216.813,697.931 219.223,703.21 221.839,708.488 224.565,713.767 227.301,719.045 229.952,724.324 232.434,729.602 234.684,734.881 236.659,740.159 238.339,745.438 239.725,750.716 240.834,755.995 241.698,761.273 242.354,766.552 242.845,771.83 243.213,777.108 243.497,782.387 243.731,787.665 243.947,792.944 244.17,798.222 244.419,803.501 244.707,808.779 245.043,814.058 245.426,819.336 245.852,824.615 246.31,829.893 246.785,835.172 247.261,840.45 247.72,845.729 248.149,851.007 248.534,856.285 248.869,861.564 249.151,866.842 249.379,872.121 249.559,877.399 249.695,882.678"/><rect stroke="steelblue" stroke-width="1" fill="steelblue" opacity="1" fill-opacity="0.6" x="240" y="558.602" width="20" height="124.447"/><line stroke="steelblue" stroke-width="1" opacity="1" x1="240" y1="628.784" x2="260" y2="628.784"/><line stroke="steelblue" stroke-width="1" opacity="1" x1="250" y1="683.049" x2="250" y2="822.254"/><line stroke="steelblue" stroke-width="1" opacity="1" x1="250" y1="558.602" x2="250" y2="420.534"/><polygon stroke="tomato" stroke-width="1" fill="tomato" opacity="1" fill-opacity="0.3" points="500.257,622.554 500.383,619.44 500.551,616.326 500.769,613.212 501.039,610.098 501.362,606.983 501.733,603.869 502.142,600.755 502.575,597.641 503.013,594.527 503.438,591.412 503.834,588.298 504.19,585.184 504.503,582.07 504.777,578.956 505.027,575.841 505.277,572.727 505.554,569.613 505.886,566.499 506.3,563.385 506.818,560.27 507.452,557.156 508.209,554.042 509.086,550.928 510.075,547.814 511.164,544.699 512.34,541.585 513.591,538.471 514.906,535.357 516.277,532.243 517.697,529.128 519.157,526.014 520.648,522.9 522.159,519.786 523.673,516.672 525.172,513.557 526.632,510.443 528.03,507.329 529.346,504.215 530.562,501.101 531.669,497.986 532.669,494.872 533.574,491.758 534.402,488.644 535.18,485.529 535.93,482.415 536.669,479.301 537.399,476.187 538.109,473.073 538.769,469.959 539.336,466.844 539.762,463.73 539.997,460.616 540,457.502 539.747,454.387 539.233,451.273 538.472,448.159 537.494,445.045 536.344,441.931 535.07,438.817 533.719,435.702 532.333,432.588 530.943,429.474 529.569,426.36 528.218,423.245 526.889,420.131 525.577,417.017 524.271,413.903 522.966,410.789 521.663,407.675 520.368,404.56 519.097,401.446 517.868,398.332 516.698,395.218 515.604,392.103 514.593,388.989 513.664,385.875 512.806,382.761 512.005,379.647 511.241,376.533 510.494,373.418 509.748,370.304 508.992,367.19 508.223,364.076 507.442,360.961 506.655,357.847 505.874,354.733 505.111,351.619 504.378,348.505 503.689,345.39 503.053,342.276 502.478,339.162 501.971,336.048 501.534,332.934 501.167,329.819 500.866,326.705 500.627,323.591 500.442,320.477 500.303,317.363 500.202,314.248 499.798,314.248 499.697,317.363 499.558,320.477 499.373,323.591 499.134,326.705 498.833,329.819 498.466,332.934 498.029,336.048 497.522,339.162 496.947,342.276 496.311,345.39 495.622,348.505 494.889,351.619 494.126,354.733 493.345,357.847 492.558,360.961 491.777,364.076 491.008,367.19 490.252,370.304 489.506,373.418 488.759,376.533 487.995,379.647 487.194,382.761 486.336,385.875 485.407,388.989 484.396,392.103 483.301,395.218 482.132,398.332 480.903,401.446 479.632,404.56 478.337,407.675 477.034,410.789 475.729,413.903 474.423,417.017 473.111,420.131 471.782,423.245 470.431,426.36 469.057,429.474 467.667,432.588 466.281,435.702 464.93,438.817 463.656,441.931 462.506,445.045 461.528,448.159 460.767,451.273 460.253,454.387 460,457.502 460.003,460.616 460.238,463.73 460.664,466.844 461.231,469.959 461.891,473.073 462.601,476.187 463.331,479.301 464.07,482.415 464.82,485.529 465.598,488.644 466.426,491.758 467.331,494.872 468.331,497.986 469.438,501.101 470.654,504.215 471.97,507.329 473.368,510.443 474.829,513.557 476.327,516.672 477.841,519.786 479.352,522.9 480.843,526.014 482.303,529.128 483.723,532.243 485.094,535.357 486.409,538.471 487.66,541.585 488.836,544.699 489.925,547.814 490.914,550.928 491.791,554.042 492.548,557.156 493.182,560.27 493.7,563.385 494.114,566.499 494.446,569.613 494.723,572.727 494.973,575.841 495.223,578.956 495.497,582.07 495.81,585.184 496.166,588.298 496.562,591.412 496.987,594.527 497.425,597.641 497.858,600.755 498.267,603.869 498.638,606.983 498.961,610.098 499.231,613.212 499.449,616.326 499.617,619.44 499.743,622.554"/><rect stroke="tomato" stroke-width="1" fill="tomato" opacity="1" fill-opacity="0.6" x="490" y="432.248" width="20" height="64.178"/><line stroke="tomato" stroke-width="1" opacity="1" x1="490" y1="460.126" x2="510" y2="460.126"/><line stroke="tomato" stroke-width="1" opacity="1" x1="500" y1="496.427" x2="500" y2="589.463"/><line stroke="tomato" stroke-width="1" opacity="1" x1="500" y1="432.248" x2="500" y2="347.34"/><polygon stroke="seagreen" stroke-width="1" fill="seagreen" opacity="1" fill-opacity="0.3" points="750.196,1108.71 750.286,1100.05 750.407,1091.38 750.564,1082.72 750.761,1074.06 751.002,1065.4 751.288,1056.74 751.62,1048.07 751.994,1039.41 752.406,1030.75 752.852,1022.09 753.327,1013.43 753.825,1004.76 754.345,996.103 754.886,987.441 755.449,978.779 756.04,970.117 756.664,961.455 757.33,952.793 758.047,944.131 758.823,935.469 759.668,926.807 760.585,918.145 761.577,909.484 762.643,900.822 763.775,892.16 764.96,883.498 766.181,874.836 767.415,866.174 768.641,857.512 769.838,848.85 770.989,840.188 772.085,831.526 773.126,822.864 774.118,814.202 775.079,805.54 776.029,796.878 776.992,788.216 777.99,779.554 779.042,770.893 780.157,762.231 781.335,753.569 782.564,744.907 783.819,736.245 785.064,727.583 786.256,718.921 787.346,710.259 788.288,701.597 789.042,692.935 789.581,684.273 789.897,675.611 790,666.949 789.919,658.287 789.696,649.625 789.377,640.963 789.004,632.301 788.605,623.639 788.188,614.978 787.742,606.316 787.238,597.654 786.637,588.992 785.904,580.33 785.014,571.668 783.959,563.006 782.756,554.344 781.436,545.682 780.046,537.02 778.63,528.358 777.227,519.696 775.861,511.034 774.539,502.372 773.251,493.71 771.977,485.048 770.694,476.387 769.384,467.725 768.035,459.063 766.65,450.401 765.243,441.739 763.838,433.077 762.464,424.415 761.147,415.753 759.911,407.091 758.773,398.429 757.739,389.767 756.81,381.105 755.977,372.443 755.23,363.781 754.556,355.119 753.943,346.457 753.381,337.796 752.865,329.134 752.393,320.472 751.964,311.81 751.58,303.148 751.244,294.486 750.957,285.824 750.718,277.162 750.524,268.5 750.373,259.838 750.258,251.176 749.742,251.176 749.627,259.838 749.476,268.5 749.282,277.162 749.043,285.824 748.756,294.486 748.42,303.148 748.036,311.81 747.607,320.472 747.135,329.134 746.619,337.796 746.057,346.457 745.444,355.119 744.77,363.781 744.023,372.443 743.19,381.105 742.261,389.767 741.227,398.429 740.089,407.091 738.853,415.753 737.536,424.415 736.162,433.077 734.757,441.739 733.35,450.401 731.965,459.063 730.616,467.725 729.306,476.387 728.023,485.048 726.749,493.71 725.461,502.372 724.139,511.034 722.773,519.696 721.37,528.358 719.954,537.02 718.564,545.682 717.244,554.344 716.041,563.006 714.986,571.668 714.096,580.33 713.363,588.992 712.762,597.654 712.258,606.316 711.812,614.978 711.395,623.639 710.996,632.301 710.623,640.963 710.304,649.625 710.081,658.287 710,666.949 710.103,675.611 710.419,684.273 710.958,692.935 711.712,701.597 712.654,710.259 713.744,718.921 714.936,727.583 716.181,736.245 717.436,744.907 718.665,753.569 719.843,762.231 720.958,770.893 722.01,779.554 723.008,788.216 723.971,796.878 724.921,805.54 725.882,814.202 726.874,822.864 727.915,831.526 729.011,840.188 730.162,848.85 731.359,857.512 732.585,866.174 733.819,874.836 735.04,883.498 736.225,892.16 737.357,900.822 738.423,909.484 739.415,918.145 740.332,926.807 741.177,935.469 741.953,944.131 742.67,952.793 743.336,961.455 743.96,970.117 744.551,978.779 745.114,987.441 745.655,996.103 746.175,1004.76 746.673,1013.43 747.148,1022.09 747.594,1030.75 748.006,1039.41 748.38,1048.07 748.712,1056.74 748.998,1065.4 749.239,1074.06 749.436,1082.72 749.593,1091.38 749.714,1100.05 749.804,1108.71"/><rect stroke="seagreen" stroke-width="1" fill="seagreen" opacity="1" fill-opacity="0.6" x="740" y="567.338" width="20" height="195.646"/><line stroke="seagreen" stroke-width="1" opacity="1" x1="740" y1="664.452" x2="760" y2="664.452"/><line stroke="seagreen" stroke-width="1" opacity="1" x1="750" y1="762.985" x2="750" y2="1011.57"/><line stroke="seagreen" stroke-width="1" opacity="1" x1="750" y1="567.338" x2="750" y2="348.316"/><rect fill="steelblue" fill-opacity="1" x="1008" y="476" width="20" height="8"/><text fill="dimgray" fill-opacity="1" x="1034" y="480" font-size="12" dominant-baseline="central">Group A</text><rect fill="tomato" fill-opacity="1" x="1008" y="496" width="20" height="8"/><text fill="dimgray" fill-opacity="1" x="1034" y="500" font-size="12" dominant-baseline="central">Group B</text><rect fill="seagreen" fill-opacity="1" x="1008" y="516" width="20" height="8"/><text fill="dimgray" fill-opacity="1" x="1034" y="520" font-size="12" dominant-baseline="central">Group C</text><line stroke="dimgray" stroke-width="1" opacity="1" x1="0" y1="1000" x2="1000" y2="1000"/><line stroke="dimgray" stroke-width="1" opacity="1" x1="500" y1="1000" x2="500" y2="1006"/><text fill="dimgray" fill-opacity="1" x="500" y="1008" font-size="12" text-anchor="middle" dominant-baseline="hanging">B</text><line stroke="dimgray" stroke-width="1" opacity="1" x1="0" y1="1000" x2="0" y2="0"/><line stroke="dimgray" stroke-width="1" opacity="1" x1="0" y1="1000" x2="-6" y2="1000"/><text fill="dimgray" fill-opacity="1" x="-10" y="1000" font-size="12" text-anchor="end" dominant-baseline="central">0</text><line stroke="dimgray" stroke-width="1" opacity="1" x1="0" y1="800" x2="-6" y2="800"/><text fill="dimgray" fill-opacity="1" x="-10" y="800" font-size="12" text-anchor="end" dominant-baseline="central">2.6</text><line stroke="dimgray" stroke-width="1" opacity="1" x1="0" y1="600" x2="-6" y2="600"/><text fill="dimgray" fill-opacity="1" x="-10" y="600" font-size="12" text-anchor="end" dominant-baseline="central">5.2</text><line stroke="dimgray" stroke-width="1" opacity="1" x1="0" y1="400" x2="-6" y2="400"/><text fill="dimgray" fill-opacity="1" x="-10" y="400" font-size="12" text-anchor="end" dominant-baseline="central">7.8</text><line stroke="dimgray" stroke-width="1" opacity="1" x1="0" y1="200" x2="-6" y2="200"/><text fill="dimgray" fill-opacity="1" x="-10" y="200" font-size="12" text-anchor="end" dominant-baseline="central">10.4</text><line stroke="dimgray" stroke-width="1" opacity="1" x1="0" y1="0" x2="-6" y2="0"/><text fill="dimgray" fill-opacity="1" x="-10" y="0" font-size="12" text-anchor="end" dominant-baseline="central">13</text><text fill="black" fill-opacity="1" x="500" y="-32" font-size="22" text-anchor="middle" dominant-baseline="hanging">Violin Plot</text></svg>