<svg xmlns="http://www.w3.org/2000/svg" viewBox="-62,-38 1082,1058"><rect fill="white" x="-62" y="-38" width="1082" height="1058"/><line stroke="lightgray" stroke-width="1" opacity="1" x1="166.667" y1="0" x2="166.667" y2="1000"/><line stroke="lightgray" stroke-width="1" opacity="1" x1="333.333" y1="0" x2="333.333" y2="1000"/><line stroke="lightgray" stroke-width="1" opacity="1" x1="500" y1="0" x2="500" y2="1000"/><line stroke="lightgray" stroke-width="1" opacity="1" x1="666.667" y1="0" x2="666.667" y2="1000"/><line stroke="lightgray" stroke-width="1" opacity="1" x1="833.333" y1="0" x2="833.333" y2="1000"/><line stroke="lightgray" stroke-width="1" opacity="1" x1="0" y1="1000" x2="1000" y2="1000"/><line stroke="lightgray" stroke-width="1" opacity="1" x1="0" y1="750" x2="1000" y2="750"/><line stroke="lightgray" stroke-width="1" opacity="1" x1="0" y1="500" x2="1000" y2="500"/><line stroke="lightgray" stroke-width="1" opacity="1" x1="0" y1="250" x2="1000" y2="250"/><line stroke="lightgray" stroke-width="1" opacity="1" x1="0" y1="0" x2="1000" y2="0"/><rect fill="dimgray" fill-opacity="1" x="104.762" y="1000" width="76.1905" height="1"/><rect fill="seagreen" fill-opacity="1" x="223.81" y="776.453" width="76.1905" height="223.547"/><rect fill="seagreen" fill-opacity="1" x="342.857" y="687.034" width="76.1905" height="89.4188"/><rect fill="crimson" fill-opacity="1" x="461.905" y="687.034" width="76.1905" height="158.967"/><rect fill="crimson" fill-opacity="1" x="580.952" y="846.001" width="76.1905" height="119.225"/><rect fill="crimson" fill-opacity="1" x="700" y="965.226" width="76.1905" height="74.5156"/><rect fill="dimgray" fill-opacity="1" x="819.048" y="1000" width="76.1905" height="39.7417"/><line stroke="dimgray" stroke-width="1" opacity="1" fill-opacity="0" stroke-dasharray="6,4" x1="180.952" y1="1000" x2="223.81" y2="1000"/><line stroke="dimgray" stroke-width="1" opacity="1" fill-opacity="0" stroke-dasharray="6,4" x1="300" y1="776.453" x2="342.857" y2="776.453"/><line stroke="dimgray" stroke-width="1" opacity="1" fill-opacity="0" stroke-dasharray="6,4" x1="419.048" y1="687.034" x2="461.905" y2="687.034"/><line stroke="dimgray" stroke-width="1" opacity="1" fill-opacity="0" stroke-dasharray="6,4" x1="538.095" y1="846.001" x2="580.952" y2="846.001"/><line stroke="dimgray" stroke-width="1" opacity="1" fill-opacity="0" stroke-dasharray="6,4" x1="657.143" y1="965.226" x2="700" y2="965.226"/><line stroke="dimgray" stroke-width="1" opacity="1" fill-opacity="0" stroke-dasharray="6,4" x1="776.191" y1="1039.74" x2="819.048" y2="1039.74"/><line stroke="dimgray" stroke-width="1" opacity="1" x1="0" y1="1000" x2="1000" y2="1000"/><line stroke="dimgray" stroke-width="1" opacity="1" x1="166.667" y1="1000" x2="166.667" y2="1006"/><text fill="dimgray" fill-opacity="1" x="166.667" y="1008" font-size="12" text-anchor="middle" dominant-baseline="hanging">Start</text><line stroke="dimgray" stroke-width="1" opacity="1" x1="333.333" y1="1000" x2="333.333" y2="1006"/><text fill="dimgray" fill-opacity="1" x="333.333" y="1008" font-size="12" text-anchor="middle" dominant-baseline="hanging">Product</text><line stroke="dimgray" stroke-width="1" opacity="1" x1="500" y1="1000" x2="500" y2="1006"/><text fill="dimgray" fill-opacity="1" x="500" y="1008" font-size="12" text-anchor="middle" dominant-baseline="hanging">COGS</text><line stroke="dimgray" stroke-width="1" opacity="1" x1="666.667" y1="1000" x2="666.667" y2="1006"/><text fill="dimgray" fill-opacity="1" x="666.667" y="1008" font-size="12" text-anchor="middle" dominant-baseline="hanging">OpEx</text><line stroke="dimgray" stroke-width="1" opacity="1" x1="833.333" y1="1000" x2="833.333" y2="1006"/><text fill="dimgray" fill-opacity="1" x="833.333" y="1008" font-size="12" text-anchor="middle" dominant-baseline="hanging">Research</text><line stroke="dimgray" stroke-width="1" opacity="1" x1="0" y1="1000" x2="0" y2="0"/><line stroke="dimgray" stroke-width="1" opacity="1" x1="0" y1="1000" x2="-6" y2="1000"/><text fill="dimgray" fill-opacity="1" x="-10" y="1000" font-size="12" text-anchor="end" dominant-baseline="central">0</text><line stroke="dimgray" stroke-width="1" opacity="1" x1="0" y1="750" x2="-6" y2="750"/><text fill="dimgray" fill-opacity="1" x="-10" y="750" font-size="12" text-anchor="end" dominant-baseline="central">41.25</text><line stroke="dimgray" stroke-width="1" opacity="1" x1="0" y1="500" x2="-6" y2="500"/><text fill="dimgray" fill-opacity="1" x="-10" y="500" font-size="12" text-anchor="end" dominant-baseline="central">82.5</text><line stroke="dimgray" stroke-width="1" opacity="1" x1="0" y1="250" x2="-6" y2="250"/><text fill="dimgray" fill-opacity="1" x="-10" y="250" font-size="12" text-anchor="end" dominant-baseline="central">123.8</text><line stroke="dimgray" stroke-width="1" opacity="1" x1="0" y1="0" x2="-6" y2="0"/><text fill="dimgray" fill-opacity="1" x="-10" y="0" font-size="12" text-anchor="end" dominant-baseline="central">165</text><text fill="dimgray" fill-opacity="1" transform="rotate(-90,-56,500)" x="-56" y="500" font-size="12" text-anchor="middle" dominant-baseline="central">$M</text><text fill="black" fill-opacity="1" x="500" y="-32" font-size="22" text-anchor="middle" dominant-baseline="hanging">Annual Cash Flow Bridge</text></svg>